<svg xmlns="http://www.w3.org/2000/svg" style="width:0; height:0; visibility:hidden;">
    <symbol id="icon_add" viewBox="0 0 512 512">
        <g id="Add_x40_2x.png"> <g id="XMLID_46_"> <path id="XMLID_47_" class="st0" d="M383.5,244H267.3V127.8c0-6.4-5.2-11.6-11.6-11.6c-6.4,0-11.6,5.2-11.6,11.6V244H127.8
			c-6.4,0-11.6,5.2-11.6,11.6c0,6.4,5.2,11.6,11.6,11.6H244v116.2c0,6.4,5.2,11.6,11.6,11.6c6.4,0,11.6-5.2,11.6-11.6V267.3h116.2
			c6.4,0,11.6-5.2,11.6-11.6C395.1,249.3,389.9,244,383.5,244z M255.7,0C114.5,0,0,114.5,0,255.7s114.5,255.7,255.7,255.7
			c141.2,0,255.7-114.5,255.7-255.7S396.9,0,255.7,0z M255.7,488.1C127.3,488.1,23.2,384,23.2,255.7
			c0-128.4,104.1-232.4,232.4-232.4c128.4,0,232.4,104.1,232.4,232.4C488.1,384,384,488.1,255.7,488.1z"/> </g> </g> 
    </symbol>
    <symbol id="icon_close" viewBox="0 0 512 512">
        <g id="X_x40_2x.png"> <g> <path class="st0" d="M276.2,256.1L507.8,24.5c2.6-2.6,4.2-6.1,4.2-10.1c0-7.8-6.4-14.2-14.2-14.2c-3.9,0-7.5,1.6-10.1,4.2
			L256.1,236L24.5,4.4c-2.6-2.6-6.1-4.2-10.1-4.2C6.6,0.2,0.2,6.6,0.2,14.4c0,3.9,1.6,7.5,4.2,10.1L236,256.1L4.4,487.7
			c-2.6,2.6-4.2,6.1-4.2,10.1c0,7.9,6.4,14.2,14.2,14.2c3.9,0,7.5-1.6,10.1-4.2l231.6-231.6l231.6,231.6c2.6,2.6,6.1,4.2,10.1,4.2
			c7.9,0,14.2-6.4,14.2-14.2c0-3.9-1.6-7.5-4.2-10.1L276.2,256.1z"/> </g> </g> 
    </symbol>
    <symbol id="icon_down" viewBox="0 0 512 512">
        <g id="Square_Outline_Down"> <g id="XMLID_165_"> <path id="XMLID_166_" d="M23.3 186.2H0v46.6h23.3v-46.6zm0 186.2H0V419h23.3v-46.6zm0-93.1H0v46.6h23.3v-46.6zM93.1 512h46.6v-23.3H93.1V512zm-63.5-46.5H4.1c7 19.7 22.7 35.3 42.4 42.3v-25.5c-6.9-4.1-12.8-9.9-16.9-16.8zM4.1 46.5h25.5c4.1-7 9.9-12.8 16.9-16.8V4.3c-19.7 7-35.3 22.6-42.4 42.2zM325.8 0h-46.6v23.3h46.6V0zM23.3 93.1H0v46.6h23.3V93.1zm459.1-46.6h25.5c-7.1-19.7-22.7-35.3-42.4-42.3v25.5c7 4.1 12.8 9.9 16.9 16.8zM232.7 0h-46.6v23.3h46.6V0zm256.1 93.1v46.6H512V93.1h-23.2zm0 325.8H512v-46.6h-23.3v46.6zM372.4 23.3H419V0h-46.6v23.3zm93.1 459v25.5c19.8-7 35.4-22.6 42.4-42.3h-25.5c-4.1 6.9-9.9 12.7-16.9 16.8zm23.3-156.5H512v-46.6h-23.3v46.6zm0-93.1H512v-46.6h-23.3v46.6zM372.4 512H419v-23.3h-46.6V512zM93.1 23.3h46.6V0H93.1v23.3zM279.3 512h46.6v-23.3h-46.6V512zm-93.1 0h46.6v-23.3h-46.6V512zm162.9-232.7c-3.2 0-6.1 1.3-8.2 3.4l-73.2 73.2V128c0-6.4-5.2-11.6-11.6-11.6-6.4 0-11.6 5.2-11.6 11.6v227.9l-73.2-73.2c-2.1-2.1-5-3.4-8.2-3.4-6.4 0-11.6 5.2-11.6 11.6 0 3.2 1.3 6.1 3.4 8.2l93.1 93.1c2.1 2.1 5 3.4 8.2 3.4 3.2 0 6.1-1.3 8.2-3.4l93.1-93.1c2.1-2.1 3.4-5 3.4-8.2-.1-6.4-5.3-11.6-11.8-11.6z" class="st0"/> </g> </g> 
    </symbol>
    <symbol id="icon_eye" viewBox="0 0 512 512">
        <g id="Eye_x40_2x.png"> <g id="XMLID_65_"> <path id="XMLID_66_" class="st0" d="M256.8,215.9c-19.2,0-34.8,15.6-34.8,34.8c0,19.2,15.6,34.8,34.8,34.8
			c19.2,0,34.8-15.6,34.8-34.8C291.6,231.5,276,215.9,256.8,215.9z M256.8,88.2C115.7,88.2,1.3,204.3,1.3,250.8
			s114.4,162.6,255.5,162.6c141.1,0,255.5-116.1,255.5-162.6S397.9,88.2,256.8,88.2z M256.8,390.1c-128.3,0-232.3-99.5-232.3-139.4
			c0-39.8,104-139.4,232.3-139.4c128.3,0,232.3,99.5,232.3,139.4C489.1,290.6,385.1,390.1,256.8,390.1z M256.8,134.7
			c-64.1,0-116.1,52-116.1,116.1c0,64.1,52,116.1,116.1,116.1c64.1,0,116.1-52,116.1-116.1C372.9,186.6,321,134.7,256.8,134.7z
			 M256.8,343.7c-51.3,0-92.9-41.6-92.9-92.9c0-51.3,41.6-92.9,92.9-92.9s92.9,41.6,92.9,92.9C349.7,302.1,308.1,343.7,256.8,343.7z
			"/> </g> </g> 
    </symbol>
    <symbol id="icon_like" viewBox="0 0 513 513">
      <path class="likeBorder" d="m151.6 0c-83.7 0-151.6 67.9-151.6 151.6 0 9.7 1.4996 21.4 1.0996 17.4 16.3 149.7 233 344 255.4 344s239.1-194.3 255.4-344c-0.5 3.9 1.0996-7.7004 1.0996-17.4 0-83.7-67.9-151.6-151.6-151.6-40.8 0-77.7 16.2-104.9 42.4-27.3-26.2-64.2-42.4-104.9-42.4zm-0.0996 23.4c33.2 0 64.699 12.701 88.799 35.801l16.201 15.5 16.199-15.5c24-23.1 55.601-35.801 88.801-35.801 70.7 0 128.2 57.499 128.2 128.2-0.1 8.1-1 14.801-1 14.801-13.6 124.7-188.9 295.1-232.2 321.3-43.3-26.1-218.7-196.6-232.3-321.4 0 0-0.90039-6.7012-0.90039-14.701 0-70.7 57.501-128.2 128.2-128.2z"/><path id="XMLID_36_" d="m490.69 165.65c-13.717 125.77-190.52 297.63-234.19 324.06-43.671-26.324-220.58-198.29-234.29-324.16 0 0-0.90772-6.7574-0.90772-14.826 0-71.306 57.993-129.3 129.3-129.3 33.485 0 65.255 12.809 89.562 36.107l16.339 15.633 16.339-15.633c24.206-23.298 56.077-36.107 89.562-36.107 71.306 0 129.3 57.993 129.3 129.3-0.10084 8.1695-1.0086 14.927-1.0086 14.927z" class="likeFill" fill="none"/>
    </symbol>
    <symbol id="icon_like_fill" viewBox="0 0 513 513">
      <path class="likeBorder" d="m151.6 0c-83.7 0-151.6 67.9-151.6 151.6 0 9.7 1.4996 21.4 1.0996 17.4 16.3 149.7 233 344 255.4 344s239.1-194.3 255.4-344c-0.5 3.9 1.0996-7.7004 1.0996-17.4 0-83.7-67.9-151.6-151.6-151.6-40.8 0-77.7 16.2-104.9 42.4-27.3-26.2-64.2-42.4-104.9-42.4zm-0.0996 23.4c33.2 0 64.699 12.701 88.799 35.801l16.201 15.5 16.199-15.5c24-23.1 55.601-35.801 88.801-35.801 70.7 0 128.2 57.499 128.2 128.2-0.1 8.1-1 14.801-1 14.801-13.6 124.7-188.9 295.1-232.2 321.3-43.3-26.1-218.7-196.6-232.3-321.4 0 0-0.90039-6.7012-0.90039-14.701 0-70.7 57.501-128.2 128.2-128.2z"/><path id="XMLID_36_" d="m490.69 165.65c-13.717 125.77-190.52 297.63-234.19 324.06-43.671-26.324-220.58-198.29-234.29-324.16 0 0-0.90772-6.7574-0.90772-14.826 0-71.306 57.993-129.3 129.3-129.3 33.485 0 65.255 12.809 89.562 36.107l16.339 15.633 16.339-15.633c24.206-23.298 56.077-36.107 89.562-36.107 71.306 0 129.3 57.993 129.3 129.3-0.10084 8.1695-1.0086 14.927-1.0086 14.927z" class="likeFill"/>
    </symbol>
    <symbol id="icon_next" viewBox="-139 51 512 512">
       <g> <path d="M269.3,306.7c0.2,13-4.5,26-14.4,35.9c-2.6,2.6-5.4,4.8-8.4,6.7L47.3,548.5c-9.7,9.7-22.4,14.5-35,14.5s-25.4-4.8-35-14.5
		c-19.4-19.4-19.4-50.8,0-70.1l171.7-171.7L-21.9,135.9c-19.4-19.4-19.4-50.8,0-70.1c19.4-19.4,50.8-19.3,70.1,0l198.3,198.3
		c3,1.9,5.8,4.1,8.4,6.7C264.8,280.7,269.5,293.7,269.3,306.7z"/> </g> 
    </symbol>
    <symbol id="icon_pagin-left" viewBox="0 0 512 512">
        <g id="Left_Arrow_4"> <g id="XMLID_35_"> <path id="XMLID_36_" class="st0" d="M389.5,0c-3.1,0-5.9,1.3-8,3.3l0,0l-256,244.4l0,0c-2.2,2.1-3.6,5.1-3.6,8.4s1.4,6.3,3.6,8.4
			l0,0l256,244.4l0,0c2.1,2,4.9,3.3,8,3.3c6.4,0,11.6-5.2,11.6-11.6V11.6C401.1,5.2,395.9,0,389.5,0z M377.9,473.2L150.4,256
			L377.9,38.8V473.2z"/> </g> </g> 
    </symbol>
    <symbol id="icon_pagin-right" viewBox="0 0 512 512">
        <g id="Right_Arrow_4"> <g id="XMLID_35_"> <path id="XMLID_36_" class="st0" d="M401.9,256c0-3.3-1.4-6.3-3.6-8.4l0,0L142.4,3.2l0,0c-2.1-2-4.9-3.2-8-3.2
			c-6.4,0-11.6,5.2-11.6,11.6v488.6c0,6.4,5.2,11.6,11.6,11.6c3.1,0,5.9-1.3,8-3.2l0,0l256-244.3l0,0
			C400.5,262.2,401.9,259.3,401.9,256z M146,473.1V38.8L373.4,256L146,473.1z"/> </g> </g> 
    </symbol>
    <symbol id="icon_pen-admin" viewBox="0 0 511.98 511.98">
       <g> <g> <path d="M499.174,13.742c-8.634-8.846-20.492-13.805-32.853-13.739c-13.365-0.156-26.238,5.036-35.755,14.421l-86.187,86.187
			L62.78,376.75c-0.431,0.496-0.803,1.04-1.109,1.621c0,0-0.427,0-0.597,0.683L0.913,499.63c-2.108,4.215-0.399,9.341,3.816,11.449
			c2.581,1.291,5.64,1.189,8.13-0.27l114.688-66.389l0.427-0.683c0.357-0.203,0.7-0.431,1.024-0.683l191.147-185.6l6.144,6.144
			c3.328,3.309,8.704,3.309,12.032,0l126.72-127.061c7.638-7.676,9.62-19.329,4.949-29.099l28.245-28.245
			C516.177,61.211,516.592,32.231,499.174,13.742z M28.902,481.795l42.667-84.651l37.717,38.059L28.902,481.795z M301.798,238.51
			l5.973,5.973L123.281,425.049l-42.667-42.667l269.397-264.533l30.208,30.208l-78.421,78.421
			C298.49,229.806,298.49,235.182,301.798,238.51z M332.348,245.422l-6.059-6.059l-6.059-6.059l12.032-12.032l12.032,12.032
			L332.348,245.422z M453.239,124.54c-0.102,0.105-0.207,0.207-0.315,0.306l-96.512,96.512l-12.032-12.032l54.272-54.272
			l42.667-42.667c2.785-2.551,6.916-2.968,10.155-1.024c0.581,0.306,1.125,0.678,1.621,1.109
			C456.466,115.765,456.531,121.168,453.239,124.54z M486.374,67.502l-28.16,28.16h-0.939l-1.365-0.512l-3.243-1.28h-1.365
			c-1.306-0.1-2.619-0.1-3.925,0h-0.597c-1.476-0.128-2.961-0.128-4.437,0h-1.195l-3.157,0.939l-1.451,0.597l-2.816,1.451
			l-1.28,0.768c-1.313,0.88-2.541,1.88-3.669,2.987l-36.267,35.925L362.47,106.67l80.213-80.213
			c6.268-6.117,14.709-9.493,23.467-9.387c7.606,0.049,14.881,3.119,20.224,8.533c5.404,5.489,8.464,12.863,8.533,20.565
			C495.08,54.144,491.999,61.846,486.374,67.502z"/> </g> </g>                
    </symbol>
    <symbol id="icon_pen-fill-admin" viewBox="0 0 511.98 511.98">
       <g> <g> <path d="M499.174,13.742c-8.634-8.846-20.492-13.805-32.853-13.739c-13.365-0.156-26.238,5.036-35.755,14.421l-86.187,86.187
			L62.78,376.75c-0.431,0.496-0.803,1.04-1.109,1.621c0,0-0.427,0-0.597,0.683L0.913,499.63c-2.108,4.215-0.399,9.341,3.816,11.449
			c2.581,1.291,5.64,1.189,8.13-0.27l114.688-66.389l0.427-0.683c0.357-0.203,0.7-0.431,1.024-0.683l191.147-185.6l6.144,6.144
			c3.328,3.309,8.704,3.309,12.032,0l126.72-127.061c7.638-7.676,9.62-19.329,4.949-29.099l28.245-28.245
			C516.177,61.211,516.592,32.231,499.174,13.742z M28.902,481.795l42.667-84.651l37.717,38.059L28.902,481.795z M332.348,245.422
			l-6.059-6.059l-6.059-6.059l12.032-12.032l12.032,12.032L332.348,245.422z M453.239,124.54c-0.102,0.105-0.207,0.207-0.315,0.306
			l-96.512,96.512l-12.032-12.032l54.272-54.272l42.667-42.667c2.785-2.551,6.916-2.968,10.155-1.024
			c0.581,0.306,1.125,0.678,1.621,1.109C456.466,115.765,456.531,121.168,453.239,124.54z"/> </g> </g>                
    </symbol>
    <symbol id="icon_pencil" viewBox="0 0 512 512">
        <g id="Write_x40_2x.png"> <g> <path class="st0" d="M500.4,174.6c-6.4,0-11.6,5.2-11.6,11.6v256c0,25.7-20.8,46.6-46.6,46.6H69.8c-25.7,0-46.6-20.8-46.6-46.6
			V69.8c0-25.7,20.8-46.6,46.6-46.6h256c6.4,0,11.6-5.2,11.6-11.6c0-6.4-5.2-11.6-11.6-11.6h-256C31.3,0,0,31.3,0,69.8v372.4
			c0,38.6,31.3,69.8,69.8,69.8h372.4c38.6,0,69.8-31.3,69.8-69.8v-256C512.1,179.8,506.9,174.6,500.4,174.6z M128,384.1l99.3-17
			L495,99.3c10.5-10.5,17-25.1,17-41.2C512.1,26,486,0,453.9,0c-16.1,0-30.6,6.5-41.1,17L145.1,284.7L128,384.1z M429.2,33.5
			c6.3-6.3,15-10.2,24.7-10.2c19.3,0,34.9,15.6,34.9,34.9c0,9.6-3.9,18.4-10.2,24.7l-15,15l-49.4-49.4L429.2,33.5z M397.7,65
			l49.4,49.4L232.8,328.7v-49.4h-49.4L397.7,65z M166.1,302.6h43.4V346l-52.4,9L166.1,302.6z"/> </g> </g> 
    </symbol>
    <symbol id="icon_phone" viewBox="0 0 512 512">
        <g id="Phone_1_x40_2x.png"> <g id="XMLID_35_"> <path id="XMLID_36_" class="st0" d="M512,407.1h-0.2c0-9.6-3.9-18.4-10.2-24.7c-1.9-1.9-4-3.4-6.2-4.8l-98.5-76.6
			c-6.3-6.3-15-10.2-24.7-10.2c-7.9,0-15.1,2.7-20.9,7.2l-27.5,27.7l-0.1-0.1c-4.3,4.8-10.4,7.8-17.3,7.8c-7.9,0-14.8-3.9-19-9.9
			c-0.1,0.2-0.3,0.4-0.5,0.7c-38-27.6-71.7-60.8-99.3-98.9c0.3-0.2,0.5-0.4,0.8-0.6c-6.1-4.2-10.1-11.2-10.1-19.2
			c0-7.1,3.2-13.4,8.3-17.7l0,0l27.4-27.1c4.4-5.8,7.1-13,7.1-20.9c0-9.6-3.9-18.4-10.2-24.7l-76.6-98.5c-1.4-2.2-3-4.3-4.8-6.2
			C123.1,3.9,114.4,0,104.7,0C58.2,0,0,54.7,0,122.2c0,18.7,4.3,36.3,11.8,52.2l-0.4,0.4c70,139.4,186.4,255.8,325.8,325.8l0.4-0.4
			c15.8,7.5,33.5,11.8,52.2,11.8c67.5,0,122.2-58.2,122.2-104.7C512,407.2,512,407.1,512,407.1z M389.8,488.7
			c-14.6,0-28.8-3.2-42.2-9.6c-1.3-0.6-2.6-1.1-3.9-1.4C211.4,410.2,101.8,300.7,34.3,168.4c-0.4-1.4-0.8-2.7-1.5-4
			c-6.4-13.4-9.6-27.6-9.6-42.2c0-56.4,49.4-98.9,81.5-98.9c4.2,0,7,2.1,8.2,3.4c0.3,0.3,0.8,0.9,1.6,2.1c0.4,0.7,0.9,1.3,1.3,1.9
			l76.6,98.5c0.6,0.8,1.2,1.5,1.9,2.2c1.3,1.3,3.4,4,3.4,8.2c0,2.1-0.6,4-1.7,5.8l-25.9,25.7c-0.1,0.1-0.2,0.2-0.4,0.4
			c-9.4,8.8-14.8,21.1-14.8,33.9c0,12,4.7,23.5,12.8,32.1c0.3,0.5,0.6,0.9,0.9,1.4c28.6,39.5,63.7,74.5,104.5,104.1
			c0.3,0.2,0.6,0.4,1,0.7c8.6,8.2,20.1,13,32.2,13c12.2,0,23.9-4.9,32.6-13.4c0.4-0.4,0.9-0.8,1.3-1.2l26.1-26.3
			c1.8-1.1,3.8-1.7,5.8-1.7c4.2,0,7,2.1,8.2,3.4c0.7,0.7,1.4,1.3,2.2,1.9l98.5,76.6c0.6,0.5,1.3,0.9,2,1.4c1.2,0.8,1.8,1.3,2.1,1.5
			c1.3,1.3,3.4,4,3.4,8.2c0,0.8,0,1.6,0.1,2.3C486.8,441.5,445,488.7,389.8,488.7z"/> </g> </g> 
    </symbol>
    <symbol id="icon_pin" viewBox="0 0 512 512">
        <g id="Location_Pin_1"> <g id="XMLID_58_"> <path id="XMLID_60_" class="st0" d="M262.6,0C159.8,0,76.5,83.3,76.5,186.1c0,151.2,186.1,325.7,186.1,325.7
			s186.1-174.5,186.1-325.7C448.8,83.3,365.4,0,262.6,0z M262.6,477c0,0-162.9-151.2-162.9-290.8c0-90,72.9-162.9,162.9-162.9
			c90,0,162.9,72.9,162.9,162.9C425.5,325.7,262.6,477,262.6,477z M262.6,93.1c-51.4,0-93.1,41.7-93.1,93.1
			c0,51.4,41.7,93.1,93.1,93.1c51.4,0,93.1-41.7,93.1-93.1C355.7,134.7,314,93.1,262.6,93.1z M262.6,255.9
			c-38.5,0-69.8-31.3-69.8-69.8c0-38.5,31.3-69.8,69.8-69.8c38.6,0,69.8,31.3,69.8,69.8C332.4,224.7,301.2,255.9,262.6,255.9z"/> </g> </g> 
    </symbol>
    <symbol id="icon_plaint" viewBox="0 0 512 512">
        <g id="No_Entry_x40_2x.png"> <g id="XMLID_43_"> <path id="XMLID_44_" class="st0" d="M256.1,0C114.6,0,0,114.7,0,256.1c0,141.4,114.6,256.1,256.1,256.1
			c141.4,0,256.1-114.6,256.1-256.1C512.1,114.7,397.5,0,256.1,0z M256.1,488.8c-128.6,0-232.8-104.2-232.8-232.8
			c0-60.1,23-114.7,60.3-156L412,428.5C370.7,465.9,316.1,488.8,256.1,488.8z M428.5,412L100.1,83.6c41.3-37.4,95.9-60.3,156-60.3
			c128.6,0,232.8,104.2,232.8,232.8C488.8,316.2,465.9,370.7,428.5,412z"/> </g> </g> 
    </symbol>
    <symbol id="icon_prev" viewBox="-139 51 512 512">
       <g> <path d="M-22.9,270.8c2.6-2.6,5.4-4.8,8.4-6.7L183.8,65.8c19.3-19.3,50.7-19.3,70.1,0c19.4,19.3,19.4,50.7,0,70.1L83.1,306.7
		l171.7,171.7c19.4,19.3,19.4,50.7,0,70.1c-9.7,9.7-22.4,14.5-35,14.5s-25.4-4.8-35-14.5L-14.5,349.2c-3-1.9-5.8-4.1-8.4-6.7
		c-9.9-9.9-14.7-22.9-14.4-35.9C-37.6,293.7-32.8,280.7-22.9,270.8z"/> </g> 
    </symbol>
    <symbol id="icon_search" viewBox="0 0 512 512">
        <g id="Magnify_Glass_x40_2x.png"> <g id="XMLID_35_"> <path id="XMLID_36_" class="st0" d="M508.4,491.9L385.1,368.6C420.3,329.5,442,277.8,442,221c0-122-98.9-221-221-221
			C98.9,0,0,98.9,0,221c0,122.1,98.9,221,221,221c56.8,0,108.5-21.6,147.7-56.9l123.3,123.3c2.1,2.1,5,3.4,8.2,3.4
			c6.4,0,11.6-5.2,11.6-11.6C511.8,496.9,510.5,494,508.4,491.9z M221,418.7c-109.2,0-197.7-88.5-197.7-197.7S111.8,23.3,221,23.3
			c109.2,0,197.7,88.5,197.7,197.7S330.2,418.7,221,418.7z"/> </g> </g> 
    </symbol>
    <symbol id="icon_star" viewBox="0 0 512 512">
        <g id="Star_x40_2x.png"> <g id="XMLID_35_"> <path id="XMLID_36_" class="st0" d="M512,186.2H325.8L256,0l-69.8,186.2H0l151.3,116.4L81.5,512L256,384l174.5,128l-69.8-209.4
			L512,186.2z M385.3,450l-115.6-84.8L256,355.1l-13.8,10.1L126.7,450l46.7-140.1l5.2-15.7l-13.1-10.1l-97-74.6h133.9l5.7-15.1
			l48-128.1l48,128.1l5.7,15.1h133.9l-97,74.6l-13.1,10.1l5.2,15.7L385.3,450z"/> </g> </g> 
    </symbol>
    <symbol id="icon_top" viewBox="0 0 512 512">
        <g id="Square_Outline_Up"> <g id="XMLID_165_"> <path id="XMLID_166_" d="M23.3 372.3H0v46.5h23.3v-46.5zm69.8 139.6h46.5v-23.3H93.1v23.3zm-63.5-46.6H4.1c7 19.7 22.7 35.2 42.4 42.3v-25.4c-7-4.1-12.8-9.9-16.9-16.9zm-6.3-279.2H0v46.5h23.3v-46.5zM4.1 46.5h25.5c4.1-7 9.9-12.7 16.9-16.8V4.3c-19.7 7-35.3 22.6-42.4 42.2zm19.2 232.7H0v46.5h23.3v-46.5zM482.2 46.5h25.5c-7-19.7-22.7-35.2-42.4-42.3v25.4c7 4.2 12.9 10 16.9 16.9zM325.7 0h-46.5v23.3h46.5V0zm-93 0h-46.5v23.3h46.5V0zM23.3 93.1H0v46.5h23.3V93.1zm465.3 232.6h23.3v-46.5h-23.3v46.5zm0 93.1h23.3v-46.5h-23.3v46.5zm-23.3 63.3v25.4c19.7-7 35.4-22.6 42.4-42.3h-25.5c-4 7.1-9.9 12.9-16.9 16.9zM93.1 23.3h46.5V0H93.1v23.3zm395.5 209.4h23.3v-46.5h-23.3v46.5zm0-139.6v46.5h23.3V93.1h-23.3zM372.3 23.3h46.5V0h-46.5v23.3zM186.1 511.9h46.5v-23.3h-46.5v23.3zm186.2 0h46.5v-23.3h-46.5v23.3zm-93.1 0h46.5v-23.3h-46.5v23.3zm-15-392.2c-2.1-2.1-5-3.4-8.2-3.4-3.2 0-6.1 1.3-8.2 3.4l-93.1 93.1c-2.1 2.1-3.4 5-3.4 8.2 0 6.4 5.2 11.6 11.6 11.6 3.2 0 6.1-1.3 8.2-3.4l73.2-73.2v227.8c0 6.4 5.2 11.6 11.6 11.6 6.4 0 11.6-5.2 11.6-11.6V156l73.2 73.2c2.1 2.1 5 3.4 8.2 3.4 6.4 0 11.6-5.2 11.6-11.6 0-3.2-1.3-6.1-3.4-8.2l-92.9-93.1z" class="st0"/> </g> </g> 
    </symbol>
    <symbol id="icon_user" viewBox="0 0 512 512">
        <g id="User_Male_x40_2x.png"> <g id="XMLID_43_"> <path id="XMLID_44_" class="st0" d="M255.9,0C114.6,0,0,114.6,0,255.9s114.6,255.9,255.9,255.9s255.9-114.6,255.9-255.9
			S397.2,0,255.9,0z M255.9,488.5c-57.9,0-110.7-21.3-151.5-56.3c31.3-27.4,46.3-34.9,80.9-50.2c40.1-17.7,53.7-49.1,37.4-86.1
			c-2.9-6.6-6.3-12.8-9.9-19.3c-12.4-22.3-26.7-47.6-26.7-105.4c0-68.3,32.4-68.9,58.2-69.3c18.3-0.3,27.2-3.5,34.4-6
			c4.8-1.7,7.7-2.7,12.9-2.7c21.5,0,45.3,21.3,45.3,80.9c0,60.2-9,75-22.7,99.5c-3.6,6.4-7.5,13.4-11.7,21.8
			c-8,16.2-9.6,31.5-4.8,45.3c6.2,17.7,22.2,32.1,50.5,45.5c23.2,10.9,47.5,32.3,60.5,44.7C367.8,466.7,314.5,488.5,255.9,488.5z
			 M425.5,414.7c-13.9-13.3-40.7-36.9-67.3-49.6c-22-10.4-34.6-20.9-38.5-32.1c-2.7-7.8-1.5-16.7,3.7-27.3c3.9-8,7.7-14.6,11.1-20.7
			c14.5-25.9,25.7-44.6,25.7-110.9c0-99.2-57.2-104.2-68.6-104.2c-9.3,0-15.1,2.1-20.7,4c-6.1,2.2-12.5,4.4-27,4.7
			c-26.2,0.4-81.1,1.3-81.1,92.6c0,63.8,16.6,93.1,29.7,116.7c3.3,6,6.5,11.7,9,17.4c11.1,25.2,3,42.8-25.5,55.4
			c-36,15.9-53,24.2-88.4,55.4C47.8,374.4,23.3,318,23.3,255.9c0-128.5,104.1-232.6,232.6-232.6s232.6,104.1,232.6,232.6
			C488.5,317.4,464.4,373.1,425.5,414.7z"/> </g> </g> 
    </symbol></svg>