<?xml version="1.0" encoding="utf-8"?>
<!-- Generator: Adobe Illustrator 21.1.0, SVG Export Plug-In . SVG Version: 6.00 Build 0)  -->
<svg version="1.1" id="Слой_1" xmlns="http://www.w3.org/2000/svg" xmlns:xlink="http://www.w3.org/1999/xlink" x="0px" y="0px"
	 viewBox="0 0 256 256" style="enable-background:new 0 0 256 256;" xml:space="preserve">
<style type="text/css">
	.st0{fill:#ABABAB;}
</style>
<g>
	<g>
		<path class="st0" d="M126.8,2.3c-38.6,0-73.1,17.4-96.2,44.8c10.8-0.5,25.2-0.9,44.4-0.9c37.8,0,57,1.4,66.6,2.7
			c5.6,0.7,10.6,4.2,13.3,9.2l16,29.3h4.5c0.2-2.6,2.3-4.7,5-4.7h0.1c6.7,0,12.7,4.1,15.1,10.3v0c0.6,1.7-0.6,3.4-2.4,3.4h-12.5
			c13.1,7.8,21.9,22.1,21.9,38.4v31.7c0,11.8-9.6,21.4-21.4,21.4h-19c-5.6,0-10.9-1.6-15.5-4.5c-2.2,3.6-6.1,5.8-10.4,5.8H16.7
			C38.2,227.8,79.4,254,126.8,254c69.5,0,125.9-56.3,125.9-125.9C252.6,58.6,196.3,2.3,126.8,2.3z M199,199.3
			c0,6-4.8,10.8-10.8,10.8h-16.8c-6,0-10.8-4.8-10.8-10.8v-6.3H199V199.3z"/>
		<path class="st0" d="M163.5,86.1l-13.8-25.3c-1.8-3.3-5.2-5.6-8.9-6.1c-9.1-1.2-27.9-2.6-65.8-2.6c-22.5,0-38.3,0.5-49.3,1.2
			C17.5,64.1,11.2,76.4,6.9,89.7h154.5C163.2,89.7,164.4,87.7,163.5,86.1z"/>
		<path class="st0" d="M157.2,163.1c-2.6,0-4.5,2.5-3.7,5c2.1,6.1,7.9,10.5,14.7,10.5H184c3.1,0,5.5-2.5,5.5-5.5v-4.4
			c0-3.1-2.5-5.5-5.5-5.5H157.2z"/>
		<path class="st0" d="M32.6,161.2c-2,0-3.2,2.1-2.3,3.8l0.7,1.3c1.4,2.8,4.3,4.6,7.5,4.6h73c3.2,0,6-1.8,7.5-4.6l0.7-1.3
			c0.9-1.7-0.4-3.8-2.3-3.8H32.6z"/>
	</g>
	<g>
		<path class="st0" d="M28.9,143h-5.5v-11.4H12.8V143H7.4v-26.5h5.5v10.7h10.6v-10.7h5.5V143z"/>
		<path class="st0" d="M49.6,131.5H39.1v7.1h12.3v4.4H33.7v-26.5h17.7v4.4H39.1v6.3h10.5V131.5z"/>
		<path class="st0" d="M74.9,120.9h-8.1V143h-5.5v-22.1h-8v-4.4h21.6V120.9z"/>
		<path class="st0" d="M101.8,118.9L101.8,118.9c1.7,0,3.2,0.3,4.6,0.8c1.4,0.5,2.6,1.3,3.5,2.2c1,1,1.8,2.1,2.3,3.5
			c0.6,1.4,0.8,2.9,0.8,4.5c0,1.6-0.3,3.1-0.8,4.4c-0.6,1.3-1.3,2.5-2.3,3.4c-1,0.9-2.2,1.7-3.5,2.2c-1.4,0.5-2.9,0.8-4.5,0.8h-0.1
			v3.4h-5.3v-3.4h-0.1c-1.6,0-3.1-0.3-4.5-0.8c-1.4-0.5-2.6-1.2-3.5-2.2c-1-0.9-1.8-2.1-2.3-3.4c-0.6-1.3-0.8-2.8-0.8-4.4
			c0-1.7,0.3-3.2,0.8-4.5c0.6-1.4,1.3-2.5,2.3-3.5c1-1,2.2-1.7,3.5-2.2c1.4-0.5,2.9-0.8,4.5-0.8h0.1v-3.5h5.3V118.9z M96.4,123.4
			c-0.9,0-1.8,0.1-2.5,0.4c-0.7,0.3-1.4,0.7-1.9,1.2c-0.5,0.5-0.9,1.2-1.2,2c-0.3,0.8-0.4,1.8-0.4,2.8c0,1,0.1,1.9,0.4,2.7
			c0.3,0.8,0.7,1.4,1.2,1.9c0.5,0.5,1.2,0.9,1.9,1.2s1.6,0.4,2.5,0.4h0.1v-12.8H96.4z M101.8,123.4v12.8h0.1c0.9,0,1.8-0.1,2.5-0.4
			c0.7-0.3,1.4-0.7,1.9-1.2s0.9-1.2,1.2-2s0.4-1.7,0.4-2.7c0-1.1-0.1-2-0.4-2.8c-0.3-0.8-0.7-1.5-1.2-2c-0.5-0.5-1.2-1-1.9-1.2
			s-1.6-0.4-2.5-0.4H101.8z"/>
		<path class="st0" d="M138.4,130.3c0,2-0.3,3.8-0.8,5.4c-0.5,1.6-1.3,3-2.3,4.1c-1,1.1-2.2,2-3.6,2.6c-1.4,0.6-2.9,0.9-4.6,0.9
			c-1.7,0-3.2-0.3-4.6-0.9c-1.4-0.6-2.6-1.5-3.6-2.6c-1-1.1-1.8-2.5-2.3-4.1c-0.6-1.6-0.8-3.4-0.8-5.4v-1.2c0-2,0.3-3.8,0.8-5.4
			c0.6-1.6,1.3-3,2.3-4.1c1-1.1,2.2-2,3.6-2.6s2.9-0.9,4.6-0.9c1.7,0,3.2,0.3,4.6,0.9c1.4,0.6,2.6,1.5,3.6,2.6
			c1,1.1,1.8,2.5,2.3,4.1c0.6,1.6,0.8,3.4,0.8,5.4V130.3z M132.9,129.1c0-2.8-0.5-4.9-1.5-6.3c-1-1.4-2.4-2.2-4.3-2.2
			s-3.3,0.7-4.3,2.2c-1,1.4-1.5,3.6-1.5,6.3v1.2c0,1.4,0.1,2.6,0.4,3.7c0.3,1.1,0.6,2,1.1,2.7s1.1,1.3,1.8,1.6
			c0.7,0.4,1.5,0.6,2.5,0.6c1.8,0,3.3-0.7,4.2-2.2s1.5-3.6,1.5-6.3V129.1z"/>
		<path class="st0" d="M160.8,120.9h-8.1V143h-5.5v-22.1h-8v-4.4h21.6V120.9z"/>
		<path class="st0" d="M185.1,130.3c0,2-0.3,3.8-0.8,5.4c-0.5,1.6-1.3,3-2.3,4.1c-1,1.1-2.2,2-3.6,2.6c-1.4,0.6-2.9,0.9-4.6,0.9
			s-3.2-0.3-4.6-0.9c-1.4-0.6-2.6-1.5-3.6-2.6c-1-1.1-1.8-2.5-2.3-4.1c-0.6-1.6-0.8-3.4-0.8-5.4v-1.2c0-2,0.3-3.8,0.8-5.4
			c0.6-1.6,1.3-3,2.3-4.1c1-1.1,2.2-2,3.6-2.6c1.4-0.6,2.9-0.9,4.6-0.9s3.2,0.3,4.6,0.9c1.4,0.6,2.6,1.5,3.6,2.6
			c1,1.1,1.8,2.5,2.3,4.1c0.6,1.6,0.8,3.4,0.8,5.4V130.3z M179.6,129.1c0-2.8-0.5-4.9-1.5-6.3c-1-1.4-2.4-2.2-4.3-2.2
			c-1.8,0-3.3,0.7-4.3,2.2c-1,1.4-1.5,3.6-1.5,6.3v1.2c0,1.4,0.1,2.6,0.4,3.7c0.3,1.1,0.6,2,1.1,2.7c0.5,0.7,1.1,1.3,1.8,1.6
			c0.7,0.4,1.5,0.6,2.5,0.6c1.8,0,3.3-0.7,4.2-2.2s1.5-3.6,1.5-6.3V129.1z"/>
	</g>
</g>
</svg>
