<svg width="452" height="611" viewBox="0 0 452 611" fill="none" xmlns="http://www.w3.org/2000/svg">
  <path d="M86.9893 489.076C94.3865 443.464 133.139 426.809 151.591 424.183L184.683 443.866L90.1827 607.545C75.2815 533.355 92.3743 491.416 102.783 479.72C93.9042 482.099 86.9893 489.076 86.9893 489.076Z" fill="#FAD74A"/>
  <path d="M115.421 475.469C130.942 443.785 151.67 431.35 160.094 429.093L185.209 443.593L121.459 554.011C103.332 524.608 116.634 486.369 125.55 470.925C120.336 471.956 120.952 472.889 115.421 475.469Z" fill="white"/>
  <path d="M194.078 550.904C229.881 521.692 224.928 479.804 217.976 462.511L184.385 443.694L89.8847 607.373C161.586 583.183 189.36 547.41 194.284 532.548C196.663 541.427 194.078 550.904 194.078 550.904Z" fill="#E19905"/>
  <path d="M191.944 519.65C211.623 490.366 212.028 466.197 209.771 457.774L184.656 443.273L120.906 553.692C155.433 554.689 181.898 524.05 190.815 508.606C192.529 513.637 191.413 513.57 191.944 519.65Z" fill="#FBEC86"/>
  <rect x="148.504" y="395.843" width="110" height="29" transform="rotate(30 148.504 395.843)" fill="#0B3041"/>
  <path d="M263.722 454.281L342.403 375C409.05 477.565 311.757 572.081 300.695 577.241C309.321 523.101 279.64 472.709 263.722 454.281Z" fill="#FB8B5F"/>
  <path d="M134.838 379.87L164.156 272.089C42.0094 265.654 8.80234 397.17 9.86452 409.33C52.4386 374.79 110.919 375.298 134.838 379.87Z" fill="#D0241C"/>
  <path d="M247.444 473.173C469.082 281.284 459.467 86.9393 438.688 3.92873C212.91 78.1884 138.021 302.033 128.798 404.673C140.503 403.733 170.582 405.703 197.255 421.103C223.929 436.503 241.828 462.233 247.444 473.173Z" fill="#0286A6"/>
  <path d="M127.942 404.179C183.303 116.29 356.419 27.4446 438.697 3.93407C487.276 236.594 330.865 413.372 246.587 472.679C241.549 462.072 224.804 437.008 198.13 421.608C171.457 406.208 140.224 403.572 127.942 404.179Z" fill="#0286A6"/>
  <mask id="mask0_353_2234" style="mask-type:alpha" maskUnits="userSpaceOnUse" x="127" y="3" width="322" height="471">
    <path d="M247.444 473.173C469.082 281.284 459.467 86.9393 438.688 3.92873C212.91 78.1884 138.021 302.033 128.798 404.673C140.503 403.733 170.582 405.703 197.255 421.103C223.929 436.503 241.828 462.233 247.444 473.173Z" fill="#0286A6"/>
    <path d="M127.942 404.179C183.303 116.29 356.419 27.4446 438.697 3.93407C487.276 236.594 330.865 413.372 246.587 472.679C241.549 462.072 224.804 437.008 198.13 421.608C171.457 406.208 140.224 403.572 127.942 404.179Z" fill="#0286A6"/>
  </mask>
  <g mask="url(#mask0_353_2234)">
    <path d="M294.395 70.1542L436.86 -15.6025L477.084 45.7263L445.516 157.404L370.391 106.525L313.88 81.4042L294.395 70.1542Z" fill="url(#paint0_linear_353_2234)"/>
    <path d="M379.885 105.079C340.914 82.5789 308.335 73.0071 308.335 73.0071L299.371 80.5333C299.371 80.5333 335.414 92.1051 374.385 114.605C413.356 137.105 441.951 163.13 441.951 163.13L444.01 151.405C444.01 151.405 418.856 127.579 379.885 105.079Z" fill="#17606A"/>
    <path opacity="0.15" d="M213.072 436.008C345.645 290.385 418.761 87.0998 438.688 3.91901L460.322 7.7587L487.485 230.71L312.361 506.035C224.026 543.369 80.4988 581.632 213.072 436.008Z" fill="white"/>
    <path opacity="0.1" d="M238.267 460.37C430.788 289.313 452.374 84.5697 438.696 3.92676L492.722 57.6414L406.538 414.915C270.231 501.34 45.7458 631.426 238.267 460.37Z" fill="white"/>
    <path opacity="0.15" d="M154.012 412.303C187.598 190.13 325.869 58.3042 390.806 20.1629L275.987 -85.9651L-6.22559 338.842C33.1928 455.901 120.426 634.475 154.012 412.303Z" fill="#222222"/>
  </g>
  <path d="M152.885 498.254L270.885 293.872C273.081 302.068 266.897 367.78 238.147 417.576C215.147 457.414 171.722 487.961 152.885 498.254Z" fill="#FB8B5F"/>
  <path d="M152.885 498.254L270.885 293.872C262.689 296.068 208.873 334.28 180.123 384.076C157.123 423.914 152.381 476.794 152.885 498.254Z" fill="#CF231C"/>
  <circle cx="318.671" cy="203.105" r="66" transform="rotate(30 318.671 203.105)" fill="#284F54"/>
  <circle cx="324.136" cy="201.641" r="63" transform="rotate(30 324.136 201.641)" fill="#E55E5A"/>
  <circle cx="324.136" cy="201.641" r="63" transform="rotate(30 324.136 201.641)" fill="url(#paint1_linear_353_2234)"/>
  <circle cx="324.136" cy="201.641" r="48" transform="rotate(30 324.136 201.641)" fill="#680500"/>
  <mask id="mask1_353_2234" style="mask-type:alpha" maskUnits="userSpaceOnUse" x="276" y="153" width="97" height="97">
    <circle cx="324.136" cy="201.641" r="48" transform="rotate(30 324.136 201.641)" fill="#671427"/>
  </mask>
  <g mask="url(#mask1_353_2234)">
    <circle opacity="0.15" cx="226.844" cy="240.155" r="95" transform="rotate(30 226.844 240.155)" fill="white"/>
  </g>
  <defs>
    <linearGradient id="paint0_linear_353_2234" x1="323" y1="80.7537" x2="443.5" y2="50.7537" gradientUnits="userSpaceOnUse">
      <stop stop-color="#D7271D"/>
      <stop offset="1" stop-color="#FB895D"/>
    </linearGradient>
    <linearGradient id="paint1_linear_353_2234" x1="282.85" y1="260.204" x2="358.486" y2="199.344" gradientUnits="userSpaceOnUse">
      <stop stop-color="#D7271D"/>
      <stop offset="1" stop-color="#FB895D"/>
    </linearGradient>
  </defs>
</svg>
