<svg width="460" height="334" viewBox="0 0 460 334" fill="none" xmlns="http://www.w3.org/2000/svg">
  <g clip-path="url(#clip0_499_17489)">
    <rect x="1" y="1" width="458" height="332" fill="white"/>
    <circle cx="412" cy="16" r="3" fill="#C4C4C4"/>
    <circle cx="422" cy="16" r="3" fill="#C4C4C4"/>
    <circle cx="432" cy="16" r="3" fill="#C4C4C4"/>
    <rect x="24" y="39" width="411" height="84" rx="4" fill="#F5F5F5"/>
    <rect x="136" y="51" width="94" height="16" fill="#CC0033"/>
    <rect x="136" y="79" width="190" height="4" fill="#CC0033"/>
    <rect x="136" y="87" width="167" height="4" fill="#CC0033"/>
    <rect x="136" y="99" width="190" height="4" fill="#CC0033"/>
    <rect x="136" y="107" width="167" height="4" fill="#CC0033"/>
    <rect x="379" y="107" width="32" height="4" fill="#CC0033"/>
    <rect x="367" y="51" width="44" height="4" fill="#CC0033"/>
    <rect x="24" y="39" width="96" height="84" rx="4" fill="#CC0033"/>
    <path fill-rule="evenodd" clip-rule="evenodd" d="M55.9066 75.3816C56.9021 73.2662 57.8354 71.0263 59.0176 68.5997C59.6398 67.4798 60.4486 66.4221 61.7553 66.2976H82.2254C83.5942 66.4221 84.3408 67.4798 85.0253 68.5997C86.2074 71.0263 87.1407 73.2662 88.1362 75.3816H55.9066ZM61.7553 63C59.5776 63 58.2088 63.8089 56.4044 66.3598L53.3556 73.204H48.6892C48.0048 73.204 46.6982 76.9993 51.5513 77.1238L49.9336 81.1058C49.9336 86.0833 49.9958 91.1231 49.9958 96.1006C49.9958 97.1584 50.8047 97.9672 51.8624 97.9672H58.1465C59.2043 97.9672 60.0131 97.1584 60.0131 96.1006V91.932H83.9675V96.1006C83.9675 97.1584 84.8386 97.9672 85.8341 97.9672H92.1805C93.2382 97.9672 94.047 97.1584 94.047 96.1006C94.047 91.1231 94.1093 86.0833 94.1093 81.1058L92.4293 77.1238C97.3447 76.9993 95.9758 73.204 95.2914 73.204H90.625L87.6385 66.3598C85.7719 63.8089 84.4653 63 82.2254 63H61.7553ZM87.2029 81.4169C85.523 81.4169 84.1542 82.7857 84.1542 84.4656C84.1542 86.1456 85.523 87.5144 87.2029 87.5144C88.8829 87.5144 90.2517 86.1456 90.2517 84.4656C90.2517 82.7857 88.8829 81.4169 87.2029 81.4169ZM56.7777 81.4169C58.4576 81.4169 59.8265 82.7857 59.8265 84.4656C59.8265 86.1456 58.4576 87.5144 56.7777 87.5144C55.0978 87.5144 53.729 86.1456 53.729 84.4656C53.729 82.7857 55.0978 81.4169 56.7777 81.4169Z" fill="white"/>
    <rect x="24" y="131" width="411" height="84" rx="4" fill="#F5F5F5"/>
    <rect x="136" y="143" width="94" height="16" fill="#D6D6D6"/>
    <rect x="136" y="171" width="190" height="4" fill="#D6D6D6"/>
    <rect x="136" y="179" width="167" height="4" fill="#D6D6D6"/>
    <rect x="136" y="191" width="190" height="4" fill="#D6D6D6"/>
    <rect x="136" y="199" width="167" height="4" fill="#D6D6D6"/>
    <rect x="379" y="199" width="32" height="4" fill="#D6D6D6"/>
    <rect x="367" y="143" width="44" height="4" fill="#D6D6D6"/>
    <rect x="24" y="131" width="96" height="84" rx="4" fill="#D6D6D6"/>
    <g opacity="0.65">
      <path d="M88.3318 169.942C88.3318 169.453 88.3318 169.09 88.3318 168.733C88.3256 168.297 88.1509 167.88 87.8442 167.569C87.5376 167.259 87.1227 167.079 86.6866 167.068H86.055C85.3358 167.103 84.6561 167.407 84.1503 167.92C83.3228 165.888 82.2799 163.592 81.6581 162.671C81.1959 162.042 80.61 161.515 79.9363 161.121C79.2627 160.727 78.5157 160.474 77.741 160.38C75.8409 160.09 73.9191 159.967 71.9976 160.012V160.012C70.1371 159.974 68.2767 160.091 66.4354 160.36L58.944 152.869C63.5539 149.876 69.0516 148.557 74.5176 149.132C79.9836 149.707 85.0865 152.141 88.9729 156.027C92.8592 159.914 95.2934 165.016 95.8683 170.482C96.4433 175.948 95.124 181.446 92.1313 186.056L87.2056 181.13V176.136C87.2414 174.677 86.8296 173.241 86.0256 172.023C85.9473 171.906 85.864 171.788 85.7759 171.675H86.6083C87.0643 171.667 87.499 171.481 87.8206 171.157C88.1422 170.834 88.3255 170.398 88.3318 169.942ZM51.864 159.949L48.7401 156.845C48.2681 156.375 48.0018 155.737 48 155.072C47.9982 154.406 48.2609 153.767 48.7303 153.295C49.1997 152.823 49.8375 152.556 50.5032 152.555C51.1689 152.553 51.8081 152.815 52.2801 153.285L55.0319 156.037L62.0777 163.082L84.9876 185.992L86.7405 187.745L91.7151 192.72C92.1846 193.192 92.4473 193.831 92.4454 194.497C92.4436 195.163 92.1774 195.8 91.7053 196.27C91.2333 196.739 90.5941 197.002 89.9284 197C89.2627 196.998 88.6249 196.732 88.1555 196.26L85.0268 193.131C80.4169 196.108 74.9258 197.415 69.4691 196.834C64.0123 196.253 58.9197 193.818 55.0406 189.937C51.1614 186.055 48.73 180.961 48.152 175.504C47.5739 170.047 48.884 164.557 51.864 159.949V159.949ZM55.6635 169.942C55.6747 170.394 55.8595 170.824 56.1796 171.143C56.4996 171.462 56.9303 171.646 57.3821 171.656H58.2145C58.1264 171.769 58.048 171.886 57.9648 172.004C57.169 173.231 56.769 174.674 56.819 176.136V184.264C56.819 184.716 56.9986 185.149 57.3181 185.469C57.6376 185.788 58.071 185.968 58.523 185.968H60.7263C61.1731 185.96 61.599 185.777 61.9122 185.459C62.2254 185.14 62.4009 184.711 62.4008 184.264V183.006H74.9354L59.6099 167.695C59.1448 167.304 58.5622 167.08 57.955 167.058H57.3234C56.8847 167.066 56.4661 167.244 56.1563 167.555C55.8465 167.865 55.6698 168.284 55.6635 168.723C55.6586 169.085 55.6586 169.472 55.6684 169.942H55.6635Z" fill="#F5F5F5"/>
    </g>
    <rect x="24" y="223" width="411" height="84" rx="4" fill="#F5F5F5"/>
    <rect x="136" y="235" width="94" height="16" fill="#D6D6D6"/>
    <rect x="136" y="263" width="190" height="4" fill="#D6D6D6"/>
    <rect x="136" y="271" width="167" height="4" fill="#D6D6D6"/>
    <rect x="136" y="283" width="190" height="4" fill="#D6D6D6"/>
    <rect x="136" y="291" width="167" height="4" fill="#D6D6D6"/>
    <rect x="379" y="291" width="32" height="4" fill="#D6D6D6"/>
    <rect x="367" y="235" width="44" height="4" fill="#D6D6D6"/>
    <rect x="24" y="223" width="96" height="84" rx="4" fill="#D6D6D6"/>
    <g opacity="0.65">
      <path d="M88.3318 261.942C88.3318 261.453 88.3318 261.09 88.3318 260.733C88.3256 260.297 88.1509 259.88 87.8442 259.569C87.5376 259.259 87.1227 259.079 86.6866 259.068H86.055C85.3358 259.103 84.6561 259.407 84.1503 259.92C83.3228 257.888 82.2799 255.592 81.6581 254.671C81.1959 254.042 80.61 253.515 79.9363 253.121C79.2627 252.727 78.5157 252.474 77.741 252.38C75.8409 252.09 73.9191 251.967 71.9976 252.012V252.012C70.1371 251.974 68.2767 252.091 66.4354 252.36L58.944 244.869C63.5539 241.876 69.0516 240.557 74.5176 241.132C79.9836 241.707 85.0865 244.141 88.9729 248.027C92.8592 251.913 95.2934 257.016 95.8683 262.482C96.4433 267.948 95.124 273.446 92.1313 278.056L87.2056 273.13V268.136C87.2414 266.677 86.8296 265.241 86.0256 264.023C85.9473 263.906 85.864 263.788 85.7759 263.675H86.6083C87.0643 263.667 87.499 263.481 87.8206 263.157C88.1422 262.834 88.3255 262.398 88.3318 261.942ZM51.864 251.949L48.7401 248.844C48.2681 248.375 48.0018 247.737 48 247.072C47.9982 246.406 48.2609 245.767 48.7303 245.295C49.1997 244.823 49.8375 244.556 50.5032 244.555C51.1689 244.553 51.8081 244.815 52.2801 245.285L55.0319 248.037L62.0777 255.082L84.9876 277.992L86.7405 279.745L91.7151 284.72C92.1846 285.192 92.4473 285.831 92.4454 286.497C92.4436 287.163 92.1774 287.8 91.7053 288.27C91.2333 288.739 90.5941 289.002 89.9284 289C89.2627 288.998 88.6249 288.732 88.1555 288.26L85.0268 285.131C80.4169 288.108 74.9258 289.415 69.4691 288.834C64.0123 288.253 58.9197 285.818 55.0406 281.937C51.1614 278.055 48.73 272.961 48.152 267.504C47.5739 262.047 48.884 256.557 51.864 251.949V251.949ZM55.6635 261.942C55.6747 262.394 55.8595 262.824 56.1796 263.143C56.4996 263.462 56.9303 263.646 57.3821 263.656H58.2145C58.1264 263.768 58.048 263.886 57.9648 264.004C57.169 265.231 56.769 266.674 56.819 268.136V276.264C56.819 276.716 56.9986 277.149 57.3181 277.469C57.6376 277.788 58.071 277.968 58.523 277.968H60.7263C61.1731 277.96 61.599 277.777 61.9122 277.458C62.2254 277.14 62.4009 276.711 62.4008 276.264V275.006H74.9354L59.6099 259.695C59.1448 259.304 58.5622 259.08 57.955 259.058H57.3234C56.8847 259.066 56.4661 259.244 56.1563 259.555C55.8465 259.865 55.6698 260.284 55.6635 260.723C55.6586 261.085 55.6586 261.472 55.6684 261.942H55.6635Z" fill="#F5F5F5"/>
    </g>
    <rect x="24" y="315" width="411" height="84" rx="4" fill="#F5F5F5"/>
    <rect x="136" y="327" width="94" height="16" fill="#D6D6D6"/>
    <rect x="367" y="327" width="44" height="4" fill="#D6D6D6"/>
    <rect x="24" y="315" width="96" height="84" rx="4" fill="#D6D6D6"/>
    <g opacity="0.65">
      <path d="M88.3318 353.942C88.3318 353.453 88.3318 353.09 88.3318 352.733C88.3256 352.297 88.1509 351.88 87.8442 351.569C87.5376 351.259 87.1227 351.079 86.6866 351.068H86.055C85.3358 351.103 84.6561 351.407 84.1503 351.92C83.3228 349.888 82.2799 347.592 81.6581 346.671C81.1959 346.042 80.61 345.515 79.9363 345.121C79.2627 344.727 78.5157 344.474 77.741 344.38C75.8409 344.09 73.9191 343.967 71.9976 344.012V344.012C70.1371 343.974 68.2767 344.091 66.4354 344.36L58.944 336.869C63.5539 333.876 69.0516 332.557 74.5176 333.132C79.9836 333.707 85.0865 336.141 88.9729 340.027C92.8592 343.913 95.2934 349.016 95.8683 354.482C96.4433 359.948 95.124 365.446 92.1313 370.056L87.2056 365.13V360.136C87.2414 358.677 86.8296 357.241 86.0256 356.023C85.9473 355.906 85.864 355.788 85.7759 355.675H86.6083C87.0643 355.667 87.499 355.481 87.8206 355.157C88.1422 354.834 88.3255 354.398 88.3318 353.942ZM51.864 343.949L48.7401 340.844C48.2681 340.375 48.0018 339.737 48 339.072C47.9982 338.406 48.2609 337.767 48.7303 337.295C49.1997 336.823 49.8375 336.556 50.5032 336.555C51.1689 336.553 51.8081 336.815 52.2801 337.285L55.0319 340.037L62.0777 347.082L84.9876 369.992L86.7405 371.745L91.7151 376.72C92.1846 377.192 92.4473 377.831 92.4454 378.497C92.4436 379.163 92.1774 379.8 91.7053 380.27C91.2333 380.739 90.5941 381.002 89.9284 381C89.2627 380.998 88.6249 380.732 88.1555 380.26L85.0268 377.131C80.4169 380.108 74.9258 381.415 69.4691 380.834C64.0123 380.253 58.9197 377.818 55.0406 373.937C51.1614 370.055 48.73 364.961 48.152 359.504C47.5739 354.047 48.884 348.557 51.864 343.949V343.949ZM55.6635 353.942C55.6747 354.394 55.8595 354.824 56.1796 355.143C56.4996 355.462 56.9303 355.646 57.3821 355.656H58.2145C58.1264 355.768 58.048 355.886 57.9648 356.004C57.169 357.231 56.769 358.674 56.819 360.136V368.264C56.819 368.716 56.9986 369.149 57.3181 369.469C57.6376 369.788 58.071 369.968 58.523 369.968H60.7263C61.1731 369.96 61.599 369.777 61.9122 369.458C62.2254 369.14 62.4009 368.711 62.4008 368.264V367.006H74.9354L59.6099 351.695C59.1448 351.304 58.5622 351.08 57.955 351.058H57.3234C56.8847 351.066 56.4661 351.244 56.1563 351.555C55.8465 351.865 55.6698 352.284 55.6635 352.723C55.6586 353.085 55.6586 353.472 55.6684 353.942H55.6635Z" fill="#F5F5F5"/>
    </g>
    <path d="M27.2539 16.0469L30.125 23.6758L32.9893 16.0469H35.2246V26H33.502V22.7188L33.6729 18.3301L30.7334 26H29.4961L26.5635 18.3369L26.7344 22.7188V26H25.0117V16.0469H27.2539ZM37.2754 26V16.0469H40.6865C41.8122 16.0469 42.6689 16.2725 43.2568 16.7236C43.8447 17.1748 44.1387 17.847 44.1387 18.7402C44.1387 19.196 44.0156 19.6061 43.7695 19.9707C43.5234 20.3353 43.1634 20.6178 42.6895 20.8184C43.2272 20.9642 43.6419 21.2399 43.9336 21.6455C44.2298 22.0465 44.3779 22.5296 44.3779 23.0947C44.3779 24.029 44.0771 24.7467 43.4756 25.248C42.8786 25.7493 42.0218 26 40.9053 26H37.2754ZM39.0049 21.5088V24.6191H40.9258C41.4681 24.6191 41.8919 24.4847 42.1973 24.2158C42.5026 23.9469 42.6553 23.5732 42.6553 23.0947C42.6553 22.0602 42.1266 21.5316 41.0693 21.5088H39.0049ZM39.0049 20.2373H40.7002C41.238 20.2373 41.6572 20.1165 41.958 19.875C42.2633 19.6289 42.416 19.2826 42.416 18.8359C42.416 18.3438 42.2747 17.9883 41.9922 17.7695C41.7142 17.5508 41.279 17.4414 40.6865 17.4414H39.0049V20.2373ZM47.9326 26H46.21V16.0469H47.9326V26ZM50.0586 26V16.0469H53.4697C54.5954 16.0469 55.4521 16.2725 56.04 16.7236C56.6279 17.1748 56.9219 17.847 56.9219 18.7402C56.9219 19.196 56.7988 19.6061 56.5527 19.9707C56.3066 20.3353 55.9466 20.6178 55.4727 20.8184C56.0104 20.9642 56.4251 21.2399 56.7168 21.6455C57.013 22.0465 57.1611 22.5296 57.1611 23.0947C57.1611 24.029 56.8604 24.7467 56.2588 25.248C55.6618 25.7493 54.805 26 53.6885 26H50.0586ZM51.7881 21.5088V24.6191H53.709C54.2513 24.6191 54.6751 24.4847 54.9805 24.2158C55.2858 23.9469 55.4385 23.5732 55.4385 23.0947C55.4385 22.0602 54.9098 21.5316 53.8525 21.5088H51.7881ZM51.7881 20.2373H53.4834C54.0212 20.2373 54.4404 20.1165 54.7412 19.875C55.0465 19.6289 55.1992 19.2826 55.1992 18.8359C55.1992 18.3438 55.0579 17.9883 54.7754 17.7695C54.4974 17.5508 54.0622 17.4414 53.4697 17.4414H51.7881V20.2373ZM59.7656 24.25C60.0755 24.25 60.3148 24.3389 60.4834 24.5166C60.652 24.6898 60.7363 24.9085 60.7363 25.1729C60.7363 25.4326 60.652 25.6491 60.4834 25.8223C60.3148 25.9909 60.0755 26.0752 59.7656 26.0752C59.4694 26.0752 59.2347 25.9909 59.0615 25.8223C58.8883 25.6536 58.8018 25.4372 58.8018 25.1729C58.8018 24.9085 58.8861 24.6898 59.0547 24.5166C59.2233 24.3389 59.4603 24.25 59.7656 24.25ZM66.458 22.165H64.5303V26H62.8008V16.0469H66.3008C67.4492 16.0469 68.3356 16.3044 68.96 16.8193C69.5843 17.3343 69.8965 18.0794 69.8965 19.0547C69.8965 19.7201 69.7347 20.2783 69.4111 20.7295C69.0921 21.1761 68.6455 21.5202 68.0713 21.7617L70.3066 25.9111V26H68.4541L66.458 22.165ZM64.5303 20.7773H66.3076C66.891 20.7773 67.3467 20.6315 67.6748 20.3398C68.0029 20.0436 68.167 19.6403 68.167 19.1299C68.167 18.5967 68.0143 18.1842 67.709 17.8926C67.4082 17.6009 66.957 17.4505 66.3555 17.4414H64.5303V20.7773ZM78.8174 16.0469V22.6982C78.8174 23.7555 78.4779 24.5941 77.7988 25.2139C77.1243 25.8291 76.2243 26.1367 75.0986 26.1367C73.9593 26.1367 73.0547 25.8337 72.3848 25.2275C71.7148 24.6169 71.3799 23.7715 71.3799 22.6914V16.0469H73.1025V22.7051C73.1025 23.3704 73.2712 23.8786 73.6084 24.2295C73.9456 24.5804 74.4424 24.7559 75.0986 24.7559C76.4294 24.7559 77.0947 24.054 77.0947 22.6504V16.0469H78.8174Z" fill="#CC0033"/>
  </g>
  <rect x="1" y="1" width="458" height="332" stroke="#DFDFDF"/>
  <defs>
    <clipPath id="clip0_499_17489">
      <rect x="1" y="1" width="458" height="332" fill="white"/>
    </clipPath>
  </defs>
</svg>
