<svg width="460" height="334" viewBox="0 0 460 334" fill="none" xmlns="http://www.w3.org/2000/svg">
  <g clip-path="url(#clip0_499_17399)">
    <rect x="1" y="1" width="458" height="332" fill="white"/>
    <circle cx="413" cy="16" r="3" fill="#C4C4C4"/>
    <circle cx="423" cy="16" r="3" fill="#C4C4C4"/>
    <circle cx="433" cy="16" r="3" fill="#C4C4C4"/>
    <rect x="25" y="39" width="411" height="84" rx="4" fill="#F5F5F5"/>
    <rect x="137" y="51" width="94" height="16" fill="#D6D6D6"/>
    <rect x="137" y="79" width="190" height="4" fill="#D6D6D6"/>
    <rect x="137" y="87" width="167" height="4" fill="#D6D6D6"/>
    <rect x="137" y="99" width="190" height="4" fill="#D6D6D6"/>
    <rect x="137" y="107" width="167" height="4" fill="#D6D6D6"/>
    <rect x="380" y="107" width="32" height="4" fill="#D6D6D6"/>
    <rect x="368" y="51" width="44" height="4" fill="#D6D6D6"/>
    <rect x="25" y="39" width="96" height="84" rx="4" fill="#D6D6D6"/>
    <g opacity="0.65">
      <path d="M89.3318 77.9422C89.3318 77.4525 89.3318 77.0902 89.3318 76.7328C89.3256 76.2965 89.1509 75.8796 88.8442 75.5693C88.5376 75.259 88.1227 75.0794 87.6866 75.068H87.055C86.3358 75.1034 85.6561 75.4074 85.1503 75.92C84.3228 73.888 83.2799 71.5916 82.6581 70.6711C82.1959 70.0423 81.61 69.5147 80.9363 69.1206C80.2627 68.7265 79.5157 68.4744 78.741 68.3796C76.8409 68.0899 74.9191 67.967 72.9976 68.0124V68.0124C71.1371 67.9743 69.2767 68.0905 67.4354 68.3601L59.944 60.8687C64.5539 57.876 70.0516 56.5567 75.5176 57.1317C80.9836 57.7066 86.0865 60.1408 89.9729 64.0271C93.8592 67.9135 96.2934 73.0164 96.8683 78.4824C97.4433 83.9484 96.124 89.4461 93.1313 94.056L88.2056 89.1303V84.136C88.2414 82.6767 87.8296 81.2414 87.0256 80.0231C86.9473 79.9056 86.864 79.7881 86.7759 79.6755H87.6083C88.0643 79.6666 88.499 79.4809 88.8206 79.1574C89.1422 78.834 89.3255 78.3982 89.3318 77.9422ZM52.864 67.9488L49.7401 64.8445C49.2681 64.3751 49.0018 63.7373 49 63.0716C48.9982 62.4059 49.2609 61.7667 49.7303 61.2947C50.1997 60.8226 50.8375 60.5564 51.5032 60.5546C52.1689 60.5527 52.8081 60.8154 53.2801 61.2849L56.0319 64.0366L63.0777 71.0824L85.9876 93.9923L87.7405 95.7452L92.7151 100.72C93.1846 101.192 93.4473 101.831 93.4454 102.497C93.4436 103.163 93.1774 103.8 92.7053 104.27C92.2333 104.739 91.5941 105.002 90.9284 105C90.2627 104.998 89.6249 104.732 89.1555 104.26L86.0268 101.131C81.4169 104.108 75.9258 105.415 70.4691 104.834C65.0123 104.253 59.9197 101.818 56.0406 97.9368C52.1614 94.0554 49.73 88.9614 49.152 83.5043C48.5739 78.0472 49.884 72.5568 52.864 67.9488V67.9488ZM56.6635 77.9422C56.6747 78.394 56.8595 78.8241 57.1796 79.1432C57.4996 79.4624 57.9303 79.6459 58.3821 79.6559H59.2145C59.1264 79.7685 59.048 79.886 58.9648 80.0035C58.169 81.2313 57.769 82.6737 57.819 84.136V92.2639C57.819 92.7158 57.9986 93.1492 58.3181 93.4688C58.6376 93.7883 59.071 93.9678 59.523 93.9678H61.7263C62.1731 93.9601 62.599 93.7772 62.9122 93.4585C63.2254 93.1398 63.4009 92.7108 63.4008 92.2639V91.0056H75.9354L60.6099 75.6948C60.1448 75.3038 59.5622 75.0798 58.955 75.0582H58.3234C57.8847 75.0658 57.4661 75.2438 57.1563 75.5545C56.8465 75.8652 56.6698 76.2843 56.6635 76.723C56.6586 77.0853 56.6586 77.4721 56.6684 77.9422H56.6635Z" fill="#F5F5F5"/>
    </g>
    <rect x="25" y="259" width="411" height="84" rx="4" fill="#F5F5F5"/>
    <rect x="137" y="271" width="94" height="16" fill="#D6D6D6"/>
    <rect x="137" y="299" width="190" height="4" fill="#D6D6D6"/>
    <rect x="137" y="307" width="167" height="4" fill="#D6D6D6"/>
    <rect x="137" y="319" width="190" height="4" fill="#D6D6D6"/>
    <rect x="137" y="327" width="167" height="4" fill="#D6D6D6"/>
    <rect x="380" y="327" width="32" height="4" fill="#D6D6D6"/>
    <rect x="368" y="271" width="44" height="4" fill="#D6D6D6"/>
    <rect x="25" y="259" width="96" height="84" rx="4" fill="#D6D6D6"/>
    <g opacity="0.65">
      <path d="M89.3318 297.942C89.3318 297.453 89.3318 297.09 89.3318 296.733C89.3256 296.297 89.1509 295.88 88.8442 295.569C88.5376 295.259 88.1227 295.079 87.6866 295.068H87.055C86.3358 295.103 85.6561 295.407 85.1503 295.92C84.3228 293.888 83.2799 291.592 82.6581 290.671C82.1959 290.042 81.61 289.515 80.9363 289.121C80.2627 288.727 79.5157 288.474 78.741 288.38C76.8409 288.09 74.9191 287.967 72.9976 288.012V288.012C71.1371 287.974 69.2767 288.091 67.4354 288.36L59.944 280.869C64.5539 277.876 70.0516 276.557 75.5176 277.132C80.9836 277.707 86.0865 280.141 89.9729 284.027C93.8592 287.913 96.2934 293.016 96.8683 298.482C97.4433 303.948 96.124 309.446 93.1313 314.056L88.2056 309.13V304.136C88.2414 302.677 87.8296 301.241 87.0256 300.023C86.9473 299.906 86.864 299.788 86.7759 299.675H87.6083C88.0643 299.667 88.499 299.481 88.8206 299.157C89.1422 298.834 89.3255 298.398 89.3318 297.942ZM52.864 287.949L49.7401 284.844C49.2681 284.375 49.0018 283.737 49 283.072C48.9982 282.406 49.2609 281.767 49.7303 281.295C50.1997 280.823 50.8375 280.556 51.5032 280.555C52.1689 280.553 52.8081 280.815 53.2801 281.285L56.0319 284.037L63.0777 291.082L85.9876 313.992L87.7405 315.745L92.7151 320.72C93.1846 321.192 93.4473 321.831 93.4454 322.497C93.4436 323.163 93.1774 323.8 92.7053 324.27C92.2333 324.739 91.5941 325.002 90.9284 325C90.2627 324.998 89.6249 324.732 89.1555 324.26L86.0268 321.131C81.4169 324.108 75.9258 325.415 70.4691 324.834C65.0123 324.253 59.9197 321.818 56.0406 317.937C52.1614 314.055 49.73 308.961 49.152 303.504C48.5739 298.047 49.884 292.557 52.864 287.949V287.949ZM56.6635 297.942C56.6747 298.394 56.8595 298.824 57.1796 299.143C57.4996 299.462 57.9303 299.646 58.3821 299.656H59.2145C59.1264 299.768 59.048 299.886 58.9648 300.004C58.169 301.231 57.769 302.674 57.819 304.136V312.264C57.819 312.716 57.9986 313.149 58.3181 313.469C58.6376 313.788 59.071 313.968 59.523 313.968H61.7263C62.1731 313.96 62.599 313.777 62.9122 313.458C63.2254 313.14 63.4009 312.711 63.4008 312.264V311.006H75.9354L60.6099 295.695C60.1448 295.304 59.5622 295.08 58.955 295.058H58.3234C57.8847 295.066 57.4661 295.244 57.1563 295.555C56.8465 295.865 56.6698 296.284 56.6635 296.723C56.6586 297.085 56.6586 297.472 56.6684 297.942H56.6635Z" fill="#F5F5F5"/>
    </g>
    <rect x="25" y="131" width="96" height="120" rx="4" fill="#F5F5F5"/>
    <rect x="33" y="211" width="80" height="8" fill="#CC0033"/>
    <rect x="33" y="227" width="80" height="4" fill="#CC0033"/>
    <rect x="33" y="235" width="68" height="4" fill="#CC0033"/>
    <rect x="25" y="131" width="96" height="68" rx="4" fill="#CC0033"/>
    <path fill-rule="evenodd" clip-rule="evenodd" d="M56.9066 159.382C57.9021 157.266 58.8354 155.026 60.0176 152.6C60.6398 151.48 61.4486 150.422 62.7553 150.298H83.2254C84.5942 150.422 85.3408 151.48 86.0253 152.6C87.2074 155.026 88.1407 157.266 89.1362 159.382H56.9066ZM62.7553 147C60.5776 147 59.2088 147.809 57.4044 150.36L54.3556 157.204H49.6892C49.0048 157.204 47.6982 160.999 52.5513 161.124L50.9336 165.106C50.9336 170.083 50.9958 175.123 50.9958 180.101C50.9958 181.158 51.8047 181.967 52.8624 181.967H59.1465C60.2043 181.967 61.0131 181.158 61.0131 180.101V175.932H84.9675V180.101C84.9675 181.158 85.8386 181.967 86.8341 181.967H93.1805C94.2382 181.967 95.047 181.158 95.047 180.101C95.047 175.123 95.1093 170.083 95.1093 165.106L93.4293 161.124C98.3447 160.999 96.9758 157.204 96.2914 157.204H91.625L88.6385 150.36C86.7719 147.809 85.4653 147 83.2254 147H62.7553ZM88.2029 165.417C86.523 165.417 85.1542 166.786 85.1542 168.466C85.1542 170.146 86.523 171.514 88.2029 171.514C89.8829 171.514 91.2517 170.146 91.2517 168.466C91.2517 166.786 89.8829 165.417 88.2029 165.417ZM57.7777 165.417C59.4576 165.417 60.8265 166.786 60.8265 168.466C60.8265 170.146 59.4576 171.514 57.7777 171.514C56.0978 171.514 54.729 170.146 54.729 168.466C54.729 166.786 56.0978 165.417 57.7777 165.417Z" fill="white"/>
    <rect x="130" y="131" width="96" height="120" rx="4" fill="#F5F5F5"/>
    <rect x="138" y="211" width="80" height="8" fill="#CC0033"/>
    <rect x="138" y="227" width="80" height="4" fill="#CC0033"/>
    <rect x="138" y="235" width="68" height="4" fill="#CC0033"/>
    <rect x="130" y="131" width="96" height="68" rx="4" fill="#CC0033"/>
    <path fill-rule="evenodd" clip-rule="evenodd" d="M161.907 159.382C162.902 157.266 163.835 155.026 165.018 152.6C165.64 151.48 166.449 150.422 167.755 150.298H188.225C189.594 150.422 190.341 151.48 191.025 152.6C192.207 155.026 193.141 157.266 194.136 159.382H161.907ZM167.755 147C165.578 147 164.209 147.809 162.404 150.36L159.356 157.204H154.689C154.005 157.204 152.698 160.999 157.551 161.124L155.934 165.106C155.934 170.083 155.996 175.123 155.996 180.101C155.996 181.158 156.805 181.967 157.862 181.967H164.147C165.204 181.967 166.013 181.158 166.013 180.101V175.932H189.968V180.101C189.968 181.158 190.839 181.967 191.834 181.967H198.18C199.238 181.967 200.047 181.158 200.047 180.101C200.047 175.123 200.109 170.083 200.109 165.106L198.429 161.124C203.345 160.999 201.976 157.204 201.291 157.204H196.625L193.638 150.36C191.772 147.809 190.465 147 188.225 147H167.755ZM193.203 165.417C191.523 165.417 190.154 166.786 190.154 168.466C190.154 170.146 191.523 171.514 193.203 171.514C194.883 171.514 196.252 170.146 196.252 168.466C196.252 166.786 194.883 165.417 193.203 165.417ZM162.778 165.417C164.458 165.417 165.826 166.786 165.826 168.466C165.826 170.146 164.458 171.514 162.778 171.514C161.098 171.514 159.729 170.146 159.729 168.466C159.729 166.786 161.098 165.417 162.778 165.417Z" fill="white"/>
    <rect x="235" y="131" width="96" height="120" rx="4" fill="#F5F5F5"/>
    <rect x="243" y="211" width="80" height="8" fill="#CC0033"/>
    <rect x="243" y="227" width="80" height="4" fill="#CC0033"/>
    <rect x="243" y="235" width="68" height="4" fill="#CC0033"/>
    <rect x="235" y="131" width="96" height="68" rx="4" fill="#CC0033"/>
    <path fill-rule="evenodd" clip-rule="evenodd" d="M266.907 159.382C267.902 157.266 268.835 155.026 270.018 152.6C270.64 151.48 271.449 150.422 272.755 150.298H293.225C294.594 150.422 295.341 151.48 296.025 152.6C297.207 155.026 298.141 157.266 299.136 159.382H266.907ZM272.755 147C270.578 147 269.209 147.809 267.404 150.36L264.356 157.204H259.689C259.005 157.204 257.698 160.999 262.551 161.124L260.934 165.106C260.934 170.083 260.996 175.123 260.996 180.101C260.996 181.158 261.805 181.967 262.862 181.967H269.147C270.204 181.967 271.013 181.158 271.013 180.101V175.932H294.968V180.101C294.968 181.158 295.839 181.967 296.834 181.967H303.18C304.238 181.967 305.047 181.158 305.047 180.101C305.047 175.123 305.109 170.083 305.109 165.106L303.429 161.124C308.345 160.999 306.976 157.204 306.291 157.204H301.625L298.638 150.36C296.772 147.809 295.465 147 293.225 147H272.755ZM298.203 165.417C296.523 165.417 295.154 166.786 295.154 168.466C295.154 170.146 296.523 171.514 298.203 171.514C299.883 171.514 301.252 170.146 301.252 168.466C301.252 166.786 299.883 165.417 298.203 165.417ZM267.778 165.417C269.458 165.417 270.826 166.786 270.826 168.466C270.826 170.146 269.458 171.514 267.778 171.514C266.098 171.514 264.729 170.146 264.729 168.466C264.729 166.786 266.098 165.417 267.778 165.417Z" fill="white"/>
    <rect x="340" y="131" width="96" height="120" rx="4" fill="#F5F5F5"/>
    <rect x="348" y="211" width="80" height="8" fill="#CC0033"/>
    <rect x="348" y="227" width="80" height="4" fill="#CC0033"/>
    <rect x="348" y="235" width="68" height="4" fill="#CC0033"/>
    <rect x="340" y="131" width="96" height="68" rx="4" fill="#CC0033"/>
    <path fill-rule="evenodd" clip-rule="evenodd" d="M371.907 159.382C372.902 157.266 373.835 155.026 375.018 152.6C375.64 151.48 376.449 150.422 377.755 150.298H398.225C399.594 150.422 400.341 151.48 401.025 152.6C402.207 155.026 403.141 157.266 404.136 159.382H371.907ZM377.755 147C375.578 147 374.209 147.809 372.404 150.36L369.356 157.204H364.689C364.005 157.204 362.698 160.999 367.551 161.124L365.934 165.106C365.934 170.083 365.996 175.123 365.996 180.101C365.996 181.158 366.805 181.967 367.862 181.967H374.147C375.204 181.967 376.013 181.158 376.013 180.101V175.932H399.968V180.101C399.968 181.158 400.839 181.967 401.834 181.967H408.18C409.238 181.967 410.047 181.158 410.047 180.101C410.047 175.123 410.109 170.083 410.109 165.106L408.429 161.124C413.345 160.999 411.976 157.204 411.291 157.204H406.625L403.638 150.36C401.772 147.809 400.465 147 398.225 147H377.755ZM403.203 165.417C401.523 165.417 400.154 166.786 400.154 168.466C400.154 170.146 401.523 171.514 403.203 171.514C404.883 171.514 406.252 170.146 406.252 168.466C406.252 166.786 404.883 165.417 403.203 165.417ZM372.778 165.417C374.458 165.417 375.826 166.786 375.826 168.466C375.826 170.146 374.458 171.514 372.778 171.514C371.098 171.514 369.729 170.146 369.729 168.466C369.729 166.786 371.098 165.417 372.778 165.417Z" fill="white"/>
    <path d="M28.2539 16.0469L31.125 23.6758L33.9893 16.0469H36.2246V26H34.502V22.7188L34.6729 18.3301L31.7334 26H30.4961L27.5635 18.3369L27.7344 22.7188V26H26.0117V16.0469H28.2539ZM38.2754 26V16.0469H41.6865C42.8122 16.0469 43.6689 16.2725 44.2568 16.7236C44.8447 17.1748 45.1387 17.847 45.1387 18.7402C45.1387 19.196 45.0156 19.6061 44.7695 19.9707C44.5234 20.3353 44.1634 20.6178 43.6895 20.8184C44.2272 20.9642 44.6419 21.2399 44.9336 21.6455C45.2298 22.0465 45.3779 22.5296 45.3779 23.0947C45.3779 24.029 45.0771 24.7467 44.4756 25.248C43.8786 25.7493 43.0218 26 41.9053 26H38.2754ZM40.0049 21.5088V24.6191H41.9258C42.4681 24.6191 42.8919 24.4847 43.1973 24.2158C43.5026 23.9469 43.6553 23.5732 43.6553 23.0947C43.6553 22.0602 43.1266 21.5316 42.0693 21.5088H40.0049ZM40.0049 20.2373H41.7002C42.238 20.2373 42.6572 20.1165 42.958 19.875C43.2633 19.6289 43.416 19.2826 43.416 18.8359C43.416 18.3438 43.2747 17.9883 42.9922 17.7695C42.7142 17.5508 42.279 17.4414 41.6865 17.4414H40.0049V20.2373ZM48.9326 26H47.21V16.0469H48.9326V26ZM51.0586 26V16.0469H54.4697C55.5954 16.0469 56.4521 16.2725 57.04 16.7236C57.6279 17.1748 57.9219 17.847 57.9219 18.7402C57.9219 19.196 57.7988 19.6061 57.5527 19.9707C57.3066 20.3353 56.9466 20.6178 56.4727 20.8184C57.0104 20.9642 57.4251 21.2399 57.7168 21.6455C58.013 22.0465 58.1611 22.5296 58.1611 23.0947C58.1611 24.029 57.8604 24.7467 57.2588 25.248C56.6618 25.7493 55.805 26 54.6885 26H51.0586ZM52.7881 21.5088V24.6191H54.709C55.2513 24.6191 55.6751 24.4847 55.9805 24.2158C56.2858 23.9469 56.4385 23.5732 56.4385 23.0947C56.4385 22.0602 55.9098 21.5316 54.8525 21.5088H52.7881ZM52.7881 20.2373H54.4834C55.0212 20.2373 55.4404 20.1165 55.7412 19.875C56.0465 19.6289 56.1992 19.2826 56.1992 18.8359C56.1992 18.3438 56.0579 17.9883 55.7754 17.7695C55.4974 17.5508 55.0622 17.4414 54.4697 17.4414H52.7881V20.2373ZM60.7656 24.25C61.0755 24.25 61.3148 24.3389 61.4834 24.5166C61.652 24.6898 61.7363 24.9085 61.7363 25.1729C61.7363 25.4326 61.652 25.6491 61.4834 25.8223C61.3148 25.9909 61.0755 26.0752 60.7656 26.0752C60.4694 26.0752 60.2347 25.9909 60.0615 25.8223C59.8883 25.6536 59.8018 25.4372 59.8018 25.1729C59.8018 24.9085 59.8861 24.6898 60.0547 24.5166C60.2233 24.3389 60.4603 24.25 60.7656 24.25ZM67.458 22.165H65.5303V26H63.8008V16.0469H67.3008C68.4492 16.0469 69.3356 16.3044 69.96 16.8193C70.5843 17.3343 70.8965 18.0794 70.8965 19.0547C70.8965 19.7201 70.7347 20.2783 70.4111 20.7295C70.0921 21.1761 69.6455 21.5202 69.0713 21.7617L71.3066 25.9111V26H69.4541L67.458 22.165ZM65.5303 20.7773H67.3076C67.891 20.7773 68.3467 20.6315 68.6748 20.3398C69.0029 20.0436 69.167 19.6403 69.167 19.1299C69.167 18.5967 69.0143 18.1842 68.709 17.8926C68.4082 17.6009 67.957 17.4505 67.3555 17.4414H65.5303V20.7773ZM79.8174 16.0469V22.6982C79.8174 23.7555 79.4779 24.5941 78.7988 25.2139C78.1243 25.8291 77.2243 26.1367 76.0986 26.1367C74.9593 26.1367 74.0547 25.8337 73.3848 25.2275C72.7148 24.6169 72.3799 23.7715 72.3799 22.6914V16.0469H74.1025V22.7051C74.1025 23.3704 74.2712 23.8786 74.6084 24.2295C74.9456 24.5804 75.4424 24.7559 76.0986 24.7559C77.4294 24.7559 78.0947 24.054 78.0947 22.6504V16.0469H79.8174Z" fill="#CC0033"/>
  </g>
  <rect x="1" y="1" width="458" height="332" stroke="#DFDFDF"/>
  <defs>
    <clipPath id="clip0_499_17399">
      <rect x="1" y="1" width="458" height="332" fill="white"/>
    </clipPath>
  </defs>
</svg>
