<?xml version="1.0" standalone="no"?>
<!DOCTYPE svg PUBLIC "-//W3C//DTD SVG 20010904//EN"
 "http://www.w3.org/TR/2001/REC-SVG-20010904/DTD/svg10.dtd">
<svg version="1.0" xmlns="http://www.w3.org/2000/svg"
 width="512.000000pt" height="512.000000pt" viewBox="0 0 512.000000 512.000000"
 preserveAspectRatio="xMidYMid meet">
<metadata>
Created by potrace 1.11, written by Peter Selinger 2001-2013
</metadata>
<g transform="translate(0.000000,512.000000) scale(0.100000,-0.100000)"
fill="#000000" stroke="none">
<path d="M2355 4984 c-543 -58 -975 -236 -1366 -563 -86 -71 -314 -300 -307
-307 2 -1 143 2 313 8 340 11 1140 5 1440 -12 408 -23 506 -44 589 -129 21
-21 105 -164 200 -336 l164 -300 49 -3 c47 -3 49 -2 65 32 24 50 68 62 150 41
35 -8 81 -28 103 -43 45 -31 102 -102 111 -138 12 -48 -6 -54 -160 -54 -135
-1 -140 -2 -118 -18 184 -137 255 -216 327 -365 80 -168 80 -165 80 -652 l0
-430 -32 -67 c-36 -76 -108 -155 -171 -187 -85 -43 -143 -51 -382 -51 -252 0
-321 10 -419 59 l-61 30 -21 -29 c-12 -15 -43 -40 -69 -54 l-48 -26 -1187 0
c-1126 0 -1187 -1 -1181 -17 4 -10 30 -55 59 -101 349 -559 909 -955 1547
-1095 190 -42 291 -52 525 -52 245 1 364 14 575 66 175 43 329 100 499 185
755 374 1263 1114 1340 1954 93 1003 -439 1958 -1340 2404 -233 116 -476 193
-729 231 -101 16 -460 28 -545 19z m1573 -3778 c-3 -86 -6 -98 -33 -137 -54
-76 -80 -84 -314 -87 -203 -3 -204 -3 -258 23 -83 41 -107 85 -111 202 l-4 93
362 0 362 0 -4 -94z"/>
<path d="M875 4020 c-99 -4 -201 -8 -227 -9 -47 -1 -49 -3 -93 -63 -68 -93
-171 -274 -222 -389 -37 -85 -103 -255 -103 -266 0 -2 677 -3 1503 -3 1444 0
1505 1 1520 18 10 10 17 25 17 33 0 8 -63 131 -140 274 -151 278 -193 334
-268 355 -48 12 -188 27 -387 40 -197 14 -1354 21 -1600 10z"/>
<path d="M300 2470 l0 -320 66 0 66 0 -6 228 -6 227 32 -85 c17 -47 55 -148
83 -225 l51 -140 45 -3 46 -3 83 231 c46 126 84 230 85 230 2 0 0 -103 -3
-230 l-5 -230 67 0 66 0 0 320 0 321 -87 -3 -88 -3 -81 -229 -81 -229 -16 44
c-26 68 -147 412 -147 416 0 2 -38 3 -85 3 l-85 0 0 -320z"/>
<path d="M1080 2470 l0 -322 168 4 c187 4 228 16 273 79 47 67 32 188 -28 225
-15 10 -30 19 -31 20 -2 2 10 15 28 31 37 33 53 91 41 146 -13 56 -34 82 -88
108 -43 21 -66 24 -205 27 l-158 4 0 -322z m307 188 c25 -25 22 -83 -5 -111
-18 -17 -36 -22 -97 -25 l-75 -4 0 82 0 82 80 -4 c58 -2 84 -8 97 -20z m-7
-243 c21 -11 31 -25 36 -52 14 -74 -35 -111 -148 -112 l-58 -1 0 90 0 90 70 0
c44 0 82 -6 100 -15z"/>
<path d="M1660 2470 l0 -320 65 0 65 0 0 320 0 320 -65 0 -65 0 0 -320z"/>
<path d="M1910 2470 l0 -322 168 4 c148 3 172 6 209 26 58 30 84 71 90 140 5
68 -17 116 -65 143 l-32 17 25 16 c59 38 77 144 36 210 -40 63 -92 80 -273 84
l-158 4 0 -322z m304 190 c29 -29 30 -74 3 -106 -23 -26 -32 -29 -101 -32
l-76 -4 0 82 0 82 80 -4 c53 -2 84 -8 94 -18z m-5 -245 c31 -16 41 -33 41 -74
0 -60 -53 -91 -157 -91 l-53 0 0 90 0 90 70 0 c43 0 82 -6 99 -15z"/>
<path d="M2750 2471 l0 -321 65 0 65 0 0 115 0 115 53 0 52 0 60 -115 60 -115
67 0 c38 0 68 3 68 6 0 3 -29 62 -65 130 l-66 123 50 48 c41 40 50 56 56 95
15 98 -19 168 -100 208 -46 23 -64 25 -207 29 l-158 3 0 -321z m311 180 c21
-22 29 -39 29 -66 0 -27 -8 -44 -29 -66 -27 -27 -35 -29 -105 -29 l-76 0 0 95
0 95 76 0 c70 0 78 -2 105 -29z"/>
<path d="M3312 2542 l3 -249 30 -48 c44 -71 104 -100 210 -100 106 0 166 29
210 100 l30 48 3 249 3 248 -65 0 -66 0 0 -225 c0 -292 -9 -315 -115 -315
-106 0 -115 23 -115 315 l0 225 -66 0 -65 0 3 -248z"/>
<path d="M2512 2264 c-26 -18 -30 -74 -6 -98 22 -23 80 -20 104 4 27 27 25 56
-5 85 -28 29 -61 32 -93 9z"/>
<path d="M708 1909 c-39 -22 -9 -106 55 -153 28 -21 33 -21 787 -21 754 0 759
0 787 21 65 48 94 132 54 154 -27 14 -1659 13 -1683 -1z"/>
<path d="M3085 1855 c-32 -32 -31 -59 5 -121 34 -59 77 -99 140 -128 39 -18
69 -21 236 -24 221 -4 255 3 279 62 33 79 9 196 -45 223 -18 9 -102 13 -308
13 l-283 0 -24 -25z"/>
</g>
</svg>
