<svg width="182" height="72" viewBox="0 0 182 72" fill="none" xmlns="http://www.w3.org/2000/svg">
<path fill-rule="evenodd" clip-rule="evenodd" d="M63.5028 42.617H62.2494L63.5028 39.1284V39.1671L64.7968 42.617H63.5028ZM78.8686 35.6785H74.4783L70.088 45.9133L65.7761 35.6785H61.2682L57.0353 45.6026L56.0156 47.9675H60.2883L61.2682 45.4088H65.737L66.7169 47.9675H73.4989L76.7126 39.0901L79.848 47.9675H84.1609L83.6111 46.7269L78.8686 35.6785Z" fill="#123063"/>
<path fill-rule="evenodd" clip-rule="evenodd" d="M83.6112 39.0508C83.2986 39.9037 83.1016 40.8729 83.1016 41.9972C83.1016 42.9664 83.2986 43.8581 83.6112 44.6722C84.4735 46.6881 86.3164 47.9675 88.511 47.9675H94.038V44.9043H90.4721C88.3156 44.9043 87.139 44.4396 87.139 41.9202C87.139 39.3615 88.3156 38.7407 90.4721 38.7407H94.038V35.6785H88.5502C86.3556 35.6785 84.4735 36.8798 83.6112 39.0508Z" fill="#123063"/>
<path fill-rule="evenodd" clip-rule="evenodd" d="M133.59 50.9914H134.452V32.4603H133.59V50.9914Z" fill="#123063"/>
<path fill-rule="evenodd" clip-rule="evenodd" d="M52.3693 41.3775H49.4685V38.7019H52.4084C52.8391 38.7019 54.0156 38.7019 54.0156 39.9813C54.0156 41.3775 52.8391 41.3775 52.3693 41.3775ZM57.0349 43.1602C58.0535 41.9972 58.0535 40.4077 58.0535 39.9037C58.0535 39.3997 58.0535 37.9271 57.0349 36.841C56.4072 36.182 55.4266 35.6785 53.7808 35.6785H45.4707V47.9675H49.4689V44.4008H53.7808C55.4266 44.4008 56.4072 43.8581 57.0349 43.1602Z" fill="#123063"/>
<path fill-rule="evenodd" clip-rule="evenodd" d="M98.8988 44.1294V35.6785H94.8613V47.9675H99.6833L104.426 39.2834V47.9675H108.463V35.6785H103.524L98.8988 44.1294Z" fill="#123063"/>
<path fill-rule="evenodd" clip-rule="evenodd" d="M116.734 45.0986H113.284V43.199H116.734C117.636 43.199 117.636 43.8193 117.636 44.0907C117.636 44.4008 117.636 45.0986 116.734 45.0986ZM117.439 40.3296H113.283V38.7407H121.085V35.6785H109.285V47.9675H117.478C121.673 47.9675 121.673 45.4476 121.673 44.0519C121.673 42.7338 121.673 40.3296 117.439 40.3296Z" fill="#123063"/>
<path fill-rule="evenodd" clip-rule="evenodd" d="M158.441 42.7731H157.109L158.402 39.012L158.441 39.0901L159.774 42.7731H158.441ZM158.441 37.1894H157.421L153.697 46.3392H155.736L156.52 44.2845H160.362L161.107 46.3392H163.262L159.538 37.1894H158.441Z" fill="#123063"/>
<path fill-rule="evenodd" clip-rule="evenodd" d="M149.622 44.9042C149.543 44.9042 149.425 44.9042 149.346 44.9042H148.17V42.1522H149.346C149.425 42.1522 149.543 42.1522 149.622 42.1522C150.485 42.2303 151.032 42.695 151.032 43.5479C151.032 44.4008 150.485 44.8272 149.622 44.9042ZM149.699 40.7179H148.17V38.7795H152.246V37.1894H146.328V46.3392H149.699C152.364 46.3392 152.992 44.6334 152.992 43.6642C152.992 42.5017 152.443 40.7179 149.699 40.7179Z" fill="#123063"/>
<path fill-rule="evenodd" clip-rule="evenodd" d="M12.4256 34.0885H11.7592C11.3673 44.4783 10.3872 50.4098 8.54492 53.5113C9.76009 53.8995 11.0929 54.0928 12.4256 54.0928C13.7584 54.0928 15.052 53.8995 16.2671 53.5113C14.4639 50.4098 13.4839 44.4783 13.0919 34.0885H12.4256Z" fill="#123063"/>
<path fill-rule="evenodd" clip-rule="evenodd" d="M177.883 41.3382L181.765 37.1894H179.53L176.158 41.1055H176.121V37.1894H174.238V46.3392H176.121V41.8034H176.158L179.609 46.3392H182L177.883 41.3382Z" fill="#123063"/>
<path fill-rule="evenodd" clip-rule="evenodd" d="M15.1308 29.824C14.8564 25.8697 14.8564 24.2802 14.8172 22.303H13.8372C13.8372 22.3418 13.8764 27.8081 13.9156 29.5914C13.5628 29.5526 13.2101 29.5526 12.8572 29.5139C12.8572 26.3731 12.8572 20.5972 12.8572 17.2244H11.9948C11.9948 20.5972 11.9948 26.3731 11.9948 29.5139C11.642 29.5526 11.2893 29.5526 10.9365 29.5914C10.9757 27.8081 11.0148 22.3418 11.0148 22.303H10.0349C9.99571 24.2802 9.99571 25.8697 9.72132 29.824C4.15508 31.0258 0 35.9499 0 41.8034C0 46.1066 2.23433 49.8671 5.60544 52.0769C10.1133 47.6191 10.8189 35.0189 10.8189 34.166C10.1525 34.2048 9.29014 34.3986 9.17254 34.4374C8.15337 40.3296 5.60544 45.2925 2.70472 47.9675C1.60715 46.378 1.01917 44.6334 1.01917 42.9276C1.01917 37.5001 6.27182 33.3131 12.4261 33.3131C18.5803 33.3131 23.7937 37.5001 23.7937 42.9276C23.7937 44.6334 23.2449 46.378 22.1479 47.9675C19.2466 45.2925 16.6596 40.3296 15.6795 34.4374C15.5619 34.3986 14.6995 34.2048 14.0332 34.166C14.0332 35.0189 14.7388 47.6191 19.2466 52.0769C22.6177 49.8671 24.8521 46.1066 24.8521 41.8034C24.8521 35.9499 20.697 31.0258 15.1308 29.824Z" fill="#123063"/>
<path fill-rule="evenodd" clip-rule="evenodd" d="M38.1394 40.9111L35.5529 35.6785H31.0449L36.0625 44.4784L34.0633 47.9675H38.4138L45.1174 35.6785H40.7663L38.1394 40.9111Z" fill="#123063"/>
<path fill-rule="evenodd" clip-rule="evenodd" d="M170.086 40.8729H166.322V37.1894H164.439V46.3392H166.322V42.3849H170.086V46.3392H171.966V37.1894H170.086V40.8729Z" fill="#123063"/>
</svg>
