<svg width="182" height="72" viewBox="0 0 182 72" fill="none" xmlns="http://www.w3.org/2000/svg">
<path d="M0.0410156 53.4514H6.30243V54.6237H1.38673V57.4649H3.70165C4.44074 57.4649 5.05434 57.5545 5.54242 57.727C6.02354 57.8993 6.414 58.1338 6.69988 58.4304C6.98576 58.7269 7.18796 59.0648 7.29952 59.4509C7.4111 59.8372 7.46687 60.2371 7.46687 60.6578C7.46687 61.0854 7.4111 61.4853 7.29255 61.8714C7.17402 62.2508 6.97182 62.5886 6.67896 62.8714C6.38611 63.1541 5.98868 63.3817 5.48664 63.5472C4.98461 63.7197 4.34313 63.8024 3.57613 63.8024H0.0410156V53.4514ZM1.38673 58.5958V62.6714H3.67376C4.14093 62.6714 4.53836 62.6301 4.85214 62.5473C5.17287 62.4646 5.42389 62.3404 5.60517 62.168C5.79344 62.0025 5.92592 61.7887 6.00262 61.5474C6.07931 61.2991 6.12115 61.0164 6.12115 60.6991C6.12115 60.3819 6.07931 60.0924 6.00262 59.8303C5.92592 59.5682 5.78647 59.3476 5.58426 59.1683C5.38206 58.9889 5.11709 58.851 4.77543 58.7476C4.43378 58.6441 4.01541 58.5958 3.4855 58.5958H1.38673Z" fill="#525455"/>
<path d="M13.9945 62.775C13.7225 63.106 13.3739 63.3888 12.9556 63.6231C12.5372 63.8576 12.0143 63.9818 11.3868 63.9818C11.0033 63.9818 10.6546 63.9335 10.3409 63.8439C10.0201 63.7542 9.74822 63.6094 9.51812 63.4232C9.28803 63.237 9.10674 63.0025 8.98123 62.7199C8.85572 62.4371 8.79297 62.113 8.79297 61.7336C8.79297 61.2096 8.90452 60.7821 9.12068 60.451C9.3438 60.12 9.63666 59.858 9.99923 59.6649C10.3688 59.4787 10.7802 59.3477 11.2404 59.2718C11.7005 59.1959 12.1747 59.1546 12.6628 59.1339L13.9666 59.0925V58.7891C13.9666 58.1546 13.8272 57.6926 13.5553 57.4099C13.2833 57.1272 12.837 56.9892 12.2235 56.9892C11.6169 56.9892 11.1706 57.0858 10.8917 57.2858C10.6059 57.4857 10.4246 57.7547 10.3339 58.1063L9.17646 57.9753C9.31592 57.2858 9.64364 56.7893 10.1596 56.472C10.6756 56.1548 11.3798 56.0031 12.2723 56.0031C12.8232 56.0031 13.2833 56.0652 13.6599 56.1962C14.0364 56.3273 14.3432 56.5135 14.5733 56.7548C14.8104 56.9962 14.9777 57.2995 15.0823 57.6512C15.1869 58.0099 15.2358 58.4098 15.2358 58.8581V63.8025H14.0016V62.775H13.9945ZM13.9666 59.989L12.7464 60.0304C12.2304 60.051 11.7982 60.0993 11.4565 60.1752C11.1149 60.2511 10.8429 60.3545 10.6407 60.4924C10.4386 60.6303 10.299 60.7958 10.2154 60.989C10.1317 61.1889 10.0899 61.4165 10.0899 61.6855C10.0899 62.0578 10.2014 62.3612 10.4316 62.5888C10.6616 62.8163 11.0381 62.9267 11.5681 62.9267C12.3211 62.9267 12.9068 62.7475 13.3253 62.3819C13.7435 62.0164 13.9528 61.513 13.9528 60.8785V59.989H13.9666Z" fill="#525455"/>
<path d="M18.5542 56.2236V59.313H22.5844V56.2236H23.8603V63.8093H22.5914V60.3889H18.5613V63.8093H17.2852V56.2236H18.5542Z" fill="#525455"/>
<path d="M25.9375 63.8024V56.2168H27.1996V59.5063H27.7155C27.9038 59.5063 28.0642 59.4855 28.2036 59.4511C28.3431 59.4097 28.4755 59.3476 28.5941 59.2579C28.7126 59.1683 28.8171 59.0511 28.9148 58.8994C29.0124 58.7545 29.117 58.5683 29.2216 58.3477L29.6608 57.4511C29.7655 57.2305 29.877 57.0374 29.9886 56.8857C30.1002 56.7341 30.2256 56.603 30.3721 56.4996C30.5116 56.3961 30.6789 56.3271 30.8602 56.2788C31.0485 56.2375 31.2646 56.2168 31.5227 56.2168C31.6621 56.2168 31.7875 56.2237 31.9131 56.2444C32.0386 56.2651 32.1292 56.2858 32.185 56.2995L32.0525 57.2719C32.0246 57.2512 31.9619 57.2374 31.8782 57.2305C31.7875 57.2236 31.6899 57.2168 31.5854 57.2168C31.3344 57.2168 31.1461 57.2719 31.0206 57.3823C30.895 57.4926 30.7835 57.6719 30.6789 57.9133L30.2535 58.8235C30.135 59.0924 30.0026 59.3131 29.8491 59.4855C29.6958 59.6579 29.5075 59.7958 29.2704 59.8992C29.4725 59.9751 29.6539 60.0854 29.8143 60.2303C29.9677 60.3751 30.135 60.5751 30.3092 60.8233L32.3174 63.7956H30.8532L29.096 61.1889C28.9218 60.9268 28.7476 60.7337 28.5662 60.6096C28.3919 60.4854 28.1408 60.4234 27.8201 60.4234H27.2064V63.8024H25.9375Z" fill="#525455"/>
<path d="M43.1402 56.2237V62.7336H44.0326V65.8367H42.8752V63.8093H37.1438V65.8367H35.9863V62.7336H36.7323C36.9067 62.568 37.0671 62.3542 37.2135 62.0784C37.3599 61.8095 37.4924 61.4715 37.611 61.0716C37.7294 60.6716 37.834 60.1958 37.9247 59.6442C38.0153 59.0924 38.099 58.458 38.1688 57.7271L38.3012 56.2168H43.1402V56.2237ZM39.2982 58.4235C39.1797 59.582 39.0194 60.4993 38.8242 61.1889C38.6219 61.8715 38.3919 62.3888 38.127 62.7336H41.8642V57.2649H39.4168L39.2982 58.4235Z" fill="#525455"/>
<path d="M51.0614 57.265H48.5303L48.2096 59.8716C48.119 60.5957 48.0005 61.2095 47.8401 61.7129C47.6867 62.2162 47.4844 62.6369 47.2404 62.9541C46.9964 63.2782 46.7035 63.5127 46.3689 63.6576C46.0342 63.8024 45.6367 63.8714 45.1904 63.8714H44.9395V62.83H45.0859C45.3369 62.83 45.5669 62.7818 45.7693 62.6852C45.9714 62.5886 46.1527 62.4163 46.313 62.1611C46.4735 61.906 46.6129 61.5612 46.7313 61.1129C46.8499 60.6646 46.9475 60.0992 47.0243 59.4096L47.3938 56.2098H52.3514V63.7955H51.0754V57.265H51.0614Z" fill="#525455"/>
<path d="M53.7656 63.8024L55.1882 61.368C55.4321 60.9544 55.704 60.6716 55.9969 60.5268C55.5089 60.4233 55.1254 60.1889 54.8395 59.8303C54.5536 59.4717 54.4142 59.0165 54.4142 58.4511C54.4142 58.1339 54.463 57.8374 54.5607 57.5684C54.6581 57.2995 54.8185 57.0581 55.0487 56.8581C55.2788 56.6582 55.5856 56.4995 55.9622 56.3892C56.3456 56.2788 56.8197 56.2236 57.3844 56.2236H60.4315V63.8093H59.1556V60.7819H58.0538C57.8167 60.7819 57.6215 60.7957 57.4611 60.8233C57.3008 60.8509 57.1613 60.8992 57.0428 60.9681C56.9242 61.0371 56.8197 61.1267 56.7221 61.244C56.6244 61.3612 56.5269 61.5061 56.4292 61.6784L55.195 63.8093H53.7656V63.8024ZM59.1624 59.7269V57.2649H57.4054C56.2828 57.2649 55.7181 57.6512 55.7181 58.4167C55.7181 59.2923 56.2409 59.7269 57.2869 59.7269H59.1624Z" fill="#525455"/>
<path d="M70.5414 62.775C70.2695 63.106 69.9209 63.3888 69.5025 63.6231C69.0842 63.8576 68.5611 63.9818 67.9336 63.9818C67.5501 63.9818 67.2015 63.9335 66.8878 63.8439C66.5669 63.7542 66.295 63.6094 66.065 63.4232C65.8349 63.237 65.6536 63.0025 65.5281 62.7199C65.4025 62.4371 65.3398 62.113 65.3398 61.7336C65.3398 61.2096 65.4514 60.7821 65.6675 60.451C65.8906 60.12 66.1835 59.858 66.546 59.6649C66.9157 59.4787 67.327 59.3477 67.7872 59.2718C68.2475 59.1959 68.7215 59.1546 69.2096 59.1339L70.5136 59.0925V58.7891C70.5136 58.1546 70.3742 57.6926 70.1021 57.4099C69.8302 57.1272 69.384 56.9892 68.7703 56.9892C68.1638 56.9892 67.7175 57.0858 67.4386 57.2858C67.1527 57.4857 66.9714 57.7547 66.8808 58.1063L65.7234 57.9753C65.8628 57.2858 66.1905 56.7893 66.7064 56.472C67.2225 56.1548 67.9267 56.0031 68.8192 56.0031C69.3699 56.0031 69.8302 56.0652 70.2067 56.1962C70.5832 56.3273 70.89 56.5135 71.1201 56.7548C71.3572 56.9962 71.5245 57.2995 71.6292 57.6512C71.7337 58.0099 71.7825 58.4098 71.7825 58.8581V63.8025H70.5484V62.775H70.5414ZM70.5136 59.989L69.2933 60.0304C68.7773 60.051 68.345 60.0993 68.0034 60.1752C67.6618 60.2511 67.3898 60.3545 67.1875 60.4924C66.9854 60.6303 66.846 60.7958 66.7623 60.989C66.6786 61.1889 66.6368 61.4165 66.6368 61.6855C66.6368 62.0578 66.7483 62.3612 66.9784 62.5888C67.2085 62.8163 67.585 62.9267 68.1149 62.9267C68.868 62.9267 69.4537 62.7475 69.872 62.3819C70.2903 62.0164 70.4995 61.513 70.4995 60.8785V59.989H70.5136Z" fill="#525455"/>
<path d="M73.8262 56.2236H77.1381C77.7169 56.2236 78.191 56.2788 78.5676 56.3822C78.944 56.4857 79.2439 56.6306 79.4601 56.8168C79.6831 57.003 79.8366 57.2098 79.9202 57.4374C80.0108 57.6719 80.0528 57.9132 80.0528 58.1614C80.0528 58.5545 79.9691 58.8994 79.7948 59.182C79.6204 59.4648 79.3345 59.6924 78.937 59.8579C79.3833 60.0027 79.725 60.2303 79.9551 60.5405C80.1853 60.8509 80.2968 61.2094 80.2968 61.6301C80.2968 61.9405 80.2479 62.2231 80.1573 62.4852C80.0666 62.7473 79.9063 62.9749 79.6763 63.1748C79.4461 63.3749 79.1394 63.5265 78.7557 63.6368C78.3723 63.7473 77.8773 63.8024 77.2846 63.8024H73.8262V56.2236ZM77.201 59.4579C77.7587 59.4579 78.163 59.3613 78.4142 59.1683C78.6651 58.9752 78.7907 58.6993 78.7907 58.3408C78.7907 57.9753 78.6582 57.6925 78.4001 57.5063C78.1423 57.3201 77.7169 57.2236 77.1312 57.2236H75.1091V59.4579H77.201ZM77.2916 62.7887C77.9261 62.7887 78.3723 62.6921 78.6234 62.4922C78.8743 62.2922 79.0068 62.0025 79.0068 61.6164C79.0068 61.2301 78.8674 60.9268 78.5955 60.713C78.3235 60.4924 77.8911 60.3889 77.3055 60.3889H75.1091V62.7956H77.2916V62.7887Z" fill="#525455"/>
<path d="M83.9573 57.2926H81.3008V56.2168H87.855V57.2926H85.2334V63.8024H83.9573V57.2926Z" fill="#525455"/>
<path d="M92.4368 64.0369C91.8581 64.0369 91.3491 63.9403 90.8958 63.7541C90.4496 63.5679 90.0661 63.299 89.7524 62.9473C89.4386 62.6025 89.2015 62.1819 89.0342 61.6853C88.8668 61.1957 88.7832 60.6371 88.7832 60.0165C88.7832 59.4097 88.8738 58.8579 89.0482 58.3545C89.2224 57.8581 89.4734 57.4305 89.7941 57.0787C90.1149 56.7271 90.5054 56.4581 90.9586 56.2651C91.4118 56.0789 91.9208 55.9823 92.4786 55.9823C93.0434 55.9823 93.5525 56.0789 94.0057 56.2651C94.4519 56.4513 94.8424 56.7202 95.1561 57.065C95.4769 57.4098 95.714 57.8235 95.8813 58.3132C96.0485 58.8028 96.1323 59.3476 96.1323 59.9614C96.1323 60.582 96.0485 61.1406 95.8743 61.644C95.6999 62.1474 95.4559 62.575 95.1422 62.9266C94.8215 63.2783 94.438 63.5541 93.9778 63.7473C93.5175 63.9403 93.0086 64.0369 92.4368 64.0369ZM92.4577 62.9955C92.8691 62.9955 93.2177 62.9198 93.5106 62.768C93.8035 62.6163 94.0475 62.4095 94.2357 62.1474C94.424 61.8785 94.5634 61.5681 94.6541 61.1957C94.7447 60.8302 94.7867 60.4302 94.7867 59.989C94.7867 59.5476 94.7447 59.1545 94.6541 58.7959C94.5634 58.4304 94.424 58.1202 94.2357 57.8581C94.0475 57.596 93.8035 57.396 93.5106 57.2512C93.2177 57.1064 92.8621 57.0306 92.4577 57.0306C92.0464 57.0306 91.6977 57.0995 91.4118 57.2512C91.126 57.396 90.882 57.596 90.6937 57.8581C90.5054 58.1202 90.366 58.4304 90.2753 58.7959C90.1847 59.1614 90.1427 59.5544 90.1427 59.989C90.1427 60.4234 90.1847 60.8233 90.2753 61.1957C90.366 61.5612 90.4984 61.8785 90.6866 62.1474C90.8749 62.4163 91.112 62.6232 91.4049 62.768C91.6908 62.9198 92.0464 62.9955 92.4577 62.9955Z" fill="#525455"/>
<path d="M97.9238 56.2236H99.4786L102.073 62.4715L104.757 56.2236H106.235V63.8093H105.064V58.0649L102.553 63.8093H101.501L99.1092 58.127V63.8093H97.9238V56.2236Z" fill="#525455"/>
<path d="M111.688 64.0369C111.11 64.0369 110.601 63.9403 110.147 63.7541C109.701 63.5679 109.318 63.299 109.004 62.9473C108.69 62.6025 108.454 62.1819 108.286 61.6853C108.119 61.1957 108.035 60.6371 108.035 60.0165C108.035 59.4097 108.126 58.8579 108.3 58.3545C108.474 57.8581 108.726 57.4305 109.046 57.0787C109.367 56.7271 109.757 56.4581 110.21 56.2651C110.664 56.0789 111.173 55.9823 111.731 55.9823C112.295 55.9823 112.805 56.0789 113.258 56.2651C113.703 56.4513 114.095 56.7202 114.408 57.065C114.729 57.4098 114.966 57.8235 115.133 58.3132C115.3 58.8028 115.384 59.3476 115.384 59.9614C115.384 60.582 115.3 61.1406 115.126 61.644C114.952 62.1474 114.707 62.575 114.394 62.9266C114.074 63.2783 113.69 63.5541 113.229 63.7473C112.769 63.9403 112.254 64.0369 111.688 64.0369ZM111.702 62.9955C112.114 62.9955 112.463 62.9198 112.755 62.768C113.048 62.6163 113.292 62.4095 113.481 62.1474C113.669 61.8785 113.809 61.5681 113.899 61.1957C113.99 60.8302 114.031 60.4302 114.031 59.989C114.031 59.5476 113.99 59.1545 113.899 58.7959C113.809 58.4304 113.669 58.1202 113.481 57.8581C113.292 57.596 113.048 57.396 112.755 57.2512C112.463 57.1064 112.107 57.0306 111.702 57.0306C111.291 57.0306 110.943 57.0995 110.657 57.2512C110.371 57.396 110.127 57.596 109.938 57.8581C109.75 58.1202 109.61 58.4304 109.52 58.7959C109.429 59.1614 109.388 59.5544 109.388 59.989C109.388 60.4234 109.429 60.8233 109.52 61.1957C109.61 61.5612 109.743 61.8785 109.932 62.1474C110.12 62.4163 110.357 62.6232 110.65 62.768C110.943 62.9198 111.291 62.9955 111.702 62.9955Z" fill="#525455"/>
<path d="M123.317 54.2928L121.95 54.541C121.177 54.679 120.584 54.8376 120.159 55.0376C119.74 55.2306 119.412 55.4444 119.176 55.672C118.618 56.2167 118.283 57.0443 118.179 58.1683C118.492 57.6787 118.876 57.3063 119.336 57.0512C119.796 56.8029 120.333 56.6719 120.946 56.6719C121.413 56.6719 121.846 56.7477 122.236 56.9064C122.627 57.0581 122.969 57.2926 123.255 57.596C123.541 57.8994 123.763 58.2717 123.924 58.72C124.077 59.1614 124.161 59.6786 124.161 60.2716C124.161 60.8233 124.084 61.3267 123.931 61.7887C123.777 62.2508 123.554 62.6438 123.255 62.9817C122.954 63.3197 122.585 63.5818 122.145 63.7748C121.707 63.961 121.191 64.0575 120.605 64.0575C119.928 64.0575 119.357 63.9403 118.89 63.7128C118.423 63.4783 118.039 63.1611 117.746 62.7473C117.453 62.3336 117.238 61.8509 117.111 61.2923C116.979 60.7337 116.916 60.1199 116.916 59.4648C116.916 58.8579 116.951 58.32 117.014 57.858C117.077 57.3961 117.175 56.9822 117.3 56.6237C117.426 56.265 117.578 55.9547 117.753 55.6789C117.927 55.4099 118.129 55.1617 118.353 54.941C118.716 54.5756 119.21 54.2652 119.838 54.01C120.465 53.7618 121.211 53.5687 122.063 53.4308L123.164 53.2446L123.317 54.2928ZM120.751 57.7132C120.465 57.7132 120.187 57.7546 119.908 57.8373C119.629 57.9201 119.378 58.058 119.155 58.2511C118.89 58.4718 118.687 58.7476 118.555 59.0648C118.415 59.382 118.353 59.7337 118.353 60.1061C118.353 60.9888 118.534 61.6922 118.897 62.2163C119.259 62.7404 119.838 63.0093 120.64 63.0093C121.372 63.0093 121.923 62.7748 122.285 62.306C122.648 61.837 122.829 61.175 122.829 60.3269C122.815 58.5821 122.125 57.7132 120.751 57.7132Z" fill="#525455"/>
<path d="M132.243 63.8024H131.045V58.0926L127.133 63.8024H125.934V56.2168H127.118V61.9405L131.037 56.2168H132.258V63.8024H132.243Z" fill="#525455"/>
<path d="M139.642 57.265H137.104L136.783 59.8716C136.693 60.5957 136.573 61.2095 136.414 61.7129C136.26 62.2162 136.058 62.6369 135.814 62.9541C135.569 63.2782 135.277 63.5127 134.942 63.6576C134.608 63.8024 134.21 63.8714 133.763 63.8714H133.512V62.83H133.659C133.91 62.83 134.141 62.7818 134.343 62.6852C134.544 62.5886 134.725 62.4163 134.887 62.1611C135.047 61.906 135.186 61.5612 135.304 61.1129C135.424 60.6646 135.521 60.0992 135.598 59.4096L135.968 56.2098H140.925V63.7955H139.648V57.265H139.642Z" fill="#525455"/>
<path d="M149.298 63.8024H148.1V58.0926L144.181 63.8024H142.98V56.2168H144.167V61.9405L148.085 56.2168H149.305V63.8024H149.298Z" fill="#525455"/>
<path d="M157.901 61.2648C157.776 62.1267 157.442 62.8025 156.905 63.2922C156.368 63.7886 155.609 64.03 154.632 64.03C154.053 64.03 153.544 63.9404 153.097 63.7542C152.651 63.568 152.282 63.3059 151.982 62.9542C151.682 62.6094 151.459 62.1887 151.306 61.6923C151.153 61.2026 151.076 60.644 151.076 60.0234C151.076 59.4166 151.159 58.865 151.327 58.3615C151.494 57.865 151.731 57.4374 152.046 57.0858C152.359 56.7341 152.741 56.4582 153.188 56.2651C153.634 56.0721 154.144 55.9755 154.715 55.9755C155.622 55.9755 156.326 56.1961 156.828 56.6375C157.33 57.0789 157.643 57.6857 157.784 58.458L156.507 58.6925C156.459 58.4511 156.396 58.2305 156.313 58.0236C156.229 57.8237 156.117 57.6443 155.971 57.4926C155.824 57.3408 155.643 57.2237 155.434 57.1478C155.225 57.065 154.974 57.0237 154.681 57.0237C154.283 57.0237 153.935 57.0995 153.656 57.2512C153.37 57.403 153.14 57.6099 152.959 57.8788C152.777 58.1478 152.645 58.465 152.56 58.8304C152.478 59.1959 152.436 59.5822 152.436 59.9959C152.436 60.4234 152.478 60.8165 152.553 61.175C152.63 61.5406 152.757 61.8509 152.938 62.1199C153.113 62.3888 153.342 62.5957 153.628 62.7473C153.913 62.8991 154.255 62.9818 154.667 62.9818C155.28 62.9818 155.74 62.8301 156.04 62.5198C156.34 62.2095 156.528 61.7888 156.619 61.2578H157.901V61.2648Z" fill="#525455"/>
<path d="M161.562 57.2926H158.906V56.2168H165.46V57.2926H162.839V63.8024H161.562V57.2926Z" fill="#525455"/>
<path d="M170.049 64.0369C169.47 64.0369 168.961 63.9403 168.508 63.7541C168.061 63.5679 167.678 63.299 167.364 62.9473C167.051 62.6025 166.812 62.1819 166.645 61.6853C166.478 61.1957 166.395 60.6371 166.395 60.0165C166.395 59.4097 166.486 58.8579 166.66 58.3545C166.833 57.8581 167.085 57.4305 167.407 57.0787C167.726 56.7271 168.116 56.4581 168.57 56.2651C169.023 56.0789 169.533 55.9823 170.091 55.9823C170.654 55.9823 171.164 56.0789 171.618 56.2651C172.064 56.4513 172.454 56.7202 172.768 57.065C173.089 57.4098 173.326 57.8235 173.493 58.3132C173.66 58.8028 173.744 59.3476 173.744 59.9614C173.744 60.582 173.66 61.1406 173.485 61.644C173.312 62.1474 173.068 62.575 172.754 62.9266C172.433 63.2783 172.049 63.5541 171.59 63.7473C171.13 63.9403 170.62 64.0369 170.049 64.0369ZM170.062 62.9955C170.473 62.9955 170.822 62.9198 171.115 62.768C171.409 62.6163 171.652 62.4095 171.84 62.1474C172.029 61.8785 172.168 61.5681 172.259 61.1957C172.349 60.8302 172.391 60.4302 172.391 59.989C172.391 59.5476 172.349 59.1545 172.259 58.7959C172.168 58.4304 172.029 58.1202 171.84 57.8581C171.652 57.596 171.409 57.396 171.115 57.2512C170.822 57.1064 170.466 57.0306 170.062 57.0306C169.65 57.0306 169.302 57.0995 169.016 57.2512C168.731 57.396 168.488 57.596 168.298 57.8581C168.11 58.1202 167.97 58.4304 167.88 58.7959C167.789 59.1614 167.747 59.5544 167.747 59.989C167.747 60.4234 167.789 60.8233 167.88 61.1957C167.97 61.5612 168.103 61.8785 168.291 62.1474C168.479 62.4163 168.716 62.6232 169.01 62.768C169.302 62.9198 169.658 62.9955 170.062 62.9955Z" fill="#525455"/>
<path d="M175.529 56.2236H178.842C179.42 56.2236 179.894 56.2788 180.271 56.3822C180.648 56.4857 180.947 56.6306 181.164 56.8168C181.387 57.003 181.539 57.2098 181.623 57.4374C181.714 57.6719 181.757 57.9132 181.757 58.1614C181.757 58.5545 181.672 58.8994 181.499 59.182C181.324 59.4648 181.038 59.6924 180.64 59.8579C181.087 60.0027 181.428 60.2303 181.659 60.5405C181.889 60.8509 182 61.2094 182 61.6301C182 61.9405 181.951 62.2231 181.861 62.4852C181.77 62.7473 181.61 62.9749 181.38 63.1748C181.149 63.3749 180.843 63.5265 180.458 63.6368C180.075 63.7473 179.581 63.8024 178.987 63.8024H175.529V56.2236ZM178.904 59.4579C179.463 59.4579 179.866 59.3613 180.118 59.1683C180.368 58.9752 180.495 58.6993 180.495 58.3408C180.495 57.9753 180.362 57.6925 180.105 57.5063C179.845 57.3201 179.42 57.2236 178.835 57.2236H176.812V59.4579H178.904ZM178.987 62.7887C179.622 62.7887 180.068 62.6921 180.32 62.4922C180.571 62.2922 180.703 62.0025 180.703 61.6164C180.703 61.2301 180.564 60.9268 180.292 60.713C180.02 60.4924 179.587 60.3889 179.002 60.3889H176.806V62.7956H178.987V62.7887Z" fill="#525455"/>
<path d="M78.2407 19.6749V13.965H91.8653V7H70.7383V43.0938H88.0512L93.3295 37.8735V24.8882L87.8003 19.6679H78.2407V19.6749ZM85.8199 36.1287H78.2477V26.6398H85.8199V36.1287Z" fill="#525455"/>
<path d="M103.251 7L95.7207 43.0938H103.09L104.792 34.4944H114.351L116.053 43.0938H123.604L116.081 7H103.251ZM106.131 27.7087L108.85 13.965H110.279L113.005 27.7087H106.131Z" fill="#525455"/>
<path d="M143.589 21.7506H134.433V7H126.93V43.0868H134.433V28.7293H143.589V43.0868H151.098V7H143.589V21.7506Z" fill="#525455"/>
<path d="M174.74 24.64L181.169 7H173.478L168.319 21.2748H164.156V7H156.646V43.0868H164.156V28.2536H168.192L173.471 43.0868H181.441L174.74 24.64Z" fill="#525455"/>
<path d="M26.7051 43.0868H34.2077V13.965H43.7532V7H26.7051V43.0868Z" fill="#990032"/>
<path d="M0 7V43.0868H7.33522V33.922H16.8878L22.417 28.7017V12.2203L17.1456 7H0ZM14.9145 26.9639H7.33522V13.965H14.9074V26.9639H14.9145Z" fill="#990032"/>
<path d="M53.5437 13.965H64.1838V7H51.3193L46.041 12.2203V37.8735L51.3193 43.0938H64.2466V36.1287H53.5437V13.965Z" fill="#990032"/>
</svg>
