<svg width="182" height="72" viewBox="0 0 182 72" fill="none" xmlns="http://www.w3.org/2000/svg">
<path d="M83.1284 30.2704L86.8604 27.5201H74.3691V44.0409H86.8604V41.2906H77.9335V37.061H85.5488V34.3108H77.9335V30.2704H83.1284Z" fill="#21A038"/>
<path d="M64.9411 33.9592H60.6141V30.2704H67.54L71.272 27.5201H57.0391V44.0409H64.4706C68.646 44.0409 71.0394 42.1478 71.0394 38.8513C71.0503 35.6953 68.8814 33.9592 64.9411 33.9592ZM64.3218 41.2825H60.6033V36.7094H64.3218C66.5826 36.7094 67.6373 37.4775 67.6373 39C67.6373 40.5226 66.5232 41.2825 64.3218 41.2825Z" fill="#21A038"/>
<path d="M96.9829 27.5201H90.1816V44.0409H93.7459V39.3597H96.991C101.318 39.3597 104.022 37.0799 104.022 33.4318C104.022 29.7837 101.324 27.5201 96.9829 27.5201ZM96.9073 36.6094H93.7459V30.2704H96.9073C99.1924 30.2704 100.45 31.3955 100.45 33.4399C100.45 35.4844 99.1924 36.6094 96.9073 36.6094Z" fill="#21A038"/>
<path d="M50.9184 40.4711C49.9741 40.9839 48.9154 41.249 47.8409 41.2418C44.6281 41.2418 42.2942 38.9485 42.2942 35.7872C42.2942 32.6259 44.6281 30.3326 47.8409 30.3326C49.0031 30.3159 50.1402 30.6712 51.0861 31.3467L53.6444 29.4537L53.4739 29.3049C51.9812 27.9933 49.9854 27.2983 47.7056 27.2983C45.2312 27.2983 42.9865 28.1339 41.383 29.6484C40.5742 30.4296 39.9351 31.3689 39.5051 32.4078C39.0753 33.4467 38.8639 34.563 38.8841 35.6871C38.8651 36.8246 39.0758 37.9543 39.5032 39.0086C39.9307 40.0629 40.5663 41.0201 41.3721 41.8233C43.0745 43.4309 45.3403 44.3049 47.6812 44.2572C50.2505 44.2572 52.495 43.3621 54.0149 41.7313L51.708 40.0303L50.9184 40.4711Z" fill="#21A038"/>
<path d="M146.951 27.5418V44.0625H150.516V37.3017H158.115V44.0625H161.676V27.5418H158.109V34.3161H150.51V27.5418H146.951ZM140.824 44.0625H144.572L137.607 27.5391H133.971L126.845 44.0625H130.455L131.896 40.7416H139.469L140.824 44.0625ZM132.965 37.9724L135.725 31.3414L138.322 37.9724H132.965ZM169.706 37.3991H171.924L177.394 44.0625H181.991L174.69 35.5169L181.061 27.5418H176.969L171.658 34.6218H169.692V27.5418H166.133V44.0625H169.7L169.706 37.3991ZM115.057 33.9808V30.2921H124.379V27.5418H111.492V44.0625H118.934C123.109 44.0625 125.506 42.1694 125.506 38.8729C125.506 35.717 123.343 33.9808 119.394 33.9808H115.057ZM115.057 41.3123V36.7311H118.775C121.038 36.7311 122.091 37.4964 122.091 39.0216C122.091 40.5469 120.977 41.3123 118.775 41.3123H115.057Z" fill="#21A038"/>
<path d="M27.7568 27.3876C28.4089 28.2303 28.9607 29.146 29.401 30.1163L16.8935 39.3354L11.666 36.0577V32.1175L16.8935 35.3925L27.7568 27.3876Z" fill="#21A038"/>
<path d="M16.9172 47.1998C16.7247 47.1998 16.5343 47.1949 16.3437 47.1851L16.1719 50.6016C16.4187 50.6134 16.6674 50.6203 16.9172 50.6203C21.0367 50.6203 24.7662 48.963 27.4651 46.2824L25.0248 43.8597C22.9478 45.9218 20.0802 47.1998 16.9172 47.1998Z" fill="url(#paint0_linear_445_14095)"/>
<path d="M5.4452 35.8099C5.4452 35.6187 5.45013 35.4296 5.46 35.2404L2.01876 35.0699C2.00691 35.3149 2 35.5619 2 35.8099C2 39.8996 3.66929 43.6024 6.36918 46.282L8.80942 43.8592C6.73147 41.7972 5.4452 38.95 5.4452 35.8099Z" fill="url(#paint1_linear_445_14095)"/>
<path d="M16.9146 47.1993C13.5465 47.1993 10.5129 45.7507 8.41225 43.4476L5.85352 45.7458C8.583 48.739 12.5277 50.6197 16.9146 50.6197V47.1993Z" fill="url(#paint2_linear_445_14095)"/>
<path d="M31.8344 35.8102C31.8344 34.9047 31.7525 34.0176 31.5955 33.1573L28.3844 35.5065C28.3873 35.6075 28.3882 35.7084 28.3882 35.8102C28.3882 39.1542 26.9292 42.1661 24.6094 44.2516L26.9243 46.7921C29.94 44.0831 31.8344 40.1667 31.8344 35.8102Z" fill="#21A038"/>
<path d="M16.915 24.4214C17.1075 24.4214 17.298 24.4283 17.4886 24.4371L17.6603 21.0186C17.4135 21.0069 17.1647 21 16.915 21C12.7955 21 9.06612 22.6573 6.36719 25.3378L8.80745 27.7605C10.8844 25.6985 13.7531 24.4214 16.915 24.4214Z" fill="url(#paint3_linear_445_14095)"/>
<path d="M28.719 26.7562C29.4238 27.6598 30.026 28.6467 30.5067 29.7003L16.9145 39.6451L11.2363 36.111V31.8594L16.9145 35.3936L28.719 26.7562Z" fill="#21A038"/>
<path d="M9.22404 27.3681L6.90916 24.8278C3.89436 27.5377 2 31.4541 2 35.8095H5.44619C5.4452 32.4655 6.90423 29.4538 9.22404 27.3681Z" fill="url(#paint4_linear_445_14095)"/>
<path d="M23.3829 26.409L26.2841 24.2862C23.7234 22.232 20.4649 21 16.916 21V24.4214C19.3138 24.4214 21.5409 25.1555 23.3829 26.409Z" fill="url(#paint5_linear_445_14095)"/>
<defs>
<linearGradient id="paint0_linear_445_14095" x1="15.9449" y1="48.5567" x2="26.9036" y2="46.0619" gradientUnits="userSpaceOnUse">
<stop offset="0.1226" stop-color="#A3CD39"/>
<stop offset="0.2846" stop-color="#86C339"/>
<stop offset="0.8693" stop-color="#21A038"/>
</linearGradient>
<linearGradient id="paint1_linear_445_14095" x1="7.06567" y1="45.8542" x2="3.34859" y2="35.032" gradientUnits="userSpaceOnUse">
<stop offset="0.1444" stop-color="#F2E913"/>
<stop offset="0.3037" stop-color="#E7E518"/>
<stop offset="0.5823" stop-color="#CADB26"/>
<stop offset="0.891" stop-color="#A3CD39"/>
</linearGradient>
<linearGradient id="paint2_linear_445_14095" x1="6.71765" y1="45.3299" x2="16.9055" y2="49.1641" gradientUnits="userSpaceOnUse">
<stop offset="0.1324" stop-color="#F2E913"/>
<stop offset="0.2977" stop-color="#EBE716"/>
<stop offset="0.5306" stop-color="#D9E01F"/>
<stop offset="0.8023" stop-color="#BBD62D"/>
<stop offset="0.9829" stop-color="#A3CD39"/>
</linearGradient>
<linearGradient id="paint3_linear_445_14095" x1="7.35159" y1="25.9437" x2="17.0315" y2="22.2282" gradientUnits="userSpaceOnUse">
<stop offset="0.0592" stop-color="#0FA8E0"/>
<stop offset="0.5385" stop-color="#0099F9"/>
<stop offset="0.9234" stop-color="#0291EB"/>
</linearGradient>
<linearGradient id="paint4_linear_445_14095" x1="3.28274" y1="36.2246" x2="7.3283" y2="25.6244" gradientUnits="userSpaceOnUse">
<stop offset="0.0698" stop-color="#A3CD39"/>
<stop offset="0.2599" stop-color="#81C55F"/>
<stop offset="0.9216" stop-color="#0FA8E0"/>
</linearGradient>
<linearGradient id="paint5_linear_445_14095" x1="16.1951" y1="22.147" x2="25.5593" y2="25.0572" gradientUnits="userSpaceOnUse">
<stop offset="0.0566" stop-color="#0291EB"/>
<stop offset="0.79" stop-color="#0C8ACB"/>
</linearGradient>
</defs>
</svg>
