<svg width="182" height="72" viewBox="0 0 182 72" fill="none" xmlns="http://www.w3.org/2000/svg">
<path fill-rule="evenodd" clip-rule="evenodd" d="M173.697 33.4038L181.274 25.138H175.63L169.424 32.0158V25.138H164.934V42.5023H169.424V35.1928L176.066 42.5023H181.867L173.697 33.4038Z" fill="#F03024"/>
<path fill-rule="evenodd" clip-rule="evenodd" d="M157.015 31.6149H150.81V25.1384H146.318V42.5024H150.81V35.6554H157.015V42.5024H161.505V25.1384H157.015V31.6149Z" fill="#F03024"/>
<path fill-rule="evenodd" clip-rule="evenodd" d="M26.6629 34.545C26.5555 37.7825 26.1329 38.4311 24.293 38.4311V42.5024H24.9787C29.5685 42.5024 30.6725 40.1581 30.8417 34.946L31.0291 29.1785H35.3322V42.5024H39.8233V25.1384H26.9748L26.6629 34.545Z" fill="#F03024"/>
<path fill-rule="evenodd" clip-rule="evenodd" d="M47.7428 30.4122H50.9858C55.2582 30.4122 57.6908 32.5713 57.6908 36.3953C57.6908 39.3567 55.9443 42.5025 51.0481 42.5025H43.252V25.1381H47.7428V30.4122ZM47.7423 38.6781H50.6424C52.2327 38.6781 53.137 37.9686 53.137 36.3953C53.137 34.9461 52.2016 34.2674 50.6424 34.2674H47.7423V38.6781Z" fill="#F03024"/>
<path fill-rule="evenodd" clip-rule="evenodd" d="M72.3164 24.7371V18.291H67.826V24.7371C62.6807 25.1688 59.2188 28.7776 59.2188 33.8048C59.2188 38.8628 62.6807 42.4716 67.826 42.9033V49.4418H72.3164V42.9033C77.4618 42.5024 80.9238 38.8628 80.9238 33.8048C80.9238 28.7464 77.4618 25.138 72.3164 24.7371ZM67.8255 38.7087C65.3305 38.3694 63.7713 36.5188 63.7713 33.8048C63.7713 31.0907 65.3305 29.2401 67.8255 28.9008V38.7087ZM76.3701 33.8048C76.3701 31.0907 74.8109 29.2401 72.3159 28.9008V38.7087C74.8109 38.3694 76.3701 36.5188 76.3701 33.8048Z" fill="#F03024"/>
<path fill-rule="evenodd" clip-rule="evenodd" d="M97.7631 31.3373V37.1668C97.7631 38.1227 98.0751 38.4928 98.8859 38.4928V42.5025H97.3266C95.6116 42.5025 94.3016 41.8547 93.7093 40.6827C93.0443 41.6528 91.5231 42.9342 88.7816 42.9342C85.0441 42.9342 82.4512 40.4666 82.4512 36.8583C82.4512 33.4036 84.8212 31.3373 88.8132 31.3373H93.2728C93.2728 29.2402 92.1497 28.4384 90.4036 28.4384C88.2832 28.4384 87.597 29.5483 87.4408 30.1961H82.8878C83.1063 27.2356 85.632 24.3975 90.4036 24.3975C95.0189 24.3975 97.7631 27.0811 97.7631 31.3373ZM89.9665 39.1714C91.8376 39.1714 93.2722 38.0302 93.2722 36.0256V34.8844H89.6857C88.4695 34.8844 87.0661 35.1617 87.0661 36.8583C87.0661 38.5856 88.3445 39.1714 89.9665 39.1714Z" fill="#F03024"/>
<path fill-rule="evenodd" clip-rule="evenodd" d="M111.982 27.6053H117.003C122.399 27.6053 125.486 30.3814 125.486 34.9768C125.486 39.85 122.399 42.5024 117.003 42.5024H107.273V18.2907H123.615V22.7013H111.982V27.6053ZM111.982 38.1226H116.785C119.279 38.1226 120.683 37.0435 120.683 34.9768C120.683 32.9722 119.279 31.831 116.785 31.831H111.982V38.1226Z" fill="#F03024"/>
<path fill-rule="evenodd" clip-rule="evenodd" d="M142.67 31.3373V37.1668C142.67 38.1227 142.981 38.4928 143.792 38.4928V42.5025H142.234C140.518 42.5025 139.208 41.8547 138.616 40.6827C137.951 41.6528 136.429 42.9342 133.688 42.9342C129.951 42.9342 127.357 40.4666 127.357 36.8583C127.357 33.4036 129.727 31.3373 133.719 31.3373H138.179C138.179 29.2402 137.056 28.4384 135.31 28.4384C133.19 28.4384 132.503 29.5483 132.347 30.1961H127.794C128.013 27.2356 130.538 24.3975 135.31 24.3975C139.926 24.3975 142.67 27.0811 142.67 31.3373ZM134.873 39.1714C136.745 39.1714 138.178 38.0302 138.178 36.0256V34.8844H134.592C133.376 34.8844 131.972 35.1617 131.972 36.8583C131.972 38.5856 133.251 39.1714 134.873 39.1714Z" fill="#F03024"/>
<path fill-rule="evenodd" clip-rule="evenodd" d="M0 54.8395H24.0127V49.9043H0V54.8395Z" fill="#F03024"/>
<path fill-rule="evenodd" clip-rule="evenodd" d="M12.1946 18C14.8981 18 15.6873 19.595 16.3719 21.6143L23.4523 42.5021H18.213L16.6227 37.5369H7.1427L5.42731 42.5021H0.5L7.9303 21.6143C8.65081 19.5887 9.49034 18 12.1946 18ZM11.9457 23.4416L8.57753 33.3419H15.2514L12.0702 23.4416H11.9457Z" fill="#F03024"/>
</svg>
