<svg width="182" height="72" viewBox="0 0 182 72" fill="none" xmlns="http://www.w3.org/2000/svg">
<path fill-rule="evenodd" clip-rule="evenodd" d="M45.6224 35.1314L46.222 33.2294L44.2369 33.292C44.0703 33.292 42.8503 33.2559 41.6692 32.4078C41.758 32.415 41.8443 32.4282 41.9368 32.4282C43.1532 32.4282 44.3319 31.7016 44.8025 30.6622L45.6565 28.7855C44.5861 28.8 43.6069 28.6664 43.6069 28.6664C43.5984 28.6664 42.8272 28.5666 41.9356 27.6631C41.2958 27.0171 40.5039 26.6743 39.6464 26.6743C39.3068 26.6755 38.9696 26.7287 38.6465 26.8318C38.6915 26.6803 38.7341 26.5251 38.7596 26.3663C39.0309 24.6099 37.8912 23.2722 37.8912 23.2722L36.3987 21.4412L35.473 23.5922C35.4694 23.5994 35.2358 24.1046 34.8186 24.35C34.6921 23.7173 34.3819 23.0063 33.7203 22.3266C32.471 21.0466 30.9517 20.8541 30.1563 20.8541C29.7877 20.8541 29.5237 20.895 29.4605 20.9046L27.659 21.2559C27.7625 20.8577 27.985 20.1612 28.3889 19.5368L29.3839 18.003L26.8818 18.2857L26.0851 16.6087L24.5415 17.3967L23.1147 16L21.6916 17.3955L20.1456 16.6087L19.35 18.2845L16.8492 18.0018L17.8454 19.538C18.2505 20.1624 18.4706 20.8553 18.574 21.2535L16.8552 20.9167L16.7957 20.9083C16.5583 20.8713 16.3183 20.8532 16.078 20.8541C15.2824 20.8541 13.7632 21.0466 12.5177 22.3266C11.8548 23.0051 11.5434 23.7173 11.4169 24.35C11.0021 24.1058 10.7697 23.6102 10.7697 23.6102L9.84287 21.4448L8.32606 23.2902C8.14116 23.5272 7.22767 24.7855 7.4746 26.3699C7.50135 26.5275 7.54272 26.6815 7.58772 26.8331C7.26555 26.7296 6.92903 26.6764 6.5903 26.6755C5.73153 26.6755 4.93968 27.0183 4.29866 27.6643C3.4107 28.5642 2.64318 28.6664 2.64925 28.6664C2.64925 28.6664 1.83794 28.8108 0.581425 28.7867L1.43167 30.6634C1.90362 31.7028 3.08349 32.4294 4.29743 32.4294C4.38988 32.4294 4.47624 32.4162 4.56626 32.409C3.38637 33.2583 2.16757 33.2932 2.02039 33.2932L0 33.2294L0.611834 35.1302C0.920793 36.1118 1.94985 37.7347 3.92036 37.9091C3.70628 38.7993 3.23068 39.7978 2.18703 40.2285L0.681167 40.842L1.50222 42.2592C1.96565 43.0231 3.0543 43.9169 4.60275 43.9169C4.93725 43.9169 5.2608 43.882 5.57341 43.8171C5.65247 44.1659 5.75222 44.5148 5.87021 44.8637C6.32999 46.2231 5.93345 47.171 5.92859 47.1819L5.18661 48.7241L6.84451 49.1572C6.86519 49.1644 7.36755 49.3016 7.99399 49.3016C8.46352 49.3044 8.92884 49.214 9.3624 49.0357C9.5777 49.417 9.83801 49.7659 10.1421 50.0775C11.2052 51.159 12.7135 51.7064 14.6208 51.7064H14.6268L15.9892 51.6883L13.1745 52.848L15.3117 53.8718C16.0889 54.2471 17.0085 54.6898 17.9475 55.0291L17.68 55.7521L18.4159 56.0853C18.4815 56.1154 19.8998 56.7421 22.2535 56.8757C22.2535 56.8757 22.8216 56.9021 23.1341 56.9021C23.448 56.9021 24.0099 56.8745 24.0099 56.8745C26.3478 56.7373 27.7539 56.1154 27.8196 56.0853L28.5579 55.7521L28.2892 55.0279C29.2525 54.679 30.2073 54.217 30.9529 53.8573L33.05 52.8468L30.2439 51.6883L31.6123 51.7064C33.522 51.7064 35.0302 51.1578 36.0921 50.0763C36.395 49.7659 36.6541 49.4182 36.8707 49.0357C37.3047 49.2133 37.7705 49.3032 38.2402 49.3004C38.857 49.3004 39.3642 49.1656 39.3775 49.1608L41.044 48.7241L40.3179 47.2095C40.3008 47.171 39.9042 46.2231 40.3641 44.8613C40.4821 44.5148 40.5805 44.1647 40.6608 43.8171C40.9735 43.882 41.3007 43.9157 41.6376 43.9169C43.6105 43.9169 44.5568 42.5419 44.7393 42.2435L45.5531 40.8408L44.0472 40.2285C43.0011 39.799 42.5267 38.8005 42.3151 37.9115C44.2601 37.7431 45.3025 36.119 45.6237 35.1326L45.6224 35.1314Z" fill="#FFFFFE"/>
<path fill-rule="evenodd" clip-rule="evenodd" d="M23.1154 21.8262C21.5219 21.8274 20.3263 22.3446 20.0659 22.9546L23.1154 24.1455L26.1661 22.9546C25.9082 22.3446 24.7125 21.8274 23.1154 21.8262ZM23.1483 53.3918H23.0874C22.1216 53.3978 20.7897 53.2017 20.1498 53.0152L19.3787 55.0832C19.8872 55.2624 21.6096 55.6065 23.1191 55.6065C24.6261 55.6065 26.3498 55.2624 26.857 55.0832L26.087 53.0164C25.4435 53.2017 24.114 53.3978 23.1483 53.3918ZM28.9832 51.3346C28.409 51.657 27.1282 52.1406 26.3825 52.3644L27.0078 54.0727C28.0049 53.8119 28.9734 53.454 29.8991 53.0044L28.6 52.5773L28.9832 51.3346ZM17.2513 51.3346L17.6356 52.5773L16.3353 53.0044C17.12 53.3954 18.076 53.7599 19.2255 54.0715L19.8519 52.3632C19.1075 52.1394 17.8242 51.657 17.2513 51.3346ZM23.1154 19.8496C24.3184 19.8496 25.4958 20.1347 26.4033 20.634C26.486 20.3597 26.6015 20.0253 26.7585 19.6752L26.4154 19.7161L26.0566 19.7522L25.9046 19.4286L25.4447 18.4698L24.6104 18.9004L24.2844 19.0641L24.024 18.8114L23.1154 17.9212L22.2092 18.8114L21.9501 19.0641L21.6254 18.9004L20.786 18.4698L20.3324 19.4286L20.1779 19.7534L19.8178 19.7161L19.4773 19.6752C19.6154 19.9873 19.7341 20.3075 19.8325 20.634C20.7423 20.1347 21.9197 19.8496 23.1166 19.8496H23.1154ZM41.4644 30.9377C41.6213 30.9906 41.7794 31.0147 41.9364 31.0147C42.6174 31.0147 43.2744 30.578 43.4993 30.08C43.4993 30.08 42.2525 30.0054 40.9121 28.6568C40.4864 28.2213 40.034 28.0902 39.6471 28.0902C39.045 28.0902 38.5925 28.4042 38.5925 28.4042C40.2127 29.2583 40.5423 30.6297 41.4644 30.9377ZM4.29815 31.0135C4.45628 31.0135 4.61441 30.9906 4.76646 30.9365C5.6909 30.6285 6.02418 29.2583 7.64074 28.4054C7.64074 28.4054 7.18825 28.0902 6.58979 28.0902C6.20056 28.0902 5.74928 28.2201 5.32112 28.658C3.9819 30.0054 2.73633 30.0812 2.73633 30.0812C2.96015 30.578 3.6182 31.0147 4.29815 31.0147V31.0135Z" fill="#FFFFFE"/>
<path fill-rule="evenodd" clip-rule="evenodd" d="M40.9758 40.7759C39.7229 40.1623 38.9323 38.5383 38.7401 37.9536C38.5334 41.1753 36.946 43.4104 35.091 45.5614C34.1276 46.6778 33.792 47.7629 33.792 47.7629C33.792 47.7629 33.9781 46.5334 34.8101 45.5325C36.541 43.473 38.1854 40.9082 38.3083 37.9416C38.3923 35.8724 37.8558 34.1942 37.0166 32.8108C37.4861 34.2508 37.4192 36.0156 35.8269 37.6625C35.8269 37.6625 38.998 33.8995 34.5656 30.0403C32.7921 28.5726 30.8507 27.6655 29.8522 27.0231C33.4611 28.19 35.2248 26.9052 35.2248 26.9052C34.0717 27.8953 32.5792 27.8785 31.6536 27.7353C31.9053 27.8568 32.1669 27.9843 32.4467 28.1323C35.4912 29.7708 38.2256 32.4667 38.6927 36.1984V36.1696C39.3994 39.8351 40.9758 40.7759 40.9758 40.7759ZM41.9027 36.5052C41.9294 36.5072 41.9562 36.508 41.983 36.5076C43.6798 36.5076 44.2539 34.7067 44.2539 34.7067H44.2211C43.9097 34.7067 41.3869 34.6345 39.6037 32.3885C38.4311 30.9124 37.4691 29.6144 35.5691 29.1043L35.3817 29.0706L35.3416 28.8818C35.2893 28.5943 35.4876 28.3248 35.9401 28.0349C38.5614 26.3338 36.7794 24.1636 36.7794 24.1636C36.7794 24.1636 36.0325 25.8983 34.3576 25.8983L34.2323 25.8959C34.0425 25.8863 33.8589 25.8803 33.674 25.8406L33.365 25.7804C33.365 25.7804 33.843 24.4932 32.6899 23.3131C31.8226 22.4204 30.7656 22.2689 30.1562 22.2689C29.8485 22.2689 29.6539 22.3086 29.6539 22.3086C30.2328 23.058 30.6512 24.3031 29.9823 25.0707C29.4045 25.7299 27.9935 25.7624 27.9935 26.7464C27.9935 27.1627 28.3864 27.6487 29.0919 28.0854C31.2132 29.4087 33.3188 31.1651 34.1946 33.5194C35.2893 36.4547 34.0559 38.4035 32.297 39.5211C32.297 39.5211 32.8493 40.024 33.6484 40.089C33.8114 40.1046 33.9707 40.1118 34.1192 40.1118C35.8087 40.1118 36.682 39.3263 36.682 39.3263C36.682 39.3263 36.5373 40.4114 35.6603 41.4183C34.8478 42.347 33.7835 42.8956 32.1596 42.9184C32.1596 42.9184 32.1085 43.6643 32.8274 44.3115C33.2883 44.7193 34.3503 44.8529 34.3503 44.8529C34.3503 44.8529 32.3603 45.251 32.1401 48.1635C32.0209 49.7419 31.6146 50.2892 31.6146 50.2892H31.6499C36.2673 50.2892 36.1493 46.365 36.1493 46.365C36.1493 46.365 36.4704 47.5271 37.7585 47.8303C37.9143 47.8712 38.0809 47.8868 38.239 47.8868C38.6526 47.8868 39.0138 47.7906 39.0138 47.7906C39.0138 47.7906 38.3387 46.3807 39.0078 44.4089C39.5636 42.7717 39.4736 41.559 39.4736 41.559C39.4736 41.559 40.0952 42.4914 41.6388 42.4998H41.6546C42.0192 42.5053 42.3793 42.4199 42.7017 42.2512C43.024 42.0826 43.2981 41.8362 43.4986 41.535C40.42 40.2682 40.724 36.1816 40.724 36.1816C40.724 36.1816 41.123 36.4775 41.9027 36.5064V36.5052ZM11.142 45.5614C9.28696 43.4104 7.69959 41.1753 7.49037 37.9536C7.2994 38.5395 6.50998 40.1635 5.25834 40.7759C5.25834 40.7759 6.83231 39.8351 7.53903 36.1696V36.1984C8.00733 32.4667 10.7418 29.7708 13.7863 28.1335C14.0661 27.9831 14.3288 27.8568 14.5781 27.7365C13.6538 27.8785 12.16 27.8953 11.0081 26.9064C11.0081 26.9064 12.7719 28.19 16.3796 27.0231C15.3822 27.6655 13.4408 28.5726 11.6686 30.0403C7.23494 33.8995 10.406 37.6625 10.406 37.6625C8.81256 36.0144 8.74688 34.252 9.2164 32.8108C8.37711 34.1942 7.83947 35.8724 7.92705 37.9428C8.04746 40.9082 9.69078 43.473 11.418 45.5338C12.2549 46.5322 12.4435 47.7617 12.4435 47.7617C12.4435 47.7617 12.1028 46.6778 11.142 45.5614ZM11.8839 44.8516C11.8839 44.8516 12.9458 44.7193 13.4068 44.3103C14.1244 43.6643 14.0746 42.9184 14.0746 42.9184C12.4495 42.8956 11.3864 42.347 10.5702 41.4183C9.69687 40.4114 9.55091 39.3263 9.55091 39.3263C9.55091 39.3263 10.4243 40.1118 12.1114 40.1118C12.2634 40.1118 12.4215 40.1046 12.5833 40.089C13.0825 40.039 13.5548 39.8411 13.9384 39.5211C12.177 38.4035 10.9437 36.4547 12.0372 33.5181C12.9129 31.1663 15.0172 29.4087 17.1411 28.0842C17.8453 27.6487 18.237 27.1627 18.237 26.7464C18.237 25.7624 16.8284 25.7299 16.2507 25.0707C15.5816 24.3031 16.0014 23.058 16.5791 22.3086C16.5791 22.3086 16.3857 22.2689 16.0767 22.2689C15.4685 22.2689 14.4115 22.4204 13.543 23.3131C12.3874 24.4944 12.8679 25.7816 12.8679 25.7816L12.559 25.8418C12.3753 25.8791 12.1892 25.8863 11.9995 25.8971L11.8778 25.8983C10.1992 25.8983 9.4536 24.1648 9.4536 24.1648C9.4536 24.1648 7.67404 26.3338 10.2954 28.0349C10.7454 28.3248 10.9437 28.5955 10.8913 28.8818L10.8512 29.0694L10.6603 29.1031C8.76391 29.6144 7.80177 30.9124 6.62675 32.3885C4.84355 34.6345 2.32323 34.7067 2.01063 34.7067H1.97656C1.97656 34.7067 2.55191 36.5076 4.24996 36.5076C4.27672 36.5076 4.30105 36.5076 4.33024 36.5052C5.10994 36.4775 5.51012 36.1816 5.51012 36.1816C5.51012 36.1816 5.81178 40.2682 2.73436 41.535C2.73436 41.535 3.29511 42.501 4.5796 42.501H4.5942C6.13898 42.4914 6.75933 41.559 6.75933 41.559C6.75933 41.559 6.66932 42.7729 7.22277 44.4089C7.89177 46.3819 7.22034 47.7894 7.22034 47.7894C7.22034 47.7894 7.57917 47.8856 7.99395 47.8856C8.15451 47.8856 8.31872 47.8712 8.4732 47.8303C9.76012 47.5271 10.0825 46.365 10.0825 46.365C10.0825 46.365 9.96447 50.2892 14.5831 50.2892H14.617C14.617 50.2892 14.212 49.7419 14.094 48.1635C13.8751 45.2522 11.8827 44.8516 11.8827 44.8516H11.8839ZM22.0735 30.3915H24.2507V31.1314C23.9953 30.821 23.4966 30.8848 23.4966 30.8848V31.9518C23.4966 31.9518 23.5136 32.4763 23.701 32.7037H22.6232C22.8118 32.4763 22.8276 31.9518 22.8276 31.9518V30.8848C22.8276 30.8848 22.3313 30.821 22.0735 31.1314V30.3915ZM19.7015 30.5022C19.7769 30.5828 19.8512 30.6706 19.9229 30.7585C19.9399 30.7789 19.9557 30.797 19.9728 30.821C20.0396 30.9076 20.1066 31.0015 20.1711 31.0953L20.2149 31.1591C20.2915 31.2745 20.3644 31.3936 20.4374 31.5176C21.104 32.6568 22.1695 33.3377 23.1146 33.3389C24.0622 33.3377 25.1265 32.6568 25.7943 31.5176C25.866 31.3938 25.9414 31.2722 26.0206 31.153C26.1093 31.0185 26.2043 30.888 26.3052 30.7621C26.3794 30.6706 26.456 30.5816 26.5339 30.4998C26.5472 30.4878 26.5582 30.4745 26.5716 30.4637C26.9122 30.1197 27.3148 29.8574 27.8451 29.7118L27.6091 29.5759H27.597L26.658 29.037L25.6958 28.4896L23.1219 29.8779L23.1146 29.8718L23.111 29.8779L20.5372 28.4896L19.5738 29.037L18.6348 29.5759H18.6238L18.3866 29.7118C18.9158 29.8562 19.3196 30.1161 19.6602 30.4613C19.6747 30.4733 19.6845 30.4902 19.7015 30.5022Z" fill="#FFFFFE"/>
<path fill-rule="evenodd" clip-rule="evenodd" d="M22.2961 25.6878V26.3855L22.1611 26.323C22.155 26.3182 21.9556 26.2749 21.6113 26.003C21.0408 25.5651 21.0299 25.1609 21.0299 25.1609L22.2949 25.6878H22.2961ZM22.8921 28.9564V24.6231L20.1091 23.6872L20.8437 27.8857L22.8934 28.9564H22.8921ZM23.9382 25.6878L25.2032 25.1609C25.2032 25.1609 25.1935 25.5651 24.6206 26.003C24.2764 26.2737 24.0781 26.3182 24.072 26.323L23.9382 26.3843V25.6878ZM25.3894 27.8869L26.1204 23.6884L23.3385 24.6231V28.9564L25.3894 27.8857V27.8869ZM18.956 39.0014C19.2273 39.0977 19.5557 39.1181 19.7247 39.1181C19.7308 39.0977 19.7405 39.0724 19.749 39.0411C19.7625 38.993 19.777 38.9425 19.7879 38.8896C19.8355 38.649 19.8512 38.3783 19.8561 38.2026C19.7006 38.1112 19.5738 37.9787 19.49 37.8201C19.3865 37.6047 19.2394 37.5037 19.0241 37.5037C18.7444 37.5037 18.4439 37.6721 18.3137 37.7491C18.2115 38.3482 18.6579 38.892 18.956 39.0002V39.0014ZM25.1132 36.7025C24.5975 37.2595 23.5842 38.2303 23.5356 38.2784L23.4747 38.3386L20.2757 38.2893C20.2731 38.551 20.2388 38.8115 20.1736 39.0652L20.148 39.165L23.9516 39.8435C24.3469 39.5693 25.4356 38.7813 25.8588 38.4721C25.5512 38.027 25.5219 37.4989 25.5913 37.1284C25.4087 37.0143 25.247 36.8702 25.1132 36.7025Z" fill="#FFFFFE"/>
<path fill-rule="evenodd" clip-rule="evenodd" d="M25.5482 32.8914C24.8111 33.6156 24.1045 33.8839 23.4731 33.9464C23.3576 33.9588 23.2415 33.9652 23.1253 33.9657H23.1094C22.8772 33.9657 22.6457 33.9415 22.4186 33.8935C22.3772 34.0559 22.3249 34.3964 22.4745 34.7188C22.6083 35.0111 22.8795 35.2288 23.2761 35.3744L23.41 35.4261L23.4112 35.5681C23.4112 35.6102 23.4427 36.5317 24.4572 36.7879C24.6227 36.6195 24.7734 36.4667 24.8829 36.338C24.6762 35.8556 24.7857 35.3624 25.0861 35.1206C25.0739 35.1723 24.9401 36.3813 25.9193 36.8312L26.0811 36.907L26.0324 37.0767C26.0166 37.1284 25.6906 38.2989 26.8765 38.7344L27.0857 38.8138L26.9921 39.0147C26.9715 39.0592 26.5068 40.1215 27.6015 40.7254H29.9747V38.8571C29.1305 38.7548 28.7741 38.0824 28.6817 37.606C28.2888 37.5398 27.9859 37.3726 27.7778 37.0995C27.2792 36.4499 27.7074 35.8544 27.7134 35.8219C27.7122 35.8267 27.7134 36.4595 28.1076 36.8517C28.3033 37.0394 28.5345 37.1861 28.886 37.2186L29.0575 37.2342L29.0721 37.4087C29.0757 37.446 29.1694 38.3037 29.9747 38.4385L29.9735 34.6249C29.9735 34.0331 30.1474 33.4388 30.3566 32.8902H25.5482V32.8914ZM19.1587 34.6394L19.0954 37.067L19.3752 37.1103L20.0564 34.7801L19.7097 34.0631L19.1599 34.6394H19.1587ZM20.6354 43.6306C20.6167 43.63 20.5983 43.6257 20.5814 43.6178C20.5644 43.61 20.5492 43.5988 20.5368 43.5849C20.5244 43.571 20.5149 43.5548 20.5092 43.5373C20.5033 43.5197 20.5011 43.5011 20.5028 43.4826C20.5038 43.4644 20.5086 43.4466 20.5168 43.4302C20.5248 43.4138 20.5363 43.3991 20.5502 43.3872C20.5642 43.3752 20.5804 43.366 20.5979 43.3603C20.6154 43.3546 20.6339 43.3525 20.6523 43.3539C20.7326 43.3575 20.7886 43.4261 20.7862 43.5007C20.7834 43.5376 20.766 43.572 20.7378 43.5963C20.7095 43.6206 20.6728 43.6329 20.6354 43.6306ZM26.671 45.7804C26.6917 45.7804 26.716 45.7828 26.7379 45.7888C27.1636 45.9091 27.2695 47.4225 28.0126 47.5572C28.0856 47.5729 28.1538 47.5765 28.2121 47.5765C28.4274 47.5765 28.5552 47.4862 28.6938 47.3238C28.6938 47.3238 28.3192 46.7428 28.0394 46.3494C27.6684 45.8345 27.3802 45.2126 26.6881 45.2126C26.671 45.2126 26.6516 45.2126 26.6333 45.215C26.5015 45.2202 26.374 45.2628 26.2659 45.3377C26.0349 45.1865 25.7644 45.105 25.4875 45.1031C25.0556 45.1031 24.7175 45.3004 24.5485 45.3004H24.5424L22.9975 45.1488C22.7555 45.1247 22.5646 44.8841 22.4952 44.7903L22.4684 44.7494C22.4684 44.7073 22.4684 44.6652 22.466 44.6279C22.4137 43.3756 21.4358 42.8402 21.0866 42.8306C21.0866 42.8306 21.128 42.5924 21.0343 42.5022L20.6937 42.9112L19.5747 42.3554L20.3727 43.2793L19.6976 44.0312C19.6124 44.1166 19.6233 44.2321 19.6586 44.2814L19.9505 44.5365L20.3203 44.3139C20.3386 44.3007 20.3727 44.2959 20.414 44.2959C20.5162 44.2959 20.6694 44.3223 20.8068 44.3223C20.9589 44.3223 21.089 44.2911 21.1049 44.1503C21.0587 44.6147 20.6232 45.4219 20.9091 46.0559L21.1207 46.5347L19.7547 46.3398L19.115 47.4093C18.9179 47.7653 18.8862 48.1503 19.076 48.3596L19.3156 48.6568C19.3156 48.6568 19.6513 48.3043 19.7256 48.0721L19.6173 47.9542C19.5261 47.8544 19.5309 47.7653 19.5868 47.6583L19.9882 46.999L21.6 47.3756L21.6851 47.2312C21.7946 47.0508 21.9527 46.9978 22.1254 46.9978C22.1972 46.9978 22.2701 47.0062 22.3456 47.0183C22.6448 47.0772 23.1375 47.1554 23.6301 47.1554C24.1713 47.1554 24.7078 47.0592 24.9937 46.7428C25.5775 47.6005 26.7622 47.7365 26.6686 48.1732L26.3571 49.6432C26.5639 49.6336 26.7622 49.6204 26.9508 49.5951L27.2475 48.0661C27.2716 47.9363 27.2927 47.8059 27.3108 47.6751C27.1965 47.5596 26.9203 47.3178 26.7634 47.0231C26.5554 46.6249 26.6686 46.4168 26.4739 45.8995C26.4739 45.8995 26.5348 45.7792 26.671 45.7792V45.7804Z" fill="#FFFFFE"/>
<path fill-rule="evenodd" clip-rule="evenodd" d="M18.4308 47.1699C18.4308 47.1699 18.966 46.9534 19.0146 46.797L18.9416 46.6214C18.8918 46.5059 18.8978 46.3808 18.9964 46.3134L19.573 45.9176L20.5376 46.1017C20.5376 46.1017 20.3623 45.8851 20.3794 45.5964L19.4598 45.4039L18.5914 45.9272C18.4398 46.0384 18.3303 46.1965 18.2802 46.3764C18.2302 46.5563 18.2425 46.7476 18.3152 46.9197L18.4308 47.1711V47.1699ZM25.2509 49.6626C25.4224 49.6553 25.6146 49.6529 25.8226 49.6529C25.8226 49.6529 26.319 48.2154 26.3469 48.1696C25.9783 47.9996 25.6186 47.8113 25.2692 47.6054C25.4164 47.8244 25.774 48.0734 25.7034 48.2659L25.2509 49.6626Z" fill="#FFFFFE"/>
<path fill-rule="evenodd" clip-rule="evenodd" d="M29.9742 41.1368H16.2597V46.2484C16.2597 48.3392 17.7862 49.6469 20.0401 49.6469C21.9218 49.6469 22.4182 49.719 23.1176 50.4084C23.6005 49.9308 23.9994 49.7539 24.8205 49.6866L24.8387 49.6084L25.2705 48.2839C25.2461 48.2538 24.5407 47.4586 24.5407 47.4586C24.2609 47.5512 24.0249 47.5669 23.6285 47.5669C23.2233 47.5669 22.7648 47.5187 22.2673 47.4273C22.2207 47.4164 22.1729 47.4107 22.1249 47.4105C22.0642 47.4105 22.0605 47.4153 22.0434 47.4454L21.9583 47.5861L21.8002 47.8436L21.5046 47.775L20.1886 47.4682L20.0073 47.763L20.0353 47.7954L20.1946 47.9699L20.1241 48.1984C20.0268 48.4956 19.7129 48.8432 19.6168 48.9395L19.2884 49.2884L18.988 48.9142L18.7629 48.6339C18.5258 48.3717 18.471 47.9699 18.6048 47.5488C18.6009 47.5516 18.5963 47.5533 18.5914 47.5536L18.2204 47.7064L18.0538 47.3455L17.9358 47.0917C17.8226 46.832 17.8021 46.5418 17.878 46.2691C17.9538 45.9964 18.1213 45.7574 18.353 45.5915L19.4112 44.9984L20.4208 45.1945C20.4452 45.0983 20.4817 44.7566 20.5096 44.6688C20.4902 44.6664 20.472 44.6628 20.4525 44.6628L19.8711 44.8769L19.3115 44.4944C19.3115 44.4944 19.0925 44.2851 19.2908 44.0757L19.8321 43.2613L18.4576 41.553L20.5705 42.412L20.7115 42.24L20.9962 41.9007L21.3198 42.2063C21.4048 42.2885 21.464 42.3934 21.4901 42.5082C22.0715 42.7332 23.1151 43.396 23.2075 44.4739L22.8816 44.6027V44.6111C22.9558 44.6989 23.0178 44.735 23.0373 44.7386L24.5455 44.8854C24.5845 44.8781 24.6307 44.8613 24.6843 44.8469C24.8727 44.7831 25.1537 44.6905 25.487 44.6905C25.7595 44.6905 26.0223 44.753 26.274 44.8709C26.3832 44.8305 26.4981 44.807 26.6146 44.8012L26.6876 44.7987C27.494 44.7987 27.8955 45.3966 28.2178 45.8742C28.2713 45.9572 28.3249 46.0342 28.3808 46.1112C28.663 46.5058 29.0315 47.0821 29.0461 47.1073L29.2127 47.3636L29.0084 47.5993C28.8528 47.7798 28.6156 47.9903 28.2117 47.9903C28.1202 47.9896 28.029 47.9803 27.9392 47.9626C27.8565 47.9469 27.7757 47.9223 27.6984 47.8893C27.6861 47.9742 27.6718 48.0588 27.6558 48.1431L27.3918 49.5109C28.9731 49.126 29.9778 47.9422 29.9778 46.2484L29.9742 41.1368ZM16.2597 40.7254H26.9272C26.3945 40.1792 26.403 39.4899 26.5379 39.0412C26.3941 38.9728 26.2603 38.8854 26.1403 38.7813C25.723 39.0857 24.4507 40.0036 24.1187 40.2346L24.0469 40.2827L19.8601 39.532H19.7749C19.6752 39.532 19.528 39.5284 19.3674 39.5079C19.3503 39.584 19.3112 39.6535 19.2549 39.708C19.1986 39.7625 19.1276 39.7997 19.0504 39.8151C18.9731 39.8305 18.893 39.8234 18.8198 39.7948C18.7465 39.7661 18.6833 39.717 18.6376 39.6535C18.6056 39.6101 18.5826 39.5609 18.5701 39.5086C18.5575 39.4563 18.5557 39.4021 18.5646 39.3491L18.5805 39.2589C18.1499 38.9582 17.7497 38.2845 17.9273 37.5747L17.9443 37.5001L18.0052 37.4568C18.0665 37.4154 18.1298 37.3768 18.1949 37.3413L17.8908 37.2932C17.8368 37.284 17.7885 37.2544 17.7562 37.2106C17.724 37.1668 17.7103 37.1123 17.7181 37.0586C17.7221 37.0317 17.7315 37.0059 17.7456 36.9826C17.7599 36.9594 17.7786 36.9392 17.8008 36.9231C17.823 36.9071 17.8481 36.8956 17.8749 36.8894C17.9016 36.8831 17.9293 36.8821 17.9564 36.8866L18.6802 36.9997L18.7471 34.4722L19.8249 33.3413L20.4987 34.7452L19.7884 37.1777L20.4281 37.2776C20.4828 37.2864 20.5316 37.3163 20.564 37.3608C20.5963 37.4052 20.6097 37.4605 20.6009 37.5146C20.593 37.5625 20.5681 37.606 20.5306 37.6374C20.4932 37.6687 20.4456 37.6857 20.3966 37.6854L20.3637 37.6842L19.8419 37.6C19.8491 37.6168 19.8588 37.6252 19.8662 37.6421C19.9243 37.7417 20.0117 37.8214 20.1168 37.8707L23.3073 37.9224C23.4423 37.7913 23.7768 37.4664 24.1223 37.1224C23.8216 37.0132 23.5576 36.8234 23.3599 36.5741C23.1622 36.3249 23.0388 36.0261 23.0032 35.7113C22.5653 35.526 22.2612 35.2493 22.0934 34.8884C21.8891 34.4409 21.962 33.9934 22.0168 33.7756C21.591 33.6228 21.1434 33.3413 20.686 32.8914H15.8789C16.0857 33.44 16.2597 34.0343 16.2597 34.6249V40.7242V40.7254Z" fill="#FFE52B"/>
<path fill-rule="evenodd" clip-rule="evenodd" d="M20.652 43.3539C20.6335 43.3525 20.6149 43.3547 20.5972 43.3605C20.5796 43.3662 20.5633 43.3755 20.5493 43.3876C20.5354 43.3997 20.5241 43.4145 20.516 43.431C20.5079 43.4475 20.5032 43.4655 20.5023 43.4839C20.5009 43.5022 20.5031 43.5206 20.5091 43.5381C20.5151 43.5555 20.5245 43.5716 20.5369 43.5853C20.5492 43.599 20.5643 43.6101 20.5812 43.6179C20.5981 43.6257 20.6164 43.63 20.635 43.6306C20.6721 43.633 20.7087 43.6208 20.7369 43.5967C20.7651 43.5726 20.7827 43.5386 20.7857 43.5019C20.7878 43.4648 20.7748 43.4283 20.7497 43.4006C20.7247 43.3729 20.6895 43.3561 20.652 43.3539ZM27.0087 54.0727L26.3822 52.3644C27.1279 52.1395 28.4088 51.6559 28.9841 51.3347L28.6009 52.5774L29.8988 53.0044C29.113 53.3942 28.1618 53.7587 27.0087 54.0715V54.0727ZM23.1188 55.6065C21.6093 55.6065 19.8869 55.2625 19.3785 55.0832L20.1496 53.0165C20.7894 53.2017 22.1201 53.3978 23.0871 53.3918H23.148C24.1137 53.3978 25.4432 53.2005 26.0867 53.0165L26.8567 55.0832C26.3483 55.2637 24.6258 55.6065 23.1188 55.6065ZM16.3362 53.0044L17.6353 52.5774L17.251 51.3347C17.8239 51.6559 19.1084 52.1407 19.8516 52.3644L19.2252 54.0727C18.0757 53.7599 17.1209 53.3942 16.3362 53.0044ZM29.9572 52.6255L29.1665 52.3247L29.3855 51.5163L29.6252 50.6345C29.6252 50.6345 28.2263 51.3876 26.2521 51.9518C25.6926 52.1106 25.2693 52.184 25.2693 52.184V52.7843C25.2693 52.7843 24.2135 52.9647 23.148 52.9647H23.0871C22.0192 52.9647 20.9658 52.7843 20.9658 52.7843V52.1828C20.9658 52.1828 20.5413 52.1106 19.9817 51.9518C18.01 51.3864 16.6112 50.6345 16.6112 50.6345L16.8472 51.5163L17.071 52.3247L16.2779 52.6255L15.3984 52.9503C16.4056 53.4327 17.8021 54.134 19.0792 54.4805L18.7788 55.2961C18.7788 55.2961 20.399 56.0276 23.098 56.0348V56.036H23.1345V56.0348C25.8373 56.0276 27.4576 55.2961 27.4576 55.2961L27.1535 54.4805C28.4319 54.134 29.8307 53.4339 30.8329 52.9503L29.9572 52.6255ZM19.8187 19.7149L20.1776 19.7534L20.3321 19.4286L20.7845 18.4698L21.6238 18.9005L21.9498 19.0653L23.1151 17.92L24.0237 18.8102L24.2841 19.0653L24.6101 18.9005L25.4444 18.4698L25.9043 19.4286L26.0563 19.7534L26.4151 19.7149L26.7582 19.6752C26.6192 19.9875 26.5002 20.3082 26.4018 20.6352C25.4956 20.1335 24.3182 19.8496 23.1163 19.8496C21.9194 19.8496 20.742 20.1335 19.8322 20.6352C19.734 20.3082 19.6154 19.9876 19.477 19.6752L19.8175 19.7149H19.8187ZM23.1151 20.3489C24.7244 20.3489 26.01 20.8782 26.7217 21.44C26.7217 21.44 26.9333 20.1805 27.6534 19.0701L26.358 19.2145L25.6804 17.7889L24.3789 18.4542L23.1151 17.2175L21.8562 18.4542L20.5523 17.7889L19.8759 19.2157L18.5805 19.0689C19.3018 20.1805 19.5122 21.4388 19.5122 21.4388C20.2275 20.877 21.5095 20.3489 23.1151 20.3489ZM43.499 41.535C43.499 41.535 42.9395 42.501 41.6551 42.501H41.6392C40.0968 42.4914 39.4741 41.559 39.4741 41.559C39.4741 41.559 39.5641 42.7717 39.0094 44.409C38.3404 46.3819 39.0142 47.7894 39.0142 47.7894C39.0142 47.7894 38.6543 47.8868 38.2394 47.8868C38.0813 47.8868 37.9159 47.8712 37.759 47.8303C36.4709 47.5284 36.1498 46.3663 36.1498 46.3663C36.1498 46.3663 36.269 50.2892 31.6504 50.2892H31.6139C31.6139 50.2892 32.0214 49.7419 32.1418 48.1635C32.3607 45.2523 34.3507 44.8517 34.3507 44.8517C34.3507 44.8517 33.2888 44.7193 32.8279 44.3115C32.109 43.6655 32.1588 42.9184 32.1588 42.9184C33.7839 42.8956 34.8495 42.3482 35.6608 41.4183C36.1835 40.8234 36.5363 40.1011 36.6825 39.3263C36.6825 39.3263 35.8091 40.1118 34.1197 40.1118C33.9712 40.1118 33.8131 40.1046 33.6501 40.089C32.8497 40.0252 32.2975 39.5212 32.2975 39.5212C34.0564 38.4036 35.2897 36.4535 34.1962 33.5182C33.3205 31.1663 31.2137 29.4087 29.0935 28.0854C28.3881 27.6487 27.9939 27.1627 27.9939 26.7453C27.9939 25.7624 29.405 25.7311 29.9839 25.0707C30.653 24.3032 30.2334 23.0581 29.6543 22.3086C29.6543 22.3086 29.8489 22.2689 30.1567 22.2689C30.7673 22.2689 31.8231 22.4205 32.6916 23.3131C33.8435 24.4944 33.3655 25.7817 33.3655 25.7817L33.6745 25.8418C33.8593 25.8791 34.043 25.8875 34.2339 25.8971L34.358 25.8983C36.033 25.8983 36.781 24.1636 36.781 24.1636C36.781 24.1636 38.5618 26.3338 35.9406 28.0349C35.4892 28.3248 35.2897 28.5955 35.3421 28.8818L35.3835 29.0707L35.5695 29.1031C37.4695 29.6144 38.4317 30.9137 39.6054 32.3885C41.3886 34.6346 43.9114 34.7067 44.2216 34.7067H44.2556C44.2556 34.7067 43.6803 36.5076 41.9835 36.5076C41.9555 36.5076 41.9312 36.5076 41.9032 36.5052C41.1247 36.4776 40.7233 36.1816 40.7233 36.1816C40.7233 36.1816 40.4204 40.2682 43.499 41.535ZM41.9835 37.0586C44.0634 37.0586 44.7592 34.9618 44.7884 34.8728L45.0195 34.1329L44.2411 34.157H44.2386C43.9625 34.157 41.6684 34.0968 40.0421 32.0481L39.8876 31.858C38.8246 30.5191 37.8162 29.2451 36.0135 28.664C36.0856 28.6017 36.1624 28.545 36.2434 28.4944C37.1995 27.8713 37.7565 27.1146 37.8953 26.2352C38.1008 24.9131 37.2481 23.8593 37.2116 23.8159L36.6327 23.1062L36.2702 23.9483C36.2458 24 35.6376 25.3474 34.358 25.3474H34.2631C34.1783 25.3445 34.0936 25.3397 34.0089 25.3329C34.0539 24.7314 33.9432 23.8027 33.0918 22.9293C32.0688 21.8791 30.8135 21.7215 30.1567 21.7215C29.8064 21.7215 29.5728 21.7648 29.5473 21.7672L28.6727 21.9393L29.2115 22.643C29.6349 23.1868 30.0192 24.1889 29.5643 24.7122C29.4183 24.8806 29.1191 25.0141 28.8333 25.1501C28.2446 25.4183 27.4394 25.7937 27.4394 26.7453C27.4394 27.3612 27.9223 28.0072 28.798 28.5546C31.3864 30.1678 32.9848 31.852 33.6745 33.7106C34.7424 36.569 33.3497 38.2003 31.9958 39.0592L31.3901 39.4454L31.9216 39.929C31.9934 39.9915 32.6417 40.5581 33.6015 40.64C33.7839 40.652 33.9579 40.6616 34.1209 40.6616C34.7351 40.6616 35.2594 40.5654 35.6851 40.4378C35.5579 40.6575 35.4095 40.8646 35.2423 41.0562C34.4699 41.944 33.5188 42.3482 32.1503 42.3699L31.6418 42.3771L31.6029 42.8824C31.5981 42.9846 31.5603 43.9217 32.4544 44.7181C32.5919 44.8408 32.7573 44.9431 32.9312 45.0249C32.323 45.5663 31.7076 46.5094 31.5883 48.1238C31.4874 49.4712 31.1627 49.9704 31.1589 49.9765L30.5971 50.8258L31.6127 50.839C33.29 50.839 34.5746 50.3819 35.4637 49.4724C35.9243 48.9947 36.268 48.419 36.4685 47.7894C36.9624 48.206 37.5903 48.4346 38.2394 48.4342C38.7138 48.4342 39.1104 48.3344 39.1542 48.3247L39.8025 48.1539L39.5167 47.5548C39.4947 47.5067 38.9547 46.3037 39.5361 44.587C39.7485 43.9618 39.896 43.3169 39.9764 42.6622C40.3851 42.8739 40.9313 43.0472 41.638 43.0496C43.2436 43.0496 43.9503 41.8622 43.9819 41.8129L44.2982 41.2667L43.7119 41.0285C41.7998 40.2418 41.3765 38.1293 41.2914 36.9864C41.4653 37.0189 41.6623 37.049 41.8849 37.055L41.9835 37.0586Z" fill="#1A1919"/>
<path fill-rule="evenodd" clip-rule="evenodd" d="M39.6463 28.0902C40.0331 28.0902 40.4856 28.2213 40.9114 28.658C42.2518 30.0054 43.4985 30.0812 43.4985 30.0812C43.2723 30.578 42.6155 31.0147 41.9355 31.0147C41.7786 31.0147 41.6192 30.9906 41.4647 30.9365C40.5415 30.6285 40.2119 29.2583 38.5929 28.4054C38.5929 28.4054 39.0429 28.0902 39.6463 28.0902ZM38.329 28.8914C39.1038 29.3004 39.5563 29.8502 39.9528 30.3362C40.3421 30.8114 40.7107 31.2685 41.2908 31.4586C41.4952 31.5284 41.7129 31.5621 41.9355 31.5621C42.8027 31.5621 43.6749 31.0352 44.0058 30.3061L44.3378 29.5771L43.5338 29.529C43.4961 29.529 42.461 29.434 41.3102 28.2694C40.8359 27.7907 40.263 27.5404 39.6463 27.5404C38.8922 27.5404 38.3326 27.9134 38.2718 27.9519L37.5322 28.4679L38.329 28.8914ZM38.6927 36.1708V36.1984C38.2255 32.4667 35.4912 29.772 32.4466 28.1335C32.1669 27.9843 31.9053 27.8568 31.6535 27.7365C32.5792 27.8785 34.0717 27.8953 35.2248 26.9064C35.2248 26.9064 33.4611 28.19 29.852 27.0231C30.8495 27.6655 32.792 28.5726 34.5655 30.0403C38.9967 33.8995 35.8269 37.6625 35.8269 37.6625C37.4203 36.0156 37.486 34.252 37.0165 32.8108C37.8558 34.1942 38.391 35.8724 38.3083 37.9428C38.1866 40.9082 36.5409 43.473 34.81 45.5338C33.978 46.5322 33.7931 47.7617 33.7931 47.7617C33.7931 47.7617 34.1288 46.6778 35.091 45.5626C36.946 43.4092 38.5333 41.1753 38.7401 37.9536C38.9323 38.5395 39.7229 40.1635 40.9758 40.7759C40.9758 40.7759 39.4006 39.8351 38.6927 36.1708ZM14.5842 50.2892C9.96564 50.2892 10.0836 46.3662 10.0836 46.3662C10.0836 46.3662 9.76007 47.5283 8.47436 47.8303C8.31732 47.8694 8.15584 47.8884 7.9939 47.8868C7.58034 47.8868 7.22029 47.7906 7.22029 47.7906C7.22029 47.7906 7.89294 46.3807 7.22272 44.4089C6.67049 42.7729 6.7605 41.559 6.7605 41.559C6.7605 41.559 6.13894 42.4914 4.59536 42.501H4.57955C3.29628 42.501 2.73553 41.535 2.73553 41.535C5.81295 40.2682 5.51129 36.1816 5.51129 36.1816C5.51129 36.1816 5.10988 36.4775 4.33141 36.5064H4.24991C2.55186 36.5064 1.97652 34.7067 1.97652 34.7067H2.01179C2.32562 34.7067 4.84472 34.6345 6.6267 32.3885C7.8005 30.9124 8.76387 29.6144 10.6602 29.1043L10.8511 29.0706L10.8913 28.8818C10.9449 28.5955 10.7454 28.3248 10.2952 28.0349C7.674 26.3338 9.45354 24.1648 9.45354 24.1648C9.45354 24.1648 10.198 25.8983 11.8778 25.8983L11.9995 25.8971C12.1891 25.8875 12.3753 25.8791 12.5589 25.8406L12.8679 25.7816C12.8679 25.7816 12.3886 24.4944 13.5442 23.3131C14.4127 22.4204 15.4673 22.2689 16.0767 22.2689C16.3869 22.2689 16.5779 22.3086 16.5779 22.3086C16.0012 23.058 15.5828 24.3031 16.2495 25.0707C16.8284 25.7311 18.2382 25.7624 18.2382 26.7452C18.2382 27.1627 17.8453 27.6487 17.1411 28.0854C15.0184 29.4087 12.9129 31.1651 12.0372 33.5194C10.9449 36.4547 12.1782 38.4035 13.9383 39.5223C13.9383 39.5223 13.3849 40.0252 12.5845 40.089C12.4277 40.1039 12.2701 40.1115 12.1125 40.1118C10.4242 40.1118 9.55085 39.3275 9.55085 39.3275C9.55085 39.3275 9.69682 40.4114 10.5701 41.4195C11.3851 42.3482 12.4495 42.8956 14.0733 42.9184C14.0733 42.9184 14.1256 43.6643 13.4067 44.3115C12.9458 44.7205 11.8839 44.8529 11.8839 44.8529C11.8839 44.8529 13.8751 45.2522 14.094 48.1635C14.2132 49.7419 14.617 50.2892 14.617 50.2892H14.5842ZM15.0744 49.9764C15.0731 49.9704 14.7509 49.4712 14.6474 48.1238C14.5258 46.5094 13.9104 45.5662 13.301 45.0249C13.4773 44.9431 13.6415 44.8408 13.7777 44.7181C14.6718 43.9217 14.6341 42.9858 14.6279 42.8823L14.594 42.3771L14.0818 42.3699C12.717 42.3482 11.7647 41.944 10.9923 41.0562C10.8258 40.864 10.6775 40.657 10.5495 40.4378C10.9752 40.5665 11.4958 40.6616 12.1125 40.6616C12.2767 40.6616 12.4495 40.652 12.6307 40.6399C13.2515 40.5786 13.8386 40.3309 14.313 39.9302L14.8445 39.4454L14.2388 39.0604C12.8812 38.2002 11.4934 36.5702 12.5601 33.7106C13.2498 31.852 14.8445 30.169 17.4378 28.5546C18.3136 28.0072 18.7928 27.3612 18.7928 26.7452C18.7928 25.7937 17.9901 25.4183 17.4013 25.1501C17.1143 25.0141 16.8151 24.8794 16.6703 24.7122C16.2142 24.1889 16.5973 23.1868 17.0218 22.643L17.5643 21.9392L16.6848 21.7672C16.6606 21.7636 16.4294 21.7215 16.0767 21.7215C15.4211 21.7215 14.167 21.8791 13.1452 22.9293C12.2926 23.8027 12.1806 24.7326 12.2244 25.3329C12.1402 25.3397 12.0559 25.3445 11.9714 25.3473H11.8778C10.5933 25.3473 9.98753 24 9.96442 23.9483L9.60316 23.1062L9.0193 23.8159C8.98646 23.8592 8.13135 24.9131 8.34056 26.2352C8.47801 27.1134 9.03512 27.8713 9.99118 28.4944C10.0958 28.5606 10.1675 28.6171 10.2199 28.664C8.41477 29.2451 7.40882 30.5191 6.34572 31.858L6.19246 32.0481C4.56739 34.0968 2.26722 34.1581 1.99233 34.1581L1.20898 34.1341L1.44739 34.8727C1.47537 34.9618 2.1687 37.0586 4.24991 37.0586L4.34966 37.055C4.56982 37.049 4.76809 37.0189 4.94324 36.9852C4.85809 38.1281 4.43237 40.2417 2.52023 41.0273L1.93638 41.2679L2.25263 41.8129C2.50609 42.1987 2.85444 42.5146 3.26505 42.7309C3.67565 42.9472 4.13507 43.0568 4.60023 43.0496C5.17577 43.0552 5.74416 42.9232 6.25693 42.6646C6.31896 43.1819 6.4479 43.8447 6.69847 44.587C7.27989 46.3025 6.73861 47.5067 6.71793 47.5548L6.43087 48.1539L7.07919 48.3235C7.12298 48.3355 7.52195 48.4342 7.9939 48.4342C8.64325 48.4358 9.27167 48.207 9.76494 47.7894C9.96545 48.4187 10.3087 48.9943 10.7684 49.4724C11.6612 50.3807 12.9445 50.839 14.6207 50.839L15.6363 50.8258L15.0744 49.9764Z" fill="#1A1919"/>
<path fill-rule="evenodd" clip-rule="evenodd" d="M5.32009 28.658C5.74825 28.2213 6.19952 28.089 6.58876 28.089C7.18722 28.089 7.64092 28.4054 7.64092 28.4054C6.02315 29.2595 5.68986 30.6285 4.76542 30.9377C4.61487 30.9893 4.45646 31.015 4.29712 31.0135C3.61716 31.0135 2.95911 30.578 2.7353 30.0812C2.7353 30.0812 3.98086 30.0054 5.32009 28.658ZM4.29712 31.5621C4.51971 31.5621 4.73745 31.5284 4.94423 31.4586C5.52322 31.2685 5.89299 30.8126 6.28224 30.3362C6.67999 29.8514 7.12761 29.3016 7.90366 28.8926L8.7016 28.4679L7.95961 27.9507C7.8988 27.9134 7.34291 27.5416 6.58876 27.5416C5.97085 27.5416 5.39672 27.7907 4.92355 28.2695C3.77165 29.4352 2.73894 29.529 2.70124 29.5302L1.89844 29.5771L2.22686 30.3073C2.56014 31.0352 3.43106 31.5621 4.29712 31.5621ZM7.92555 37.9428C7.8404 35.8724 8.37562 34.1942 9.21491 32.8108C8.74782 34.252 8.81107 36.0156 10.4069 37.6637C10.4069 37.6637 7.23466 33.8983 11.6683 30.0415C13.4418 28.5726 15.3819 27.6655 16.3793 27.0231C12.7716 28.1901 11.009 26.9052 11.009 26.9052C12.161 27.8953 13.6534 27.8797 14.5791 27.7353C14.3285 27.8568 14.0658 27.9831 13.7861 28.1335C10.7415 29.7708 8.00827 32.4667 7.53875 36.1985V36.1708C6.83203 39.8351 5.25806 40.7759 5.25806 40.7759C6.51091 40.1623 7.29913 38.5383 7.49131 37.9536C7.70053 41.1753 9.28668 43.4105 11.1404 45.5626C12.1038 46.6778 12.442 47.7617 12.442 47.7617C12.442 47.7617 12.2546 46.5335 11.4189 45.5338C9.69172 43.473 8.04719 40.9082 7.92555 37.9428ZM22.0731 30.3916V31.1326C22.3311 30.821 22.8273 30.8848 22.8273 30.8848V31.9518C22.8273 31.9518 22.8115 32.4764 22.623 32.7037H23.7007C23.5133 32.4764 23.4951 31.9518 23.4951 31.9518V30.8848C23.4951 30.8848 23.9938 30.821 24.2492 31.1326V30.3916H22.0719H22.0731ZM21.6109 26.003C21.9551 26.2737 22.1546 26.3194 22.1608 26.323L22.2946 26.3843V25.6878L21.0296 25.1609C21.0296 25.1609 21.0405 25.5651 21.6109 26.003ZM24.6202 26.003C25.1919 25.5651 25.2041 25.1609 25.2041 25.1609L23.9378 25.6878V26.3855L24.0717 26.323C24.0777 26.3194 24.276 26.2737 24.6202 26.003Z" fill="#1A1919"/>
<path fill-rule="evenodd" clip-rule="evenodd" d="M23.1164 24.1467L20.067 22.9534C20.326 22.3446 21.5218 21.8273 23.1164 21.8261C24.7123 21.8273 25.908 22.3446 26.167 22.9534L23.1164 24.1467ZM25.3898 27.8869L23.3402 28.9575V24.6219L26.122 23.686L25.3898 27.8845V27.8869ZM26.6597 29.0369L27.5963 29.5759H27.6097L27.8457 29.7118C27.3165 29.8562 26.9115 30.1196 26.5721 30.4637L26.5357 30.4998C26.4556 30.5842 26.3789 30.6717 26.3057 30.7621L26.2632 30.8174C26.1902 30.91 26.1208 31.0051 26.0564 31.1037L26.0211 31.153C25.9422 31.2721 25.8671 31.3937 25.796 31.5175C25.1271 32.6568 24.0627 33.3377 23.1164 33.3401C22.1701 33.3377 21.1045 32.6568 20.438 31.5175C20.3671 31.396 20.2929 31.2765 20.2153 31.159L20.1715 31.0953C20.108 31.0024 20.0423 30.9109 19.9746 30.821C19.9575 30.7969 19.9417 30.7789 19.9246 30.7584C19.8532 30.6707 19.779 30.5852 19.7021 30.5022C19.6862 30.4902 19.6753 30.4745 19.6607 30.4613C19.3132 30.1014 18.8728 29.8422 18.3871 29.7118L18.6255 29.5759H18.6352L19.5756 29.0369L20.5376 28.4896L23.1115 29.8778L23.1164 29.873L23.1237 29.8778L25.6963 28.4896L26.6597 29.0369ZM30.3575 32.8914C30.147 33.4399 29.973 34.0342 29.973 34.6249L29.9755 38.4384C29.1715 38.3061 29.0754 37.4471 29.0729 37.4099L29.0584 37.2354L28.8845 37.2198C28.5894 37.1941 28.3138 37.0637 28.1083 36.8529C27.7131 36.4619 27.7131 35.8291 27.7131 35.8231C27.7082 35.8556 27.28 36.4487 27.7763 37.0983C27.9855 37.3726 28.2896 37.5422 28.6813 37.6083C28.7738 38.0835 29.1314 38.756 29.9755 38.8595V40.7241H27.6024C26.5077 40.1214 26.971 39.0604 26.993 39.0147L27.0854 38.8126L26.8762 38.7344C25.6903 38.2989 26.0175 37.1271 26.0332 37.0766L26.0819 36.9058L25.9189 36.8312C24.9409 36.3813 25.0735 35.1711 25.0869 35.1205C24.7852 35.3623 24.677 35.8544 24.8838 36.3392C24.7719 36.4667 24.621 36.6195 24.4568 36.7879C24.1711 36.7262 23.9138 36.5732 23.7248 36.3525C23.5358 36.1318 23.4254 35.8557 23.4107 35.5668L23.4095 35.4249L23.2757 35.3744C22.8804 35.23 22.6092 35.0111 22.4741 34.7187C22.3641 34.4568 22.3445 34.1663 22.4182 33.8923C22.6455 33.9389 22.877 33.9631 23.1091 33.9644H23.1249C23.2429 33.9644 23.3584 33.9572 23.4728 33.9464C24.1054 33.8838 24.8108 33.6156 25.5479 32.8914H30.3575ZM27.392 49.5109L27.6571 48.1431L27.6996 47.8904C27.8633 47.9538 28.0373 47.9876 28.213 47.9903C28.6168 47.9903 28.8528 47.7785 29.0097 47.5993L29.2117 47.3647L29.0462 47.1073C29.0316 47.082 28.663 46.5058 28.3808 46.1112C28.3248 46.0332 28.2708 45.9538 28.2191 45.873C27.8967 45.3966 27.4941 44.7987 26.6864 44.7987L26.6146 44.8011C26.4983 44.8073 26.3836 44.8304 26.2741 44.8697C26.0283 44.7535 25.7595 44.6926 25.4871 44.6916C25.213 44.6982 24.942 44.7502 24.6855 44.8456C24.632 44.8613 24.5833 44.8781 24.5456 44.8853L23.0373 44.7386C22.9759 44.7088 22.9226 44.6651 22.8816 44.611V44.6026L23.2076 44.4739C23.1164 43.396 22.0715 42.7331 21.4901 42.5082C21.4643 42.3929 21.4052 42.2876 21.3198 42.205L20.9963 41.9007L20.7117 42.2387L20.5717 42.4119L18.4577 41.5518L19.8322 43.2613L19.2909 44.0757C19.0915 44.2838 19.3116 44.4943 19.3116 44.4943L19.8711 44.8769L20.4525 44.6616C20.472 44.6616 20.489 44.6664 20.5097 44.6688C20.4817 44.7566 20.4452 45.0995 20.421 45.1945L19.4126 44.9984L18.3543 45.5915C17.8082 45.9885 17.7339 46.6429 17.9371 47.0916L18.0539 47.3467L18.2205 47.7064L18.5915 47.5548C18.5976 47.5524 18.6025 47.5512 18.6061 47.5476C18.4722 47.9698 18.5271 48.3704 18.7643 48.6339L18.9892 48.9142L19.2885 49.2895L19.6169 48.9394C19.7142 48.8432 20.028 48.4955 20.1241 48.1972L20.1947 47.9698L20.0353 47.7954L20.0085 47.7629L20.1886 47.4682L21.5047 47.7761L21.8015 47.8435L21.9597 47.5849L22.0448 47.4453C22.0606 47.4152 22.0642 47.4104 22.1251 47.4104C22.1725 47.4104 22.2187 47.4152 22.2686 47.4273C22.7174 47.5149 23.1735 47.5612 23.6309 47.5656C24.0239 47.5656 24.261 47.5512 24.5407 47.4585C24.5407 47.4585 25.2475 48.2525 25.2718 48.2838L24.8388 49.6071L24.8193 49.6865C24.0007 49.7527 23.6017 49.9307 23.1188 50.4083C22.4182 49.7202 21.9232 49.6468 20.0414 49.6468C17.7874 49.6468 16.2597 48.3391 16.2597 46.2471V41.1368H29.9755L29.978 46.2471C29.978 47.9421 28.9732 49.1247 27.392 49.5109ZM18.9442 46.6213L19.016 46.7981C18.9674 46.9521 18.4321 47.171 18.4321 47.171L18.3179 46.9196C18.2448 46.7473 18.2323 46.5557 18.2824 46.3756C18.3324 46.1954 18.4421 46.0371 18.5939 45.9259L19.4612 45.4026L20.382 45.5951C20.3752 45.7766 20.4304 45.955 20.5389 46.1016L19.5756 45.9187L18.9977 46.3133C18.9005 46.3807 18.8932 46.5058 18.9442 46.6213ZM27.246 48.0649L26.9504 49.5939C26.7606 49.6203 26.5611 49.6348 26.3568 49.642L26.6682 48.1743C26.7606 47.7364 25.5783 47.6005 24.9932 46.7428C24.7074 47.0603 24.171 47.1554 23.6309 47.1554C23.1371 47.1554 22.6456 47.0772 22.3452 47.0182C22.2729 47.0058 22.1997 46.999 22.1263 46.9978C21.9523 46.9978 21.7954 47.0507 21.686 47.2324L21.6008 47.3767L19.9879 47.0002L19.5865 47.6582C19.5306 47.7653 19.5256 47.8543 19.6169 47.9542L19.7263 48.0721C19.651 48.3043 19.3152 48.6567 19.3152 48.6567L19.0756 48.3596C18.8859 48.1503 18.9174 47.7653 19.1145 47.4092L19.7543 46.3385L21.1203 46.5346L20.9087 46.0546C20.6229 45.4207 21.0583 44.6146 21.1045 44.1503C21.0887 44.291 20.9586 44.3223 20.8077 44.3223C20.6691 44.3223 20.5158 44.297 20.4136 44.297C20.3734 44.297 20.3382 44.3007 20.32 44.3139L19.9502 44.5364L19.6583 44.2814C19.623 44.2333 19.6121 44.1166 19.6972 44.03L20.3734 43.2793L19.5756 42.3554L20.6921 42.9124L21.034 42.5022C21.1276 42.5936 21.0863 42.8306 21.0863 42.8306C21.4354 42.8402 22.4146 43.3755 22.4656 44.6267C22.4693 44.6652 22.4693 44.7073 22.4693 44.7494L22.4949 44.7903C22.5641 44.8853 22.7551 45.1271 22.9972 45.1488L24.542 45.3004H24.548C24.7184 45.3004 25.0553 45.1031 25.4871 45.1031C25.7242 45.1031 25.9858 45.1632 26.2656 45.3376C26.2656 45.3376 26.4066 45.227 26.6341 45.2149C26.6511 45.2125 26.6706 45.2125 26.6864 45.2125C27.3797 45.2125 27.6681 45.8333 28.0403 46.3494C28.3201 46.7416 28.6935 47.3238 28.6935 47.3238C28.556 47.4862 28.427 47.5764 28.2118 47.5764C28.1448 47.5767 28.0779 47.5702 28.0123 47.5572C27.2703 47.4212 27.162 45.9091 26.7388 45.7888C26.7165 45.783 26.6936 45.7801 26.6706 45.7804C26.5344 45.7804 26.4748 45.9007 26.4748 45.9007C26.6694 46.4167 26.5551 46.6249 26.7643 47.0231C26.92 47.3178 27.1961 47.5596 27.3105 47.6751C27.3105 47.6751 27.28 47.8988 27.246 48.0661V48.0649ZM25.824 49.6528C25.6173 49.6528 25.4251 49.6552 25.2524 49.6624L25.7048 48.2658C25.7754 48.0721 25.4178 47.8231 25.2706 47.6041C25.4932 47.7437 26.071 48.0492 26.3495 48.1695C26.169 48.6621 25.9938 49.1565 25.824 49.6528ZM19.0951 37.067L19.1595 34.6393L19.7093 34.0631L20.0547 34.7801L19.3737 37.1103L19.0939 37.0682L19.0951 37.067ZM19.4904 37.8201C19.5739 37.9782 19.7002 38.1103 19.8553 38.2014C19.8511 38.4322 19.8287 38.6622 19.7884 38.8895C19.7763 38.9425 19.764 38.9918 19.7483 39.0411C19.741 39.0724 19.7312 39.0977 19.7251 39.1181C19.5561 39.1181 19.2264 39.0977 18.9576 39.0002C18.6584 38.892 18.212 38.3482 18.3154 37.7491C18.4443 37.6709 18.7435 37.5037 19.0245 37.5037C19.2398 37.5037 19.387 37.6047 19.4904 37.8201ZM25.8593 38.4721C25.4372 38.7813 24.3474 39.5692 23.9521 39.8435L20.1473 39.165L20.1739 39.0652C20.2227 38.8691 20.275 38.602 20.2774 38.288L23.4752 38.3386L23.536 38.2784C23.5847 38.2303 24.598 37.2595 25.1136 36.7025C25.2365 36.8553 25.3898 36.9996 25.5917 37.1271C25.5236 37.5001 25.5515 38.027 25.8593 38.4721ZM20.6861 32.8914C21.1446 33.3413 21.591 33.6216 22.0168 33.7756C21.9621 33.9921 21.8891 34.442 22.0934 34.8884C22.2613 35.2493 22.5654 35.5259 23.0045 35.7112C23.0532 36.1563 23.3366 36.8264 24.1236 37.1223C23.7781 37.4664 23.4424 37.7912 23.3086 37.9211L20.1168 37.8718C20.0114 37.822 19.9239 37.7413 19.8663 37.6408C19.8602 37.6252 19.8492 37.6168 19.8419 37.5999L20.3637 37.6841L20.3966 37.6853C20.4456 37.6857 20.4933 37.6686 20.5307 37.6373C20.5682 37.606 20.5931 37.5624 20.6009 37.5145C20.6097 37.4606 20.5967 37.4055 20.5645 37.3611C20.5324 37.3167 20.4839 37.2867 20.4295 37.2775L19.7884 37.1765L20.4987 34.7452L19.8261 33.3413L18.7472 34.4721L18.6815 36.9996L17.9566 36.8853C17.8447 36.8637 17.7376 36.9455 17.717 37.0574C17.7089 37.1115 17.7225 37.1667 17.755 37.211C17.7875 37.2553 17.8363 37.2852 17.8909 37.2944L18.195 37.3401C18.13 37.3761 18.0666 37.415 18.0052 37.4568L17.9443 37.5001L17.9274 37.5747C17.751 38.2844 18.1499 38.9581 18.5805 39.2589L18.5648 39.3491C18.5477 39.4574 18.572 39.5656 18.6377 39.6535C18.6751 39.7068 18.7251 39.7503 18.7835 39.7801C18.8418 39.8098 18.9066 39.825 18.9722 39.8243C19.0644 39.8235 19.1536 39.792 19.2254 39.7348C19.2971 39.6776 19.3473 39.598 19.3676 39.5091C19.5281 39.5271 19.6753 39.532 19.7751 39.532H19.8614L24.0469 40.2814L24.1187 40.2345C24.452 40.0035 25.7243 39.0856 26.1403 38.7813C26.2559 38.8787 26.3836 38.9677 26.5381 39.0411C26.403 39.4898 26.3945 40.1792 26.9273 40.7253H16.2597V34.6261C16.2597 34.0342 16.0857 33.4399 15.879 32.8914H20.6861ZM20.1095 23.6884L22.8938 24.6231V28.9563L20.8442 27.8857L20.1095 23.6872V23.6884ZM26.9018 23.1651C26.9018 22.1076 25.1051 21.1561 23.1225 21.1561H23.1103C21.1276 21.1561 19.3323 22.1076 19.3323 23.1651L19.3712 23.4249L20.163 27.9278L19.3676 28.3849L17.3107 29.5759H17.318C17.318 29.5759 16.8557 29.8117 16.6404 29.956C15.8571 30.495 15.6905 31.2817 16.1454 31.6066C16.2573 30.9654 16.7693 30.2953 17.7267 30.2953C18.4175 30.2953 18.943 30.649 19.3688 31.1771C19.4782 31.3106 19.5816 31.4538 19.6777 31.6066C19.7969 31.8002 19.9173 31.9711 20.0353 32.1347H14.7344C15.1237 32.9106 15.4946 33.7323 15.4946 34.6249V46.2483C15.4946 49.0609 17.678 50.4035 20.0402 50.4035C21.8659 50.4035 22.1116 50.3217 23.1188 51.3154C24.1211 50.3217 24.368 50.4035 26.195 50.4035C28.5585 50.4035 30.7381 49.0609 30.7381 46.2483V34.6249C30.7381 33.7323 31.1091 32.9106 31.5008 32.1347H26.1974C26.3167 31.9711 26.4359 31.8002 26.5551 31.6066C26.6523 31.4538 26.7558 31.3106 26.8629 31.1771C27.291 30.6466 27.8164 30.2953 28.5073 30.2953C29.4646 30.2953 29.9756 30.9654 30.0886 31.6066C30.5436 31.2817 30.3793 30.495 29.5899 29.956C29.3715 29.8188 29.1467 29.692 28.916 29.5759H28.9246L26.8629 28.3849L26.0722 27.9278L26.8629 23.4249L26.9018 23.1651Z" fill="#1A1919"/>
<path d="M60.9646 42.5383H64.6137V34.1413H69.6251V31.0857H55.9531V34.1413H60.9646V42.5383ZM80.6941 31.0857L74.6123 37.7503V31.0857H71.0847V42.5383H74.1986L80.2806 35.8736V42.5383H83.808V31.0857H80.6941ZM90.0079 38.2797H95.6761V42.5383H99.2036V31.0857H95.6761V35.2721H90.0079V31.0857H86.4804V42.5383H90.0079V38.2797ZM109.027 42.5383C109.83 42.5383 110.56 42.4661 111.24 42.2736C113.065 41.7684 114.258 40.3007 114.258 38.3037C114.258 36.403 113.235 35.0797 111.605 34.4782C110.827 34.1894 109.903 34.1654 109.027 34.1654H105.402V31.0857H101.874V42.5383H109.027ZM105.402 36.8601H108.418C108.906 36.8601 109.368 36.8601 109.781 37.0045C110.365 37.197 110.705 37.6782 110.705 38.2556C110.705 38.8571 110.365 39.3624 109.806 39.603C109.416 39.7714 109.027 39.7714 108.418 39.7714H105.402V36.8601ZM119.609 38.2075H120.582L124.791 42.5383H129.486L123.623 36.5714L129.267 31.0857H124.84L120.582 35.3924H119.609V31.0857H116.082V42.5383H119.609V38.2075Z" fill="black"/>
<path d="M136.743 30.7729C131.999 30.7729 129.152 33.4195 129.152 36.8361C129.152 40.2526 131.999 42.8992 136.743 42.8992C141.463 42.8992 144.309 40.2526 144.309 36.8361C144.309 33.4195 141.463 30.7729 136.743 30.7729ZM136.743 40.1082C134.383 40.1082 132.875 38.7128 132.875 36.8361C132.875 34.9594 134.383 33.588 136.743 33.588C139.078 33.588 140.611 34.9594 140.611 36.8361C140.611 38.7128 139.078 40.1082 136.743 40.1082ZM156.056 31.591V30.4361H152.529V31.591C148.102 31.6872 145.449 33.5398 145.449 36.812C145.449 40.0842 148.102 41.7925 152.529 41.8887V43.0436H156.056V41.8887C160.508 41.7925 163.16 40.0842 163.16 36.812C163.16 33.5398 160.508 31.6872 156.056 31.591ZM152.529 39.4346C150.097 39.3383 149.026 38.3519 149.026 36.812C149.026 35.2722 150.097 34.1654 152.529 34.0692V39.4346ZM156.056 39.4346V34.0692C158.513 34.1654 159.559 35.2722 159.559 36.812C159.559 38.3519 158.513 39.3383 156.056 39.4346ZM174.896 31.591V30.4361H171.368V31.591C166.941 31.6872 164.288 33.5398 164.288 36.812C164.288 40.0842 166.941 41.7925 171.368 41.8887V43.0436H174.896V41.8887C179.348 41.7925 181.999 40.0842 181.999 36.812C181.999 33.5398 179.348 31.6872 174.896 31.591ZM171.368 39.4346C168.936 39.3383 167.865 38.3519 167.865 36.812C167.865 35.2722 168.936 34.1654 171.368 34.0692V39.4346ZM174.896 39.4346V34.0692C177.353 34.1654 178.399 35.2722 178.399 36.812C178.399 38.3519 177.353 39.3383 174.896 39.4346Z" fill="black"/>
</svg>
