<svg width="182" height="72" viewBox="0 0 182 72" fill="none" xmlns="http://www.w3.org/2000/svg">
<path fill-rule="evenodd" clip-rule="evenodd" d="M72.2219 34.1754C72.8489 34.1754 73.9947 33.7654 73.9947 32.5148C73.9947 31.0391 72.6714 30.9453 72.2882 30.9453C71.8405 30.9453 70.9887 31.0157 70.1577 31.4247L70.1141 27.7387C71.4364 27.3991 72.3793 27.3071 73.4996 27.3071C76.6868 27.3071 78.1002 29.5596 78.1002 31.7634C78.1002 33.9024 76.8878 35.1951 75.7003 35.6961V35.8556C76.8443 36.2224 78.3686 37.3332 78.3686 39.9262C78.3686 43.1338 76.1717 44.905 73.344 44.905C71.8405 44.8844 70.853 44.6799 69.6635 44.0203L69.7327 40.4938C70.8312 40.9732 71.5711 41.0173 72.3129 41.0173C73.5688 41.0173 74.0611 40.0839 74.0611 39.4046C74.0611 38.4477 73.4559 37.8126 72.1327 37.8126H70.5618V34.1754H72.2219ZM116.527 36.062C116.527 40.4028 114.981 44.7699 110.382 44.7699C105.783 44.7699 104.237 40.4028 104.237 36.062C104.237 31.7211 105.783 27.354 110.382 27.354C114.981 27.354 116.527 31.7211 116.527 36.062ZM118.391 27.6027H121.689L124.601 31.6048L127.544 27.6027H130.819V44.5645H126.935V34.2195L124.601 37.1746L122.271 34.2195V44.5645H118.391V27.6027ZM161.036 27.6027H157.245L157.244 44.5645H161.036V37.7666H163.75V44.5645H167.539V27.6036H163.75V33.7204H161.036V27.6027ZM173.911 27.6027H170.096V44.5645H173.911L173.889 37.7441H174.786L176.983 44.5645H181.449L178.06 35.6539L181.022 27.6027H176.894L174.717 33.696H173.889L173.911 27.6027ZM144.032 44.587H147.98L148.453 41.6543H151.163L151.637 44.587H155.583L152.263 27.628H147.373L144.032 44.587ZM150.536 37.9251L149.819 32.7634H149.818L149.077 37.9251H150.536ZM133.442 44.5645H138.062C139.071 44.5645 143.267 44.131 143.289 38.9918C143.289 34.6782 140.038 33.9258 137.929 33.9258H137.233V31.6742H142.371V27.6036H133.442V44.5645ZM137.233 37.3125V41.1533H137.234H137.794C138.265 41.1533 139.478 40.8606 139.478 39.0856C139.478 37.3341 138.265 37.3125 137.794 37.3125H137.233ZM110.381 40.6533C109.011 40.6533 108.319 39.0415 108.319 36.062C108.319 33.0824 109.011 31.4688 110.381 31.4688C111.752 31.4688 112.444 33.0824 112.444 36.062C112.444 39.0415 111.751 40.6533 110.381 40.6533ZM96.8768 44.5645H92.9952V27.6027H98.1792C101.833 27.6027 103.203 31.0579 103.203 33.2391C103.203 35.47 102.013 38.9731 98.1792 38.9731H96.8768V44.5645ZM96.8766 31.3318H97.7967C98.6713 31.3318 99.2329 31.8778 99.2329 33.2869C99.2329 35.107 98.289 35.2402 97.7967 35.2402H96.8766V31.3328V31.3318ZM90.7737 27.6027H80.1857V44.5645H84.0663V31.6958H86.8922V44.5645H90.7737V27.6027ZM60.8935 44.5645H56.9691L60.2873 27.6027H65.1772L68.4972 44.5645H64.573L64.1025 41.6299H61.3877L60.8935 44.5645ZM62.733 32.7193L63.4729 37.9036H61.9921L62.7321 32.7193H62.733ZM57.4156 27.6027H49.4551V44.5645H53.4011V31.8309H57.4156V27.6027Z" fill="#0D356C"/>
<path fill-rule="evenodd" clip-rule="evenodd" d="M19.6982 16.3223C8.83222 16.3223 0 25.2676 0 36.2759V36.2768C0 47.2607 8.83316 56.206 19.6973 56.2051C30.5395 56.2051 39.3707 47.2607 39.3707 36.2749C39.3707 25.2666 30.5404 16.3223 19.6982 16.3223ZM19.698 55.2088C9.37931 55.2088 0.98439 46.7128 0.98439 36.2759C0.98439 25.8192 9.37457 17.3205 19.698 17.3205C30.0005 17.3205 38.3859 25.822 38.3859 36.2759C38.3859 46.7091 29.9966 55.2088 19.698 55.2088Z" fill="#0D356C"/>
<path fill-rule="evenodd" clip-rule="evenodd" d="M11.8947 24.7872C12.4971 24.3515 13.1441 23.9795 13.8251 23.6774C15.2992 22.9813 17.6801 22.3058 20.6463 22.3058C20.7848 22.3058 20.9261 22.3068 21.0684 22.3096C23.604 22.3565 26.6119 23.243 28.4502 25.0846C28.7613 25.4702 28.9435 25.8567 29.0109 26.1532C30.4688 26.9037 31.3197 27.6073 31.7902 28.4254C31.9997 28.8647 32.0625 29.3585 31.9695 29.8354C32.5756 30.1966 32.8697 30.5165 33.1846 30.9303C33.3838 31.2699 33.5403 31.6526 33.5878 31.9998C33.6532 32.451 33.6978 32.9745 33.2263 33.5881C33.7205 33.8404 34.1227 34.5412 34.1711 34.8405C34.4168 35.9503 33.6978 37.0414 32.7786 37.8848C31.701 38.838 29.322 39.976 27.3935 40.4779C24.6922 41.17 22.2034 41.5776 20.025 41.9343H20.0249H20.0247C19.1297 42.0809 18.2871 42.2189 17.5036 42.3645C18.714 42.66 20.3513 43.0475 23.0216 43.0475C28.7405 43.0475 33.7879 40.3174 33.7879 40.3174C33.7879 40.3174 33.6769 40.6608 33.5622 40.9798C29.9291 43.207 24.1655 44.1357 21.6954 44.0231C19.2054 43.9078 17.0977 43.5231 15.0336 42.8852C14.4066 43.069 13.7777 43.2745 13.1734 43.5231C16.3151 44.9773 18.6913 45.2972 21.3615 45.4998C24.0963 45.7062 28.6305 45.0439 32.441 43.6385C32.3554 43.7262 32.2904 43.8335 32.2265 43.9391C32.1563 44.0549 32.0875 44.1686 31.9942 44.2521C30.042 45.2972 25.9157 46.3432 23.8287 46.4342C21.7627 46.5261 19.2519 46.4342 17.0531 46.0233C15.1683 45.6396 13.6183 45.0439 12.0048 44.3215C11.7154 44.5438 11.5807 44.8206 11.5115 45.1396C17.8177 48.4803 23.6922 48.5479 30.4034 46.4342L29.7944 47.0252C22.4135 50.0724 16.649 48.8884 12.1831 46.7063C12.152 46.6925 12.12 46.6787 12.0874 46.6648C11.958 46.6091 11.8216 46.5505 11.7154 46.4792C12.1423 47.2072 15.5495 49.7299 19.3629 50.0489C21.9904 50.2759 25.1967 49.8209 27.1033 49.0498L25.9821 49.6389C25.061 50.0949 22.6165 51.1419 19.2054 50.913C14.6532 50.594 12.0939 48.5479 10.9499 47.4812C10.4112 46.9783 10.1664 46.4117 10.0089 45.7062C8.97594 45.1611 8.32521 44.5907 7.78926 43.7267C7.47434 43.2501 7.54074 42.6835 7.60714 42.2031L7.74658 41.7978C7.25047 41.431 6.73445 41.0445 6.53335 40.6599C6.08183 39.8418 6.35407 39.1335 6.6671 38.5894C6.39675 38.2713 6.14917 37.9542 6.04104 37.6353C5.90539 37.2713 5.88357 36.9035 5.9253 36.4963C6.01637 35.8162 6.37588 35.182 6.84733 34.6341C7.83195 33.4736 9.40659 32.5655 12.0721 31.6789C14.1097 30.99 15.2015 30.7523 16.5092 30.4677C16.8879 30.3853 17.2845 30.299 17.7275 30.1966C18.6037 29.991 19.5443 29.8374 20.5005 29.6811H20.5006C22.0662 29.4254 23.6735 29.1628 25.1075 28.6543C18.6675 27.5191 11.9849 28.5633 6.53335 32.3572L6.89096 31.2896C11.7799 28.0614 17.1877 26.1532 26.3406 27.7687C26.8338 27.4713 27.125 27.1758 27.2617 26.5857C24.9718 25.7451 22.4836 25.4496 19.2756 25.4937C16.4023 25.5856 11.2194 26.6729 8.44189 28.3372L9.28992 27.2677C11.2194 26.1053 16.2657 24.5846 20.0601 24.5152C22.7274 24.4486 24.0963 24.6052 27.2835 25.4702C27.0085 24.963 26.423 24.6889 25.5583 24.2841L25.3749 24.1981C22.3044 22.8105 16.5816 22.6726 11.8947 24.7872ZM28.8287 27.2677C28.7405 27.5867 28.4066 27.9732 28.1809 28.2237V28.2246C28.8761 28.4066 29.5942 28.6749 30.2649 28.9283C30.1767 28.2912 29.4595 27.6777 28.8287 27.2677ZM28.7403 30.9959C28.4055 30.9033 28.0837 30.8042 27.761 30.7049C27.0479 30.4853 26.3312 30.2647 25.4639 30.1103C26.2294 29.812 26.7425 29.4958 27.1941 29.1309C28.1996 29.402 29.1425 29.7454 29.9099 30.085C29.7771 30.2829 29.0088 31.0034 28.7754 31.0034C28.7633 31.004 28.7511 31.0014 28.7403 30.9959ZM31.5013 31.0185C31.2537 31.3159 30.9834 31.5635 30.6932 31.7915C30.8095 31.8478 30.9235 31.9 31.0351 31.9511C31.374 32.1063 31.6921 32.252 31.9946 32.4735C32.2849 31.905 32.1056 31.541 31.5013 31.0185ZM7.65623 37.4308C6.0561 35.1991 11.3335 33.5791 12.7153 33.1549C12.7695 33.1383 12.8176 33.1235 12.8592 33.1106C15.6622 32.2662 18.9396 31.6339 21.901 31.2699C23.9376 31.0185 25.0181 31.2483 26.9484 31.7699C24.6007 32.4052 22.2677 32.8357 19.9664 33.2604C17.4076 33.7327 14.8881 34.1977 12.4314 34.9287C8.92702 35.9599 7.8211 37.241 7.67376 37.4117C7.66292 37.4242 7.65727 37.4308 7.65623 37.4308ZM15.5084 35.9062C14.206 36.2017 10.6375 37.0414 8.88731 38.5434C9.21806 38.8189 9.46819 38.9502 9.75926 39.1029C9.90228 39.178 10.0552 39.2582 10.2324 39.3633C10.9505 38.8849 11.938 38.4299 13.3987 38.0405C15.7086 37.4206 17.5016 37.1219 19.5373 36.7827C19.732 36.7503 19.9291 36.7175 20.1289 36.684C22.3932 36.3368 26.6779 35.4287 29.0332 34.5637C29.8206 34.2935 30.5357 33.9286 31.0509 33.4942C30.8934 33.3141 29.3681 32.5655 29.3225 32.6339C28.3844 33.088 27.0384 33.5402 25.108 34.0205C24.3653 34.2108 23.1297 34.4358 21.602 34.7141H21.6019H21.6018C19.8533 35.0325 17.722 35.4206 15.5084 35.9062ZM12.1424 40.3625C12.8804 40.0435 13.6886 39.793 14.4712 39.5923C16.2159 39.158 17.869 38.8806 19.5847 38.5926H19.5848C21.7532 38.2287 24.0215 37.8481 26.7012 37.1127C29.011 36.4964 30.6929 35.8359 31.7486 35.0206C31.8345 34.944 31.921 34.8753 32.0077 34.8064L32.0078 34.8063C32.0781 34.7505 32.1486 34.6946 32.219 34.6341C33.6097 36.8153 28.384 38.4984 24.8145 39.2752C22.9485 39.6489 21.0787 40.0042 19.2055 40.3409C16.8758 40.7274 16.1094 40.9329 14.4949 41.4104C13.6886 41.0914 12.8804 40.7499 12.1424 40.3625ZM8.12403 39.7959C8.06595 39.7585 8.0064 39.7202 7.94408 39.6805V39.6795C7.7648 40.0923 8.12716 40.5426 8.48382 40.749C8.58139 40.6502 8.69761 40.5591 8.80955 40.4713C8.8761 40.4192 8.94114 40.3682 8.99985 40.3175C8.64602 40.132 8.40185 39.9748 8.12406 39.7959H8.12403ZM9.80766 41.7725L9.80828 41.7719C10.3346 42.0837 10.8657 42.3875 11.4013 42.6835C11.797 42.4369 12.2172 42.2309 12.6553 42.069C12.3911 41.9482 12.1198 41.8284 11.8455 41.7074L11.8454 41.7073C11.4441 41.5302 11.0368 41.3503 10.6368 41.1608C10.323 41.3642 10.033 41.5676 9.80828 41.7719L9.80766 41.7716V41.7725ZM10.3273 43.5242C9.95801 43.3254 9.59046 43.1275 9.22291 42.8852C9.19919 43.3186 9.47049 43.7051 10.032 44.1836C10.0975 43.9537 10.2113 43.7746 10.3688 43.5466L10.3273 43.5242Z" fill="#0D356C"/>
</svg>
