<svg width="80" height="32" viewBox="0 0 80 32" fill="none" xmlns="http://www.w3.org/2000/svg">
<path fill-rule="evenodd" clip-rule="evenodd" d="M40.1358 17.8576V17.9368C40.9936 18.2557 41.8129 18.8132 42.2422 19.1712C43.5685 20.2862 44.154 21.7592 44.154 23.6704C44.154 26.8168 42.5153 29.086 39.8235 29.8029C39.0041 30.0416 38.1464 30.1217 36.5461 30.1217H28.3937V7.10742H35.6107C37.0932 7.10742 38.1071 7.18667 39.0041 7.42538C41.6183 8.14227 43.3347 9.97418 43.3347 12.8802C43.3347 14.4333 42.7884 15.7478 41.8914 16.6232C41.5014 17.0213 40.9551 17.4996 40.1358 17.8576ZM32.919 20.2862V26.3386H36.0401C36.9755 26.3386 37.8341 26.2593 38.4589 25.6617C39.0828 25.0642 39.3559 24.308 39.3559 23.3124C39.3559 22.5563 39.1604 21.8394 38.7704 21.322C38.1072 20.4857 37.2879 20.2862 35.8839 20.2862H32.919ZM32.8798 16.3044H35.4155C36.1956 16.3044 36.5856 16.3044 36.9757 16.1851C38.0297 15.8663 38.6928 14.9116 38.6928 13.5971C38.6928 12.0448 37.9904 11.3671 36.9757 11.0491C36.5463 10.9298 36.1179 10.8897 35.2593 10.8897H32.8798V16.3044ZM50.9414 30.1217V10.969H44.427V7.10742H62.5285L61.2414 10.969H55.4667V30.1217H50.9414ZM63.9325 30.1217V7.10742H78.6014L77.3143 10.969H68.4191V16.0657H72.0476C74.9734 16.0657 76.4951 16.7827 77.548 17.6982C78.3676 18.4151 79.7716 20.0075 79.7716 23.1539C79.7716 26.2593 78.328 27.971 77.1187 28.8473C75.7147 29.8421 74.2325 30.1217 71.228 30.1217H63.9325ZM68.4191 26.2593H71.8134C73.1005 26.2593 73.8805 25.9405 74.4267 25.2236C74.7 24.8656 75.0898 24.2279 75.0898 23.0336C75.0898 21.8394 74.7 21.0031 73.9196 20.4056C73.452 20.0476 72.8271 19.8489 71.7743 19.8489H68.4191V26.2593Z" fill="#0A2973"/>
<path fill-rule="evenodd" clip-rule="evenodd" d="M5.55458 2L4.16505 5.76689H23.4206L24.8101 2H5.55458ZM3.46972 7.64947L2.08021 11.4155H21.3357L22.7252 7.64947H3.46972ZM1.38951 13.2989L0 17.0649H19.2556L20.6442 13.2989H1.38951Z" fill="#009FDF"/>
</svg>
