<svg width="24" height="24" viewBox="0 0 24 24" fill="none" xmlns="http://www.w3.org/2000/svg">
<path d="M21.2017 8.10508C20.1473 5.6454 18.3554 3.85654 15.8766 2.79874C14.6376 2.27005 13.3396 2 11.9836 2C10.6277 2 9.33931 2.2675 8.10173 2.79874C5.6434 3.85373 3.84363 5.64144 2.78732 8.10508C2.25801 9.33936 2 10.6325 2 11.989C2 13.3458 2.25801 14.6497 2.78732 15.8842C3.84363 18.3478 5.64363 20.1463 8.10173 21.2015C9.33954 21.7328 10.6277 22 11.9836 22C13.3394 22 14.6376 21.7299 15.8764 21.2015C18.3552 20.1437 20.1471 18.3436 21.2017 15.8842C21.7326 14.6457 22 13.3458 22 11.989C22 10.6325 21.7329 9.34354 21.2017 8.10508ZM19.6054 16.4094C18.8204 17.7564 17.7449 18.825 16.3905 19.615C15.0442 20.4005 13.5692 20.7966 11.9838 20.7966C10.792 20.7966 9.65471 20.5669 8.57203 20.0963C7.48938 19.626 6.55461 19.0077 5.77265 18.2255C4.99069 17.4432 4.3683 16.4987 3.90291 15.4136C3.43889 14.3325 3.21402 13.1818 3.21402 11.989C3.21402 10.4026 3.60359 8.93417 4.38418 7.59091C5.16755 6.24275 6.2432 5.17302 7.58807 4.38523C8.93271 3.59748 10.3982 3.20347 11.9836 3.20347C13.5692 3.20347 15.044 3.5998 16.3903 4.38523C17.7447 5.17534 18.8178 6.24504 19.6051 7.59088C20.3925 8.93649 20.786 10.4026 20.786 11.989C20.786 13.5755 20.395 15.0539 19.6054 16.4094Z" fill="white"/>
<path d="M12.6181 11.9016V6.23407C12.6181 5.89493 12.3228 5.62138 11.9838 5.62138C11.6668 5.62138 11.3824 5.89493 11.3824 6.23407V11.9891C11.3824 12 11.4043 12.0439 11.4043 12.0766C11.3824 12.2736 11.4372 12.4377 11.5684 12.5691L14.8381 15.8404C15.0569 16.0593 15.4614 16.0593 15.68 15.8404C15.9314 15.5888 15.9149 15.2237 15.68 14.987L12.6181 11.9016Z" fill="white"/>
</svg>
