<svg width="32" height="32" viewBox="0 0 32 32" fill="none" xmlns="http://www.w3.org/2000/svg">
<path d="M29.0604 15.2475L22.8937 8.71415C22.5147 8.31217 21.882 8.29383 21.4801 8.67316C21.0787 9.05217 21.0601 9.68514 21.4394 10.0868L26.9584 15.9335L21.4394 21.7809C21.0601 22.1826 21.0787 22.8152 21.4801 23.1946C21.6734 23.3769 21.9204 23.4672 22.1664 23.4672C22.4321 23.4672 22.6974 23.3619 22.8938 23.1542L29.0605 16.6205C29.4241 16.2349 29.4241 15.6328 29.0604 15.2475Z" fill="white"/>
<path d="M10.5606 21.7806L5.04191 15.9335L10.5606 10.0865C10.9396 9.68483 10.9213 9.05181 10.5196 8.67285C10.1183 8.29383 9.48492 8.31217 9.10595 8.71384L2.93924 15.2472C2.57559 15.6325 2.57559 16.2349 2.93924 16.6202L9.10627 23.1539C9.30293 23.3623 9.56794 23.4673 9.83362 23.4673C10.0796 23.4673 10.3266 23.3766 10.5196 23.1943C10.9216 22.8152 10.9396 22.1823 10.5606 21.7806Z" fill="white"/>
<path d="M17.6177 5.3448C17.072 5.26214 16.5613 5.63678 16.478 6.18246L13.5446 25.3826C13.4613 25.9286 13.8363 26.439 14.3823 26.5223C14.4337 26.53 14.4843 26.5337 14.5346 26.5337C15.0203 26.5337 15.4463 26.1793 15.522 25.6846L18.4553 6.4845C18.5387 5.93845 18.1637 5.42813 17.6177 5.3448Z" fill="white"/>
</svg>
