<svg width="36" height="22" viewBox="0 0 36 22" fill="none" xmlns="http://www.w3.org/2000/svg">
  <path
    d="M35.5957 10.8741L29.7187 0.533112C29.6286 0.384839 29.4861 0.275761 29.3195 0.227435C29.1529 0.17911 28.9741 0.195052 28.8187 0.272112L26.1187 1.81111C25.9581 1.9035 25.8405 2.05564 25.7917 2.23434C25.7428 2.41305 25.7665 2.60383 25.8577 2.76511L26.3977 3.85411C26.0162 4.11605 25.5516 4.2282 25.0927 4.16911C24.6659 4.1057 24.2446 4.00941 23.8327 3.88111C21.8527 3.35011 18.5497 2.45011 15.3097 3.88111C14.6902 4.13927 14.116 4.49475 13.6087 4.93411C13.3117 4.93411 12.7087 4.82611 12.0877 4.73611C11.4485 4.47966 10.8693 4.09354 10.3867 3.60211L10.7647 2.93611C10.8559 2.77483 10.8796 2.58405 10.8307 2.40534C10.7818 2.22664 10.6643 2.07451 10.5037 1.98211L7.80369 0.443112C7.72395 0.397488 7.63584 0.368397 7.5446 0.357573C7.45337 0.346749 7.3609 0.354414 7.27269 0.380112C7.18368 0.402092 7.10017 0.442215 7.02738 0.497967C6.95459 0.553719 6.8941 0.623898 6.84969 0.704112L0.990693 11.0541C0.94507 11.1339 0.915979 11.222 0.905155 11.3132C0.894331 11.4044 0.901996 11.4969 0.927693 11.5851C0.949674 11.6741 0.989796 11.7576 1.04555 11.8304C1.1013 11.9032 1.17148 11.9637 1.25169 12.0081L3.95169 13.5471C4.05567 13.607 4.17372 13.638 4.29369 13.6371C4.35639 13.6459 4.42 13.6459 4.48269 13.6371C4.5717 13.6151 4.65522 13.575 4.72801 13.5193C4.80079 13.4635 4.86129 13.3933 4.90569 13.3131L5.54469 12.1971C6.07469 12.8961 6.64886 13.5605 7.26369 14.1861L7.11969 14.3931C6.90961 14.6941 6.79656 15.0521 6.79569 15.4191C6.79599 15.7039 6.86385 15.9846 6.99371 16.238C7.12357 16.4915 7.31172 16.7105 7.54269 16.8771C7.83951 17.0965 8.19962 17.2134 8.56869 17.2101H8.64069C8.61354 17.3891 8.61354 17.5711 8.64069 17.7501C8.72325 18.2148 8.98505 18.6285 9.36969 18.9021C9.6674 19.1197 10.0269 19.2364 10.3957 19.2351C10.5788 19.2357 10.7609 19.2084 10.9357 19.1541C10.9859 19.4103 11.0912 19.6525 11.2443 19.8639C11.3974 20.0753 11.5947 20.2509 11.8224 20.3785C12.0502 20.506 12.303 20.5826 12.5632 20.6027C12.8235 20.6228 13.085 20.5861 13.3297 20.4951C13.4325 20.9129 13.6815 21.2801 14.0317 21.5301C14.3305 21.7445 14.6899 21.858 15.0577 21.8541H15.3637C15.5941 21.8172 15.8147 21.7344 16.0126 21.6107C16.2105 21.4871 16.3815 21.325 16.5157 21.1341V21.0801C17.538 21.6171 18.6653 21.9242 19.8187 21.9801C20.2211 21.9759 20.6199 21.9028 20.9977 21.7641C21.639 21.5675 22.1783 21.1284 22.5007 20.5401H22.7977C23.3017 20.5433 23.7947 20.3926 24.2107 20.1081C24.6925 19.7634 25.0318 19.2545 25.1647 18.6771C25.7265 18.6176 26.2462 18.3514 26.6227 17.9301C26.9041 17.6115 27.1157 17.2375 27.2437 16.8321C27.593 16.8008 27.9325 16.6994 28.2417 16.5339C28.551 16.3684 28.8238 16.1423 29.0437 15.8691C29.1834 15.6546 29.2785 15.4142 29.3233 15.1621C29.3682 14.9101 29.3618 14.6516 29.3047 14.4021C29.259 14.1957 29.18 13.9981 29.0707 13.8171C29.8921 13.4284 30.6174 12.8629 31.1947 12.1611L31.7167 13.0611C31.8086 13.2233 31.9605 13.3428 32.1397 13.3941C32.2024 13.4029 32.266 13.4029 32.3287 13.3941C32.4481 13.3909 32.5652 13.3601 32.6707 13.3041L35.3707 11.7651C35.5328 11.6732 35.6524 11.5213 35.7037 11.3421C35.7254 11.1782 35.6871 11.0119 35.5957 10.8741ZM5.12169 11.0541L4.22169 12.5751L1.87269 11.3061L7.56069 1.32511L9.90969 2.66611L5.12169 11.0541ZM9.29769 15.8961C9.15821 16.0773 8.955 16.1986 8.72934 16.2353C8.50368 16.2721 8.27248 16.2216 8.08269 16.0941C7.89764 15.9557 7.77293 15.7514 7.73439 15.5235C7.69586 15.2956 7.74645 15.0617 7.87569 14.8701L8.19969 14.4021L8.61369 13.8261C8.75234 13.6386 8.95838 13.5122 9.18838 13.4736C9.41839 13.435 9.6544 13.4871 9.84669 13.6191C10.0161 13.7433 10.1368 13.9229 10.1878 14.1267C10.2387 14.3305 10.2168 14.5458 10.1257 14.7351L9.29769 15.8961ZM11.2417 17.7591L11.1247 17.9211C11.0709 18.0439 10.9904 18.1531 10.889 18.2408C10.7876 18.3284 10.6678 18.3923 10.5386 18.4278C10.4093 18.4633 10.2738 18.4695 10.1418 18.4458C10.0099 18.4222 9.88487 18.3694 9.77593 18.2913C9.667 18.2132 9.57688 18.1118 9.51217 17.9944C9.44746 17.877 9.40979 17.7466 9.40191 17.6128C9.39403 17.479 9.41613 17.3451 9.46662 17.221C9.5171 17.0968 9.59468 16.9855 9.69369 16.8951L10.0177 16.4541L10.7557 15.4191L11.7277 14.0511C11.7895 13.9498 11.8707 13.8616 11.9666 13.7918C12.0626 13.7219 12.1715 13.6718 12.2869 13.6442C12.4023 13.6166 12.5221 13.6121 12.6393 13.6309C12.7565 13.6498 12.8688 13.6917 12.9697 13.7541C13.0662 13.82 13.1481 13.9053 13.21 14.0044C13.272 14.1035 13.3127 14.2144 13.3297 14.3301C13.3658 14.5607 13.3109 14.7962 13.1767 14.9871L12.8527 15.4461L11.2417 17.7591ZM13.6267 19.0011L13.4107 19.2981C13.3561 19.4214 13.2745 19.5308 13.1719 19.6183C13.0694 19.7058 12.9484 19.7692 12.8181 19.8037C12.6878 19.8382 12.5513 19.843 12.4189 19.8177C12.2865 19.7924 12.1614 19.7376 12.053 19.6575C11.9445 19.5774 11.8555 19.4739 11.7924 19.3548C11.7293 19.2356 11.6938 19.1038 11.6885 18.9691C11.6832 18.8344 11.7082 18.7002 11.7617 18.5764C11.8152 18.4527 11.8959 18.3425 11.9977 18.2541L13.6087 15.9861C13.7187 15.8606 13.8615 15.7681 14.021 15.719C14.1805 15.67 14.3506 15.6662 14.5121 15.7082C14.6737 15.7503 14.8204 15.8364 14.9358 15.957C15.0512 16.0776 15.1308 16.2279 15.1657 16.3911C15.1883 16.5052 15.1864 16.6228 15.16 16.7361C15.1336 16.8494 15.0834 16.9557 15.0127 17.0481L14.4727 17.8131L13.6267 19.0011ZM16.6507 19.3521L16.0837 20.1351L16.0117 20.2431L15.7867 20.5491C15.6454 20.6945 15.4591 20.7879 15.258 20.8141C15.057 20.8404 14.853 20.798 14.679 20.6939C14.5051 20.5897 14.3714 20.4299 14.2997 20.2403C14.2279 20.0506 14.2223 19.8423 14.2837 19.6491L14.3557 19.5321L15.2107 18.3351C15.3515 18.1554 15.5553 18.0359 15.7809 18.0008C16.0065 17.9657 16.237 18.0176 16.4257 18.1461C16.6132 18.2848 16.7396 18.4908 16.7782 18.7208C16.8169 18.9508 16.7647 19.1868 16.6327 19.3791L16.6507 19.3521ZM28.2607 15.3921C27.9169 15.7474 27.4496 15.9568 26.9557 15.9771L21.6367 12.6471C21.5364 12.5828 21.4147 12.5609 21.2983 12.5863C21.1819 12.6116 21.0803 12.682 21.0157 12.7821C20.983 12.8319 20.9608 12.8879 20.9504 12.9465C20.94 13.0052 20.9415 13.0653 20.955 13.1234C20.9684 13.1814 20.9935 13.2361 21.0287 13.2842C21.0639 13.3323 21.1084 13.3727 21.1597 13.4031L26.3437 16.6611C26.2513 16.9212 26.1075 17.1599 25.9207 17.3631C25.7851 17.5065 25.6219 17.6211 25.441 17.7C25.2601 17.7788 25.0651 17.8204 24.8677 17.8221L20.1697 15.1941C20.0647 15.1356 19.9407 15.1213 19.8251 15.1542C19.7095 15.1871 19.6117 15.2646 19.5532 15.3696C19.4947 15.4746 19.4803 15.5986 19.5133 15.7142C19.5462 15.8298 19.6237 15.9276 19.7287 15.9861L24.2287 18.4971C24.1505 18.8609 23.9385 19.1821 23.6347 19.3971C23.4416 19.5239 23.2241 19.6086 22.9962 19.6458C22.7682 19.683 22.535 19.6719 22.3117 19.6131H22.2577C22.2299 19.5865 22.1998 19.5624 22.1677 19.5411L18.5677 17.7411C18.4628 17.6974 18.3453 17.695 18.2387 17.7344C18.1321 17.7738 18.0444 17.8521 17.9931 17.9535C17.9418 18.0549 17.9308 18.1719 17.9623 18.2811C17.9937 18.3903 18.0653 18.4835 18.1627 18.5421L21.6097 20.2791C21.3934 20.5982 21.0766 20.8358 20.7097 20.9541C19.4719 21.178 18.1948 20.9513 17.1097 20.3151L17.3977 19.8741C17.6708 19.4876 17.7808 19.0091 17.7037 18.5421C17.6314 18.1436 17.4268 17.7812 17.1231 17.5134C16.8193 17.2455 16.4341 17.088 16.0297 17.0661C16.1108 16.7948 16.1292 16.5086 16.0837 16.2291C16.0034 15.7658 15.7449 15.3523 15.3637 15.0771C15.0389 14.8455 14.6463 14.7284 14.2477 14.7441C14.2746 14.5711 14.2746 14.3951 14.2477 14.2221C14.1825 13.8786 14.0186 13.5615 13.7761 13.3096C13.5336 13.0577 13.223 12.8819 12.8823 12.8036C12.5415 12.7254 12.1853 12.748 11.8572 12.8689C11.5291 12.9897 11.2433 13.2035 11.0347 13.4841L10.9537 13.5921C10.8303 13.3118 10.6307 13.0717 10.3777 12.8991C9.99174 12.6296 9.51557 12.522 9.05124 12.5994C8.58691 12.6768 8.17138 12.933 7.89369 13.3131L7.82169 13.4031C7.17678 12.7408 6.57552 12.0373 6.02169 11.2971L9.94569 4.40311C10.5218 4.97563 11.2249 5.40422 11.9977 5.65411L12.8977 5.78011C12.4286 6.38543 12.0969 7.08565 11.9257 7.83211C11.8457 8.16487 11.8525 8.5126 11.9455 8.84197C12.0385 9.17134 12.2145 9.47131 12.4567 9.71311C12.6876 9.94654 12.9734 10.1183 13.2878 10.2126C13.6023 10.307 13.9354 10.3209 14.2567 10.2531C14.9428 10.1141 15.5596 9.74208 16.0027 9.20011L16.9027 8.00311L18.1717 7.67011C21.7193 9.25746 25.0009 11.3824 27.9007 13.9701H27.9547C27.9808 14.0011 28.0111 14.0284 28.0447 14.0511C28.2281 14.186 28.3535 14.3854 28.3957 14.6091C28.4269 14.742 28.431 14.8798 28.4078 15.0143C28.3846 15.1489 28.3346 15.2773 28.2607 15.3921ZM28.3777 13.1511C25.4122 10.5143 22.05 8.36097 18.4147 6.77011C18.3317 6.75209 18.2457 6.75209 18.1627 6.77011C18.103 6.76162 18.0424 6.76162 17.9827 6.77011L16.5877 7.13911C16.4386 7.18183 16.3065 7.26991 16.2097 7.39111L15.3097 8.63311C14.9922 9.00936 14.5583 9.26904 14.0767 9.37111C13.9 9.40831 13.7168 9.40062 13.5439 9.34873C13.3709 9.29685 13.2137 9.20243 13.0867 9.07411C12.9524 8.93789 12.8547 8.76991 12.8028 8.5858C12.7509 8.40169 12.7464 8.20743 12.7897 8.02111C12.9883 7.14806 13.4539 6.35852 14.1217 5.76211C14.6058 5.33214 15.1558 4.98269 15.7507 4.72711C18.6847 3.44011 21.8077 4.28611 23.6707 4.79011C24.1321 4.93417 24.6048 5.03954 25.0837 5.10511C25.7155 5.17236 26.3512 5.0198 26.8837 4.67311L30.6817 11.3511C30.0984 12.1597 29.2958 12.7843 28.3687 13.1511H28.3777ZM32.3737 12.4851L31.5277 11.0001L27.5587 4.02511L26.7037 2.52211L29.0437 1.15411L34.7137 11.1441L32.3737 12.4851Z"
    fill="#CC0033"/>
</svg>
