<svg width="24" height="24" viewBox="0 0 24 24" fill="none" xmlns="http://www.w3.org/2000/svg">
<path d="M20.0129 6.18091L15.9269 2.16785C15.8174 2.06027 15.67 2 15.5163 2H5.18628C3.98083 2 3 2.98068 3 4.18628V19.8137C3 21.0192 3.98068 22 5.18628 22H18.002C19.2074 22 20.1883 21.0193 20.1883 19.8137V6.599C20.1883 6.44168 20.1251 6.29108 20.0129 6.18091ZM16.1023 3.98273L18.1695 6.01306H16.2886C16.1859 6.01306 16.1023 5.92944 16.1023 5.82675V3.98273ZM18.002 20.8281H5.18628C4.62704 20.8281 4.17188 20.3731 4.17188 19.8137V4.18628C4.17188 3.62689 4.62689 3.17188 5.18628 3.17188H14.9305V5.82675C14.9305 6.57565 15.5398 7.18494 16.2887 7.18494H19.0164V19.8137C19.0164 20.3731 18.5614 20.8281 18.002 20.8281Z" fill="white"/>
<path d="M15.6619 11.2969H7.40201C7.07837 11.2969 6.81607 11.5592 6.81607 11.8828C6.81607 12.2065 7.07837 12.4688 7.40201 12.4688H15.6619C15.9855 12.4688 16.2478 12.2065 16.2478 11.8828C16.2478 11.5592 15.9855 11.2969 15.6619 11.2969Z" fill="white"/>
<path d="M7.40201 14.8125H14.1369C14.4606 14.8125 14.7229 14.5502 14.7229 14.2266C14.7229 13.9029 14.4606 13.6406 14.1369 13.6406H7.40201C7.07837 13.6406 6.81607 13.9029 6.81607 14.2266C6.81607 14.5502 7.07837 14.8125 7.40201 14.8125Z" fill="white"/>
<path d="M14.9495 15.9844H7.40201C7.07837 15.9844 6.81607 16.2467 6.81607 16.5703C6.81607 16.894 7.07837 17.1562 7.40201 17.1562H14.9495C15.2729 17.1562 15.5354 16.894 15.5354 16.5703C15.5354 16.2467 15.2729 15.9844 14.9495 15.9844Z" fill="white"/>
</svg>
