<svg width="32" height="32" viewBox="0 0 32 32" fill="none" xmlns="http://www.w3.org/2000/svg">
<path d="M29.1637 15.9795C28.9255 15.6536 23.2493 8 15.9997 8C8.75017 8 3.07369 15.6536 2.83572 15.9792C2.6101 16.2884 2.6101 16.7077 2.83572 17.0169C3.07369 17.3427 8.75017 24.9964 15.9997 24.9964C23.2493 24.9964 28.9255 17.3427 29.1637 17.0171C29.3897 16.708 29.3897 16.2884 29.1637 15.9795ZM15.9997 23.2381C10.6597 23.2381 6.03459 18.1583 4.66547 16.4976C6.03282 14.8354 10.6482 9.75823 15.9997 9.75823C21.3395 9.75823 25.9643 14.8372 27.334 16.4988C25.9666 18.1609 21.3512 23.2381 15.9997 23.2381Z" fill="white"/>
<path d="M15.9997 11.2234C13.0913 11.2234 10.725 13.5898 10.725 16.4982C10.725 19.4066 13.0913 21.773 15.9997 21.773C18.9082 21.773 21.2745 19.4066 21.2745 16.4982C21.2745 13.5898 18.9082 11.2234 15.9997 11.2234ZM15.9997 20.0147C14.0607 20.0147 12.4833 18.4372 12.4833 16.4982C12.4833 14.5592 14.0607 12.9817 15.9997 12.9817C17.9387 12.9817 19.5162 14.5592 19.5162 16.4982C19.5162 18.4372 17.9388 20.0147 15.9997 20.0147Z" fill="white"/>
</svg>
