<svg width="32" height="32" viewBox="0 0 32 32" fill="none" xmlns="http://www.w3.org/2000/svg">
  <path d="M23.7412 19.1857C23.1953 18.6173 22.5368 18.3134 21.8389 18.3134C21.1466 18.3134 20.4825 18.6116 19.9141 19.1801L18.1356 20.953C17.9892 20.8742 17.8429 20.801 17.7022 20.7278C17.4996 20.6265 17.3082 20.5309 17.145 20.4295C15.4791 19.3714 13.9651 17.9925 12.513 16.2084C11.8095 15.3192 11.3367 14.5706 10.9934 13.8108C11.4549 13.3887 11.8826 12.9497 12.2991 12.5276C12.4567 12.37 12.6143 12.2068 12.7719 12.0492C13.9538 10.8673 13.9538 9.3364 12.7719 8.15448L11.2354 6.61799C11.0609 6.44352 10.8808 6.26341 10.712 6.08331C10.3743 5.73436 10.0197 5.37416 9.65388 5.03647C9.10795 4.49616 8.45508 4.20913 7.76844 4.20913C7.0818 4.20913 6.41768 4.49616 5.85486 5.03647C5.84923 5.0421 5.84923 5.0421 5.8436 5.04773L3.93002 6.97819C3.20961 7.6986 2.79876 8.5766 2.70871 9.5953C2.57363 11.2387 3.05765 12.7696 3.42911 13.7714C4.34088 16.2309 5.7029 18.5103 7.73467 20.953C10.1998 23.8965 13.1659 26.2209 16.554 27.8588C17.8485 28.4722 19.5764 29.1983 21.5068 29.3221C21.625 29.3277 21.7488 29.3333 21.8614 29.3333C23.1615 29.3333 24.2534 28.8662 25.1089 27.9375C25.1145 27.9263 25.1258 27.9207 25.1314 27.9094C25.424 27.5548 25.7617 27.234 26.1163 26.8907C26.3583 26.6599 26.606 26.4179 26.848 26.1647C27.4052 25.585 27.6978 24.9096 27.6978 24.2173C27.6978 23.5194 27.3995 22.8497 26.8311 22.2868L23.7412 19.1857ZM25.7561 25.1122C25.7505 25.1178 25.7505 25.1122 25.7561 25.1122C25.5366 25.3486 25.3115 25.5625 25.0695 25.7988C24.7036 26.1478 24.3322 26.5136 23.9832 26.9245C23.4148 27.5323 22.745 27.8194 21.867 27.8194C21.7826 27.8194 21.6926 27.8194 21.6081 27.8137C19.9366 27.7068 18.3832 27.0539 17.2182 26.4967C14.0326 24.9546 11.2354 22.7652 8.91096 19.9906C6.99175 17.6774 5.70853 15.5387 4.85867 13.2424C4.33525 11.8409 4.14389 10.7491 4.22832 9.71912C4.2846 9.06062 4.53787 8.51469 5.005 8.04755L6.92421 6.12834C7.2 5.86944 7.49266 5.72874 7.7797 5.72874C8.13427 5.72874 8.42131 5.94261 8.60141 6.12271C8.60704 6.12834 8.61267 6.13397 8.6183 6.13959C8.96162 6.4604 9.28805 6.79246 9.63137 7.14704C9.80584 7.32714 9.98594 7.50724 10.166 7.69297L11.7025 9.22947C12.2991 9.82605 12.2991 10.3776 11.7025 10.9742C11.5393 11.1374 11.3817 11.3006 11.2185 11.4582C10.7457 11.9422 10.2955 12.3925 9.80584 12.8315C9.79459 12.8428 9.78333 12.8484 9.7777 12.8596C9.29368 13.3437 9.38373 13.8164 9.48504 14.1372C9.49066 14.1541 9.49629 14.171 9.50192 14.1879C9.90152 15.1559 10.4643 16.0677 11.3198 17.1539L11.3255 17.1596C12.8788 19.0732 14.5166 20.5646 16.3233 21.7071C16.554 21.8535 16.7904 21.9717 17.0155 22.0842C17.2182 22.1855 17.4095 22.2812 17.5727 22.3825C17.5952 22.3938 17.6178 22.4107 17.6403 22.4219C17.8316 22.5176 18.0117 22.5626 18.1975 22.5626C18.6646 22.5626 18.9573 22.27 19.0529 22.1743L20.9778 20.2494C21.1691 20.0581 21.4731 19.8273 21.8276 19.8273C22.1766 19.8273 22.4636 20.0468 22.6381 20.2382C22.6437 20.2438 22.6437 20.2438 22.6494 20.2494L25.7505 23.3506C26.3302 23.9247 26.3302 24.5156 25.7561 25.1122Z" fill="#CC0033"/>
  <path d="M17.0775 9.00994C18.5521 9.25758 19.8916 9.95547 20.9609 11.0248C22.0303 12.0942 22.7226 13.4337 22.9758 14.9083C23.0377 15.2797 23.3585 15.5386 23.7244 15.5386C23.7694 15.5386 23.8088 15.533 23.8538 15.5274C24.2703 15.4598 24.5461 15.0659 24.4786 14.6494C24.1746 12.8652 23.3304 11.2387 22.0415 9.94984C20.7527 8.66099 19.1261 7.81676 17.342 7.51284C16.9255 7.4453 16.5372 7.72108 16.464 8.13194C16.3908 8.5428 16.661 8.9424 17.0775 9.00994Z" fill="#CC0033"/>
  <path d="M29.3018 14.4299C28.8009 11.492 27.4163 8.81862 25.2889 6.69116C23.1614 4.56371 20.4881 3.17918 17.5501 2.67827C17.1393 2.6051 16.7509 2.88651 16.6778 3.29737C16.6102 3.71386 16.886 4.1022 17.3025 4.17537C19.9252 4.61999 22.3172 5.86382 24.2195 7.76052C26.1219 9.66285 27.3601 12.0548 27.8047 14.6776C27.8666 15.049 28.1874 15.3079 28.5532 15.3079C28.5983 15.3079 28.6377 15.3023 28.6827 15.2967C29.0935 15.2347 29.375 14.8408 29.3018 14.4299Z" fill="#CC0033"/>
</svg>
