<svg width="32" height="32" viewBox="0 0 32 32" fill="none" xmlns="http://www.w3.org/2000/svg">
<path d="M25.7862 23.315C26.0818 23.6077 26.2357 23.911 26.2365 24.2228C26.2371 24.5054 26.1119 24.7857 25.8704 25.0621H25.8713L25.8522 25.0827C25.8331 25.104 25.8134 25.1252 25.7929 25.1465C25.7928 25.1466 25.7927 25.1467 25.7926 25.1468L25.7862 23.315ZM25.7862 23.315L22.6852 20.214L22.6498 20.2494L22.6852 20.214L22.6747 20.2036C22.4965 20.0084 22.1973 19.7773 21.8281 19.7773C21.4528 19.7773 21.1365 20.0204 20.9429 20.214L19.0181 22.1389C18.9233 22.2337 18.6433 22.5126 18.198 22.5126C18.021 22.5126 17.8485 22.4698 17.6631 22.3771C17.6544 22.3728 17.6452 22.3671 17.6335 22.3598L17.6326 22.3592C17.6225 22.3529 17.6104 22.3453 17.5978 22.3388C17.433 22.2367 17.2406 22.1405 17.0397 22.0401L17.0384 22.0395C16.813 21.9267 16.5788 21.8096 16.3505 21.6649L16.3505 21.6648C14.5491 20.5256 12.9152 19.038 11.3648 17.128L11.365 17.1278L11.3613 17.1242L11.3578 17.1206C10.5057 16.0384 9.94631 15.1316 9.54929 14.1704L9.5332 14.1221C9.53316 14.122 9.53312 14.1219 9.53308 14.1217C9.48321 13.9637 9.43793 13.7735 9.46203 13.5653C9.48599 13.3584 9.57906 13.1294 9.81355 12.8949L9.81928 12.8892L9.82172 12.8843C9.82198 12.8841 9.8223 12.8838 9.82269 12.8835L9.82575 12.8809L9.83011 12.8773C9.8331 12.8748 9.83675 12.8716 9.84062 12.8679C10.331 12.4281 10.7818 11.9774 11.2543 11.4936C11.3631 11.3885 11.4698 11.2806 11.5768 11.1724C11.6305 11.1181 11.6842 11.0637 11.7384 11.0095C12.0414 10.7065 12.2005 10.4074 12.2005 10.1018C12.2005 9.79612 12.0414 9.49709 11.7384 9.19405L10.2024 7.6581C10.2023 7.658 10.2022 7.6579 10.2021 7.6578C10.1128 7.56564 10.0234 7.47489 9.93491 7.38498L9.93272 7.38275C9.84335 7.29198 9.75485 7.20208 9.66778 7.1122C9.32457 6.75774 8.9976 6.42511 8.65354 6.10358L8.63726 6.08729C8.45404 5.90408 8.15483 5.67867 7.78019 5.67867C7.47628 5.67867 7.17198 5.82755 6.89048 6.09182L6.89046 6.0918L6.88935 6.09292L4.97014 8.01213C4.49464 8.48763 4.23627 9.04459 4.17898 9.7148L4.17897 9.71497C4.09375 10.7546 4.28731 11.8541 4.81227 13.2597C5.66447 15.5623 6.95094 17.7058 8.87297 20.0224L8.87312 20.0226C11.202 22.8026 14.0048 24.9964 17.1969 26.5417L17.1971 26.5418C18.3632 27.0995 19.9238 27.756 21.6054 27.8636M25.7862 23.315L21.6054 27.8636M21.6054 27.8636C21.6054 27.8636 21.6053 27.8636 21.6053 27.8636L21.6086 27.8137L21.6054 27.8636ZM17.086 8.96052L17.0862 8.96057C18.5713 9.20997 19.9202 9.91286 20.9968 10.9894C22.0734 12.0661 22.7706 13.4149 23.0256 14.8997L23.0256 14.9C23.0834 15.2466 23.3827 15.4886 23.7249 15.4886C23.762 15.4886 23.7948 15.4844 23.8348 15.4794L17.086 8.96052ZM17.086 8.96052C16.6981 8.89763 16.4452 8.52513 16.5137 8.14065C16.5821 7.7569 16.9447 7.49903 17.3343 7.5621C19.108 7.8643 20.7251 8.70359 22.0067 9.98514C23.2882 11.2667 24.1275 12.8838 24.4297 14.6576C24.4928 15.0472 24.235 15.4144 23.8472 15.4778L17.086 8.96052ZM29.2531 14.4386L29.253 14.4383C28.7538 11.5106 27.3742 8.84664 25.254 6.72646C23.1338 4.60627 20.4699 3.22665 17.5422 2.7275L17.5419 2.72744C17.1593 2.65931 16.7962 2.9212 16.7276 3.3057C16.6646 3.69498 16.9222 4.05756 17.3115 4.12603C19.9446 4.57244 22.3458 5.82121 24.2553 7.72505L24.2554 7.7251C26.165 9.63469 27.4081 12.0361 27.8545 14.6691L27.8545 14.6693C27.9123 15.0158 28.2115 15.2579 28.5537 15.2579C28.5909 15.2579 28.6237 15.2537 28.6636 15.2487L29.2531 14.4386ZM29.2531 14.4386C29.3213 14.8218 29.0588 15.1891 28.6763 15.2471L29.2531 14.4386ZM23.7056 19.2203L23.7063 19.221L26.7962 22.3221L26.7964 22.3223C27.3567 22.8771 27.6483 23.5345 27.6483 24.2173C27.6483 24.8947 27.3621 25.5581 26.8124 26.13L26.8123 26.1301C26.5711 26.3825 26.324 26.624 26.0823 26.8545L26.082 26.8547C26.0557 26.8803 26.0294 26.9057 26.0032 26.931C25.6777 27.2457 25.3662 27.5469 25.0933 27.8775L25.0923 27.8767L25.088 27.8852C25.0875 27.8857 25.0867 27.8866 25.0853 27.8881C25.0825 27.8908 25.0753 27.8976 25.069 27.9075C24.2239 28.8229 23.1468 29.2833 21.8619 29.2833C21.7508 29.2833 21.6283 29.2777 21.5101 29.2721C19.5898 29.1488 17.8693 28.4264 16.5761 27.8136C13.1946 26.179 10.2342 23.8591 7.7736 20.9209C5.74476 18.4818 4.38594 16.2072 3.47648 13.754L3.4296 13.7713L3.47648 13.754C3.10561 12.7537 2.62491 11.2315 2.75901 9.59949C2.84806 8.59255 3.25379 7.72556 3.96587 7.01349L3.96602 7.01333L5.87945 5.08302L5.8796 5.08286L5.88508 5.07739L5.89034 5.07212C6.44514 4.53967 7.09713 4.25907 7.76893 4.25907C8.44075 4.25907 9.08138 4.53968 9.6192 5.07195L9.61918 5.07197L9.62046 5.07315C9.9851 5.40975 10.3388 5.76901 10.6763 6.11774C10.8456 6.29835 11.0261 6.47883 11.2003 6.65303L11.2005 6.65328L12.737 8.18978C13.3202 8.77296 13.6088 9.43894 13.6088 10.1018C13.6088 10.7646 13.3202 11.4306 12.737 12.0138C12.6581 12.0927 12.5791 12.1731 12.5003 12.2533L12.5003 12.2533C12.4215 12.3336 12.3428 12.4136 12.2643 12.4922L12.264 12.4924C12.2238 12.5331 12.1836 12.574 12.1432 12.615C11.7646 12.9991 11.3761 13.3934 10.9601 13.7738L10.9334 13.7983L10.9483 13.8313C11.2938 14.5959 11.769 15.3479 12.4743 16.2394L12.4747 16.2399C13.9296 18.0276 15.4475 19.4103 17.1187 20.4717L17.1191 20.472C17.2843 20.5745 17.4774 20.671 17.679 20.7718L17.6796 20.7721C17.6797 20.7722 17.6798 20.7723 17.6799 20.7723C17.728 20.7973 17.7765 20.8222 17.8253 20.8472C17.9201 20.8959 18.016 20.9451 18.1123 20.9969L18.145 21.0145L18.1713 20.9883L19.9498 19.2154L19.9499 19.2154C20.5106 18.6547 21.1625 18.3633 21.8394 18.3633C22.5217 18.3633 23.1677 18.6602 23.7056 19.2203Z" fill="#CC0033" stroke="#CC0033" stroke-width="0.1"/>
</svg>
