<svg width="24" height="24" viewBox="0 0 24 24" fill="none" xmlns="http://www.w3.org/2000/svg">
<path d="M19.4948 6.01122V3.23711H21.7629V2H3V3.23711H5.26804V6.01122C5.26726 7.2038 5.56656 8.37742 6.13838 9.42398C6.7102 10.4705 7.53614 11.3564 8.54017 12C7.53615 12.6436 6.7102 13.5294 6.13838 14.576C5.56656 15.6226 5.26726 16.7962 5.26804 17.9887V20.7629H3V22H21.7629V20.7629H19.4948V17.9887C19.4956 16.7962 19.1963 15.6226 18.6245 14.576C18.0527 13.5294 17.2267 12.6436 16.2227 12C17.2268 11.3564 18.0527 10.4706 18.6245 9.42399C19.1963 8.37742 19.4956 7.20381 19.4948 6.01122ZM14.6963 11.4137L14.3217 11.5745V12.4254L14.6963 12.5862C15.7538 13.039 16.655 13.7923 17.2881 14.7528C17.9213 15.7132 18.2584 16.8384 18.2577 17.9887V20.7629H6.50516V17.9887C6.50516 15.6352 7.90309 13.5146 10.0666 12.5862L10.4412 12.4255V11.5745L10.0666 11.4138C9.00911 10.961 8.10787 10.2076 7.47473 9.24721C6.8416 8.28678 6.50446 7.16156 6.50516 6.01122V3.23711H18.2577V6.01122C18.2584 7.16155 17.9213 8.28677 17.2882 9.2472C16.655 10.2076 15.7538 10.961 14.6963 11.4137Z" fill="white"/>
<path d="M8.15464 6.01121C8.15464 8.13179 9.72441 9.89241 11.7629 10.1926V17.3702H8.15464V19.1134H16.6082V17.3702H13V10.1927C15.0385 9.89241 16.6082 8.13179 16.6082 6.01125V5.3927H8.15464V6.01121ZM15.3068 6.62977C15.0211 7.98251 13.8179 9.0009 12.3814 9.0009C10.9449 9.0009 9.74177 7.98251 9.45612 6.62977H15.3068Z" fill="white"/>
</svg>
