<svg width="32" height="32" viewBox="0 0 32 32" fill="none" xmlns="http://www.w3.org/2000/svg">
<path d="M15.8463 2.66663C10.0495 2.66663 5.3335 7.38262 5.3335 13.1794C5.3335 16.7921 7.16537 19.9848 9.94886 21.8779V28.564C9.94886 28.8251 10.0812 29.0683 10.3004 29.21C10.5195 29.3517 10.7957 29.3725 11.0338 29.2655L15.8463 27.0999L20.6589 29.2655C20.7596 29.3108 20.8672 29.3333 20.9744 29.3333C21.1205 29.3333 21.2658 29.2917 21.3922 29.21C21.6114 29.0683 21.7438 28.8251 21.7438 28.5641V21.878C24.5272 19.9848 26.3591 16.7921 26.3591 13.1795C26.3591 7.38262 21.6431 2.66663 15.8463 2.66663ZM20.2053 27.3744L16.1619 25.555C16.0616 25.5098 15.9539 25.4871 15.8463 25.4871C15.7387 25.4871 15.631 25.5097 15.5307 25.5549L11.4873 27.3744V22.7476C11.874 22.9238 12.2708 23.0753 12.6751 23.203C12.698 23.2103 12.7209 23.2178 12.7439 23.2249C12.7955 23.2407 12.8473 23.2561 12.8991 23.2711C12.9375 23.2824 12.9759 23.2935 13.0144 23.3043C13.0562 23.316 13.0982 23.3273 13.1402 23.3384C13.1891 23.3515 13.2382 23.3643 13.2874 23.3767C13.3222 23.3854 13.357 23.3939 13.3919 23.4022C13.4485 23.4158 13.5053 23.4289 13.5623 23.4416C13.5918 23.4481 13.6214 23.4546 13.651 23.461C13.7134 23.4743 13.776 23.4869 13.8389 23.4991C13.8644 23.5041 13.89 23.5091 13.9156 23.5139C13.9822 23.5263 14.049 23.5379 14.116 23.5491C14.139 23.5529 14.1619 23.5569 14.185 23.5605C14.2541 23.5716 14.3235 23.5817 14.3931 23.5914C14.4147 23.5943 14.4362 23.5976 14.4578 23.6004C14.5282 23.6098 14.599 23.6181 14.6698 23.6261C14.691 23.6284 14.712 23.6311 14.7332 23.6333C14.8039 23.6408 14.8748 23.6473 14.9459 23.6533C14.9675 23.6551 14.9889 23.6574 15.0105 23.659C15.0806 23.6645 15.1509 23.669 15.2214 23.6731C15.244 23.6745 15.2665 23.6763 15.2892 23.6775C15.3604 23.6812 15.4319 23.6838 15.5034 23.6861C15.525 23.6868 15.5464 23.6879 15.568 23.6885C15.6605 23.6909 15.7533 23.6923 15.8464 23.6923C15.9395 23.6923 16.0323 23.6909 16.1248 23.6885C16.1464 23.6879 16.1678 23.6868 16.1893 23.6861C16.2609 23.6838 16.3324 23.6812 16.4035 23.6775C16.4262 23.6763 16.4487 23.6745 16.4714 23.6731C16.5418 23.669 16.6122 23.6646 16.6822 23.659C16.7039 23.6574 16.7253 23.6551 16.7469 23.6533C16.818 23.6473 16.8889 23.6408 16.9596 23.6333C16.9807 23.6311 17.0018 23.6284 17.0229 23.6261C17.0938 23.6181 17.1645 23.6098 17.235 23.6004C17.2566 23.5976 17.2781 23.5944 17.2996 23.5914C17.3692 23.5817 17.4387 23.5716 17.5078 23.5605C17.5308 23.5568 17.5538 23.5529 17.5768 23.5491C17.6438 23.5379 17.7106 23.5263 17.7771 23.5139C17.8028 23.5091 17.8283 23.5041 17.8539 23.4991C17.9167 23.4869 17.9793 23.4742 18.0418 23.461C18.0714 23.4546 18.1009 23.4481 18.1305 23.4416C18.1875 23.4289 18.2442 23.4158 18.3008 23.4022C18.3357 23.3939 18.3705 23.3853 18.4054 23.3767C18.4546 23.3643 18.5036 23.3516 18.5526 23.3384C18.5946 23.3273 18.6366 23.3161 18.6784 23.3043C18.7169 23.2935 18.7553 23.2824 18.7937 23.2711C18.8455 23.256 18.8973 23.2407 18.9489 23.2249C18.9719 23.2177 18.9947 23.2103 19.0177 23.203C19.422 23.0753 19.8188 22.9239 20.2054 22.7476V27.3744H20.2053ZM18.7749 21.6627C18.7442 21.6732 18.7135 21.6839 18.6828 21.6941C18.636 21.7098 18.589 21.7251 18.5419 21.74C18.487 21.7572 18.432 21.7738 18.3769 21.79C18.338 21.8014 18.299 21.8128 18.2599 21.8238C18.1869 21.8441 18.1137 21.8636 18.0402 21.8821C18.0128 21.889 17.9853 21.8956 17.9579 21.9023C17.8859 21.9196 17.8137 21.9362 17.7413 21.9518C17.7231 21.9558 17.705 21.96 17.6868 21.9637C17.5933 21.9832 17.4996 22.0014 17.4055 22.0179C17.3959 22.0196 17.3863 22.0211 17.3766 22.0228C17.2918 22.0374 17.2068 22.0507 17.1216 22.0628C17.1023 22.0656 17.0831 22.0683 17.0638 22.0709C16.9729 22.0833 16.8819 22.0946 16.7905 22.1042C16.7871 22.1046 16.7837 22.1051 16.7802 22.1054C16.6846 22.1154 16.5886 22.1236 16.4925 22.1304C16.4717 22.1319 16.4507 22.133 16.4299 22.1344C16.3551 22.1392 16.2804 22.143 16.2054 22.1461C16.18 22.1471 16.1545 22.1481 16.129 22.149C16.0349 22.1518 15.9407 22.1538 15.8463 22.1538C15.7519 22.1538 15.6577 22.1519 15.5636 22.1489C15.5381 22.1481 15.5126 22.147 15.4872 22.1459C15.4122 22.143 15.3375 22.1391 15.2628 22.1343C15.2419 22.1329 15.221 22.1318 15.2001 22.1303C15.104 22.1234 15.0081 22.1152 14.9124 22.1053C14.909 22.105 14.9055 22.1045 14.9021 22.1041C14.8107 22.0945 14.7197 22.0832 14.6288 22.0708C14.6096 22.0682 14.5904 22.0655 14.5711 22.0627C14.4858 22.0505 14.4008 22.0373 14.316 22.0227C14.3064 22.0211 14.2968 22.0195 14.2871 22.0178C14.193 22.0013 14.0992 21.9831 14.0058 21.9636C13.9877 21.9598 13.9695 21.9556 13.9513 21.9517C13.8789 21.9362 13.8067 21.9195 13.7347 21.9021C13.7072 21.8955 13.6797 21.8889 13.6524 21.882C13.5789 21.8636 13.5057 21.844 13.4327 21.8237C13.3936 21.8127 13.3546 21.8013 13.3157 21.7899C13.2606 21.7737 13.2056 21.7571 13.1507 21.7399C13.1035 21.725 13.0566 21.7096 13.0098 21.694C12.979 21.6838 12.9483 21.6731 12.9177 21.6626C9.40287 20.4458 6.87193 17.1028 6.87193 13.1794C6.87193 8.231 10.8978 4.20506 15.8463 4.20506C20.7948 4.20506 24.8207 8.23095 24.8207 13.1794C24.8207 17.1028 22.2897 20.4458 18.7749 21.6627Z" fill="#CC0033"/>
<path d="M20.41 13.1794L21.8548 10.4638C21.9795 10.2296 21.9745 9.94767 21.8419 9.71793C21.7092 9.48819 21.4675 9.34293 21.2024 9.33376L18.1281 9.22725L16.4988 6.61819C16.3582 6.39319 16.1116 6.25642 15.8463 6.25642C15.581 6.25642 15.3344 6.39319 15.1939 6.61819L13.5645 9.22725L10.4903 9.33376C10.2252 9.34293 9.98344 9.48819 9.85079 9.71793C9.71813 9.94767 9.71318 10.2296 9.83787 10.4638L11.2827 13.1794L9.83787 15.8951C9.71318 16.1293 9.71813 16.4112 9.85079 16.641C9.98344 16.8707 10.2252 17.016 10.4903 17.0251L13.5645 17.1316L15.1939 19.7407C15.3344 19.9657 15.581 20.1025 15.8463 20.1025C16.1116 20.1025 16.3582 19.9657 16.4988 19.7407L18.1281 17.1316L21.2023 17.0251C21.4675 17.016 21.7092 16.8707 21.8418 16.641C21.9745 16.4112 21.9794 16.1293 21.8547 15.8951L20.41 13.1794ZM17.6658 15.6082C17.4102 15.6171 17.1755 15.7526 17.0401 15.9696L15.8463 17.8811L14.6526 15.9696C14.5171 15.7526 14.2825 15.6172 14.0268 15.6083L11.7746 15.5302L12.8331 13.5407C12.9533 13.3149 12.9533 13.044 12.8331 12.8181L11.7746 10.8287L14.0268 10.7506C14.2825 10.7417 14.5171 10.6063 14.6526 10.3892L15.8463 8.47782L17.04 10.3893C17.1755 10.6063 17.4101 10.7417 17.6658 10.7506L19.918 10.8287L18.8595 12.8182C18.7393 13.0441 18.7393 13.315 18.8595 13.5408L19.918 15.5303L17.6658 15.6082Z" fill="#CC0033"/>
</svg>
