<svg width="24" height="24" viewBox="0 0 24 24" fill="none" xmlns="http://www.w3.org/2000/svg">
  <path d="M19.1594 7.21531C19.1529 7.16376 19.1432 7.11239 19.13 7.06203C19.1322 7.04445 19.1322 7.02647 19.13 7.00889C19.1018 6.9445 19.064 6.88484 19.0178 6.8319L14.2981 2.1122C14.2452 2.06598 14.1855 2.02825 14.1211 2H6.76991C6.30057 2 5.85037 2.18647 5.51833 2.51853C5.18647 2.85039 5 3.30058 5 3.76991V20.2301C5 20.6996 5.18647 21.1498 5.51833 21.4817C5.85039 21.8135 6.30058 22 6.76991 22H17.3894C17.8587 22 18.3089 21.8135 18.641 21.4817C18.9728 21.1498 19.1593 20.6996 19.1593 20.2301V7.25107V7.21552L19.1594 7.21531ZM17.1476 6.66082H14.4397V3.95281L17.1476 6.66082ZM17.3895 20.8201H6.77006C6.44433 20.8201 6.18003 20.556 6.18003 20.2301V3.71124C6.18003 3.38531 6.44433 3.1212 6.77006 3.1212H13.2596V7.25106C13.2596 7.40751 13.3218 7.55744 13.4324 7.66826C13.543 7.77888 13.6932 7.84091 13.8496 7.84091H17.9795V20.2303C17.9795 20.3867 17.9172 20.5369 17.8066 20.6475C17.696 20.7581 17.5459 20.8203 17.3894 20.8203L17.3895 20.8201ZM15.0296 14.3306C15.0296 14.4871 14.9676 14.637 14.8569 14.7478C14.7461 14.8584 14.5962 14.9204 14.4397 14.9204H12.6698V16.6904C12.6698 17.0163 12.4055 17.2804 12.0798 17.2804C11.7541 17.2804 11.4898 17.0163 11.4898 16.6904V14.9204H9.71984C9.39411 14.9204 9.13001 14.6563 9.13001 14.3306C9.13001 14.0047 9.39411 13.7406 9.71984 13.7406H11.4898V11.9707C11.4898 11.6449 11.7541 11.3806 12.0798 11.3806C12.4055 11.3806 12.6698 11.6449 12.6698 11.9707V13.7406H14.4397C14.5962 13.7406 14.7461 13.8028 14.8569 13.9134C14.9676 14.024 15.0296 14.1742 15.0296 14.3306V14.3306Z" fill="#fff"/>
</svg>
