<?xml version="1.0" encoding="utf-8"?>
<!-- Generator: Adobe Illustrator 19.0.0, SVG Export Plug-In . SVG Version: 6.00 Build 0)  -->
<svg version="1.1" id="Слой_1" xmlns="http://www.w3.org/2000/svg" xmlns:xlink="http://www.w3.org/1999/xlink" x="0px"
     y="0px"
     viewBox="0 0 512 512" style="enable-background:new 0 0 512 512;" xml:space="preserve">
<style type="text/css">
	.st0{fill: currentColor;}
</style>
  <g id="Add_x40_2x.png">
	<g id="XMLID_46_">
		<path id="XMLID_47_" class="st0" d="M383.5,244H267.3V127.8c0-6.4-5.2-11.6-11.6-11.6c-6.4,0-11.6,5.2-11.6,11.6V244H127.8
			c-6.4,0-11.6,5.2-11.6,11.6c0,6.4,5.2,11.6,11.6,11.6H244v116.2c0,6.4,5.2,11.6,11.6,11.6c6.4,0,11.6-5.2,11.6-11.6V267.3h116.2
			c6.4,0,11.6-5.2,11.6-11.6C395.1,249.3,389.9,244,383.5,244z M255.7,0C114.5,0,0,114.5,0,255.7s114.5,255.7,255.7,255.7
			c141.2,0,255.7-114.5,255.7-255.7S396.9,0,255.7,0z M255.7,488.1C127.3,488.1,23.2,384,23.2,255.7
			c0-128.4,104.1-232.4,232.4-232.4c128.4,0,232.4,104.1,232.4,232.4C488.1,384,384,488.1,255.7,488.1z"/>
	</g>
</g>
</svg>
