<?xml version="1.0" encoding="utf-8"?>
<!-- Generator: Adobe Illustrator 19.0.0, SVG Export Plug-In . SVG Version: 6.00 Build 0)  -->
<svg version="1.1" id="Слой_1" xmlns="http://www.w3.org/2000/svg" xmlns:xlink="http://www.w3.org/1999/xlink" x="0px" y="0px"
	 viewBox="0 0 512 512" style="enable-background:new 0 0 512 512;" xml:space="preserve">
<style type="text/css">
	.st0{fill:#2E2E2E;}
</style>
<g id="X_x40_2x.png">
	<g>
		<path class="st0" d="M276.2,256.1L507.8,24.5c2.6-2.6,4.2-6.1,4.2-10.1c0-7.8-6.4-14.2-14.2-14.2c-3.9,0-7.5,1.6-10.1,4.2
			L256.1,236L24.5,4.4c-2.6-2.6-6.1-4.2-10.1-4.2C6.6,0.2,0.2,6.6,0.2,14.4c0,3.9,1.6,7.5,4.2,10.1L236,256.1L4.4,487.7
			c-2.6,2.6-4.2,6.1-4.2,10.1c0,7.9,6.4,14.2,14.2,14.2c3.9,0,7.5-1.6,10.1-4.2l231.6-231.6l231.6,231.6c2.6,2.6,6.1,4.2,10.1,4.2
			c7.9,0,14.2-6.4,14.2-14.2c0-3.9-1.6-7.5-4.2-10.1L276.2,256.1z"/>
	</g>
</g>
</svg>
