<svg width="24" height="24" viewBox="0 0 24 24" fill="none" xmlns="http://www.w3.org/2000/svg">
  <style type="text/css">
    .st0{fill: currentColor;}
  </style>
<path fill-rule="evenodd" clip-rule="evenodd" d="M12.625 14.7495L14.3479 12.8351C14.5789 12.5786 14.974 12.5578 15.2306 12.7887C15.4872 13.0196 15.508 13.4148 15.2771 13.6713L12.415 16.8513C12.1856 17.1063 11.8142 17.106 11.585 16.8513L8.72294 13.6713C8.49203 13.4148 8.51283 13.0196 8.76939 12.7887C9.02596 12.5578 9.42115 12.5786 9.65206 12.8351L11.375 14.7495V2.62692C11.375 2.28068 11.6524 2 12 2C12.3452 2 12.625 2.27432 12.625 2.62692V14.7495ZM2 21.3745V12.6255C2 12.2779 2.27982 12 2.625 12C2.97258 12 3.25 12.2817 3.25 12.6293V20.75H20.75V12.6293C20.75 12.2812 21.0298 12 21.375 12C21.7226 12 22 12.2801 22 12.6255V21.3745C22 21.7221 21.7222 22 21.3795 22H2.62049C2.28273 22 2 21.7199 2 21.3745ZM12.425 15.2707V2.62692C12.425 2.38553 12.2355 2.2 12 2.2C11.764 2.2 11.575 2.39006 11.575 2.62692V15.2707L9.5034 12.9689C9.34638 12.7944 9.07765 12.7803 8.90319 12.9373C8.72872 13.0943 8.71458 13.3631 8.8716 13.5375L11.7336 16.7176C11.8834 16.884 12.1164 16.8842 12.2664 16.7176L15.1284 13.5375C15.2854 13.3631 15.2713 13.0943 15.0968 12.9373C14.9223 12.7803 14.6536 12.7944 14.4966 12.9689L12.425 15.2707ZM3.05 20.95V12.6293C3.05 12.3904 2.86034 12.2 2.625 12.2C2.38999 12.2 2.2 12.3886 2.2 12.6255V21.3745C2.2 21.61 2.39368 21.8 2.62049 21.8H21.3795C21.6107 21.8 21.8 21.6127 21.8 21.3745V12.6255C21.8 12.3899 21.6115 12.2 21.375 12.2C21.1415 12.2 20.95 12.3905 20.95 12.6293V20.95H3.05ZM9.65206 12.8351C9.42115 12.5786 9.02596 12.5578 8.76939 12.7887C8.51283 13.0196 8.49203 13.4148 8.72294 13.6713L11.585 16.8513C11.8142 17.106 12.1856 17.1063 12.415 16.8513L15.2771 13.6713C15.508 13.4148 15.4872 13.0196 15.2306 12.7887C14.974 12.5578 14.5789 12.5786 14.3479 12.8351L12.625 14.7495V2.62692C12.625 2.27432 12.3452 2 12 2C11.6524 2 11.375 2.28068 11.375 2.62692V14.7495L9.65206 12.8351ZM20.75 12.6293C20.75 12.2812 21.0298 12 21.375 12C21.7226 12 22 12.2801 22 12.6255V21.3745C22 21.7221 21.7222 22 21.3795 22H2.62049C2.28273 22 2 21.7199 2 21.3745V12.6255C2 12.2779 2.27982 12 2.625 12C2.97258 12 3.25 12.2817 3.25 12.6293V20.75H20.75V12.6293Z" class="st0"/>
</svg>
