<svg xmlns="http://www.w3.org/2000/svg" id="Слой_1" viewBox="0 0 512 512">
  <style>
    .st0{fill:#2E2F2F;}
  </style>
  <g id="Square_Outline_Down">
    <g id="XMLID_165_">
      <path id="XMLID_166_" d="M23.3 186.2H0v46.6h23.3v-46.6zm0 186.2H0V419h23.3v-46.6zm0-93.1H0v46.6h23.3v-46.6zM93.1 512h46.6v-23.3H93.1V512zm-63.5-46.5H4.1c7 19.7 22.7 35.3 42.4 42.3v-25.5c-6.9-4.1-12.8-9.9-16.9-16.8zM4.1 46.5h25.5c4.1-7 9.9-12.8 16.9-16.8V4.3c-19.7 7-35.3 22.6-42.4 42.2zM325.8 0h-46.6v23.3h46.6V0zM23.3 93.1H0v46.6h23.3V93.1zm459.1-46.6h25.5c-7.1-19.7-22.7-35.3-42.4-42.3v25.5c7 4.1 12.8 9.9 16.9 16.8zM232.7 0h-46.6v23.3h46.6V0zm256.1 93.1v46.6H512V93.1h-23.2zm0 325.8H512v-46.6h-23.3v46.6zM372.4 23.3H419V0h-46.6v23.3zm93.1 459v25.5c19.8-7 35.4-22.6 42.4-42.3h-25.5c-4.1 6.9-9.9 12.7-16.9 16.8zm23.3-156.5H512v-46.6h-23.3v46.6zm0-93.1H512v-46.6h-23.3v46.6zM372.4 512H419v-23.3h-46.6V512zM93.1 23.3h46.6V0H93.1v23.3zM279.3 512h46.6v-23.3h-46.6V512zm-93.1 0h46.6v-23.3h-46.6V512zm162.9-232.7c-3.2 0-6.1 1.3-8.2 3.4l-73.2 73.2V128c0-6.4-5.2-11.6-11.6-11.6-6.4 0-11.6 5.2-11.6 11.6v227.9l-73.2-73.2c-2.1-2.1-5-3.4-8.2-3.4-6.4 0-11.6 5.2-11.6 11.6 0 3.2 1.3 6.1 3.4 8.2l93.1 93.1c2.1 2.1 5 3.4 8.2 3.4 3.2 0 6.1-1.3 8.2-3.4l93.1-93.1c2.1-2.1 3.4-5 3.4-8.2-.1-6.4-5.3-11.6-11.8-11.6z" class="st0"/>
    </g>
  </g>
</svg>
