<?xml version="1.0" encoding="utf-8"?>
<!-- Generator: Adobe Illustrator 19.0.0, SVG Export Plug-In . SVG Version: 6.00 Build 0)  -->
<svg version="1.1" id="Слой_1" xmlns="http://www.w3.org/2000/svg" xmlns:xlink="http://www.w3.org/1999/xlink" x="0px" y="0px"
	 viewBox="0 0 512 512" style="enable-background:new 0 0 512 512;" xml:space="preserve">
<style type="text/css">
	.st0{fill:#2E2F2F;}
</style>
<g id="Eye_x40_2x.png">
	<g id="XMLID_65_">
		<path id="XMLID_66_" class="st0" d="M256.8,215.9c-19.2,0-34.8,15.6-34.8,34.8c0,19.2,15.6,34.8,34.8,34.8
			c19.2,0,34.8-15.6,34.8-34.8C291.6,231.5,276,215.9,256.8,215.9z M256.8,88.2C115.7,88.2,1.3,204.3,1.3,250.8
			s114.4,162.6,255.5,162.6c141.1,0,255.5-116.1,255.5-162.6S397.9,88.2,256.8,88.2z M256.8,390.1c-128.3,0-232.3-99.5-232.3-139.4
			c0-39.8,104-139.4,232.3-139.4c128.3,0,232.3,99.5,232.3,139.4C489.1,290.6,385.1,390.1,256.8,390.1z M256.8,134.7
			c-64.1,0-116.1,52-116.1,116.1c0,64.1,52,116.1,116.1,116.1c64.1,0,116.1-52,116.1-116.1C372.9,186.6,321,134.7,256.8,134.7z
			 M256.8,343.7c-51.3,0-92.9-41.6-92.9-92.9c0-51.3,41.6-92.9,92.9-92.9s92.9,41.6,92.9,92.9C349.7,302.1,308.1,343.7,256.8,343.7z
			"/>
	</g>
</g>
</svg>
