<svg width="14" height="14" viewBox="0 0 14 14" fill="none" xmlns="http://www.w3.org/2000/svg">
<path d="M6.75016 0.333252C3.07016 0.333252 0.0834961 3.31992 0.0834961 6.99992C0.0834961 10.6799 3.07016 13.6666 6.75016 13.6666C10.4302 13.6666 13.4168 10.6799 13.4168 6.99992C13.4168 3.31992 10.4302 0.333252 6.75016 0.333252ZM7.41683 11.6666H6.0835V10.3333H7.41683V11.6666ZM8.79683 6.49992L8.19683 7.11325C7.8635 7.45325 7.6235 7.75992 7.5035 8.23992C7.45016 8.45325 7.41683 8.69325 7.41683 8.99992H6.0835V8.66659C6.0835 8.35992 6.13683 8.06659 6.23016 7.79325C6.3635 7.40659 6.5835 7.05992 6.8635 6.77992L7.69016 5.93992C7.99683 5.64659 8.1435 5.20659 8.05683 4.73992C7.97016 4.25992 7.59683 3.85325 7.13016 3.71992C6.39016 3.51325 5.7035 3.93325 5.4835 4.56659C5.4035 4.81325 5.19683 4.99992 4.93683 4.99992H4.73683C4.35016 4.99992 4.0835 4.62659 4.19016 4.25325C4.47683 3.27325 5.31016 2.52659 6.3435 2.36659C7.35683 2.20659 8.3235 2.73325 8.9235 3.56659C9.71016 4.65325 9.47683 5.81992 8.79683 6.49992Z" fill="#787878"/>
</svg>
