<?xml version="1.0" encoding="iso-8859-1"?>
<!-- Generator: Adobe Illustrator 19.0.0, SVG Export Plug-In . SVG Version: 6.00 Build 0)  -->
<svg version="1.1" id="Layer_1" xmlns="http://www.w3.org/2000/svg" xmlns:xlink="http://www.w3.org/1999/xlink" x="0px" y="0px"
	 viewBox="0 0 485 485" style="enable-background:new 0 0 485 485;" xml:space="preserve">
<g>
	<path d="M415,97.272V30h55V0H15v30h55v67.272c0,59.458,30.395,113.852,79.349,145.228C100.395,273.876,70,328.269,70,387.727V455
		H15v30h455v-30h-55v-67.273c0-59.458-30.395-113.851-79.349-145.227C384.605,211.125,415,156.731,415,97.272z M298.635,228.283
		l-9.085,3.898v20.636l9.085,3.898C351.1,279.229,385,330.654,385,387.727V455H100v-67.273c0-57.073,33.9-108.498,86.365-131.011
		l9.085-3.898v-20.636l-9.085-3.898C133.9,205.771,100,154.346,100,97.272V30h285v67.272C385,154.346,351.1,205.771,298.635,228.283
		z"/>
	<path d="M140,97.272c0,51.424,38.067,94.119,87.5,101.399v174.056H140V415h205v-42.272h-87.5V198.672
		c49.433-7.281,87.5-49.976,87.5-101.399v-15H140V97.272z M313.439,112.272c-6.928,32.804-36.104,57.5-70.939,57.5
		s-64.012-24.696-70.939-57.5H313.439z"/>
</g>
</svg>
