<svg version="1.1" viewBox="0 0 513 513" xml:space="preserve" xmlns="http://www.w3.org/2000/svg"><path class="likeBorder" d="m151.6 0c-83.7 0-151.6 67.9-151.6 151.6 0 9.7 1.4996 21.4 1.0996 17.4 16.3 149.7 233 344 255.4 344s239.1-194.3 255.4-344c-0.5 3.9 1.0996-7.7004 1.0996-17.4 0-83.7-67.9-151.6-151.6-151.6-40.8 0-77.7 16.2-104.9 42.4-27.3-26.2-64.2-42.4-104.9-42.4zm-0.0996 23.4c33.2 0 64.699 12.701 88.799 35.801l16.201 15.5 16.199-15.5c24-23.1 55.601-35.801 88.801-35.801 70.7 0 128.2 57.499 128.2 128.2-0.1 8.1-1 14.801-1 14.801-13.6 124.7-188.9 295.1-232.2 321.3-43.3-26.1-218.7-196.6-232.3-321.4 0 0-0.90039-6.7012-0.90039-14.701 0-70.7 57.501-128.2 128.2-128.2z" /><path id="XMLID_36_" d="m490.69 165.65c-13.717 125.77-190.52 297.63-234.19 324.06-43.671-26.324-220.58-198.29-234.29-324.16 0 0-0.90772-6.7574-0.90772-14.826 0-71.306 57.993-129.3 129.3-129.3 33.485 0 65.255 12.809 89.562 36.107l16.339 15.633 16.339-15.633c24.206-23.298 56.077-36.107 89.562-36.107 71.306 0 129.3 57.993 129.3 129.3-0.10084 8.1695-1.0086 14.927-1.0086 14.927z" class="likeFill" fill="none"/></svg>
