<?xml version="1.0" encoding="utf-8"?>
<!-- Generator: Adobe Illustrator 19.0.0, SVG Export Plug-In . SVG Version: 6.00 Build 0)  -->
<svg version="1.1" id="Слой_1" xmlns="http://www.w3.org/2000/svg" xmlns:xlink="http://www.w3.org/1999/xlink" x="0px" y="0px"
	 viewBox="0 0 512 512" style="enable-background:new 0 0 512 512;" xml:space="preserve">
<style type="text/css">
	.st0{fill:#2E2F2F;}
</style>
<g id="Heart_x40_2x.png">
	<g id="XMLID_35_">
		<path id="XMLID_36_" class="st0" d="M513,151.6C513,67.9,445.1,0,361.4,0c-40.8,0-77.7,16.2-104.9,42.4
			C229.2,16.2,192.3,0,151.6,0C67.9,0,0,67.9,0,151.6c0,9.7,1.5,21.4,1.1,17.4c16.3,149.7,233,344,255.4,344
			c22.4,0,239.1-194.3,255.4-344C511.4,172.9,513,161.3,513,151.6z M488.7,166.4c-13.6,124.7-188.9,295.1-232.2,321.3
			C213.2,461.6,37.8,291.1,24.2,166.3c0,0-0.9-6.7-0.9-14.7c0-70.7,57.5-128.2,128.2-128.2c33.2,0,64.7,12.7,88.8,35.8l16.2,15.5
			l16.2-15.5c24-23.1,55.6-35.8,88.8-35.8c70.7,0,128.2,57.5,128.2,128.2C489.6,159.7,488.7,166.4,488.7,166.4z"/>
	</g>
</g>
</svg>
