<svg width="20" height="20" viewBox="0 0 20 20" fill="none" xmlns="http://www.w3.org/2000/svg">
  <style type="text/css">
    .st1, .st0{fill: currentColor;}
  </style>
  <path
    d="M14.1667 7.33329H5.83333C5.74493 7.33329 5.66014 7.36841 5.59763 7.43092C5.53512 7.49344 5.5 7.57822 5.5 7.66663C5.5 7.75503 5.53512 7.83982 5.59763 7.90233C5.66014 7.96484 5.74493 7.99996 5.83333 7.99996H14.1667C14.2551 7.99996 14.3399 7.96484 14.4024 7.90233C14.4649 7.83982 14.5 7.75503 14.5 7.66663C14.5 7.57822 14.4649 7.49344 14.4024 7.43092C14.3399 7.36841 14.2551 7.33329 14.1667 7.33329ZM5.83333 5.33329H9.16667C9.25507 5.33329 9.33986 5.29817 9.40237 5.23566C9.46488 5.17315 9.5 5.08836 9.5 4.99996C9.5 4.91155 9.46488 4.82677 9.40237 4.76426C9.33986 4.70174 9.25507 4.66663 9.16667 4.66663H5.83333C5.74493 4.66663 5.66014 4.70174 5.59763 4.76426C5.53512 4.82677 5.5 4.91155 5.5 4.99996C5.5 5.08836 5.53512 5.17315 5.59763 5.23566C5.66014 5.29817 5.74493 5.33329 5.83333 5.33329ZM14.1667 9.99996H5.83333C5.74493 9.99996 5.66014 10.0351 5.59763 10.0976C5.53512 10.1601 5.5 10.2449 5.5 10.3333C5.5 10.4217 5.53512 10.5065 5.59763 10.569C5.66014 10.6315 5.74493 10.6666 5.83333 10.6666H14.1667C14.2551 10.6666 14.3399 10.6315 14.4024 10.569C14.4649 10.5065 14.5 10.4217 14.5 10.3333C14.5 10.2449 14.4649 10.1601 14.4024 10.0976C14.3399 10.0351 14.2551 9.99996 14.1667 9.99996ZM14.1667 12.6666H5.83333C5.74493 12.6666 5.66014 12.7017 5.59763 12.7643C5.53512 12.8268 5.5 12.9116 5.5 13C5.5 13.0884 5.53512 13.1732 5.59763 13.2357C5.66014 13.2982 5.74493 13.3333 5.83333 13.3333H14.1667C14.2551 13.3333 14.3399 13.2982 14.4024 13.2357C14.4649 13.1732 14.5 13.0884 14.5 13C14.5 12.9116 14.4649 12.8268 14.4024 12.7643C14.3399 12.7017 14.2551 12.6666 14.1667 12.6666ZM14.1667 15.3333H5.83333C5.74493 15.3333 5.66014 15.3684 5.59763 15.4309C5.53512 15.4934 5.5 15.5782 5.5 15.6666C5.5 15.755 5.53512 15.8398 5.59763 15.9023C5.66014 15.9648 5.74493 16 5.83333 16H14.1667C14.2551 16 14.3399 15.9648 14.4024 15.9023C14.4649 15.8398 14.5 15.755 14.5 15.6666C14.5 15.5782 14.4649 15.4934 14.4024 15.4309C14.3399 15.3684 14.2551 15.3333 14.1667 15.3333Z"
    class="st0"/>
  <path
    d="M12.9707 0H2.16602V20H17.8327V4.862L12.9707 0ZM13.166 1.138L16.6947 4.66667H13.166V1.138ZM2.83268 19.3333V0.666667H12.4993V5.33333H17.166V19.3333H2.83268Z"
    class="st1"/>
</svg>
