<svg width="35" height="34" viewBox="0 0 35 34" xmlns="http://www.w3.org/2000/svg">
  <path
    d="M17.61 0.333374C17.161 0.333374 16.797 0.697358 16.797 1.14638V8.46346C16.797 8.91244 17.161 9.27646 17.61 9.27646C18.0591 9.27646 18.423 8.91244 18.423 8.46346V1.14638C18.423 0.697358 18.0591 0.333374 17.61 0.333374ZM6.40576 4.98276C6.19767 4.98276 5.98015 5.05267 5.82141 5.21142C5.50389 5.52893 5.50389 6.04991 5.82141 6.36742L11.0043 11.5376C11.3218 11.8551 11.8301 11.8552 12.1476 11.5376C12.4651 11.2201 12.4651 10.7118 12.1476 10.3944L6.97742 5.21142C6.81869 5.05267 6.61385 4.98276 6.40576 4.98276ZM28.8143 4.98276C28.6062 4.98276 28.4014 5.05267 28.2426 5.21142L23.0724 10.3944C22.7549 10.7118 22.7549 11.2201 23.0724 11.5376C23.3899 11.8551 23.8982 11.8551 24.2157 11.5376L29.3986 6.36742C29.7162 6.04991 29.7161 5.52893 29.3986 5.21142C29.2399 5.05267 29.0223 4.98276 28.8143 4.98276ZM1.75637 16.187C1.30734 16.187 0.943359 16.551 0.943359 17C0.943359 17.4491 1.30734 17.813 1.75637 17.813H9.07344C9.52242 17.813 9.88645 17.4491 9.88645 17C9.88645 16.551 9.52242 16.187 9.07344 16.187H1.75637ZM26.1466 16.187C25.6976 16.187 25.3336 16.551 25.3336 17C25.3336 17.4491 25.6976 17.813 26.1466 17.813H33.4637C33.9127 17.813 34.2767 17.4491 34.2767 17C34.2767 16.551 33.9127 16.187 33.4637 16.187H26.1466ZM11.576 22.2211C11.3679 22.2211 11.1631 22.3037 11.0043 22.4624L5.82141 27.6327C5.50389 27.9502 5.50393 28.4711 5.82141 28.7887C6.13893 29.1062 6.65986 29.1062 6.97742 28.7887L12.1476 23.6057C12.4651 23.2883 12.4651 22.78 12.1476 22.4624C11.9888 22.3037 11.7841 22.2211 11.576 22.2211ZM23.6441 22.2211C23.436 22.2211 23.2312 22.3037 23.0724 22.4624C22.7549 22.78 22.7549 23.2883 23.0724 23.6057L28.2426 28.7887C28.5601 29.1062 29.0812 29.1062 29.3986 28.7887C29.7162 28.4711 29.7162 27.9502 29.3986 27.6327L24.2157 22.4624C24.057 22.3037 23.8521 22.2211 23.6441 22.2211ZM17.61 24.7236C17.161 24.7236 16.797 25.0876 16.797 25.5366V32.8537C16.797 33.3027 17.161 33.6667 17.61 33.6667C18.0591 33.6667 18.423 33.3027 18.423 32.8537V25.5366C18.423 25.0876 18.0591 24.7236 17.61 24.7236Z"/>
</svg>
