<svg width="17" height="15" viewBox="0 0 17 15" fill="none" xmlns="http://www.w3.org/2000/svg">
<path d="M7.33333 6.99998C9.17428 6.99998 10.6667 5.5076 10.6667 3.66665C10.6667 1.8257 9.17428 0.333313 7.33333 0.333313C5.49238 0.333313 4 1.8257 4 3.66665C4 5.5076 5.49238 6.99998 7.33333 6.99998Z" fill="#787878"/>
<path d="M7.62435 8.675C5.34935 8.59167 0.666016 9.725 0.666016 12V12.8333C0.666016 13.2917 1.04102 13.6667 1.49935 13.6667H8.61602C6.55768 11.3667 7.59102 8.75833 7.62435 8.675Z" fill="#787878"/>
<path d="M15.1912 12.0167C15.5829 11.35 15.7745 10.5417 15.5912 9.66667C15.3079 8.3 14.1579 7.20834 12.7745 7.03334C10.5829 6.75 8.73286 8.59167 9.02453 10.7833C9.20786 12.1667 10.2912 13.3167 11.6579 13.6C12.5329 13.7833 13.3412 13.5917 14.0079 13.2L15.5579 14.75C15.8829 15.075 16.4079 15.075 16.7329 14.75C17.0579 14.425 17.0579 13.9 16.7329 13.575L15.1912 12.0167ZM12.3329 12C11.4162 12 10.6662 11.25 10.6662 10.3333C10.6662 9.41667 11.4162 8.66667 12.3329 8.66667C13.2495 8.66667 13.9995 9.41667 13.9995 10.3333C13.9995 11.25 13.2495 12 12.3329 12Z" fill="#787878"/>
</svg>
