<?xml version="1.0" encoding="utf-8"?>
<!-- Generator: Adobe Illustrator 19.0.0, SVG Export Plug-In . SVG Version: 6.00 Build 0)  -->
<svg version="1.1" id="Слой_1" xmlns="http://www.w3.org/2000/svg" xmlns:xlink="http://www.w3.org/1999/xlink" x="0px" y="0px"
	 viewBox="-139 51 512 512" style="enable-background:new -139 51 512 512;" xml:space="preserve">
<g>
	<path d="M269.3,306.7c0.2,13-4.5,26-14.4,35.9c-2.6,2.6-5.4,4.8-8.4,6.7L47.3,548.5c-9.7,9.7-22.4,14.5-35,14.5s-25.4-4.8-35-14.5
		c-19.4-19.4-19.4-50.8,0-70.1l171.7-171.7L-21.9,135.9c-19.4-19.4-19.4-50.8,0-70.1c19.4-19.4,50.8-19.3,70.1,0l198.3,198.3
		c3,1.9,5.8,4.1,8.4,6.7C264.8,280.7,269.5,293.7,269.3,306.7z"/>
</g>
</svg>
