<?xml version="1.0" encoding="utf-8"?>
<!-- Generator: Adobe Illustrator 19.0.0, SVG Export Plug-In . SVG Version: 6.00 Build 0)  -->
<svg version="1.1" id="Слой_1" xmlns="http://www.w3.org/2000/svg" xmlns:xlink="http://www.w3.org/1999/xlink" x="0px" y="0px"
	 viewBox="0 0 512 512" style="enable-background:new 0 0 512 512;" xml:space="preserve">
<style type="text/css">
	.st0{fill: currentColor;}
</style>
<g id="Right_Arrow_4">
	<g id="XMLID_35_">
		<path id="XMLID_36_" class="st0" d="M401.9,256c0-3.3-1.4-6.3-3.6-8.4l0,0L142.4,3.2l0,0c-2.1-2-4.9-3.2-8-3.2
			c-6.4,0-11.6,5.2-11.6,11.6v488.6c0,6.4,5.2,11.6,11.6,11.6c3.1,0,5.9-1.3,8-3.2l0,0l256-244.3l0,0
			C400.5,262.2,401.9,259.3,401.9,256z M146,473.1V38.8L373.4,256L146,473.1z"/>
	</g>
</g>
</svg>
