<?xml version="1.0" encoding="iso-8859-1"?>
<!-- Generator: Adobe Illustrator 19.0.0, SVG Export Plug-In . SVG Version: 6.00 Build 0)  -->
<svg version="1.1" id="Capa_1" xmlns="http://www.w3.org/2000/svg" xmlns:xlink="http://www.w3.org/1999/xlink" x="0px" y="0px"
	 viewBox="0 0 511.98 511.98" style="enable-background:new 0 0 511.98 511.98;" xml:space="preserve">
<g>
	<g>
		<path d="M499.174,13.742c-8.634-8.846-20.492-13.805-32.853-13.739c-13.365-0.156-26.238,5.036-35.755,14.421l-86.187,86.187
			L62.78,376.75c-0.431,0.496-0.803,1.04-1.109,1.621c0,0-0.427,0-0.597,0.683L0.913,499.63c-2.108,4.215-0.399,9.341,3.816,11.449
			c2.581,1.291,5.64,1.189,8.13-0.27l114.688-66.389l0.427-0.683c0.357-0.203,0.7-0.431,1.024-0.683l191.147-185.6l6.144,6.144
			c3.328,3.309,8.704,3.309,12.032,0l126.72-127.061c7.638-7.676,9.62-19.329,4.949-29.099l28.245-28.245
			C516.177,61.211,516.592,32.231,499.174,13.742z M28.902,481.795l42.667-84.651l37.717,38.059L28.902,481.795z M301.798,238.51
			l5.973,5.973L123.281,425.049l-42.667-42.667l269.397-264.533l30.208,30.208l-78.421,78.421
			C298.49,229.806,298.49,235.182,301.798,238.51z M332.348,245.422l-6.059-6.059l-6.059-6.059l12.032-12.032l12.032,12.032
			L332.348,245.422z M453.239,124.54c-0.102,0.105-0.207,0.207-0.315,0.306l-96.512,96.512l-12.032-12.032l54.272-54.272
			l42.667-42.667c2.785-2.551,6.916-2.968,10.155-1.024c0.581,0.306,1.125,0.678,1.621,1.109
			C456.466,115.765,456.531,121.168,453.239,124.54z M486.374,67.502l-28.16,28.16h-0.939l-1.365-0.512l-3.243-1.28h-1.365
			c-1.306-0.1-2.619-0.1-3.925,0h-0.597c-1.476-0.128-2.961-0.128-4.437,0h-1.195l-3.157,0.939l-1.451,0.597l-2.816,1.451
			l-1.28,0.768c-1.313,0.88-2.541,1.88-3.669,2.987l-36.267,35.925L362.47,106.67l80.213-80.213
			c6.268-6.117,14.709-9.493,23.467-9.387c7.606,0.049,14.881,3.119,20.224,8.533c5.404,5.489,8.464,12.863,8.533,20.565
			C495.08,54.144,491.999,61.846,486.374,67.502z"/>
	</g>
</g>
</svg>
