<?xml version="1.0" encoding="utf-8"?>
<!-- Generator: Adobe Illustrator 19.0.0, SVG Export Plug-In . SVG Version: 6.00 Build 0)  -->
<svg version="1.1" id="Слой_1" xmlns="http://www.w3.org/2000/svg" xmlns:xlink="http://www.w3.org/1999/xlink" x="0px" y="0px"
	 viewBox="0 0 512 512" style="enable-background:new 0 0 512 512;" xml:space="preserve">
<style type="text/css">
	.st0{fill:#2E2E2E;}
</style>
<g id="Write_x40_2x.png">
	<g>
		<path class="st0" d="M500.4,174.6c-6.4,0-11.6,5.2-11.6,11.6v256c0,25.7-20.8,46.6-46.6,46.6H69.8c-25.7,0-46.6-20.8-46.6-46.6
			V69.8c0-25.7,20.8-46.6,46.6-46.6h256c6.4,0,11.6-5.2,11.6-11.6c0-6.4-5.2-11.6-11.6-11.6h-256C31.3,0,0,31.3,0,69.8v372.4
			c0,38.6,31.3,69.8,69.8,69.8h372.4c38.6,0,69.8-31.3,69.8-69.8v-256C512.1,179.8,506.9,174.6,500.4,174.6z M128,384.1l99.3-17
			L495,99.3c10.5-10.5,17-25.1,17-41.2C512.1,26,486,0,453.9,0c-16.1,0-30.6,6.5-41.1,17L145.1,284.7L128,384.1z M429.2,33.5
			c6.3-6.3,15-10.2,24.7-10.2c19.3,0,34.9,15.6,34.9,34.9c0,9.6-3.9,18.4-10.2,24.7l-15,15l-49.4-49.4L429.2,33.5z M397.7,65
			l49.4,49.4L232.8,328.7v-49.4h-49.4L397.7,65z M166.1,302.6h43.4V346l-52.4,9L166.1,302.6z"/>
	</g>
</g>
</svg>
