<?xml version="1.0" encoding="utf-8"?>
<!-- Generator: Adobe Illustrator 19.0.0, SVG Export Plug-In . SVG Version: 6.00 Build 0)  -->
<svg version="1.1" id="Слой_1" xmlns="http://www.w3.org/2000/svg" xmlns:xlink="http://www.w3.org/1999/xlink" x="0px" y="0px"
	 viewBox="0 0 512 512" style="enable-background:new 0 0 512 512;" xml:space="preserve">
<style type="text/css">
	.st0{fill:#2E2F2F;}
</style>
<g id="Phone_1_x40_2x.png">
	<g id="XMLID_35_">
		<path id="XMLID_36_" class="st0" d="M512,407.1h-0.2c0-9.6-3.9-18.4-10.2-24.7c-1.9-1.9-4-3.4-6.2-4.8l-98.5-76.6
			c-6.3-6.3-15-10.2-24.7-10.2c-7.9,0-15.1,2.7-20.9,7.2l-27.5,27.7l-0.1-0.1c-4.3,4.8-10.4,7.8-17.3,7.8c-7.9,0-14.8-3.9-19-9.9
			c-0.1,0.2-0.3,0.4-0.5,0.7c-38-27.6-71.7-60.8-99.3-98.9c0.3-0.2,0.5-0.4,0.8-0.6c-6.1-4.2-10.1-11.2-10.1-19.2
			c0-7.1,3.2-13.4,8.3-17.7l0,0l27.4-27.1c4.4-5.8,7.1-13,7.1-20.9c0-9.6-3.9-18.4-10.2-24.7l-76.6-98.5c-1.4-2.2-3-4.3-4.8-6.2
			C123.1,3.9,114.4,0,104.7,0C58.2,0,0,54.7,0,122.2c0,18.7,4.3,36.3,11.8,52.2l-0.4,0.4c70,139.4,186.4,255.8,325.8,325.8l0.4-0.4
			c15.8,7.5,33.5,11.8,52.2,11.8c67.5,0,122.2-58.2,122.2-104.7C512,407.2,512,407.1,512,407.1z M389.8,488.7
			c-14.6,0-28.8-3.2-42.2-9.6c-1.3-0.6-2.6-1.1-3.9-1.4C211.4,410.2,101.8,300.7,34.3,168.4c-0.4-1.4-0.8-2.7-1.5-4
			c-6.4-13.4-9.6-27.6-9.6-42.2c0-56.4,49.4-98.9,81.5-98.9c4.2,0,7,2.1,8.2,3.4c0.3,0.3,0.8,0.9,1.6,2.1c0.4,0.7,0.9,1.3,1.3,1.9
			l76.6,98.5c0.6,0.8,1.2,1.5,1.9,2.2c1.3,1.3,3.4,4,3.4,8.2c0,2.1-0.6,4-1.7,5.8l-25.9,25.7c-0.1,0.1-0.2,0.2-0.4,0.4
			c-9.4,8.8-14.8,21.1-14.8,33.9c0,12,4.7,23.5,12.8,32.1c0.3,0.5,0.6,0.9,0.9,1.4c28.6,39.5,63.7,74.5,104.5,104.1
			c0.3,0.2,0.6,0.4,1,0.7c8.6,8.2,20.1,13,32.2,13c12.2,0,23.9-4.9,32.6-13.4c0.4-0.4,0.9-0.8,1.3-1.2l26.1-26.3
			c1.8-1.1,3.8-1.7,5.8-1.7c4.2,0,7,2.1,8.2,3.4c0.7,0.7,1.4,1.3,2.2,1.9l98.5,76.6c0.6,0.5,1.3,0.9,2,1.4c1.2,0.8,1.8,1.3,2.1,1.5
			c1.3,1.3,3.4,4,3.4,8.2c0,0.8,0,1.6,0.1,2.3C486.8,441.5,445,488.7,389.8,488.7z"/>
	</g>
</g>
</svg>
