<?xml version="1.0" encoding="utf-8"?>
<!-- Generator: Adobe Illustrator 19.0.0, SVG Export Plug-In . SVG Version: 6.00 Build 0)  -->
<svg version="1.1" id="Слой_1" xmlns="http://www.w3.org/2000/svg" xmlns:xlink="http://www.w3.org/1999/xlink" x="0px" y="0px"
	 viewBox="0 0 512 512" style="enable-background:new 0 0 512 512;" xml:space="preserve">
<style type="text/css">
	.st0{fill:#2E2F2F;}
</style>
<g id="No_Entry_x40_2x.png">
	<g id="XMLID_43_">
		<path id="XMLID_44_" class="st0" d="M256.1,0C114.6,0,0,114.7,0,256.1c0,141.4,114.6,256.1,256.1,256.1
			c141.4,0,256.1-114.6,256.1-256.1C512.1,114.7,397.5,0,256.1,0z M256.1,488.8c-128.6,0-232.8-104.2-232.8-232.8
			c0-60.1,23-114.7,60.3-156L412,428.5C370.7,465.9,316.1,488.8,256.1,488.8z M428.5,412L100.1,83.6c41.3-37.4,95.9-60.3,156-60.3
			c128.6,0,232.8,104.2,232.8,232.8C488.8,316.2,465.9,370.7,428.5,412z"/>
	</g>
</g>
</svg>
