<svg width="24" height="30" viewBox="0 0 24 30" fill="none" xmlns="http://www.w3.org/2000/svg">
<path d="M11.8269 0C5.30555 0 0 5.30549 0 11.8269C0 15.8912 2.06086 19.4829 5.19229 21.6127V29.1346C5.19229 29.4282 5.34117 29.7019 5.58779 29.8612C5.8343 30.0207 6.14496 30.0441 6.41279 29.9237L11.8269 27.4874L17.241 29.9238C17.3544 29.9747 17.4754 30 17.5961 30C17.7604 30 17.9238 29.9532 18.066 29.8613C18.3126 29.7019 18.4615 29.4282 18.4615 29.1346V21.6128C21.593 19.483 23.6538 15.8912 23.6538 11.827C23.6538 5.30549 18.3483 0 11.8269 0ZM16.7307 27.7963L12.182 25.7494C12.0691 25.6985 11.948 25.6731 11.8269 25.6731C11.7059 25.6731 11.5847 25.6985 11.4718 25.7493L6.92309 27.7962V22.5911C7.35803 22.7893 7.80445 22.9597 8.25932 23.1035C8.2851 23.1117 8.31082 23.12 8.33672 23.128C8.39479 23.1459 8.45303 23.1631 8.51133 23.18C8.55451 23.1927 8.5977 23.2052 8.641 23.2174C8.68805 23.2305 8.73527 23.2433 8.7825 23.2558C8.83758 23.2705 8.89277 23.2849 8.94815 23.2988C8.98729 23.3086 9.02649 23.3182 9.06574 23.3275C9.12944 23.3428 9.1933 23.3576 9.2574 23.3718C9.29063 23.3792 9.32391 23.3865 9.35719 23.3936C9.42738 23.4086 9.49781 23.4228 9.56854 23.4366C9.59731 23.4421 9.62608 23.4478 9.6549 23.4532C9.72979 23.4671 9.80496 23.4802 9.88031 23.4928C9.90615 23.4971 9.93199 23.5015 9.95789 23.5056C10.0356 23.5181 10.1138 23.5295 10.1921 23.5403C10.2163 23.5437 10.2405 23.5473 10.2648 23.5505C10.3441 23.561 10.4237 23.5704 10.5034 23.5794C10.5272 23.582 10.5509 23.585 10.5746 23.5876C10.6542 23.596 10.734 23.6032 10.8139 23.61C10.8382 23.6121 10.8623 23.6146 10.8867 23.6164C10.9655 23.6227 11.0446 23.6276 11.1239 23.6323C11.1493 23.6338 11.1746 23.6358 11.2002 23.6372C11.2803 23.6414 11.3607 23.6443 11.4412 23.6469C11.4655 23.6477 11.4895 23.649 11.5138 23.6496C11.6179 23.6523 11.7223 23.6538 11.827 23.6538C11.9317 23.6538 12.0362 23.6523 12.1402 23.6496C12.1645 23.649 12.1886 23.6477 12.2128 23.6469C12.2933 23.6443 12.3737 23.6413 12.4538 23.6372C12.4792 23.6358 12.5046 23.6338 12.5301 23.6323C12.6094 23.6276 12.6885 23.6227 12.7673 23.6164C12.7917 23.6146 12.8158 23.6121 12.8401 23.61C12.92 23.6032 12.9998 23.5959 13.0794 23.5876C13.1031 23.585 13.1268 23.5821 13.1506 23.5794C13.2304 23.5704 13.3099 23.561 13.3892 23.5505C13.4135 23.5473 13.4377 23.5437 13.4619 23.5403C13.5402 23.5295 13.6183 23.5181 13.6961 23.5056C13.722 23.5015 13.7478 23.497 13.7737 23.4928C13.849 23.4802 13.9242 23.4671 13.9991 23.4532C14.0279 23.4478 14.0567 23.4422 14.0855 23.4366C14.1561 23.4229 14.2266 23.4086 14.2968 23.3936C14.3302 23.3865 14.3634 23.3792 14.3966 23.3718C14.4607 23.3576 14.5246 23.3428 14.5883 23.3275C14.6275 23.3181 14.6667 23.3085 14.7059 23.2988C14.7612 23.2849 14.8164 23.2706 14.8715 23.2558C14.9187 23.2432 14.966 23.2306 15.013 23.2174C15.0563 23.2052 15.0996 23.1927 15.1427 23.18C15.201 23.163 15.2593 23.1459 15.3173 23.128C15.3432 23.12 15.3689 23.1116 15.3947 23.1035C15.8496 22.9597 16.296 22.7894 16.7309 22.5911V27.7963H16.7307ZM15.1216 21.3705C15.0871 21.3824 15.0526 21.3944 15.0179 21.4059C14.9653 21.4235 14.9125 21.4408 14.8594 21.4575C14.7977 21.4769 14.7359 21.4956 14.6738 21.5138C14.63 21.5266 14.5862 21.5395 14.5422 21.5518C14.4601 21.5747 14.3777 21.5966 14.2951 21.6174C14.2642 21.6252 14.2333 21.6326 14.2024 21.6401C14.1215 21.6596 14.0402 21.6783 13.9588 21.6959C13.9383 21.7003 13.918 21.705 13.8974 21.7092C13.7923 21.7312 13.6869 21.7516 13.581 21.7702C13.5702 21.7721 13.5594 21.7737 13.5485 21.7757C13.4531 21.7921 13.3574 21.8071 13.2616 21.8207C13.24 21.8238 13.2183 21.8269 13.1966 21.8299C13.0944 21.8438 12.9919 21.8565 12.8892 21.8673C12.8853 21.8677 12.8814 21.8682 12.8776 21.8687C12.77 21.8798 12.662 21.889 12.5539 21.8967C12.5305 21.8984 12.5069 21.8996 12.4834 21.9012C12.3993 21.9067 12.3152 21.911 12.2309 21.9144C12.2023 21.9155 12.1736 21.9167 12.145 21.9176C12.0391 21.9209 11.9331 21.9231 11.8269 21.9231C11.7207 21.9231 11.6147 21.9209 11.5089 21.9175C11.4802 21.9166 11.4515 21.9154 11.4229 21.9142C11.3386 21.9109 11.2545 21.9066 11.1704 21.9011C11.1469 21.8996 11.1234 21.8983 11.0999 21.8966C10.9918 21.8889 10.8839 21.8797 10.7763 21.8685C10.7724 21.8681 10.7685 21.8676 10.7647 21.8672C10.6619 21.8564 10.5595 21.8436 10.4572 21.8297C10.4356 21.8268 10.414 21.8238 10.3923 21.8206C10.2964 21.8069 10.2007 21.792 10.1053 21.7755C10.0945 21.7737 10.0837 21.772 10.0729 21.7701C9.96697 21.7515 9.86145 21.731 9.75639 21.7091C9.73594 21.7048 9.71555 21.7001 9.69504 21.6957C9.6136 21.6782 9.53232 21.6595 9.45141 21.64C9.42047 21.6325 9.38953 21.6251 9.35877 21.6173C9.27609 21.5965 9.19371 21.5745 9.11162 21.5517C9.06762 21.5394 9.02379 21.5265 8.98002 21.5136C8.91803 21.4954 8.85609 21.4768 8.79434 21.4574C8.74131 21.4406 8.68852 21.4234 8.63584 21.4058C8.60115 21.3943 8.56664 21.3823 8.53219 21.3704C4.57805 20.0016 1.73074 16.2407 1.73074 11.8269C1.73074 6.25992 6.25986 1.73074 11.8269 1.73074C17.394 1.73074 21.9231 6.25986 21.9231 11.8269C21.9231 16.2407 19.0757 20.0016 15.1216 21.3705Z" fill="white"/>
<path d="M16.961 11.8269L18.5865 8.77184C18.7267 8.50834 18.7212 8.19117 18.5719 7.93271C18.4227 7.67426 18.1508 7.51084 17.8525 7.50053L14.394 7.3807L12.5609 4.44551C12.4028 4.19238 12.1254 4.03852 11.8269 4.03852C11.5284 4.03852 11.2511 4.19238 11.0929 4.44551L9.25992 7.3807L5.80143 7.50053C5.50313 7.51084 5.23119 7.67426 5.08195 7.93271C4.93272 8.19117 4.92715 8.50834 5.06742 8.77184L6.69287 11.8269L5.06742 14.882C4.92715 15.1455 4.93272 15.4627 5.08195 15.7211C5.23119 15.9796 5.50313 16.143 5.80143 16.1533L9.25992 16.2731L11.0929 19.2083C11.251 19.4614 11.5284 19.6153 11.8269 19.6153C12.1254 19.6153 12.4028 19.4614 12.5609 19.2083L14.3939 16.2731L17.8524 16.1533C18.1507 16.143 18.4226 15.9796 18.5719 15.7211C18.7211 15.4627 18.7267 15.1455 18.5864 14.882L16.961 11.8269ZM13.8739 14.5593C13.5863 14.5693 13.3223 14.7217 13.1699 14.9658L11.8269 17.1163L10.484 14.9659C10.3315 14.7217 10.0676 14.5694 9.78 14.5594L7.24629 14.4715L8.43709 12.2334C8.57232 11.9793 8.57232 11.6746 8.43709 11.4204L7.24629 9.18229L9.78 9.09445C10.0676 9.08449 10.3316 8.93209 10.484 8.68793L11.8269 6.5376L13.1698 8.68799C13.3223 8.93215 13.5862 9.08449 13.8738 9.09451L16.4075 9.18234L15.2167 11.4205C15.0816 11.6746 15.0816 11.9794 15.2168 12.2334L16.4076 14.4716L13.8739 14.5593Z" fill="white"/>
</svg>
