<?xml version="1.0" encoding="utf-8"?>
<!-- Generator: Adobe Illustrator 19.0.0, SVG Export Plug-In . SVG Version: 6.00 Build 0)  -->
<svg version="1.1" id="Слой_1" xmlns="http://www.w3.org/2000/svg" xmlns:xlink="http://www.w3.org/1999/xlink" x="0px" y="0px"
	 viewBox="-139 51 512 512" style="enable-background:new -139 51 512 512;" xml:space="preserve">
<g>
	<path d="M-22.9,270.8c2.6-2.6,5.4-4.8,8.4-6.7L183.8,65.8c19.3-19.3,50.7-19.3,70.1,0c19.4,19.3,19.4,50.7,0,70.1L83.1,306.7
		l171.7,171.7c19.4,19.3,19.4,50.7,0,70.1c-9.7,9.7-22.4,14.5-35,14.5s-25.4-4.8-35-14.5L-14.5,349.2c-3-1.9-5.8-4.1-8.4-6.7
		c-9.9-9.9-14.7-22.9-14.4-35.9C-37.6,293.7-32.8,280.7-22.9,270.8z"/>
</g>
</svg>
