<svg width="12" height="12" viewBox="0 0 12 12" fill="none" xmlns="http://www.w3.org/2000/svg">
<path d="M8.30393 2.71356C8.57704 2.44046 9.01867 2.44046 9.29177 2.71356C9.55988 2.98167 9.55988 3.4283 9.29177 3.69641L6.98819 5.99999L9.29177 8.30356C9.56488 8.57667 9.56488 9.0183 9.29177 9.29141C9.01867 9.56451 8.57704 9.56451 8.30393 9.29141L6.00035 6.98783L3.69677 9.29141C3.42367 9.56451 2.98204 9.56451 2.70893 9.29141C2.43583 9.0183 2.43583 8.57667 2.70893 8.30356L5.01251 5.99999L2.70893 3.69641L2.85035 3.55499L2.70893 3.69641C2.43583 3.4233 2.43583 2.98167 2.70893 2.70856C2.98204 2.43546 3.42367 2.43546 3.69677 2.70856L6.0005 5.01229L8.30393 2.71356ZM8.30393 2.71356L8.30408 2.71342L8.44535 2.85499L8.30393 2.71356Z" fill="#CC0033" stroke="#CC0033" stroke-width="0.4"/>
</svg>
