<svg width="12" height="12" viewBox="0 0 12 12" fill="none" xmlns="http://www.w3.org/2000/svg">
<g clip-path="url(#clip0_694_18842)">
<path d="M9.49974 5.99999L10.8947 5.99999C11.1197 5.99999 11.2297 6.26999 11.0697 6.42499L9.17474 8.32499C9.07474 8.42499 8.91974 8.42499 8.81974 8.32499L6.92474 6.42999C6.76974 6.26999 6.87974 5.99999 7.10474 5.99999L8.49974 5.99999C8.49974 4.13499 6.78974 2.65999 4.85474 3.06999C3.71974 3.30499 2.80474 4.22499 2.56974 5.35499C2.19474 7.13999 3.41974 8.72999 5.07474 8.96999C5.31474 9.00499 5.49974 9.21499 5.49974 9.45999C5.49974 9.75999 5.23474 9.99999 4.93474 9.95999C2.73974 9.64999 1.11474 7.55999 1.57474 5.19499C1.87974 3.63499 3.13474 2.37999 4.69474 2.07499C7.25974 1.57999 9.49974 3.52999 9.49974 5.99999Z" fill="#787878"/>
</g>
<defs>
<clipPath id="clip0_694_18842">
<rect width="12" height="12" fill="white" transform="matrix(-1.19249e-08 -1 -1 1.19249e-08 12 12)"/>
</clipPath>
</defs>
</svg>
