<?xml version="1.0" encoding="utf-8"?>
<!-- Generator: Adobe Illustrator 19.0.0, SVG Export Plug-In . SVG Version: 6.00 Build 0)  -->
<svg version="1.1" id="Слой_1" xmlns="http://www.w3.org/2000/svg" xmlns:xlink="http://www.w3.org/1999/xlink" x="0px" y="0px"
	 viewBox="0 0 512 512" style="enable-background:new 0 0 512 512;" xml:space="preserve">
<style type="text/css">
	.st0{fill: currentColor;}
</style>
<g id="Magnify_Glass_x40_2x.png">
	<g id="XMLID_35_">
		<path id="XMLID_36_" class="st0" d="M508.4,491.9L385.1,368.6C420.3,329.5,442,277.8,442,221c0-122-98.9-221-221-221
			C98.9,0,0,98.9,0,221c0,122.1,98.9,221,221,221c56.8,0,108.5-21.6,147.7-56.9l123.3,123.3c2.1,2.1,5,3.4,8.2,3.4
			c6.4,0,11.6-5.2,11.6-11.6C511.8,496.9,510.5,494,508.4,491.9z M221,418.7c-109.2,0-197.7-88.5-197.7-197.7S111.8,23.3,221,23.3
			c109.2,0,197.7,88.5,197.7,197.7S330.2,418.7,221,418.7z"/>
	</g>
</g>
</svg>
