<svg id="_x31__px" width="512" height="512" version="1.1" viewBox="0 0 24 24" xmlns="http://www.w3.org/2000/svg">
 <path d="m10.67 21.51c-.115 0-.223-.041-.309-.108-2.471-1.591-10.361-7.313-10.361-15.372 0-3.325 2.822-6.03 6.29-6.03 2.124 0 4.05.997 5.21 2.651 1.16-1.654 3.086-2.651 5.21-2.651 3.468 0 6.29 2.705 6.29 6.03 0 1.738-.363 3.47-1.08 5.146-.109.255-.404.372-.656.264-.254-.108-.372-.402-.264-.656.664-1.553 1-3.151 1-4.754 0-2.773-2.373-5.03-5.29-5.03-2.047 0-3.873 1.091-4.764 2.847-.171.336-.721.336-.892 0-.891-1.756-2.717-2.847-4.764-2.847-2.917 0-5.29 2.257-5.29 5.03 0 7.583 7.601 13.053 9.93 14.549.033.021.062.045.088.072.094.091.151.218.151.358.001.277-.223.501-.499.501z"/>
 <path d="m17 22c-2.757 0-5-2.243-5-5s2.243-5 5-5 5 2.243 5 5-2.243 5-5 5zm0-9c-2.206 0-4 1.794-4 4s1.794 4 4 4 4-1.794 4-4-1.794-4-4-4z"/>
 <path d="m23.5 24c-.128 0-.256-.049-.354-.146l-3.318-3.318c-.195-.195-.195-.512 0-.707s.512-.195.707 0l3.318 3.318c.195.195.195.512 0 .707-.097.097-.225.146-.353.146z"/>
</svg>
