<svg enable-background="new 0 0 512.021 512.021" version="1.1" viewBox="0 0 512.02 512.02" xml:space="preserve" xmlns="http://www.w3.org/2000/svg">
<g transform="matrix(.69263 .70126 -.70126 .69263 276.39 -93.612)">
			<path d="m481.52 229-80.235-88.128c-15.381-15.424-42.091-15.531-57.749 0.128-5.056 5.056-8.512 11.136-10.304 17.621-15.573-11.947-39.339-10.645-53.696 3.712-5.056 5.056-8.512 11.136-10.347 17.6-15.531-11.947-39.317-10.581-53.653 3.733-4.971 4.971-8.384 10.923-10.24 17.216l-37.803-37.803c-15.893-15.872-41.707-15.915-57.771 0.128-15.893 15.872-15.893 41.728 0 57.621l145.24 145.24-86.101 13.525c-23.296 3.33-40.853 23.554-40.853 47.084 0 17.643 14.357 32 32 32h201.15c31.317 0 60.779-12.203 83.008-34.389l33.536-33.557c22.144-22.123 34.325-51.563 34.325-82.859 0-29.227-10.837-57.237-30.506-78.869zm-18.923 146.67-33.536 33.557c-18.155 18.133-42.283 28.117-67.904 28.117h-201.15c-5.867 0-10.667-4.779-10.667-10.667 0-12.971 9.685-24.128 22.656-26.005l106.99-16.811c3.968-0.619 7.232-3.413 8.491-7.232 1.237-3.797 0.235-8-2.603-10.837l-160.06-160.06c-7.552-7.573-7.552-19.883 0.128-27.584 3.797-3.776 8.768-5.675 13.739-5.675s9.941 1.899 13.739 5.696l62.634 62.635c0.149 0.171 0.341 0.341 0.512 0.512l43.605 43.584c4.16 4.16 10.923 4.16 15.083 0s4.16-10.923 0-15.083l-43.968-43.968c-7.189-7.595-7.061-19.648 0.491-27.221 7.339-7.296 20.096-7.339 27.435 0l20.971 20.992c0.128 0.128 0.235 0.256 0.363 0.363l22.272 22.251c4.16 4.16 10.923 4.16 15.083 0s4.16-10.923 0-15.083l-22.528-22.507c-7.275-7.595-7.189-19.733 0.405-27.349 7.317-7.296 20.096-7.339 27.435 0l22.272 22.357c0.021 0.021 0.021 0.043 0.043 0.043l0.021 0.021c0.173 0.087 0.13 0.065 0.085 0.043 0 0 0 0.021 0.021 0.021l0.042 0.042h0.021 0.021c4.224 3.925 10.795 3.819 14.848-0.277 4.139-4.16 4.139-10.901-0.021-15.061l-1.28-1.28c-7.211-7.595-7.104-19.669 0.469-27.243 7.339-7.296 20.437-6.976 27.093-0.363l79.872 87.787c16.107 17.707 24.96 40.597 24.96 64.512 1e-3 25.579-9.983 49.664-28.074 67.776z"/>
			<path d="m344.6 199.76h0.021c-0.022-0.011-0.043-0.021-0.043-0.021 0.022 0.021 0.044 0.021 0.022 0.021z"/>
		<path d="m226.07 152.63c-15.552-34.389-49.835-56.619-87.403-56.619-52.928 0-96 43.072-96 96 0 37.547 22.229 71.851 56.597 87.403 1.429 0.64 2.923 0.939 4.395 0.939 4.075 0 7.936-2.347 9.728-6.272 2.411-5.376 0.043-11.691-5.333-14.123-26.752-12.096-44.053-38.762-44.053-67.946 0-41.173 33.493-74.667 74.667-74.667 29.184 0 55.851 17.301 67.947 44.053 2.432 5.376 8.725 7.765 14.123 5.333 5.354-2.41 7.743-8.746 5.332-14.101z"/>
		<path d="m272.53 156.36c-16.106-60.651-71.168-103.02-133.87-103.02-76.459 0-138.67 62.208-138.67 138.67 0 62.699 42.368 117.76 103.04 133.87 0.917 0.256 1.835 0.363 2.731 0.363 4.736 0 9.045-3.136 10.304-7.915 1.515-5.696-1.856-11.541-7.573-13.056-51.307-13.632-87.168-60.203-87.168-113.26 0-64.704 52.651-117.33 117.33-117.33 53.035 0 99.627 35.84 113.26 87.168 1.493 5.675 7.147 9.088 13.056 7.573 5.674-1.515 9.045-7.36 7.551-13.056z"/>
</g>
</svg>
