<svg xmlns="http://www.w3.org/2000/svg" id="Слой_1" viewBox="0 0 512 512">
  <style>
    .st0{fill:#2E2F2F;}
  </style>
  <g id="Square_Outline_Up">
    <g id="XMLID_165_">
      <path id="XMLID_166_" d="M23.3 372.3H0v46.5h23.3v-46.5zm69.8 139.6h46.5v-23.3H93.1v23.3zm-63.5-46.6H4.1c7 19.7 22.7 35.2 42.4 42.3v-25.4c-7-4.1-12.8-9.9-16.9-16.9zm-6.3-279.2H0v46.5h23.3v-46.5zM4.1 46.5h25.5c4.1-7 9.9-12.7 16.9-16.8V4.3c-19.7 7-35.3 22.6-42.4 42.2zm19.2 232.7H0v46.5h23.3v-46.5zM482.2 46.5h25.5c-7-19.7-22.7-35.2-42.4-42.3v25.4c7 4.2 12.9 10 16.9 16.9zM325.7 0h-46.5v23.3h46.5V0zm-93 0h-46.5v23.3h46.5V0zM23.3 93.1H0v46.5h23.3V93.1zm465.3 232.6h23.3v-46.5h-23.3v46.5zm0 93.1h23.3v-46.5h-23.3v46.5zm-23.3 63.3v25.4c19.7-7 35.4-22.6 42.4-42.3h-25.5c-4 7.1-9.9 12.9-16.9 16.9zM93.1 23.3h46.5V0H93.1v23.3zm395.5 209.4h23.3v-46.5h-23.3v46.5zm0-139.6v46.5h23.3V93.1h-23.3zM372.3 23.3h46.5V0h-46.5v23.3zM186.1 511.9h46.5v-23.3h-46.5v23.3zm186.2 0h46.5v-23.3h-46.5v23.3zm-93.1 0h46.5v-23.3h-46.5v23.3zm-15-392.2c-2.1-2.1-5-3.4-8.2-3.4-3.2 0-6.1 1.3-8.2 3.4l-93.1 93.1c-2.1 2.1-3.4 5-3.4 8.2 0 6.4 5.2 11.6 11.6 11.6 3.2 0 6.1-1.3 8.2-3.4l73.2-73.2v227.8c0 6.4 5.2 11.6 11.6 11.6 6.4 0 11.6-5.2 11.6-11.6V156l73.2 73.2c2.1 2.1 5 3.4 8.2 3.4 6.4 0 11.6-5.2 11.6-11.6 0-3.2-1.3-6.1-3.4-8.2l-92.9-93.1z" class="st0"/>
    </g>
  </g>
</svg>
