<?xml version="1.0" encoding="utf-8"?>
<!-- Generator: Adobe Illustrator 19.0.0, SVG Export Plug-In . SVG Version: 6.00 Build 0)  -->
<svg version="1.1" id="Слой_1" xmlns="http://www.w3.org/2000/svg" xmlns:xlink="http://www.w3.org/1999/xlink" x="0px" y="0px"
	 viewBox="0 0 512 512" style="enable-background:new 0 0 512 512;" xml:space="preserve">
<style type="text/css">
	.st0{fill: currentColor;}
</style>
<g id="User_Male_x40_2x.png">
	<g id="XMLID_43_">
		<path id="XMLID_44_" class="st0" d="M255.9,0C114.6,0,0,114.6,0,255.9s114.6,255.9,255.9,255.9s255.9-114.6,255.9-255.9
			S397.2,0,255.9,0z M255.9,488.5c-57.9,0-110.7-21.3-151.5-56.3c31.3-27.4,46.3-34.9,80.9-50.2c40.1-17.7,53.7-49.1,37.4-86.1
			c-2.9-6.6-6.3-12.8-9.9-19.3c-12.4-22.3-26.7-47.6-26.7-105.4c0-68.3,32.4-68.9,58.2-69.3c18.3-0.3,27.2-3.5,34.4-6
			c4.8-1.7,7.7-2.7,12.9-2.7c21.5,0,45.3,21.3,45.3,80.9c0,60.2-9,75-22.7,99.5c-3.6,6.4-7.5,13.4-11.7,21.8
			c-8,16.2-9.6,31.5-4.8,45.3c6.2,17.7,22.2,32.1,50.5,45.5c23.2,10.9,47.5,32.3,60.5,44.7C367.8,466.7,314.5,488.5,255.9,488.5z
			 M425.5,414.7c-13.9-13.3-40.7-36.9-67.3-49.6c-22-10.4-34.6-20.9-38.5-32.1c-2.7-7.8-1.5-16.7,3.7-27.3c3.9-8,7.7-14.6,11.1-20.7
			c14.5-25.9,25.7-44.6,25.7-110.9c0-99.2-57.2-104.2-68.6-104.2c-9.3,0-15.1,2.1-20.7,4c-6.1,2.2-12.5,4.4-27,4.7
			c-26.2,0.4-81.1,1.3-81.1,92.6c0,63.8,16.6,93.1,29.7,116.7c3.3,6,6.5,11.7,9,17.4c11.1,25.2,3,42.8-25.5,55.4
			c-36,15.9-53,24.2-88.4,55.4C47.8,374.4,23.3,318,23.3,255.9c0-128.5,104.1-232.6,232.6-232.6s232.6,104.1,232.6,232.6
			C488.5,317.4,464.4,373.1,425.5,414.7z"/>
	</g>
</g>
</svg>
