<svg width="164" height="109" viewBox="0 0 164 109" fill="none" xmlns="http://www.w3.org/2000/svg">
<path d="M61.2598 32.8027C61.2598 34.38 62.5512 35.6709 64.1302 35.6709H75.0168C76.5958 35.6709 77.8876 34.38 77.8876 32.8027V29.8603C77.8876 28.283 76.5958 26.9921 75.0168 26.9921H64.1302C62.5512 26.9921 61.2598 28.283 61.2598 29.8603V32.8027Z" fill="#F79015"/>
<path d="M144.189 52.4367H159.5C168.338 52.4363 175.503 64.6741 175.503 79.7716C175.503 81.7385 175.382 83.6554 175.15 85.5048C173.644 97.5521 167.488 106.656 160.046 107.083L160.045 107.103H144.189C136.501 107.103 130.079 97.8463 128.536 85.5048C128.305 83.6559 128.184 81.7385 128.184 79.7716C128.184 64.6741 135.349 52.4367 144.189 52.4367Z" fill="#3C2B3F"/>
<path d="M23.4917 52.4351H38.8025C47.6404 52.4351 54.806 64.6726 54.806 79.77C54.806 81.7369 54.6843 83.6538 54.4531 85.5032C52.9471 97.5506 46.7912 106.654 39.3488 107.081L39.3483 107.101H23.4917C15.8036 107.101 9.3822 97.8447 7.83882 85.5032C7.60803 83.6543 7.48633 81.7369 7.48633 79.77C7.48588 64.673 14.652 52.4351 23.4917 52.4351Z" fill="#35323D"/>
<path d="M216.39 8.27923C197.07 -3.70282 124.73 -0.774296 109.586 6.02858C97.3479 9.39984 62.7891 40.0718 62.7891 40.0718L214.247 34.3084C214.247 33.4734 214.152 32.1222 213.921 30.4543C221.835 26.6656 231.397 17.5863 216.39 8.27923Z" fill="#FBCD3F"/>
<path d="M199.426 6.58392C195.155 6.02857 190.285 6.02856 189.286 6.02856C173.557 6.02856 120.193 6.02856 112.852 6.02856C102.244 6.02856 63.6367 40.0718 63.6367 40.0718L222.68 36.4942C248.037 36.428 222.458 10.7429 199.426 6.58392Z" fill="#78B4A9"/>
<path d="M75.3323 35.2566C74.3988 35.1174 73.2687 34.9737 71.1542 34.8643C71.5 34.6814 71.8709 34.4716 72.2671 34.2351C74.2748 33.0357 77.2953 31.38 81.243 29.6293C78.5628 32.0768 76.4803 34.0919 75.3323 35.2566ZM71.0262 34.858C70.6426 34.8386 70.227 34.8206 69.7754 34.8039C81.1069 25.2464 104.883 6.02867 112.853 6.02867C113.708 6.02867 116.042 6.02867 118.013 6.02867C117.726 6.02867 117.442 6.02867 117.165 6.02867C117.311 6.02867 117.54 6.02867 117.837 6.03047C116.551 6.0557 115.105 6.35565 113.545 6.87632H112.853C107.439 6.87632 91.9061 17.2842 71.0262 34.858Z" fill="#7B8688"/>
<path d="M170.083 35.1981L158.44 35.0477C163.026 32.5926 161.232 27.3521 156.082 21.991C156.21 21.6757 156.339 21.36 156.468 21.0442C162.555 20.9204 166.144 20.3344 168.73 18.8774L173.405 23.5584C172.327 28.1628 171.193 32.6619 170.083 35.1981ZM231.852 26.718H231.851C231.818 26.6576 231.783 26.5963 231.747 26.5351C231.784 26.5968 231.818 26.6572 231.852 26.718ZM231.542 26.1914C229.905 23.5386 227.147 20.6618 223.689 17.9347C223.675 17.9234 223.661 17.9121 223.647 17.9009C223.865 18.072 224.08 18.2445 224.292 18.4166C227.445 20.9803 229.965 23.6534 231.509 26.1351C231.52 26.1536 231.531 26.1721 231.542 26.1914ZM216.126 12.8789C216.091 12.8591 216.055 12.8393 216.02 12.8195C214.096 11.7353 212.085 10.7345 210.025 9.85219C212.122 10.7503 214.17 11.7723 216.126 12.8789ZM176.048 12.4924C175 12.4924 174.019 12.4924 173.126 12.4924C173.114 12.1236 173.083 11.7434 173.051 11.3435C172.945 10.04 172.828 8.59377 173.298 6.87639H128.77C128.281 6.76964 127.793 6.67192 127.305 6.58409C123.659 6.10982 119.576 6.04045 117.838 6.03054C117.897 6.02919 117.955 6.02874 118.014 6.02874C137.44 6.02874 179.256 6.02874 189.288 6.02874C189.7 6.02874 190.773 6.02875 192.19 6.06793C190.773 6.02875 189.7 6.02874 189.288 6.02874C186.916 6.02874 183.685 6.02874 179.89 6.02874C178.704 6.71245 177.666 7.80106 176.956 9.61168C176.67 10.3386 176.366 11.325 176.048 12.4924ZM210.018 9.8495C210.012 9.8468 210.006 9.84409 210 9.84139C210.005 9.84364 210.013 9.84725 210.018 9.8495ZM209.987 9.83598C209.983 9.83418 209.976 9.83147 209.972 9.82967C209.977 9.83192 209.981 9.83373 209.987 9.83598ZM209.945 9.81797C209.941 9.81662 209.937 9.81481 209.934 9.81346C209.938 9.81526 209.94 9.81617 209.945 9.81797ZM209.914 9.8049C209.911 9.80355 209.906 9.80131 209.903 9.79996C209.907 9.80176 209.91 9.8031 209.914 9.8049ZM209.883 9.7914C209.879 9.79005 209.876 9.78868 209.873 9.78733C209.877 9.78913 209.878 9.7896 209.883 9.7914ZM209.81 9.76077L209.809 9.76032L209.81 9.76077ZM209.777 9.7468C209.776 9.74635 209.778 9.74681 209.776 9.74636L209.777 9.7468ZM200.409 6.77371C200.408 6.77371 200.407 6.77324 200.406 6.77324L200.409 6.77371ZM200.374 6.76649H200.374H200.374ZM200.307 6.75299C200.306 6.75254 200.305 6.75254 200.304 6.75209L200.307 6.75299ZM200.275 6.74622C200.273 6.74622 200.272 6.74577 200.27 6.74531C200.273 6.74577 200.273 6.74577 200.275 6.74622ZM200.174 6.72596C200.173 6.72596 200.174 6.72595 200.172 6.7255C200.172 6.7255 200.171 6.72551 200.17 6.72506C200.171 6.72551 200.172 6.72551 200.174 6.72596ZM200.14 6.71921C200.139 6.71876 200.137 6.71876 200.136 6.71831C200.137 6.71876 200.138 6.71876 200.14 6.71921ZM200.072 6.70568C200.07 6.70523 200.068 6.70479 200.065 6.70434C200.068 6.70479 200.069 6.70523 200.072 6.70568ZM200.039 6.69937C200.038 6.69892 200.035 6.69848 200.034 6.69803C200.035 6.69848 200.038 6.69892 200.039 6.69937ZM199.969 6.68543C199.968 6.68543 199.969 6.68543 199.968 6.68543C199.967 6.68498 199.966 6.68497 199.965 6.68497C199.966 6.68497 199.968 6.68543 199.969 6.68543ZM199.868 6.66605C199.866 6.6656 199.863 6.66516 199.861 6.66471C199.862 6.66516 199.867 6.6656 199.868 6.66605ZM199.838 6.6602C199.834 6.65975 199.831 6.65885 199.828 6.6584C199.83 6.65885 199.835 6.65975 199.838 6.6602ZM199.806 6.65433C199.803 6.65343 199.799 6.65299 199.796 6.65209C199.8 6.65299 199.802 6.65343 199.806 6.65433ZM199.766 6.64624C199.764 6.64624 199.765 6.64624 199.764 6.64624H199.766ZM199.736 6.64083C199.732 6.63993 199.729 6.63949 199.725 6.63859C199.729 6.63949 199.732 6.63993 199.736 6.64083ZM199.698 6.63362C199.698 6.63362 199.696 6.63363 199.695 6.63317H199.694C199.695 6.63317 199.697 6.63362 199.698 6.63362ZM199.67 6.62867C199.668 6.62822 199.665 6.62733 199.663 6.62733C199.664 6.62733 199.669 6.62822 199.67 6.62867ZM199.634 6.62192C199.632 6.62147 199.63 6.621 199.628 6.62055L199.626 6.62011C199.629 6.62056 199.631 6.62102 199.634 6.62192ZM199.602 6.61607C199.598 6.61517 199.596 6.6147 199.591 6.6138C199.594 6.61425 199.599 6.61517 199.602 6.61607ZM199.568 6.60975C199.566 6.6093 199.563 6.60886 199.561 6.60841C199.562 6.60841 199.567 6.6093 199.568 6.60975ZM199.531 6.60254C199.528 6.60209 199.525 6.60165 199.522 6.6012C199.525 6.60165 199.528 6.60209 199.531 6.60254ZM199.5 6.59715C199.496 6.59625 199.492 6.59579 199.489 6.59489C199.492 6.59579 199.497 6.5967 199.5 6.59715ZM199.464 6.59038C199.464 6.59038 199.463 6.59038 199.462 6.59038C199.46 6.58993 199.46 6.58993 199.458 6.58948C199.461 6.58993 199.461 6.58993 199.464 6.59038Z" fill="#5E7D7C"/>
<path d="M117.837 6.03052C117.54 6.02872 117.31 6.02872 117.164 6.02872C117.442 6.02872 117.725 6.02872 118.013 6.02872C117.954 6.02872 117.897 6.02917 117.837 6.03052Z" fill="#625B62"/>
<path d="M152.063 34.7937H149.518V33.5218C149.518 30.4387 156.206 15.0382 157.546 11.9817L158.058 10.817L160.389 11.8385L159.878 13.0032C156.856 19.8903 152.063 31.5508 152.063 33.5218V34.7937Z" fill="#5E7D7C"/>
<path d="M81.2422 29.6293C89.6167 21.9823 103.82 10.1251 113.545 6.87632H128.769C138.184 8.93331 147.835 14.3962 154.106 20.078C153.971 20.4059 153.836 20.7365 153.701 21.0698C148.31 21.0698 141.425 20.8095 131.897 20.4492L131.187 20.4226C129.646 20.3641 128.087 20.3348 126.554 20.3348C106.592 20.3348 91.0528 25.277 81.2422 29.6293Z" fill="url(#paint0_linear_480_8260)"/>
<path d="M71.1534 34.8643C71.1115 34.8625 71.0682 34.8602 71.0254 34.858C91.9052 17.2842 107.438 6.87629 112.852 6.87629H113.545C103.82 10.125 89.6167 21.9823 81.2422 29.6292C77.2945 31.3799 74.274 33.0356 72.2663 34.2351C71.8701 34.4715 71.4991 34.6814 71.1534 34.8643Z" fill="url(#paint1_linear_480_8260)"/>
<path d="M156.467 21.0442C157.637 18.1904 158.858 15.3254 159.877 13.0032L160.388 11.8384L158.056 10.8169L157.545 11.9817C157.005 13.2135 155.596 16.451 154.106 20.0781C147.836 14.3963 138.184 8.93334 128.77 6.87635H173.297C172.827 8.59373 172.944 10.04 173.05 11.3434C173.082 11.7434 173.113 12.1235 173.125 12.4924C172.098 12.4924 171.185 12.4924 170.408 12.4924C160.084 12.4924 167.777 17.9234 167.777 17.9234L168.729 18.8773C166.143 20.3344 162.554 20.9203 156.467 21.0442Z" fill="url(#paint2_linear_480_8260)"/>
<path d="M153.706 21.0697C153.704 21.0697 153.703 21.0697 153.701 21.0697C153.836 20.7364 153.972 20.4058 154.106 20.0779C155.596 16.4508 157.005 13.2134 157.545 11.9815L158.056 10.8168L160.388 11.8383L159.876 13.003C158.858 15.3253 157.637 18.1903 156.467 21.044C155.599 21.0616 154.68 21.0697 153.706 21.0697Z" fill="url(#paint3_linear_480_8260)"/>
<path d="M168.729 18.8772L167.776 17.9232C167.776 17.9232 160.084 12.4923 170.408 12.4923C171.185 12.4923 172.098 12.4923 173.125 12.4923C173.164 13.7223 172.995 14.8213 171.975 16.0707C171.016 17.2458 169.992 18.1656 168.729 18.8772Z" fill="url(#paint4_linear_480_8260)"/>
<path d="M112.852 6.02876C105.179 6.02876 81.5672 24.9245 69.8021 34.7806C68.2519 36.0791 75.9391 36.5052 87.2237 36.5052C108.704 36.5052 143.218 36.6583 151.882 36.6583L162.064 35.0945H162.084C167.869 35.0945 170.523 25.1528 173.064 18.0685C173.988 15.4935 175.269 11.7367 173.845 9.09239C172.119 5.88643 161.193 6.05668 157.963 6.02876C138.418 6.02876 117.276 6.02876 112.852 6.02876ZM113.7 7.72451H155.842C156.033 7.72631 156.27 7.72722 156.534 7.72812C158.489 7.73623 161.76 7.74974 164.769 8.12493C169.465 8.71 170.165 9.77609 170.23 9.8959C171.335 11.9488 170.041 15.5575 169.345 17.4964C169.044 18.3373 168.748 19.1962 168.434 20.1061C166.396 26.0284 164.707 31.703 160.811 31.703L152.752 31.9958C152.752 31.9958 141.35 32.2241 132.311 32.5133C118.064 32.97 74.6955 32.8903 72.5332 32.6628C78.2862 27.8926 85.1732 23.3791 92.576 18.0878C105.192 9.07076 109.897 7.72451 111.579 7.72451H113.7Z" fill="#322D3A"/>
<path d="M151.883 34.9629C146.661 35.6007 139.146 35.4205 129.722 35.2404C121.541 35.0836 111.921 34.9274 101.115 35.3061C64.8437 36.5781 85.8624 34.6787 60.8929 34.6787C35.9238 34.6787 11.7025 42.4657 6.52246 51.5301L3.48979 58.8342C2.50444 61.5664 3.14766 65.8673 3.14766 68.9534L8.9092 82.1606C8.9092 85.2467 8.18664 87.1659 10.4341 87.1659C10.4341 87.1659 9.27882 88.1207 12.1627 88.1207C15.0462 88.1207 15.7575 87.8392 15.7575 82.0791C15.7575 81.9228 15.7598 81.7674 15.7607 81.6115C15.7607 81.5345 15.7575 81.4575 15.7575 81.3805C15.7575 64.4179 23.9518 50.6171 34.0243 50.6171C44.096 50.6171 52.2902 64.4174 52.2902 81.38C52.2902 81.4566 52.2866 81.5336 52.2866 81.6102C52.288 81.766 52.2902 81.9223 52.2902 82.0786C52.2902 86.8204 52.7712 88.1167 55.5091 88.1167C70.4159 88.1167 135.531 88.1167 139.677 88.1167C144.454 88.1167 144.111 86.5876 144.111 83.9131C144.111 83.0866 144.075 82.3096 144.075 81.6575C144.075 71.191 147.163 61.9222 151.883 56.28V34.9629Z" fill="#FBC038"/>
<path d="M242.752 92.8616C242.752 93.8093 241.976 94.5848 241.027 94.5848H35.0933C34.1453 94.5848 33.3691 93.8093 33.3691 92.8616V52.0966C33.3691 51.149 34.1453 50.3738 35.0933 50.3738H241.027C241.976 50.3738 242.752 51.149 242.752 52.0966V92.8616Z" fill="#3C2B3F"/>
<path d="M134.622 107.101H118.766C111.077 107.101 104.656 97.8447 103.113 85.5032C102.881 83.6543 102.76 81.7369 102.76 79.77C102.76 64.673 109.925 52.4351 118.765 52.4351H134.076L135.492 80.5303L134.622 107.101Z" fill="#28252D"/>
<path d="M46.0436 87.1649C46.1707 86.1466 46.2379 85.0908 46.2379 84.0076C46.2379 75.6927 42.2915 68.9529 37.4238 68.9534L46.0436 87.1649Z" fill="#28252D"/>
<path d="M37.4243 68.9536C32.5557 68.9536 28.6094 75.6934 28.6094 84.0083C28.6094 85.0915 28.6765 86.1472 28.8037 87.166L37.4243 68.9536Z" fill="#28252D"/>
<path d="M109.401 50.1257L111.854 50.1369L107.555 89.0444H13.6871C12.1956 89.0444 7.31122 86.524 7.31122 83.4378L2.23438 70.6599C2.23438 67.5738 2.53683 62.8437 3.52173 60.1115L7.10793 50.8341C7.52668 49.6685 15.4045 48.5956 15.9801 47.7034H23.5555H85.43H109.401V50.1257Z" fill="#FBC038"/>
<path d="M135.868 35.5803C110.425 40.3527 95.7336 49.4603 95.7336 49.4603C91.5803 50.271 80.1064 55.3953 80.1064 55.3953H27.6706H20.3828C45.9879 35.5803 71.7927 35.5803 90.036 35.5803H135.868Z" fill="#F79015"/>
<path d="M28.609 46.6624C29.2067 47.1831 33.2098 47.0232 33.2098 47.0232C33.2098 47.0232 31.5434 47.8862 30.0342 48.8221C27.0146 50.6931 24.4206 55.3953 33.3698 55.3953C42.3191 55.3953 31.2887 57.9387 29.8039 57.7266C28.3191 57.5149 19.0913 55.9623 19.0913 55.9623C19.0913 55.9623 10.6581 49.6644 11.6124 49.1342C12.5675 48.6046 20.6982 44.868 20.3823 44.5852C16.9006 41.4666 28.609 46.6624 28.609 46.6624Z" fill="#FBC038"/>
<path d="M76.9492 58.3627C76.9492 58.3627 100.831 34.9629 151.883 34.9629L232.579 36.0052L147.852 43.7377L90.5782 58.3627H76.9492Z" fill="#FBC038"/>
<path d="M257.881 30.3508C269.883 30.3508 274.791 31.8317 274.791 49.4713V59.1189C274.791 62.2051 274.791 61.6051 274.791 64.6913V70.9077H270.709C268.105 59.0342 261.317 50.5459 253.374 50.5459C243.187 50.5459 234.9 64.5025 234.9 81.6575C234.9 82.3096 234.936 83.0866 234.936 83.9131C234.936 86.5876 235.279 88.1167 230.502 88.1167C226.356 88.1167 169.726 88.1167 154.819 88.1167C152.081 88.1167 151.6 86.8204 151.6 82.0786C151.6 81.9223 151.598 81.766 151.596 81.6102C151.596 81.5336 151.6 81.4566 151.6 81.38C151.6 64.4174 143.406 50.6171 133.334 50.6171C123.262 50.6171 113.37 64.4179 113.37 81.3805C113.37 81.4575 110.828 81.5345 110.828 81.6115C110.827 81.7674 113.37 81.9228 113.37 82.0791C113.37 87.8392 106.296 83.8816 103.412 83.8816C100.528 83.8816 108.891 88.1207 108.891 88.1207C106.642 88.1207 101.936 85.2467 101.936 82.1606L103.633 69.3831C103.633 66.9996 105.39 59.5711 108.358 56.1931C108.413 56.1305 97.3477 56.1931 97.3477 56.1931C102.527 47.1288 135.234 38.9179 160.203 38.9179C185.172 38.9179 181.124 38.2734 217.396 37.0019C253.667 35.7304 251.121 30.3508 251.121 30.3508H257.881Z" fill="#F79015"/>
<path d="M207.296 84.8314C202.541 84.8314 198.106 84.6459 195.368 84.6459C191.671 84.6459 185.517 84.6459 179.432 84.6459L179.43 55.1071C179.428 55.0842 179.425 55.0612 179.423 55.0382C201.449 53.3542 226.892 51.5539 235.927 50.9283C229.616 56.7511 225.118 67.4765 224.253 80.0428C223.223 81.3318 221.83 82.4758 219.873 83.4816C219.182 83.8369 218.229 84.1594 217.06 84.4517C213.952 84.7445 210.549 84.8314 207.296 84.8314ZM178.583 84.6459C171.004 84.6459 163.718 84.6459 161.641 84.6459C157.823 84.6459 156.549 84.4337 156.479 81.38C156.479 78.4686 156.259 75.6049 155.829 72.8413H157.2C157.348 73.8601 157.458 74.9946 157.495 76.2328H157.086V77.5043H157.086H157.086V78.7762H157.51C157.51 81.2052 157.51 81.6993 157.51 81.6993C157.51 81.6993 161.129 81.6993 163.196 81.6993C164.626 81.6993 165.876 80.5121 166.51 78.7762H168.853V76.2328H166.953C166.953 76.2179 166.953 76.2031 166.953 76.1882V72.8413H168.853V70.2978H166.491C165.636 68.3544 163.689 66.9888 161.438 66.9888H155.62C155.62 66.9888 156.194 68.1787 156.709 70.2978H155.813V71.5698V72.7377C154.917 67.0406 153.136 61.7722 150.584 57.3938C157.236 56.7768 167.434 55.9571 178.579 55.1026C178.581 55.1184 178.582 55.1333 178.583 55.1486V84.6459Z" fill="url(#paint5_linear_480_8260)"/>
<path d="M145.507 58.4635C145.335 58.391 145.189 58.2883 145.31 58.1707C145.376 58.2676 145.442 58.3653 145.507 58.4635Z" fill="url(#paint6_linear_480_8260)"/>
<path d="M145.507 58.4635C145.442 58.3653 145.376 58.2676 145.311 58.1707C145.376 58.2676 145.442 58.3653 145.507 58.4635Z" fill="url(#paint7_linear_480_8260)"/>
<path d="M150.441 57.1502C146.073 49.7934 139.998 45.742 133.336 45.7424C126.777 45.7424 120.283 49.8186 115.522 56.9259C110.989 63.6923 108.492 72.377 108.492 81.3805H113.371H113.371C113.371 64.4179 123.263 50.6171 133.335 50.6171C143.407 50.6171 151.601 64.4175 151.601 81.3801H156.479C156.479 72.3139 154.335 63.7085 150.441 57.1502Z" fill="#FBCD3F"/>
<path d="M163.932 51.696C163.932 52.6436 164.708 53.4192 165.656 53.4192H169.898C170.846 53.4192 171.622 52.6436 171.622 51.696V49.5529C171.622 48.6053 170.846 47.8302 169.898 47.8302H165.656C164.708 47.8302 163.932 48.6053 163.932 49.5529V51.696Z" fill="#F35E21"/>
<path d="M134.078 52.4351C125.238 52.4351 118.072 64.673 118.072 79.77C118.072 81.7369 118.194 83.6543 118.425 85.5032C119.968 97.8447 126.39 107.101 134.078 107.101C141.764 107.101 148.186 97.8442 149.729 85.5032C149.96 83.6538 150.082 81.7369 150.082 79.77C150.082 64.6726 142.916 52.4351 134.078 52.4351Z" fill="#443D50"/>
<path d="M134.264 59.9616C127.859 59.9616 122.666 68.8296 122.666 79.7698C122.666 81.1949 122.754 82.5844 122.922 83.9243C124.04 92.8671 128.693 99.5745 134.265 99.5745C139.834 99.574 144.487 92.8662 145.606 83.923C145.773 82.583 145.861 81.194 145.861 79.7685C145.861 68.8287 140.669 59.9612 134.264 59.9616Z" fill="#8895A3"/>
<path d="M134.264 61.0212C128.454 61.0212 123.726 69.432 123.726 79.7696C123.726 81.1231 123.81 82.4765 123.974 83.7926C125.041 92.3232 129.368 98.5144 134.264 98.5144C139.159 98.514 143.486 92.3223 144.553 83.7913C144.717 82.4788 144.801 81.1253 144.801 79.7683C144.801 74.6625 143.646 69.8783 141.549 66.2972C139.557 62.8949 136.97 61.0207 134.264 61.0212ZM134.264 100.634C128.186 100.634 123.09 93.8172 121.869 84.0552C121.694 82.6526 121.605 81.2105 121.605 79.7696C121.605 68.0682 127.166 58.9016 134.264 58.9016C137.754 58.9011 140.991 61.1478 143.38 65.227C145.664 69.128 146.922 74.2923 146.922 79.7683C146.922 81.2131 146.833 82.6549 146.658 84.0543C145.437 93.8159 140.341 100.634 134.264 100.634Z" fill="#E1EAE9"/>
<path d="M113.37 98.6353V81.3804L2.23438 70.6599L6.05226 98.6353H113.37Z" fill="#FBC038"/>
<path d="M10.0272 70.2005C9.41239 67.9512 10.8183 66.1108 13.1514 66.1108H89.0926C91.4262 66.1108 92.8091 67.9449 92.1663 70.1861L87.9126 85.0214C87.2698 87.2631 84.8348 89.0967 82.5013 89.0967H19.4354C17.1023 89.0967 14.6898 87.2568 14.075 85.0075L10.0272 70.2005Z" fill="#28252D"/>
<path d="M10.0283 70.2006L10.4371 70.0885C10.3483 69.7651 10.3073 69.4557 10.3073 69.1643C10.3091 68.3936 10.589 67.7514 11.074 67.2879C11.5604 66.8258 12.264 66.5362 13.1525 66.5348H89.0937C89.9745 66.5362 90.6686 66.8199 91.1473 67.2721C91.6238 67.7257 91.8987 68.3535 91.9001 69.1107C91.9001 69.4115 91.8555 69.7327 91.7595 70.07L87.5057 84.9049C87.2168 85.9183 86.5041 86.8714 85.5864 87.5614C84.6695 88.2527 83.5566 88.6743 82.5023 88.673H19.4364C18.3821 88.6743 17.276 88.2518 16.3691 87.5587C15.4617 86.8673 14.7617 85.9125 14.4849 84.8959L10.4371 70.0889L10.0283 70.2006L9.61856 70.3123L13.6668 85.1193C14.0053 86.3521 14.8194 87.4416 15.8543 88.2325C16.8906 89.0221 18.1572 89.5193 19.4364 89.5206H82.5023C83.7811 89.5193 85.0518 89.0243 86.0971 88.2383C87.141 87.451 87.9673 86.3665 88.3211 85.1382L92.5753 70.3029C92.6912 69.8953 92.7484 69.4953 92.7484 69.1107C92.7502 68.1437 92.3824 67.2717 91.7306 66.6564C91.0797 66.0398 90.1584 65.6858 89.0937 65.6872H13.1525C12.0779 65.6858 11.1462 66.047 10.489 66.674C9.82996 67.2987 9.45719 68.1833 9.45899 69.1643C9.45899 69.5354 9.51128 69.9205 9.61856 70.3128L10.0283 70.2006Z" fill="#F79015"/>
<path d="M0 94.6078C0 93.4421 0.954694 92.4882 2.12125 92.4882H103.517C104.684 92.4882 105.639 93.4421 105.639 94.6078V96.5157C105.639 97.6813 104.684 98.6353 103.517 98.6353H2.12125C0.954694 98.6353 0 97.6813 0 96.5157V94.6078Z" fill="#FBC038"/>
<path d="M190.277 3.46496C188.942 3.36632 187.54 3.21634 186.158 3.0596C185.843 1.82595 184.493 0.807571 183.055 1.63496C182.542 1.92952 182.032 2.23401 181.53 2.55019C178.949 2.30832 176.915 2.26238 176.262 2.82899C175.934 3.11364 175.77 3.78023 175.707 4.62068C172.831 1.95565 168.406 1.37824 164.61 1.34536C161.873 1.32149 155.229 6.00523 157.964 6.02865C161.194 6.05657 172.12 5.88632 173.846 9.09229C175.27 11.7366 173.988 15.4934 173.065 18.0684C170.521 25.1604 167.863 35.1179 162.065 35.0945C159.323 35.0832 170.65 38.5671 171.316 35.9421C173.325 28.029 175.147 22.3652 176.483 17.381C178.822 8.65809 183.065 6.02865 190.277 6.02865C201.025 6.02865 196.005 3.88879 190.277 3.46496Z" fill="#FBCD3F"/>
<path d="M228.664 78.9396C228.664 86.4289 203.852 84.6458 195.367 84.6458C186.882 84.6458 165.458 84.6458 161.639 84.6458C157.821 84.6458 156.548 84.4336 156.478 81.3799L151.582 80.212C151.59 80.6003 151.6 80.9881 151.6 81.3799C151.6 81.4565 151.596 81.5335 151.596 81.6101C151.597 81.7659 151.6 81.9222 151.6 82.0785C151.6 86.8203 152.081 88.1166 154.819 88.1166C169.726 88.1166 226.356 88.1166 230.501 88.1166C235.279 88.1166 234.936 86.5875 234.936 83.913C234.936 83.0865 234.899 82.3095 234.899 81.6574C231.455 77.8118 228.664 78.9396 228.664 78.9396Z" fill="#FBCD3F"/>
<path d="M18.3175 85.0075L14.2697 70.2005C13.6549 67.9512 15.0608 66.1108 17.3943 66.1108H13.1514C10.8183 66.1108 9.41239 67.9512 10.0272 70.2005L14.075 85.0075C14.6898 87.2568 17.1023 89.0967 19.4354 89.0967H23.6779C21.3443 89.0967 18.9328 87.2568 18.3175 85.0075Z" fill="#F79015"/>
<path d="M18.3175 85.0075L14.2697 70.2005C13.6549 67.9512 15.0608 66.1108 17.3943 66.1108H13.1514C10.8183 66.1108 9.41239 67.9512 10.0272 70.2005L14.075 85.0075C14.6898 87.2568 17.1023 89.0967 19.4354 89.0967H23.6779C21.3443 89.0967 18.9328 87.2568 18.3175 85.0075Z" stroke="#F79015" stroke-width="1.25494" stroke-miterlimit="10"/>
<path d="M110.871 66.4986C107.374 77.8627 108.165 87.2243 108.337 97.2714L101.455 98.2992C101.455 98.2992 98.6051 78.7855 105.986 60.3109L110.871 66.4986Z" fill="#F79015"/>
<path d="M113.533 98.6353H98.0509C96.8844 98.6353 95.9297 97.6813 95.9297 96.5157V94.6078C95.9297 93.4421 96.8844 92.4882 98.0509 92.4882H113.533V98.6353Z" fill="#F79015"/>
<path d="M72.1547 80.9626C72.1547 81.663 71.5809 82.2363 70.8799 82.2363H41.5467C40.8453 82.2363 40.2715 81.663 40.2715 80.9626V73.2179C40.2715 72.5171 40.8453 71.9437 41.5467 71.9437H70.8799C71.5809 71.9437 72.1547 72.5171 72.1547 73.2179V80.9626Z" fill="#FFFEF6"/>
<path d="M70.8801 82.2363H67.1113V71.9437H70.8801C71.581 71.9437 72.1548 72.5171 72.1548 73.2179V80.9626C72.1548 81.663 71.581 82.2363 70.8801 82.2363Z" fill="#8BC5AB"/>
<path d="M82.1344 74.6783H72.1556V73.2177C72.1556 72.5169 71.5818 71.9435 70.8809 71.9435H41.5476C40.8463 71.9435 40.2725 72.5169 40.2725 73.2177V74.6783H31.1465V68.833H82.1344V74.6783Z" fill="#28252D"/>
<path d="M67.1112 74.6783H40.2715V73.2177C40.2715 72.5169 40.8453 71.9435 41.5467 71.9435H70.8799C71.5809 71.9435 72.1547 72.5169 72.1547 73.2177C72.1547 72.5169 71.5809 71.9435 70.8799 71.9435H67.1112V74.6783Z" fill="#BEBBB5"/>
<path d="M72.1548 74.6783H67.1113V71.9435H70.8801C71.581 71.9435 72.1548 72.5169 72.1548 73.2177V74.6783Z" fill="#6A9288"/>
<path d="M131.972 98.0562C130.556 97.4828 129.234 96.3924 128.08 94.893L128.901 94.847L128.895 94.7344C130.519 94.4011 132.08 92.6324 133.284 90.2646L133.481 90.5561L134.886 89.6062L134.095 88.4374C134.734 86.7871 135.201 84.9787 135.42 83.224C135.526 82.3781 135.591 81.507 135.613 80.6161H139.102C139.074 81.7457 138.991 82.8501 138.856 83.923C138.056 90.33 135.439 95.5884 131.972 98.0562ZM127.125 93.4954C126.026 91.6888 125.137 89.4701 124.543 86.9618L124.747 86.5565C125.398 89.4314 126.336 91.6059 127.097 92.9977L127.125 93.4954Z" fill="#CCD8D7"/>
<path d="M130.89 98.7194C127.521 96.9723 124.8 92.6786 123.498 87.1499L124.257 87.53L124.542 86.9616C125.136 89.4699 126.025 91.6886 127.124 93.4951L127.205 94.9418L128.079 94.8927C129.233 96.3921 130.555 97.4826 131.971 98.0559C131.619 98.3063 131.258 98.5279 130.89 98.7194Z" fill="#E1EAE9"/>
<path d="M124.028 84.2039C124.009 84.0678 123.991 83.9305 123.973 83.7926C123.843 82.7513 123.764 81.6861 123.736 80.616H123.982C124.023 81.7258 124.116 82.777 124.247 83.767L124.028 84.2039Z" fill="#CCD8D7"/>
<path d="M123.216 85.8191C123.1 85.2002 123.001 84.5679 122.921 83.9242C122.787 82.8509 122.703 81.7461 122.676 80.616H123.736C123.764 81.6862 123.843 82.7514 123.974 83.7927C123.991 83.9305 124.009 84.0679 124.028 84.2039L123.216 85.8191Z" fill="#E1EAE9"/>
<path d="M139.101 78.9207H135.596C135.482 76.3299 134.96 73.6843 134.134 71.4147L134.876 70.3621L133.489 69.3856L133.356 69.5744C132.185 67.1868 130.632 65.4946 128.871 65.2068L128.9 64.6866L128.048 64.6389C129.196 63.1422 130.52 62.0481 131.953 61.4752C136.01 64.3479 138.906 71.0341 139.101 78.9207ZM125.053 71.2044L124.965 70.9571C125.526 69.0902 126.259 67.4115 127.127 65.9878L127.09 66.6553C126.444 67.6462 125.67 69.1456 125.053 71.2044Z" fill="#CCD8D7"/>
<path d="M124.964 70.9573L124.757 70.3758L123.963 70.6582C125.387 65.9731 127.875 62.3834 130.881 60.8201C131.246 61.0092 131.604 61.2281 131.953 61.4754C130.52 62.0483 129.196 63.1424 128.048 64.639L127.205 64.5917L127.127 65.988C126.259 67.4117 125.526 69.0904 124.964 70.9573Z" fill="#E1EAE9"/>
<path d="M123.959 78.9207H123.736C123.78 77.2042 123.953 75.5467 124.24 73.9797L124.348 74.2842C124.123 75.6593 123.978 77.2028 123.959 78.9207Z" fill="#CCD8D7"/>
<path d="M123.736 78.9207H122.676C122.735 76.5088 123.048 74.2081 123.568 72.0948L124.24 73.9797C123.953 75.5467 123.78 77.2042 123.736 78.9207Z" fill="#E1EAE9"/>
<path d="M163.195 81.6993C161.129 81.6993 157.509 81.6993 157.509 81.6993C157.509 81.6993 157.509 81.2053 157.509 78.7762H166.51C165.875 80.5121 164.625 81.6993 163.195 81.6993ZM166.952 76.2328H157.495C157.457 74.9947 157.347 73.8601 157.199 72.8413H166.952V76.1882C166.952 76.2031 166.952 76.2179 166.952 76.2328ZM166.49 70.2979H156.708C156.193 68.1787 155.619 66.9888 155.619 66.9888H161.437C163.689 66.9888 165.636 68.3544 166.49 70.2979Z" fill="url(#paint8_linear_480_8260)"/>
<path d="M168.853 72.8413H155.829C155.824 72.8066 155.818 72.772 155.812 72.7377V71.5698V70.2979H156.709H166.491H168.853V72.8413Z" fill="url(#paint9_linear_480_8260)"/>
<path d="M155.829 72.8413H155.812V72.7377C155.818 72.772 155.824 72.8066 155.829 72.8413Z" fill="#F79015"/>
<path d="M168.853 78.7762H157.086V76.2328H168.853V78.7762Z" fill="url(#paint10_linear_480_8260)"/>
<path d="M128.338 65.1637C127.89 65.3961 123.959 69.6605 123.959 79.3054C123.959 88.9503 127.868 94.5439 128.345 94.7911C131.595 94.7911 134.731 88.7413 135.42 83.2239C135.551 82.1767 135.62 81.0904 135.62 79.9765C135.62 72.989 132.486 65.1637 128.338 65.1637Z" fill="#35323D"/>
<path d="M139.112 80.6162H139.102C139.108 80.3352 139.112 80.0527 139.112 79.7685C139.112 79.4843 139.108 79.2019 139.102 78.9209H139.112V80.6162Z" fill="#CCD8D7"/>
<path d="M139.101 80.6162H135.611C135.616 80.4041 135.619 80.191 135.619 79.9766C135.619 79.6262 135.611 79.274 135.596 78.9209H139.101C139.108 79.2019 139.111 79.4843 139.111 79.7685C139.111 80.0527 139.108 80.3352 139.101 80.6162Z" fill="#CCD8D7"/>
<path d="M135.611 80.6162H131.042C131.067 80.3415 131.08 80.06 131.08 79.773C131.08 79.483 131.067 79.1983 131.041 78.9209H135.595C135.611 79.274 135.619 79.6262 135.619 79.9766C135.619 80.191 135.616 80.4041 135.611 80.6162Z" fill="#CCD8D7"/>
<path d="M122.677 80.6162H122.666V79.7699C122.666 80.0537 122.67 80.3356 122.677 80.6162ZM122.666 79.7699V78.9209H122.677C122.67 79.2024 122.666 79.4853 122.666 79.7699Z" fill="#E1EAE9"/>
<path d="M123.983 80.6162H123.737C123.73 80.3343 123.727 80.0523 123.727 79.7699C123.727 79.4853 123.73 79.2024 123.737 78.9209H123.96C123.959 79.0484 123.959 79.1763 123.959 79.3055C123.959 79.751 123.967 80.1883 123.983 80.6162Z" fill="#CCD8D7"/>
<path d="M123.737 80.6162H122.677C122.67 80.3356 122.666 80.0537 122.666 79.7699C122.666 79.4853 122.67 79.2024 122.677 78.9209H123.737C123.73 79.2024 123.727 79.4853 123.727 79.7699C123.727 80.0523 123.73 80.3343 123.737 80.6162Z" fill="#E1EAE9"/>
<path d="M124.756 80.6162H123.983C123.967 80.1883 123.959 79.751 123.959 79.3055C123.959 79.1763 123.959 79.0484 123.961 78.9209H124.757C124.732 79.1988 124.718 79.4835 124.718 79.7735C124.718 80.06 124.731 80.3415 124.756 80.6162Z" fill="#CCD8D7"/>
<path d="M128.078 94.8928C127.746 94.4604 127.427 93.9934 127.124 93.4952L127.096 92.9975C127.7 94.1015 128.193 94.7127 128.343 94.791C128.527 94.791 128.711 94.7717 128.893 94.7343L128.9 94.8469L128.078 94.8928Z" fill="#CCD8D7"/>
<path d="M127.206 94.9421L127.125 93.4954C127.428 93.9936 127.747 94.4607 128.08 94.8931L127.206 94.9421Z" fill="#E1EAE9"/>
<path d="M128.345 94.7911C128.194 94.7128 127.701 94.1016 127.097 92.9976L126.635 84.7598C127.022 85.0471 127.45 85.2061 127.9 85.2061C128.055 85.2061 128.207 85.1872 128.357 85.1503L128.895 94.7344C128.712 94.7718 128.529 94.7911 128.345 94.7911Z" fill="#CCD8D7"/>
<path d="M127.09 66.6555L127.127 65.988C127.42 65.5083 127.727 65.0579 128.049 64.6391L128.901 64.6868L128.871 65.207C128.695 65.1786 128.517 65.1638 128.338 65.1638C128.195 65.2377 127.699 65.7205 127.09 66.6555Z" fill="#CCD8D7"/>
<path d="M127.127 65.9882L127.205 64.5919L128.048 64.6392C127.727 65.0581 127.419 65.5085 127.127 65.9882Z" fill="#E1EAE9"/>
<path d="M126.633 74.7865L127.089 66.6554C127.698 65.7204 128.194 65.2375 128.337 65.1637C128.517 65.1637 128.694 65.1785 128.87 65.2069L128.355 74.3951C128.206 74.3582 128.054 74.3392 127.899 74.3392C127.449 74.3392 127.021 74.4987 126.633 74.7865Z" fill="#CCD8D7"/>
<path d="M133.48 90.5562L126.174 79.76L133.489 69.3859L134.877 70.3624L128.236 79.7798L134.886 89.6063L133.48 90.5562Z" fill="#CCD8D7"/>
<path d="M123.498 87.15L122.74 86.7694L123.217 85.8191C123.302 86.2699 123.396 86.7136 123.498 87.15Z" fill="#E1EAE9"/>
<path d="M124.541 86.9619C124.332 86.0769 124.159 85.1558 124.027 84.2041L124.247 83.7672C124.378 84.7595 124.548 85.6895 124.745 86.5566L124.541 86.9619Z" fill="#CCD8D7"/>
<path d="M124.257 87.53L123.498 87.1499C123.395 86.7135 123.302 86.2698 123.217 85.819L124.028 84.2038C124.16 85.1555 124.332 86.0766 124.542 86.9616L124.257 87.53Z" fill="#E1EAE9"/>
<path d="M124.746 86.5564C124.55 85.6894 124.379 84.7593 124.248 83.7671L125.046 82.1785C125.265 82.9374 125.586 83.5959 125.978 84.1035L124.746 86.5564Z" fill="#CCD8D7"/>
<path d="M123.568 72.0948L123.158 70.9445L123.963 70.6581C123.82 71.1265 123.689 71.6053 123.568 72.0948Z" fill="#E1EAE9"/>
<path d="M124.348 74.2844L124.24 73.9799C124.432 72.9292 124.676 71.918 124.965 70.9573L125.052 71.2046C124.778 72.1193 124.535 73.1436 124.348 74.2844Z" fill="#CCD8D7"/>
<path d="M124.24 73.98L123.568 72.0951C123.689 71.6055 123.82 71.1267 123.963 70.6583L124.757 70.3759L124.964 70.9573C124.675 71.9181 124.432 72.9292 124.24 73.98Z" fill="#E1EAE9"/>
<path d="M125.242 76.7871L124.35 74.2842C124.537 73.1434 124.78 72.1192 125.054 71.2044L126.399 74.9806C125.931 75.4093 125.533 76.0327 125.242 76.7871Z" fill="#CCD8D7"/>
<path d="M128.355 85.1503L128.223 82.7897L129.414 84.5503C129.091 84.8503 128.734 85.057 128.355 85.1503ZM126.633 84.7598C126.398 84.5859 126.178 84.3648 125.977 84.1035L126.534 82.9928L126.633 84.7598Z" fill="#CCD8D7"/>
<path d="M127.899 85.2062C127.45 85.2062 127.022 85.0472 126.634 84.7598L126.535 82.9929L127.313 81.444L128.224 82.7898L128.356 85.1503C128.207 85.1873 128.054 85.2062 127.899 85.2062Z" fill="#CCD8D7"/>
<path d="M130.441 83.0393L128.801 80.6162H131.042C131.032 80.7161 131.022 80.8148 131.01 80.9125C130.911 81.6976 130.714 82.42 130.441 83.0393ZM131.041 78.9208H128.84L130.48 76.5959C130.765 77.271 130.962 78.0624 131.041 78.9208Z" fill="#CCD8D7"/>
<path d="M131.042 80.6162H128.801L128.234 79.7798L128.84 78.9209H131.041C131.066 79.1983 131.08 79.483 131.08 79.773C131.08 80.06 131.066 80.3415 131.042 80.6162Z" fill="#CCD8D7"/>
<path d="M125.046 82.1785C124.931 81.7812 124.843 81.3574 124.787 80.9128C124.775 80.8151 124.765 80.716 124.756 80.616H125.83L125.046 82.1785ZM126.001 78.9207H124.757C124.828 78.1424 124.997 77.4186 125.241 76.7871L126.001 78.9207Z" fill="#CCD8D7"/>
<path d="M125.829 80.6162H124.755C124.73 80.3415 124.717 80.06 124.717 79.7735C124.717 79.4835 124.73 79.1988 124.756 78.9209H126L126.257 79.6406L126.173 79.76L126.222 79.8334L125.829 80.6162Z" fill="#CCD8D7"/>
<path d="M128.217 76.861L128.356 74.395C128.763 74.4946 129.144 74.7256 129.486 75.0621L128.217 76.861ZM126.592 75.5246L126.398 74.9805C126.475 74.9107 126.553 74.8459 126.634 74.7864L126.592 75.5246Z" fill="#CCD8D7"/>
<path d="M127.454 77.9435L126.592 75.5248L126.633 74.7866C127.021 74.4988 127.449 74.3394 127.899 74.3394C128.054 74.3394 128.206 74.3583 128.355 74.3952L128.217 76.8612L127.454 77.9435Z" fill="#CCD8D7"/>
<path d="M129.416 84.5502L128.224 82.7895L127.313 81.4437L128.126 79.8263L127.454 77.9432L128.218 76.8609L129.486 75.062C129.878 75.448 130.217 75.9722 130.481 76.5956L128.841 78.9206L128.236 79.7795L128.802 80.6159L130.442 83.0391C130.168 83.6597 129.818 84.1768 129.416 84.5502ZM126.223 79.8331L126.174 79.7597L126.258 79.6403L126.284 79.7128L126.223 79.8331Z" fill="#CCD8D7"/>
<path d="M125.977 84.1035C125.585 83.5959 125.264 82.9374 125.045 82.1785L125.829 80.6161H126.401L126.534 82.9928L125.977 84.1035Z" fill="#CCD8D7"/>
<path d="M126.402 80.6162H125.83L126.223 79.8334L126.37 80.0505L126.402 80.6162Z" fill="#CCD8D7"/>
<path d="M126.536 82.9928L126.402 80.616H126.753L127.314 81.4439L126.536 82.9928Z" fill="#CCD8D7"/>
<path d="M126.752 80.6162H126.401L126.369 80.0505L126.752 80.6162Z" fill="#CCD8D7"/>
<path d="M126.401 78.9207H126L125.24 76.7871C125.531 76.0327 125.929 75.4093 126.398 74.9805L126.592 75.5246L126.401 78.9207Z" fill="#CCD8D7"/>
<path d="M126.256 79.6407L126 78.921H126.401L126.37 79.4804L126.256 79.6407Z" fill="#CCD8D7"/>
<path d="M126.765 78.9207H126.402L126.593 75.5246L127.454 77.9433L126.765 78.9207Z" fill="#CCD8D7"/>
<path d="M126.371 79.4802L126.403 78.9208H126.766L126.371 79.4802Z" fill="#CCD8D7"/>
<path d="M127.313 81.444L126.752 80.6161L126.37 80.0504L126.223 79.8333L126.283 79.7131L126.257 79.6406L126.37 79.4802L126.764 78.9208L127.454 77.9434L128.125 79.8266L127.313 81.444Z" fill="#CCD8D7"/>
<path d="M110.971 43.7542C109.698 45.6621 108.584 46.6688 105.614 47.5164C102.645 48.3645 85.0385 59.5985 91.8264 59.6512C98.6147 59.7043 96.3339 62.3536 96.3339 62.3536C95.3797 63.0427 74.6973 62.7247 74.6973 62.7247C74.6973 62.7247 78.5683 57.2136 78.7279 57.2136C78.8866 57.2136 97.1295 47.4637 97.1295 47.4637L110.971 43.7542Z" fill="#FBC038"/>
<path d="M110.759 53.6105C110.759 55.0095 109.614 56.1539 108.214 56.1539H81.592C80.192 56.1539 79.9946 55.5117 81.1539 54.7271L86.485 51.1162C87.6439 50.3316 89.7376 49.6893 91.1376 49.6893H108.214C109.614 49.6893 110.759 50.8338 110.759 52.2327V53.6105Z" fill="white"/>
<path d="M99.1445 56.1539H108.213C109.613 56.1539 110.758 55.0095 110.758 53.6105V52.2327C110.758 50.8338 109.613 49.6893 108.213 49.6893H106.142C106.037 49.7398 105.933 49.7898 105.844 49.8307C104.496 50.4523 100.929 53.5817 99.1445 56.1539Z" fill="#F4DFDC"/>
<path d="M51.0949 55.5192C51.0949 55.5192 72.8587 43.4934 109.707 36.0672L105.627 36.4775C64.6248 42.7827 40.8223 55.5025 40.8223 55.5025L51.0949 55.5192Z" fill="white"/>
<path d="M68.1711 55.5192C68.1711 55.5192 85.6924 43.4934 122.54 36.0672L118.46 36.4775C77.458 42.7827 57.8984 55.5025 57.8984 55.5025L68.1711 55.5192Z" fill="white"/>
<path d="M54.1206 52.6564C56.0295 52.5506 53.055 54.4603 51.0951 55.5192C49.1353 56.5781 45.9538 61.2411 45.9538 66.1162H40.2266L41.8173 59.8633C41.8173 59.8633 45.211 55.8358 45.5292 55.7299C45.8479 55.6241 50.5146 53.9283 50.5146 53.9283L54.1206 52.6564Z" fill="white"/>
<path d="M35.7031 66.1164C35.7031 61.2413 38.885 56.5783 40.8444 55.5194C42.8043 54.4605 49.8095 53.8227 47.9001 53.9286L51.5061 55.3064L47.1581 56.472L41.4304 66.2223L35.7031 66.1164Z" fill="white"/>
<path d="M71.2319 52.6564C73.1409 52.5506 70.1664 54.4603 68.2065 55.5192C66.2466 56.5781 63.0652 61.2411 63.0652 66.1162H57.3379L58.9286 59.8633C58.9286 59.8633 62.3223 55.8358 62.6406 55.7299C62.9588 55.6241 67.6259 53.9283 67.6259 53.9283L71.2319 52.6564Z" fill="white"/>
<path d="M52.7891 66.1164C52.7891 61.2413 55.9714 56.5783 57.9308 55.5194C59.8902 54.4605 66.8959 53.8227 64.9865 53.9286L68.5925 55.3064L64.2441 56.472L58.5168 66.2223L52.7891 66.1164Z" fill="white"/>
<path d="M66.9551 66.5402H34.1816V65.7452H66.9551V66.5402Z" fill="#F79015"/>
<path d="M147.558 33.5216C144.425 34.2697 146.221 34.7999 139.951 35.403C133.682 36.0065 114.586 36.5308 102.141 36.5308C89.697 36.5308 67.9166 36.3515 69.9247 34.6787H85.4446L130.991 33.5216H147.558Z" fill="#322D3A"/>
<path d="M46.0243 92.2224H35.7012V89.3961H46.0243V92.2224Z" fill="white"/>
<path d="M63.0658 92.2224H52.7422V89.3961H63.0658V92.2224Z" fill="white"/>
<path d="M41.8767 96.4222V94.4305C41.8767 93.2135 42.8733 92.2177 44.0913 92.2177H33.092C31.8736 92.2177 30.877 93.2135 30.877 94.4305V96.4222C30.877 97.6392 31.8736 98.635 33.092 98.635H44.0913C42.8733 98.635 41.8767 97.6392 41.8767 96.4222Z" fill="white"/>
<path d="M59.6248 96.4222V94.4305C59.6248 93.2135 60.6214 92.2177 61.8393 92.2177H50.8396C49.6216 92.2177 48.625 93.2135 48.625 94.4305V96.4222C48.625 97.6392 49.6216 98.635 50.8396 98.635H61.8393C60.6214 98.635 59.6248 97.6392 59.6248 96.4222Z" fill="white"/>
<path d="M66.9551 89.4849H34.1816V88.6899H66.9551V89.4849Z" fill="#F79015"/>
<path d="M146.296 5.9502C151.425 2.48211 177.536 0.558891 186.699 1.1854C186.699 1.1854 153.147 -2.94748 139.535 5.9502H146.296Z" fill="white"/>
<path d="M135.009 5.9502C140.138 2.4821 173.743 0.64582 183.254 0.857509C183.254 0.857509 145.016 -3.08892 128.248 5.9502H135.009Z" fill="white"/>
<path d="M295.308 109H274.661L18.2276 109C16.0588 108.941 15.3826 109 13.8613 109C13.8613 108.302 13.8613 105.732 16.2393 104.141C18.4164 106.034 20.8812 107.101 23.4919 107.101H39.3486L39.349 107.081C42.4908 106.9 45.4035 105.174 47.834 102.332H109.731C112.303 105.341 115.414 107.101 118.767 107.101H134.078H134.623L134.623 107.086C136.194 106.996 137.707 106.52 139.131 105.71C140.721 106.614 142.421 107.103 144.188 107.103H160.045L160.046 107.083C163.188 106.902 166.101 105.175 168.532 102.332H229.651C232.223 105.341 235.334 107.101 238.687 107.101H253.998H254.543L254.544 107.086C258.872 106.838 262.766 103.653 265.562 98.6619H293.873C300.372 98.6619 302.174 107.05 302.569 109C299.019 109 299.255 109 295.308 109Z" fill="#49484D"/>
<path d="M160.044 107.103H144.188C142.421 107.103 140.721 106.614 139.131 105.71C140.557 104.9 141.895 103.756 143.111 102.332H168.532C166.101 105.175 163.188 106.902 160.045 107.083L160.044 107.103Z" fill="#3A2D3F"/>
<path d="M39.3475 107.101H23.4909C20.8801 107.101 18.4154 106.034 16.2383 104.141C17.1429 102.786 19.2849 102.332 22.2207 102.332H47.833C45.4025 105.174 42.4897 106.9 39.348 107.081L39.3475 107.101Z" fill="#36323D"/>
<path d="M134.622 107.101H134.077C134.26 107.101 134.442 107.096 134.623 107.086L134.622 107.101ZM134.077 107.101H118.766C115.414 107.101 112.302 105.341 109.73 102.332H125.041C127.613 105.341 130.724 107.101 134.077 107.101Z" fill="#2D2932"/>
<path d="M134.077 107.101C130.724 107.101 127.613 105.341 125.041 102.332H143.111C141.894 103.756 140.557 104.9 139.13 105.71C137.706 106.52 136.193 106.996 134.623 107.086C134.441 107.096 134.259 107.101 134.077 107.101Z" fill="#403A4A"/>
<path d="M21.5842 51.7359C20.7534 50.6104 18.9279 49.6893 17.5278 49.6893H7.85015C7.32276 50.2956 6.87607 50.9099 6.52132 51.5301L4.60156 56.1539H22.3004C23.7009 56.1539 24.1661 55.2329 23.3349 54.1073L21.5842 51.7359Z" fill="white"/>
<defs>
<linearGradient id="paint0_linear_480_8260" x1="117.809" y1="-18.2894" x2="122.714" y2="27.1835" gradientUnits="userSpaceOnUse">
<stop stop-color="white"/>
<stop offset="1" stop-color="#8BBEB3"/>
</linearGradient>
<linearGradient id="paint1_linear_480_8260" x1="117.809" y1="-18.2895" x2="122.714" y2="27.1835" gradientUnits="userSpaceOnUse">
<stop stop-color="white"/>
<stop offset="1" stop-color="#8E9497"/>
</linearGradient>
<linearGradient id="paint2_linear_480_8260" x1="117.809" y1="-18.2894" x2="122.715" y2="27.1835" gradientUnits="userSpaceOnUse">
<stop stop-color="white"/>
<stop offset="1" stop-color="#738D8C"/>
</linearGradient>
<linearGradient id="paint3_linear_480_8260" x1="117.81" y1="-18.2895" x2="122.715" y2="27.1834" gradientUnits="userSpaceOnUse">
<stop stop-color="white"/>
<stop offset="1" stop-color="#738D8C"/>
</linearGradient>
<linearGradient id="paint4_linear_480_8260" x1="117.809" y1="-18.2896" x2="122.714" y2="27.1835" gradientUnits="userSpaceOnUse">
<stop stop-color="#A2CDC2"/>
<stop offset="1" stop-color="#77A89F"/>
</linearGradient>
<linearGradient id="paint5_linear_480_8260" x1="187.39" y1="44.6308" x2="188.898" y2="78.9263" gradientUnits="userSpaceOnUse">
<stop stop-color="#DB6E1B"/>
<stop offset="0.784297" stop-color="#F68C13"/>
<stop offset="1" stop-color="#F68C13"/>
</linearGradient>
<linearGradient id="paint6_linear_480_8260" x1="187.387" y1="44.6309" x2="188.895" y2="78.9261" gradientUnits="userSpaceOnUse">
<stop stop-color="#342330"/>
<stop offset="0.784297" stop-color="#3B2A3C"/>
<stop offset="1" stop-color="#3B2A3C"/>
</linearGradient>
<linearGradient id="paint7_linear_480_8260" x1="187.387" y1="44.6309" x2="188.895" y2="78.9261" gradientUnits="userSpaceOnUse">
<stop stop-color="#DB6E1B"/>
<stop offset="0.784297" stop-color="#F68C13"/>
<stop offset="1" stop-color="#F68C13"/>
</linearGradient>
<linearGradient id="paint8_linear_480_8260" x1="187.389" y1="44.6308" x2="188.897" y2="78.9263" gradientUnits="userSpaceOnUse">
<stop stop-color="#7A3819"/>
<stop offset="0.784297" stop-color="#7A381A"/>
<stop offset="1" stop-color="#7A381A"/>
</linearGradient>
<linearGradient id="paint9_linear_480_8260" x1="187.39" y1="44.6308" x2="188.898" y2="78.9263" gradientUnits="userSpaceOnUse">
<stop stop-color="#DB6E1B"/>
<stop offset="0.784297" stop-color="#F68C13"/>
<stop offset="1" stop-color="#F68C13"/>
</linearGradient>
<linearGradient id="paint10_linear_480_8260" x1="187.39" y1="44.6307" x2="188.898" y2="78.9263" gradientUnits="userSpaceOnUse">
<stop stop-color="#DB6E1B"/>
<stop offset="0.784297" stop-color="#F68C13"/>
<stop offset="1" stop-color="#F68C13"/>
</linearGradient>
</defs>
</svg>
