<svg width="896" height="324" viewBox="0 0 896 324" fill="none" xmlns="http://www.w3.org/2000/svg">
  <path d="M42 324C42 321.933 42 314 49.034 309.289C55.474 314.895 62.7647 318.053 70.4874 318.053H117.391L117.393 317.993C126.686 317.459 135.302 312.348 142.491 303.936H325.583C333.19 312.843 342.394 318.053 352.311 318.053H397.601H399.214L399.215 318.008C403.861 317.741 408.335 316.332 412.549 313.936C417.251 316.612 422.281 318.059 427.509 318.059H474.411L474.414 317.999C483.71 317.465 492.327 312.351 499.517 303.936H680.307C687.914 312.843 697.118 318.053 707.035 318.053H752.325H753.939L753.941 318.008C766.743 317.273 778.261 307.845 786.531 293.071H870.277C889.5 293.071 894.832 318.227 896 324C611.333 324 326.667 323.992 42 324Z" fill="#49484D"/>
  <path d="M185.949 97.2397C185.949 101.397 189.351 104.798 193.508 104.798H222.173C226.332 104.798 229.733 101.397 229.733 97.2397V89.4863C229.733 85.329 226.332 81.9277 222.173 81.9277H193.508C189.351 81.9277 185.949 85.329 185.949 89.4863V97.2397" fill="#EF3F35"/>
  <path d="M429.033 156.379H474.495C500.738 156.379 522.015 192.745 522.015 237.609C522.015 243.455 521.655 249.152 520.969 254.647C516.497 290.448 498.218 317.5 476.118 318.769L476.115 318.831H429.033C406.203 318.831 387.135 291.321 382.554 254.647C381.867 249.152 381.506 243.455 381.506 237.609C381.506 192.745 402.782 156.379 429.033 156.379" fill="#28252D"/>
  <path d="M70.6396 156.373H116.104C142.346 156.373 163.624 192.739 163.624 237.604C163.624 243.449 163.264 249.145 162.576 254.641C158.104 290.443 139.825 317.495 117.726 318.764L117.724 318.825H70.6396C47.8116 318.825 28.7436 291.316 24.1623 254.641C23.4743 249.147 23.1143 243.449 23.1143 237.605C23.1143 192.74 44.3916 156.373 70.6396 156.373" fill="#35323D"/>
  <path d="M707.568 69.0518H802.616L827.287 60.2531H666.896L707.568 69.0518Z" fill="#443D50"/>
  <path d="M816.271 243.693C816.271 246.765 813.758 249.278 810.685 249.278H577.142C574.069 249.278 571.557 246.765 571.557 243.693V143.59C571.557 140.518 574.069 138.005 577.142 138.005H810.685C813.758 138.005 816.271 140.518 816.271 143.59V243.693" fill="#3C2B3F"/>
  <path d="M572.614 18.3544C609.777 18.3544 612.163 12.2397 634.289 20.4077C669.022 33.2304 747.817 92.0064 747.817 92.0064L773.749 133.046L509.83 122.338L572.614 18.3544Z" fill="#F03E39"/>
  <path d="M643.426 25.1575C586.06 -10.4505 371.254 -1.74789 326.288 18.4694C289.948 28.4868 187.329 119.635 187.329 119.635L637.064 102.508C637.064 100.025 636.782 96.0108 636.096 91.0548C659.597 79.7948 687.988 52.8148 643.426 25.1575" fill="#F03E39"/>
  <path d="M593.058 20.1188C580.376 18.4695 565.913 18.4694 562.949 18.4694C516.241 18.4694 357.786 18.4694 335.986 18.4694C304.488 18.4694 189.848 119.635 189.848 119.635L662.108 109.003C737.4 108.807 661.448 32.4788 593.058 20.1188Z" fill="#78B4A9"/>
  <path d="M224.574 105.325C221.802 104.911 218.446 104.484 212.167 104.16C213.194 103.616 214.296 102.992 215.471 102.289C221.432 98.7252 230.403 93.8052 242.126 88.6012C234.166 95.8745 227.983 101.864 224.574 105.325ZM211.787 104.14C210.647 104.083 209.414 104.029 208.072 103.98C241.72 75.5786 312.32 18.4692 335.987 18.4692C338.524 18.4692 345.456 18.4692 351.31 18.4692C350.456 18.4692 349.615 18.4692 348.791 18.4692C349.224 18.4692 349.904 18.4692 350.788 18.4732C346.967 18.5492 342.674 19.4399 338.043 20.9879H335.987C319.91 20.9879 273.788 51.9172 211.787 104.14" fill="#7B8688"/>
  <path d="M505.922 105.15L471.348 104.704C484.963 97.4077 479.639 81.8344 464.346 65.9037C464.726 64.9664 465.108 64.0277 465.494 63.0891C483.567 62.7211 494.224 60.9811 501.904 56.6504L515.784 70.5611C512.584 84.2437 509.218 97.6144 505.922 105.15V105.15ZM688.416 78.3877C683.556 70.5024 675.362 61.9531 665.094 53.8464C665.05 53.8104 665.007 53.7771 664.963 53.7411C675.22 61.8184 683.418 70.3398 688.312 78.2091C688.346 78.2678 688.382 78.3277 688.416 78.3864V78.3877ZM642.667 38.8411C642.532 38.7651 642.402 38.6904 642.266 38.6144C634.68 34.3397 626.635 30.5011 618.412 27.3491C626.78 30.5571 634.963 34.4744 642.667 38.8411ZM523.634 37.6757C520.522 37.6757 517.61 37.6757 514.956 37.6757C514.92 36.5811 514.83 35.4504 514.732 34.2624C514.419 30.3891 514.071 26.0904 515.467 20.9878H383.25C381.796 20.6704 380.346 20.3798 378.898 20.1184C368.07 18.7104 355.946 18.5037 350.787 18.4731C350.963 18.4704 351.135 18.4691 351.308 18.4691C408.991 18.4691 533.158 18.4691 562.948 18.4691C564.126 18.4691 567.116 18.4691 571.087 18.5717C567.116 18.4691 564.126 18.4691 562.948 18.4691C555.906 18.4691 546.311 18.4691 535.04 18.4691C531.52 20.4997 528.439 23.7344 526.328 29.1158C525.48 31.2758 524.579 34.2064 523.634 37.6757V37.6757ZM618.403 27.3451C618.334 27.3184 618.26 27.2904 618.19 27.2637C618.26 27.2904 618.334 27.3184 618.403 27.3451ZM618.175 27.2584C618.152 27.2504 618.139 27.2437 618.116 27.2357C618.136 27.2437 618.155 27.2504 618.175 27.2584ZM618.086 27.2238C618.07 27.2184 618.05 27.2104 618.034 27.2037C618.054 27.2117 618.064 27.2158 618.086 27.2238ZM617.991 27.1878C617.966 27.1784 617.944 27.1704 617.918 27.1611C617.943 27.1704 617.967 27.1784 617.991 27.1878ZM617.866 27.1411C617.852 27.1358 617.839 27.1304 617.826 27.1251C617.839 27.1304 617.854 27.1358 617.866 27.1411ZM617.772 27.1051C617.76 27.1011 617.75 27.0971 617.738 27.0917C617.75 27.0971 617.76 27.1011 617.772 27.1051ZM617.675 27.0677C617.666 27.065 617.656 27.0611 617.647 27.0584C617.659 27.0624 617.663 27.0637 617.675 27.0677ZM617.558 27.0238C617.555 27.0224 617.547 27.0198 617.544 27.0184C617.548 27.0198 617.554 27.0224 617.558 27.0238ZM617.463 26.9891C617.456 26.9864 617.451 26.9837 617.444 26.9811C617.454 26.9851 617.455 26.9851 617.463 26.9891ZM617.366 26.9518C617.362 26.9504 617.354 26.9478 617.35 26.9464C617.354 26.9478 617.362 26.9504 617.366 26.9518ZM617.06 26.837C617.056 26.8357 617.058 26.8357 617.054 26.8357L617.06 26.837ZM598.379 21.2037H598.378H598.379ZM597.982 21.1144C597.979 21.1131 597.976 21.1131 597.974 21.1117L597.982 21.1144ZM597.776 21.0691L597.774 21.0677L597.776 21.0691ZM597.68 21.0477C597.678 21.0464 597.672 21.0451 597.67 21.0451L597.68 21.0477ZM597.579 21.0251L597.572 21.0238L597.579 21.0251ZM597.38 20.9811C597.375 20.9797 597.367 20.9784 597.36 20.9771C597.37 20.9784 597.372 20.9797 597.38 20.9811ZM597.286 20.9611C597.279 20.9597 597.271 20.9571 597.264 20.9557C597.274 20.9584 597.276 20.9584 597.286 20.9611ZM597.075 20.9158C597.068 20.9144 597.07 20.9144 597.063 20.9131C597.067 20.9131 597.071 20.9144 597.075 20.9158ZM596.984 20.8958C596.978 20.8944 596.966 20.8918 596.959 20.8904C596.967 20.8918 596.975 20.8931 596.984 20.8958ZM596.878 20.8731C596.875 20.8717 596.872 20.8717 596.868 20.8704C596.872 20.8717 596.874 20.8717 596.878 20.8731ZM596.774 20.8504C596.767 20.8491 596.764 20.8491 596.758 20.8477C596.762 20.8477 596.77 20.8491 596.774 20.8504ZM596.678 20.8304C596.671 20.8291 596.666 20.8278 596.659 20.8264C596.667 20.8278 596.668 20.8277 596.678 20.8304ZM596.583 20.8104C596.576 20.8091 596.568 20.8064 596.562 20.8051C596.57 20.8077 596.575 20.8078 596.583 20.8104ZM596.374 20.7664C596.371 20.7651 596.36 20.7638 596.358 20.7624C596.362 20.7638 596.37 20.7651 596.374 20.7664ZM596.279 20.7464C596.268 20.7438 596.268 20.7437 596.259 20.7424C596.267 20.7437 596.27 20.7438 596.279 20.7464ZM596.18 20.7251C596.176 20.7251 596.167 20.7224 596.164 20.7224C596.168 20.7224 596.176 20.7251 596.18 20.7251ZM596.07 20.7024C596.067 20.7024 596.062 20.7011 596.058 20.6997C596.062 20.7011 596.066 20.7011 596.07 20.7024ZM595.978 20.6837C595.968 20.6811 595.963 20.6811 595.954 20.6784C595.962 20.6797 595.97 20.6824 595.978 20.6837ZM595.878 20.6624C595.872 20.6611 595.867 20.6611 595.86 20.6598C595.864 20.6598 595.874 20.6624 595.878 20.6624ZM595.767 20.6397C595.763 20.6397 595.762 20.6397 595.759 20.6384C595.763 20.6397 595.763 20.6397 595.767 20.6397ZM595.675 20.6211C595.668 20.6198 595.655 20.6171 595.648 20.6158C595.656 20.6171 595.667 20.6198 595.675 20.6211ZM595.583 20.6024C595.574 20.6011 595.562 20.5984 595.551 20.5958C595.56 20.5984 595.575 20.6011 595.583 20.6024ZM595.471 20.5798C595.468 20.5798 595.466 20.5797 595.463 20.5784C595.467 20.5797 595.467 20.5798 595.471 20.5798ZM595.372 20.5598C595.362 20.5584 595.351 20.5558 595.342 20.5544C595.354 20.5571 595.359 20.5571 595.372 20.5598ZM595.283 20.5424C595.27 20.5397 595.258 20.537 595.244 20.5344C595.258 20.537 595.27 20.5397 595.283 20.5424ZM595.188 20.5238C595.179 20.5211 595.164 20.5184 595.155 20.5171C595.167 20.5197 595.176 20.5211 595.188 20.5238ZM595.067 20.4997C595.058 20.4971 595.054 20.4971 595.044 20.4944C595.048 20.4957 595.063 20.4984 595.067 20.4997ZM594.978 20.4811C594.968 20.4797 594.951 20.4758 594.942 20.4744C594.954 20.4771 594.964 20.4784 594.978 20.4811ZM594.882 20.4624C594.872 20.4611 594.862 20.4584 594.852 20.4571C594.864 20.4598 594.87 20.4598 594.882 20.4624ZM594.766 20.4397L594.762 20.4384L594.766 20.4397ZM594.67 20.4211C594.659 20.4184 594.654 20.4184 594.644 20.4158C594.652 20.4171 594.66 20.4198 594.67 20.4211ZM594.58 20.4037C594.571 20.4024 594.555 20.3984 594.546 20.3971C594.558 20.3997 594.568 20.401 594.58 20.4037ZM594.484 20.3851C594.475 20.3838 594.463 20.3811 594.454 20.3798C594.467 20.3811 594.472 20.3824 594.484 20.3851ZM594.37 20.3624C594.356 20.3598 594.344 20.3584 594.331 20.3557C594.343 20.3584 594.356 20.3611 594.37 20.3624ZM594.279 20.3451C594.266 20.3424 594.254 20.3411 594.24 20.3384C594.258 20.3411 594.262 20.3424 594.279 20.3451ZM594.184 20.3277C594.175 20.3251 594.159 20.3224 594.15 20.3211C594.162 20.3238 594.171 20.3251 594.184 20.3277ZM594.063 20.3037C594.054 20.3024 594.048 20.3011 594.039 20.2997C594.047 20.3011 594.055 20.3024 594.063 20.3037ZM593.972 20.2878C593.959 20.2851 593.952 20.2837 593.939 20.2811C593.952 20.2837 593.96 20.2851 593.972 20.2878ZM593.876 20.2691C593.867 20.2677 593.858 20.2651 593.847 20.2637C593.856 20.2651 593.868 20.2677 593.876 20.2691ZM593.779 20.2504C593.77 20.2491 593.764 20.2478 593.755 20.2464C593.763 20.2478 593.771 20.2491 593.779 20.2504ZM593.67 20.2304C593.66 20.2291 593.643 20.2251 593.634 20.2238C593.646 20.2264 593.658 20.2277 593.67 20.2304ZM593.576 20.2131C593.563 20.2104 593.555 20.2091 593.543 20.2064C593.551 20.2077 593.568 20.2118 593.576 20.2131ZM593.474 20.1944C593.468 20.1931 593.459 20.1918 593.452 20.1904C593.458 20.1904 593.47 20.1931 593.474 20.1944ZM593.362 20.1731C593.359 20.1731 593.347 20.1704 593.343 20.1704C593.347 20.1704 593.358 20.1731 593.362 20.1731ZM593.27 20.1571C593.259 20.1544 593.252 20.1531 593.242 20.1518C593.251 20.1531 593.26 20.1544 593.27 20.1571ZM593.174 20.1397C593.164 20.1371 593.159 20.137 593.148 20.1344C593.158 20.1357 593.166 20.1371 593.174 20.1397Z" fill="#5E7D7C"/>
  <path d="M350.788 18.4731C349.904 18.4691 349.224 18.4692 348.791 18.4692C349.615 18.4692 350.456 18.4692 351.31 18.4692C351.136 18.4692 350.964 18.4705 350.788 18.4731Z" fill="#625B62"/>
  <path d="M452.413 103.948H444.855V100.169C444.855 91.0078 464.715 45.2411 468.697 36.1598L470.214 32.6984L477.137 35.7331L475.618 39.1944C466.647 59.6598 452.413 94.3118 452.413 100.169V103.948" fill="#5E7D7C"/>
  <path d="M242.125 88.6011C266.992 65.8771 309.165 30.6424 338.042 20.9878H383.25C411.206 27.0998 439.864 43.3344 458.484 60.2184C458.084 61.1931 457.682 62.1757 457.281 63.165C441.272 63.165 420.828 62.3918 392.536 61.3211L390.428 61.2424C385.85 61.0691 381.224 60.9811 376.67 60.9811C317.398 60.9811 271.257 75.6691 242.125 88.6011" fill="url(#paint0_linear_818_20014)"/>
  <path d="M212.167 104.16C212.043 104.153 211.914 104.146 211.787 104.14C273.788 51.917 319.91 20.9877 335.987 20.9877H338.043C309.166 30.6424 266.992 65.877 242.126 88.601C230.403 93.805 221.432 98.725 215.471 102.289C214.296 102.992 213.194 103.616 212.167 104.16" fill="url(#paint1_linear_818_20014)"/>
  <path d="M465.494 63.0894C468.969 54.6094 472.591 46.096 475.617 39.1947L477.135 35.7334L470.213 32.6987L468.695 36.1601C467.091 39.8201 462.906 49.4401 458.483 60.2187C439.863 43.3347 411.206 27.1001 383.25 20.9881H515.467C514.071 26.0907 514.419 30.3894 514.733 34.2627C514.83 35.4507 514.921 36.5813 514.957 37.676C511.907 37.676 509.197 37.676 506.891 37.676C476.234 37.676 499.075 53.816 499.075 53.816L501.905 56.6507C494.225 60.9814 483.567 62.7214 465.494 63.0894" fill="url(#paint2_linear_818_20014)"/>
  <path d="M457.295 63.165C457.291 63.165 457.285 63.165 457.281 63.165C457.683 62.1757 458.084 61.1931 458.484 60.2184C462.907 49.4398 467.092 39.8198 468.696 36.1598L470.213 32.6984L477.136 35.7331L475.617 39.1944C472.592 46.0957 468.969 54.6091 465.495 63.0891C462.916 63.1411 460.188 63.165 457.295 63.165Z" fill="url(#paint3_linear_818_20014)"/>
  <path d="M526.797 105.42L513.698 105.251L526.797 105.42ZM509.921 105.203L505.922 105.151C509.218 97.6146 512.585 84.2439 515.785 70.5613L518.843 73.6266C516.231 82.6546 513.342 92.7666 510.297 104.592L509.921 105.203ZM647.186 102.36C667.831 99.9639 684.398 95.8813 689.237 88.9693C684.395 95.8799 667.827 99.9639 647.186 102.36ZM569.738 100.623C562.961 100.623 556.866 100.583 551.49 100.547C547.547 100.52 544.111 100.497 541.313 100.497C539.851 100.497 538.562 100.504 537.459 100.519L516.639 100.249C518.841 91.9479 520.949 84.5106 522.911 77.7026L524.515 79.3119C524.515 79.3119 531.865 85.7079 547.091 85.7079C561.306 85.7079 670.842 85.7079 685.341 85.7079C685.33 85.7266 685.321 85.7453 685.31 85.7626C683.923 88.2133 676.942 94.2959 642.143 97.8399C623.747 99.7119 600.065 100.623 569.738 100.623V100.623ZM688.947 79.2826C688.891 79.1893 688.837 79.0986 688.783 79.0079C688.838 79.0986 688.891 79.1893 688.947 79.2826Z" fill="#455A5C"/>
  <path d="M618.413 27.3491C618.409 27.3478 618.409 27.3478 618.404 27.3451C618.408 27.3464 618.409 27.3478 618.413 27.3491ZM618.191 27.2638C618.187 27.2624 618.18 27.2598 618.176 27.2584C618.18 27.2598 618.188 27.2624 618.191 27.2638ZM618.117 27.2358C618.109 27.2331 618.095 27.2278 618.087 27.2238C618.096 27.2278 618.108 27.2318 618.117 27.2358ZM618.035 27.2037C618.021 27.1997 618.005 27.1931 617.992 27.1878C618.005 27.1931 618.021 27.1997 618.035 27.2037ZM617.919 27.1611C617.903 27.1544 617.883 27.1464 617.867 27.1411C617.885 27.1478 617.9 27.1531 617.919 27.1611ZM617.827 27.1251C617.811 27.1198 617.791 27.1118 617.773 27.1051C617.789 27.1118 617.811 27.1198 617.827 27.1251ZM617.739 27.0918C617.717 27.0838 617.696 27.0757 617.676 27.0677C617.695 27.0757 617.719 27.0851 617.739 27.0918ZM617.648 27.0584C617.619 27.0464 617.588 27.0345 617.559 27.0238C617.591 27.0358 617.616 27.0451 617.648 27.0584ZM617.545 27.0185C617.52 27.0091 617.489 26.9984 617.464 26.9891C617.491 26.9984 617.519 27.0091 617.545 27.0185ZM617.445 26.9811C617.421 26.9718 617.391 26.9611 617.367 26.9518C617.395 26.9625 617.417 26.9704 617.445 26.9811ZM617.351 26.9465C617.252 26.9091 617.161 26.8744 617.061 26.8371C617.157 26.8731 617.255 26.9105 617.351 26.9465ZM617.055 26.8358C610.88 24.5304 604.617 22.6184 598.38 21.2037C604.617 22.6184 610.881 24.5304 617.055 26.8358ZM598.379 21.2037C598.245 21.1731 598.117 21.1438 597.983 21.1144C598.116 21.1438 598.247 21.1731 598.379 21.2037ZM597.975 21.1118C597.907 21.0971 597.844 21.0838 597.777 21.0691C597.843 21.0824 597.909 21.0984 597.975 21.1118ZM597.775 21.0677C597.741 21.0611 597.715 21.0544 597.681 21.0478C597.713 21.0544 597.741 21.0611 597.775 21.0677ZM597.671 21.0451C597.637 21.0371 597.613 21.0318 597.58 21.0251C597.612 21.0318 597.637 21.0371 597.671 21.0451ZM597.573 21.0238C597.511 21.0091 597.445 20.9958 597.381 20.9811C597.447 20.9958 597.509 21.0091 597.573 21.0238ZM597.361 20.9771C597.336 20.9718 597.311 20.9664 597.287 20.9611C597.312 20.9664 597.336 20.9718 597.361 20.9771ZM597.265 20.9558C597.236 20.9504 597.203 20.9424 597.173 20.9358C597.203 20.9424 597.236 20.9504 597.265 20.9558ZM597.173 20.9358C597.14 20.9291 597.109 20.9225 597.076 20.9158C597.108 20.9225 597.141 20.9291 597.173 20.9358ZM597.064 20.9131C597.039 20.9078 597.009 20.9011 596.985 20.8958C597.011 20.9011 597.037 20.9065 597.064 20.9131ZM596.96 20.8905C596.935 20.8851 596.904 20.8784 596.879 20.8731C596.908 20.8784 596.931 20.8838 596.96 20.8905ZM596.869 20.8704C596.836 20.8637 596.808 20.8571 596.775 20.8504C596.804 20.8571 596.84 20.8651 596.869 20.8704ZM596.759 20.8478C596.733 20.8424 596.704 20.8358 596.679 20.8304C596.704 20.8358 596.733 20.8411 596.759 20.8478ZM596.66 20.8265C596.635 20.8211 596.609 20.8158 596.584 20.8104C596.609 20.8158 596.635 20.8211 596.66 20.8265ZM596.563 20.8051C596.5 20.7918 596.437 20.7784 596.375 20.7664C596.44 20.7798 596.497 20.7918 596.563 20.8051ZM596.359 20.7625C596.333 20.7571 596.305 20.7518 596.28 20.7465C596.305 20.7518 596.332 20.7571 596.359 20.7625ZM596.26 20.7424C596.235 20.7371 596.207 20.7304 596.181 20.7251C596.207 20.7304 596.233 20.7357 596.26 20.7424ZM596.165 20.7224C596.131 20.7158 596.104 20.7091 596.071 20.7024C596.103 20.7091 596.132 20.7158 596.165 20.7224ZM596.059 20.6998C596.033 20.6944 596.004 20.6891 595.979 20.6838C596.005 20.6891 596.033 20.6944 596.059 20.6998ZM595.955 20.6784C595.929 20.6731 595.904 20.6678 595.879 20.6625C595.905 20.6678 595.928 20.6731 595.955 20.6784ZM595.861 20.6598C595.828 20.6531 595.801 20.6464 595.768 20.6397C595.797 20.6464 595.832 20.6531 595.861 20.6598ZM595.76 20.6384C595.735 20.6331 595.701 20.6265 595.676 20.6211C595.705 20.6278 595.731 20.6331 595.76 20.6384ZM595.649 20.6158C595.624 20.6105 595.609 20.6078 595.584 20.6024C595.607 20.6078 595.627 20.6118 595.649 20.6158ZM595.552 20.5958C595.528 20.5918 595.497 20.5851 595.472 20.5798C595.501 20.5865 595.524 20.5905 595.552 20.5958ZM595.464 20.5784C595.435 20.5731 595.403 20.5665 595.373 20.5598C595.403 20.5665 595.435 20.5731 595.464 20.5784ZM595.343 20.5545C595.325 20.5505 595.3 20.5451 595.284 20.5424C595.303 20.5464 595.323 20.5505 595.343 20.5545ZM595.245 20.5344C595.225 20.5304 595.211 20.5278 595.189 20.5238C595.209 20.5278 595.227 20.5304 595.245 20.5344ZM595.156 20.5171C595.127 20.5104 595.097 20.5051 595.068 20.4998C595.097 20.5051 595.127 20.5104 595.156 20.5171ZM595.045 20.4944C595.02 20.4891 595.004 20.4864 594.979 20.4811C595.001 20.4864 595.023 20.4904 595.045 20.4944ZM594.943 20.4744C594.925 20.4704 594.9 20.4665 594.883 20.4625C594.905 20.4665 594.92 20.4704 594.943 20.4744ZM594.853 20.4571C594.824 20.4505 594.796 20.4451 594.767 20.4397C594.796 20.4451 594.824 20.4505 594.853 20.4571ZM594.763 20.4384C594.733 20.4331 594.7 20.4265 594.671 20.4211C594.699 20.4265 594.733 20.4331 594.763 20.4384ZM594.645 20.4158C594.624 20.4118 594.603 20.4077 594.581 20.4037C594.604 20.4077 594.623 20.4118 594.645 20.4158ZM594.547 20.3971C594.525 20.3931 594.507 20.3891 594.485 20.3851C594.508 20.3891 594.524 20.3931 594.547 20.3971ZM594.455 20.3798C594.429 20.3745 594.396 20.3678 594.371 20.3625C594.396 20.3678 594.429 20.3745 594.455 20.3798ZM594.332 20.3558C594.315 20.3518 594.297 20.3491 594.28 20.3451C594.3 20.3491 594.312 20.3518 594.332 20.3558ZM594.241 20.3384C594.225 20.3344 594.201 20.3304 594.185 20.3278C594.204 20.3318 594.223 20.3344 594.241 20.3384ZM594.151 20.3211C594.121 20.3158 594.093 20.3104 594.064 20.3037C594.093 20.3104 594.121 20.3158 594.151 20.3211ZM594.04 20.2998C594.02 20.2958 593.995 20.2918 593.973 20.2878C593.993 20.2905 594.021 20.2958 594.04 20.2998ZM593.94 20.2811C593.919 20.2771 593.899 20.2731 593.877 20.2691C593.897 20.2731 593.921 20.2771 593.94 20.2811ZM593.848 20.2638C593.828 20.2598 593.801 20.2544 593.78 20.2504C593.803 20.2558 593.825 20.2598 593.848 20.2638ZM593.756 20.2465C593.727 20.2411 593.7 20.2358 593.671 20.2304C593.7 20.2358 593.727 20.2411 593.756 20.2465ZM593.635 20.2238C593.613 20.2198 593.599 20.2171 593.577 20.2131C593.596 20.2171 593.615 20.2198 593.635 20.2238ZM593.544 20.2064C593.519 20.2024 593.5 20.1984 593.475 20.1944C593.497 20.1984 593.521 20.2024 593.544 20.2064ZM593.453 20.1905C593.42 20.1838 593.396 20.1797 593.363 20.1731C593.395 20.1797 593.421 20.1838 593.453 20.1905ZM593.344 20.1704C593.319 20.1651 593.295 20.1611 593.271 20.1571C593.296 20.1611 593.319 20.1651 593.344 20.1704ZM593.243 20.1518C593.217 20.1478 593.2 20.1437 593.175 20.1397C593.197 20.1437 593.22 20.1478 593.243 20.1518ZM593.149 20.1344C593.121 20.1291 593.088 20.1238 593.059 20.1185C593.087 20.1238 593.121 20.1291 593.149 20.1344Z" fill="#BC312B"/>
  <path d="M642.267 38.6143C642.231 38.5943 642.192 38.5729 642.156 38.5529C626.879 29.9569 609.744 23.1343 593.059 20.1183C590.593 19.797 588.061 19.5396 585.561 19.3316C588.063 19.5396 590.595 19.797 593.059 20.1183C593.088 20.1236 593.121 20.1289 593.149 20.1342C593.16 20.1369 593.165 20.1369 593.175 20.1396C593.2 20.1436 593.217 20.1476 593.243 20.1516C593.253 20.153 593.26 20.1543 593.271 20.157C593.295 20.161 593.319 20.1649 593.344 20.1702C593.348 20.1702 593.36 20.1729 593.363 20.1729C593.396 20.1796 593.42 20.1836 593.453 20.1903C593.46 20.1916 593.469 20.1929 593.475 20.1943C593.5 20.1983 593.519 20.2023 593.544 20.2063C593.556 20.2089 593.564 20.2103 593.577 20.213C593.599 20.217 593.613 20.2196 593.635 20.2236C593.644 20.225 593.661 20.2289 593.671 20.2303C593.7 20.2356 593.727 20.241 593.756 20.2463C593.765 20.2476 593.771 20.2489 593.78 20.2503C593.801 20.2543 593.828 20.2596 593.848 20.2636C593.859 20.2649 593.868 20.2676 593.877 20.2689C593.899 20.2729 593.919 20.2769 593.94 20.2809C593.953 20.2836 593.96 20.285 593.973 20.2876C593.995 20.2916 594.02 20.2956 594.04 20.2996C594.049 20.3009 594.055 20.3022 594.064 20.3036C594.093 20.3102 594.121 20.3156 594.151 20.321C594.16 20.3223 594.176 20.3249 594.185 20.3276C594.201 20.3303 594.225 20.3343 594.241 20.3383C594.255 20.3409 594.267 20.3423 594.28 20.3449C594.297 20.3489 594.315 20.3516 594.332 20.3556C594.345 20.3583 594.357 20.3596 594.371 20.3623C594.396 20.3676 594.429 20.3743 594.455 20.3796C594.464 20.381 594.476 20.3836 594.485 20.385C594.507 20.389 594.525 20.3929 594.547 20.3969C594.556 20.3983 594.572 20.4022 594.581 20.4036C594.603 20.4076 594.624 20.4116 594.645 20.4156C594.655 20.4183 594.66 20.4183 594.671 20.421C594.7 20.4263 594.733 20.4329 594.763 20.4383L594.767 20.4396C594.796 20.4449 594.824 20.4503 594.853 20.457C594.863 20.4583 594.873 20.461 594.883 20.4623C594.9 20.4663 594.925 20.4703 594.943 20.4743C594.952 20.4756 594.969 20.4796 594.979 20.4809C595.004 20.4863 595.02 20.4889 595.045 20.4943C595.055 20.4969 595.059 20.4969 595.068 20.4996C595.097 20.5049 595.127 20.5103 595.156 20.5169C595.165 20.5183 595.18 20.521 595.189 20.5236C595.211 20.5276 595.225 20.5302 595.245 20.5342C595.259 20.5369 595.271 20.5396 595.284 20.5423C595.3 20.5449 595.325 20.5503 595.343 20.5543C595.352 20.5556 595.363 20.5583 595.373 20.5596C595.403 20.5663 595.435 20.5729 595.464 20.5783C595.467 20.5796 595.469 20.5796 595.472 20.5796C595.497 20.585 595.528 20.5916 595.552 20.5956C595.563 20.5983 595.575 20.6009 595.584 20.6023C595.609 20.6076 595.624 20.6103 595.649 20.6156C595.656 20.617 595.669 20.6196 595.676 20.621C595.701 20.6263 595.735 20.6329 595.76 20.6383C595.763 20.6396 595.764 20.6396 595.768 20.6396C595.801 20.6463 595.828 20.653 595.861 20.6596C595.868 20.661 595.873 20.661 595.879 20.6623C595.904 20.6676 595.929 20.6729 595.955 20.6783C595.964 20.6809 595.969 20.6809 595.979 20.6836C596.004 20.6889 596.033 20.6943 596.059 20.6996C596.063 20.7009 596.068 20.7023 596.071 20.7023C596.104 20.7089 596.131 20.7156 596.165 20.7223C596.168 20.7223 596.177 20.7249 596.181 20.7249C596.207 20.7303 596.235 20.7369 596.26 20.7423C596.269 20.7436 596.269 20.7436 596.28 20.7463C596.305 20.7516 596.333 20.757 596.359 20.7623C596.361 20.7636 596.372 20.7649 596.375 20.7663C596.437 20.7783 596.5 20.7916 596.563 20.8049C596.569 20.8063 596.577 20.809 596.584 20.8103C596.609 20.8156 596.635 20.821 596.66 20.8263C596.667 20.8276 596.672 20.8289 596.679 20.8303C596.704 20.8356 596.733 20.8423 596.759 20.8476C596.765 20.8489 596.768 20.8489 596.775 20.8503C596.808 20.8569 596.836 20.8636 596.869 20.8702C596.873 20.8716 596.876 20.8716 596.879 20.8729C596.904 20.8783 596.935 20.885 596.96 20.8903C596.967 20.8916 596.979 20.8943 596.985 20.8956C597.009 20.901 597.039 20.9076 597.064 20.913C597.071 20.9143 597.069 20.9143 597.076 20.9156C597.109 20.9223 597.14 20.9289 597.173 20.9356C597.203 20.9423 597.236 20.9503 597.265 20.9556C597.272 20.9569 597.28 20.9596 597.287 20.9609C597.311 20.9663 597.336 20.9716 597.361 20.977C597.368 20.9783 597.376 20.9796 597.381 20.9809C597.445 20.9956 597.511 21.009 597.573 21.0236L597.58 21.0249C597.613 21.0316 597.637 21.0369 597.671 21.0449C597.673 21.0449 597.679 21.0463 597.681 21.0476C597.715 21.0543 597.741 21.0609 597.775 21.0676L597.777 21.0689C597.844 21.0836 597.907 21.0969 597.975 21.1116C597.977 21.1129 597.98 21.1129 597.983 21.1143C598.117 21.1436 598.245 21.1729 598.379 21.2036H598.38C604.617 22.6182 610.88 24.5303 617.055 26.8356C617.059 26.8356 617.057 26.8356 617.061 26.8369C617.161 26.8742 617.252 26.909 617.351 26.9463C617.355 26.9476 617.363 26.9503 617.367 26.9516C617.391 26.961 617.421 26.9716 617.445 26.9809C617.452 26.9836 617.457 26.9863 617.464 26.9889C617.489 26.9983 617.52 27.009 617.545 27.0183C617.548 27.0196 617.556 27.0223 617.559 27.0236C617.588 27.0343 617.619 27.0463 617.648 27.0583C617.657 27.0609 617.667 27.0649 617.676 27.0676C617.696 27.0756 617.717 27.0836 617.739 27.0916C617.751 27.0969 617.761 27.1009 617.773 27.1049C617.791 27.1116 617.811 27.1196 617.827 27.1249C617.84 27.1303 617.853 27.1356 617.867 27.141C617.883 27.1463 617.903 27.1543 617.919 27.1609C617.945 27.1703 617.967 27.1783 617.992 27.1876C618.005 27.193 618.021 27.1996 618.035 27.2036C618.051 27.2102 618.071 27.2183 618.087 27.2236C618.095 27.2276 618.109 27.2329 618.117 27.2356C618.14 27.2436 618.153 27.2503 618.176 27.2583C618.18 27.2596 618.187 27.2623 618.191 27.2636C618.261 27.2903 618.335 27.3183 618.404 27.3449C618.409 27.3476 618.409 27.3476 618.413 27.349C626.636 30.501 634.681 34.3396 642.267 38.6143V38.6143ZM530.337 37.6756C528.015 37.6756 525.779 37.6756 523.635 37.6756C524.58 34.2063 525.481 31.2756 526.329 29.1156C528.44 23.7343 531.521 20.4996 535.041 18.4689C546.312 18.4689 555.907 18.4689 562.949 18.4689C564.127 18.4689 567.117 18.4689 571.088 18.5716C568.736 18.5103 566.729 18.4863 565.24 18.4756C548.869 18.5996 537.717 23.4249 530.337 37.6756ZM585.524 19.3276C585.523 19.3276 585.52 19.3276 585.517 19.3276C585.52 19.3276 585.521 19.3276 585.524 19.3276Z" fill="#455A5C"/>
  <path d="M515.786 70.561L501.906 56.6504C505.657 54.5344 508.698 51.8024 511.546 48.3104C514.574 44.5971 515.078 41.3317 514.958 37.6757C517.612 37.6757 520.524 37.6757 523.636 37.6757C521.249 46.4264 518.582 58.6117 515.786 70.561Z" fill="#6FA39B"/>
  <path d="M501.905 56.6504L499.076 53.8158C499.076 53.8158 476.235 37.6757 506.892 37.6757C509.197 37.6757 511.908 37.6757 514.957 37.6757C515.077 41.3317 514.573 44.5971 511.545 48.3104C508.697 51.8024 505.656 54.5344 501.905 56.6504" fill="url(#paint4_linear_818_20014)"/>
  <path d="M664.964 53.7412C658.291 48.4852 650.741 43.4159 642.668 38.8412C651.313 43.7199 658.768 48.7159 664.964 53.7412Z" fill="#9B9185"/>
  <path d="M665.096 53.8467C660.51 50.228 655.516 46.7 650.216 43.356C650.198 43.3453 650.185 43.3374 650.169 43.3267C650.156 43.3187 650.146 43.3133 650.134 43.3053C650.106 43.288 650.076 43.268 650.048 43.2507C650.044 43.248 650.042 43.2467 650.037 43.244C647.512 41.656 644.917 40.108 642.268 38.6146C642.404 38.6906 642.534 38.7653 642.669 38.8413C650.742 43.416 658.292 48.4853 664.965 53.7413C665.009 53.7773 665.052 53.8107 665.096 53.8467" fill="#6FA39B"/>
  <path d="M685.341 85.708C670.843 85.708 561.307 85.708 547.092 85.708C531.865 85.708 524.516 79.312 524.516 79.312L522.912 77.7027C523.227 76.6093 523.539 75.5333 523.845 74.4706C532.465 69.412 547.445 66.0333 563.753 66.0333L564.7 66.036C567.895 66.0613 571.159 66.072 574.467 66.072C582.899 66.072 591.737 66.0026 600.285 65.9373C608.618 65.872 617.236 65.8053 625.251 65.8053C651.44 65.8053 666.356 66.5706 674.073 68.54C678.229 72.788 681.633 76.9947 684.1 80.9853C684.289 81.3093 684.489 81.648 684.704 82.0027C686.057 84.256 685.609 85.228 685.341 85.708V85.708ZM518.844 73.6267L515.785 70.5613C518.581 58.612 521.248 46.4266 523.635 37.676C525.779 37.676 528.015 37.676 530.337 37.676C528.241 41.7226 526.449 46.5293 524.929 52.2027C523.161 58.8027 521.107 65.808 518.844 73.6267ZM650.215 43.356C650.2 43.348 650.182 43.336 650.168 43.3267C650.184 43.3374 650.197 43.3453 650.215 43.356ZM650.133 43.3053C650.107 43.288 650.073 43.268 650.047 43.2506C650.075 43.268 650.105 43.288 650.133 43.3053ZM650.036 43.244C647.476 41.6333 644.845 40.0667 642.156 38.5533C642.192 38.5733 642.231 38.5946 642.267 38.6146C644.916 40.108 647.511 41.656 650.036 43.244Z" fill="#689994"/>
  <path d="M629.725 37.6758C610.008 37.6758 567.443 37.6758 536.088 37.6758C538.069 34.3864 540.323 31.7704 542.903 29.7318C548.172 25.5704 555.273 23.5945 565.243 23.5145C571.097 23.5558 582.339 23.8158 592.284 25.0998C604.948 27.4025 617.759 31.9078 629.725 37.6758" fill="url(#paint5_linear_818_20014)"/>
  <path d="M523.846 74.4707C524.112 73.5494 524.376 72.6374 524.638 71.7374C526.506 65.2987 528.268 59.2174 529.798 53.5081C531.532 47.0321 533.594 41.82 536.088 37.676C567.443 37.676 610.008 37.676 629.726 37.676C647.432 46.2134 663.287 57.516 674.074 68.54C666.356 66.5707 651.44 65.8054 625.251 65.8054C617.236 65.8054 608.619 65.872 600.286 65.9374C591.738 66.0027 582.899 66.0721 574.467 66.0721C571.159 66.0721 567.895 66.0614 564.7 66.0361L563.754 66.0334C547.446 66.0334 532.466 69.412 523.846 74.4707" fill="url(#paint6_linear_818_20014)"/>
  <path d="M335.987 18.468C313.204 18.468 243.091 74.6201 208.156 103.911C203.553 107.769 226.38 109.035 259.889 109.035C323.669 109.035 426.155 109.491 451.88 109.491L482.116 104.843H482.176C499.351 104.843 507.232 75.3001 514.779 54.2467C517.52 46.5947 521.325 35.4307 517.099 27.5734C511.973 18.0454 479.529 18.552 469.939 18.468C411.901 18.468 349.125 18.468 335.987 18.468V18.468ZM338.507 23.5081H463.639C464.208 23.5121 464.911 23.5161 465.695 23.5188C471.5 23.5428 481.215 23.5827 490.147 24.6974C504.091 26.4374 506.172 29.6054 506.363 29.9601C509.644 36.0614 505.8 46.7854 503.736 52.5467C502.841 55.0454 501.961 57.5987 501.032 60.3014C494.977 77.9 489.963 94.7641 478.397 94.7641L454.464 95.6334C454.464 95.6334 420.607 96.3134 393.767 97.1734C351.463 98.5294 222.685 98.2921 216.267 97.6174C233.348 83.4401 253.797 70.0294 275.781 54.304C313.24 27.508 327.212 23.5081 332.207 23.5081H338.507" fill="#474455"/>
  <path d="M451.88 104.452C436.376 106.347 414.06 105.812 386.078 105.276C361.784 104.811 333.22 104.347 301.135 105.472C193.431 109.252 255.842 103.607 181.699 103.607C107.556 103.607 35.6336 126.748 20.2536 153.685L11.2483 175.391C8.32295 183.509 10.2323 196.289 10.2323 205.461L27.3403 244.709C27.3403 253.88 25.1936 259.583 31.8683 259.583C31.8683 259.583 28.4376 262.421 37.0016 262.421C45.5656 262.421 47.6749 261.584 47.6749 244.467C47.6749 244.003 47.6816 243.54 47.6856 243.077C47.6843 242.848 47.6749 242.62 47.6749 242.391C47.6749 191.983 72.0083 150.972 101.916 150.972C131.823 150.972 156.154 191.981 156.154 242.389C156.154 242.617 156.144 242.845 156.143 243.073C156.147 243.537 156.154 244 156.154 244.465C156.154 258.557 157.583 262.408 165.714 262.408C209.976 262.408 403.327 262.408 415.636 262.408C429.823 262.408 428.804 257.865 428.804 249.916C428.804 247.461 428.698 245.152 428.698 243.213C428.698 212.111 437.867 184.567 451.88 167.8V104.452" fill="#E62530"/>
  <path d="M721.707 276.511C721.707 279.325 719.402 281.629 716.587 281.629H105.094C102.278 281.629 99.9736 279.325 99.9736 276.511V155.368C99.9736 152.552 102.278 150.248 105.094 150.248H716.587C719.402 150.248 721.707 152.552 721.707 155.368V276.511Z" fill="#3C2B3F"/>
  <path d="M756.717 318.825H709.633C686.803 318.825 667.735 291.316 663.154 254.641C662.467 249.147 662.107 243.449 662.107 237.605C662.106 192.74 683.383 156.373 709.633 156.373H755.095L759.301 239.864L756.717 318.825" fill="#28252D"/>
  <path d="M400.629 318.825H353.546C330.718 318.825 311.649 291.316 307.068 254.641C306.381 249.147 306.02 243.449 306.02 237.605C306.02 192.74 327.296 156.373 353.546 156.373H399.009L403.214 239.864L400.629 318.825Z" fill="#28252D"/>
  <path d="M137.607 259.581C137.984 256.554 138.183 253.417 138.183 250.197C138.183 225.489 126.464 205.46 112.011 205.461L137.607 259.581Z" fill="#28252D"/>
  <path d="M112.01 205.461C97.5542 205.461 85.8369 225.491 85.8369 250.2C85.8369 253.419 86.0342 256.556 86.4129 259.583L112.01 205.461Z" fill="#28252D"/>
  <path d="M325.735 149.512L320.257 149.544V265.167H41.5275C37.0995 265.167 22.5955 257.676 22.5955 248.505L7.51953 210.533C7.51953 201.361 8.41819 187.305 11.3422 179.186L21.9929 151.616C23.2355 148.152 46.6275 144.964 48.3369 142.313H70.8302H254.558H325.735V149.512" fill="#EF3F35"/>
  <path d="M404.324 106.287C328.776 120.469 285.152 147.535 285.152 147.535C272.819 149.944 229.652 173.989 229.652 173.989L83.0482 172.099L61.4082 165.171C137.44 106.287 214.064 106.287 268.232 106.287H404.324Z" fill="#F03E39"/>
  <path d="M85.8376 139.22C87.611 140.766 99.4989 140.292 99.4989 140.292C99.4989 140.292 94.5496 142.857 90.067 145.637C81.103 151.197 73.399 165.17 99.9736 165.17C126.547 165.17 84.3803 176.526 79.9256 176.526C74.6696 176.526 66.9083 177.026 66.9083 177.026C66.9083 177.026 32.5336 148.14 35.3683 146.565C38.203 144.99 62.3456 133.888 61.4083 133.046C51.0683 123.78 85.8376 139.22 85.8376 139.22" fill="#E62530"/>
  <path d="M229.375 173.989C229.375 173.989 300.288 104.452 451.88 104.452L691.498 107.549L439.912 130.527L269.844 173.989H229.375Z" fill="#F03E39"/>
  <path d="M766.63 90.7468C802.269 90.7468 816.841 95.1467 816.841 147.567V176.236C816.841 185.407 816.841 183.624 816.841 192.795V211.269H804.719C796.986 175.985 776.833 150.76 753.246 150.76C722.999 150.76 698.39 192.235 698.39 243.213C698.39 245.152 698.497 247.461 698.497 249.916C698.497 257.865 699.515 262.408 685.33 262.408C673.019 262.408 504.865 262.408 460.601 262.408C452.47 262.408 451.041 258.557 451.041 244.465C451.041 244 451.035 243.537 451.03 243.073C451.031 242.845 451.041 242.617 451.041 242.389C451.041 191.981 426.711 150.972 396.805 150.972C366.895 150.972 337.523 191.983 337.523 242.391C337.523 242.62 329.974 242.848 329.975 243.077C329.971 243.54 337.523 244.003 337.523 244.467C337.523 261.584 316.517 249.823 307.954 249.823C299.39 249.823 324.222 262.421 324.222 262.421C317.547 262.421 303.573 253.88 303.573 244.709L308.613 206.737C308.613 197.567 317.357 163.985 331.331 162.793L289.947 167.543C305.327 140.605 402.445 116.205 476.587 116.205C550.731 116.205 538.709 114.291 646.413 110.512C754.118 106.732 746.555 90.7468 746.555 90.7468H766.63Z" fill="#D82928"/>
  <path d="M810.821 107.526C807.127 100.173 789.067 98.2557 774.456 98.2557C765.275 98.2557 757.457 99.013 755.42 99.6517L763.671 95.0144L774.869 90.861C792.867 91.4197 804.476 94.4637 810.821 107.526" fill="#B22423"/>
  <path d="M751.436 138.005H724.213L713.268 144.89L717.78 150.522L744.452 148.084L751.436 138.005" fill="#28252D"/>
  <path d="M809.231 211.269H804.721C796.987 175.985 776.834 150.76 753.247 150.76C753.221 150.76 753.194 150.76 753.167 150.76C753.159 150.76 753.153 150.76 753.145 150.76C753.125 150.76 753.105 150.761 753.085 150.761C753.077 150.761 753.07 150.761 753.062 150.761C753.035 150.761 753.009 150.761 752.983 150.761C752.982 150.761 752.981 150.761 752.979 150.761C752.954 150.761 752.927 150.761 752.902 150.762C752.894 150.762 752.886 150.762 752.878 150.762C752.858 150.762 752.841 150.762 752.822 150.762C752.814 150.762 752.803 150.764 752.795 150.764C752.77 150.764 752.747 150.764 752.722 150.764C752.718 150.764 752.713 150.765 752.709 150.765C752.685 150.765 752.662 150.765 752.638 150.765C752.63 150.766 752.621 150.766 752.613 150.766C752.593 150.766 752.574 150.766 752.555 150.768C752.546 150.768 752.539 150.768 752.531 150.768C752.506 150.769 752.481 150.769 752.455 150.769C752.451 150.769 752.449 150.77 752.445 150.77C752.421 150.77 752.395 150.772 752.373 150.772C752.365 150.772 752.355 150.772 752.347 150.772C752.329 150.773 752.31 150.773 752.291 150.774C752.283 150.774 752.274 150.774 752.266 150.774C752.239 150.776 752.214 150.776 752.187 150.777C752.186 150.777 752.183 150.777 752.182 150.777C752.158 150.778 752.133 150.778 752.107 150.78C752.099 150.78 752.091 150.78 752.083 150.781C752.063 150.781 752.043 150.782 752.025 150.782C752.017 150.782 752.01 150.784 752.002 150.784C751.977 150.785 751.949 150.785 751.922 150.786H751.921C751.894 150.788 751.869 150.789 751.842 150.79C751.835 150.79 751.829 150.79 751.821 150.79C751.801 150.792 751.781 150.793 751.759 150.793C751.753 150.794 751.745 150.794 751.738 150.794C751.711 150.796 751.685 150.797 751.659 150.798C751.657 150.798 751.654 150.798 751.651 150.798C751.627 150.8 751.603 150.801 751.579 150.802C751.571 150.802 751.563 150.804 751.555 150.804C751.535 150.805 751.515 150.805 751.497 150.806C751.489 150.806 751.482 150.808 751.474 150.808C751.447 150.809 751.421 150.81 751.395 150.812C751.393 150.812 751.39 150.813 751.387 150.813C751.363 150.814 751.339 150.816 751.317 150.817C751.306 150.817 751.299 150.817 751.29 150.818C751.273 150.82 751.253 150.821 751.235 150.821C751.227 150.822 751.217 150.822 751.209 150.824C751.183 150.825 751.161 150.826 751.135 150.828C751.13 150.828 751.123 150.829 751.118 150.829C751.095 150.83 751.075 150.832 751.054 150.833C751.045 150.833 751.035 150.834 751.025 150.834C751.007 150.836 750.99 150.837 750.973 150.838C750.965 150.84 750.953 150.84 750.945 150.841C750.921 150.842 750.899 150.844 750.875 150.845C750.869 150.846 750.859 150.846 750.853 150.848C750.833 150.849 750.811 150.85 750.79 150.852C750.781 150.852 750.771 150.853 750.762 150.854C750.746 150.856 750.727 150.857 750.711 150.857C750.701 150.858 750.693 150.86 750.681 150.86C750.658 150.862 750.635 150.864 750.611 150.865C750.605 150.866 750.597 150.866 750.59 150.868C750.569 150.869 750.549 150.87 750.527 150.872C750.518 150.873 750.509 150.874 750.499 150.874C750.482 150.876 750.463 150.877 750.446 150.88C750.437 150.88 750.429 150.881 750.421 150.881C750.395 150.884 750.371 150.885 750.347 150.888C750.341 150.888 750.333 150.889 750.326 150.889C750.306 150.892 750.286 150.893 750.266 150.894C750.257 150.896 750.245 150.897 750.235 150.898C750.219 150.9 750.203 150.901 750.187 150.902C750.177 150.904 750.166 150.904 750.155 150.905C750.134 150.908 750.111 150.909 750.09 150.912C750.079 150.913 750.071 150.913 750.062 150.914C750.043 150.916 750.023 150.918 750.003 150.92C749.994 150.921 749.983 150.922 749.974 150.922C749.955 150.925 749.941 150.926 749.923 150.928C749.914 150.929 749.905 150.93 749.895 150.93C749.873 150.933 749.85 150.936 749.829 150.937C749.819 150.938 749.807 150.94 749.798 150.941C749.778 150.942 749.761 150.945 749.742 150.946C749.731 150.948 749.722 150.949 749.711 150.95C749.697 150.952 749.679 150.953 749.663 150.956C749.653 150.956 749.642 150.957 749.631 150.958C749.611 150.961 749.593 150.962 749.571 150.965C749.559 150.966 749.545 150.969 749.531 150.97C749.514 150.972 749.501 150.973 749.483 150.976C749.471 150.977 749.458 150.978 749.447 150.98C749.433 150.981 749.418 150.982 749.403 150.985C749.393 150.986 749.381 150.988 749.37 150.989C749.351 150.99 749.333 150.993 749.313 150.996C749.298 150.997 749.285 150.998 749.269 151.001C749.253 151.002 749.238 151.005 749.222 151.006C749.21 151.008 749.197 151.009 749.186 151.01C749.171 151.013 749.158 151.014 749.143 151.016C749.133 151.017 749.119 151.02 749.109 151.021C749.09 151.022 749.071 151.025 749.051 151.028C749.037 151.029 749.022 151.032 749.007 151.033C748.993 151.036 748.977 151.037 748.962 151.04C748.949 151.041 748.937 151.042 748.923 151.045C748.911 151.046 748.897 151.048 748.885 151.05C748.87 151.052 748.861 151.053 748.847 151.054C748.833 151.057 748.815 151.058 748.801 151.061C748.782 151.064 748.762 151.066 748.742 151.069C748.729 151.07 748.715 151.073 748.701 151.074C748.687 151.077 748.677 151.078 748.663 151.08C748.651 151.081 748.637 151.084 748.625 151.085C748.61 151.088 748.599 151.089 748.586 151.09C748.571 151.093 748.555 151.096 748.541 151.097C748.522 151.1 748.502 151.102 748.482 151.106C748.469 151.108 748.455 151.11 748.441 151.112C748.427 151.114 748.417 151.116 748.403 151.117C748.391 151.12 748.377 151.121 748.363 151.124C748.35 151.125 748.341 151.126 748.326 151.129C748.311 151.13 748.295 151.133 748.281 151.136C748.261 151.138 748.242 151.142 748.221 151.145C748.209 151.146 748.194 151.149 748.182 151.15C748.169 151.153 748.155 151.154 748.142 151.157C748.13 151.158 748.118 151.161 748.106 151.162C748.093 151.165 748.079 151.166 748.066 151.169C748.054 151.172 748.039 151.173 748.027 151.176C748.005 151.178 747.983 151.182 747.959 151.186C747.947 151.188 747.935 151.19 747.923 151.192C747.91 151.194 747.895 151.197 747.882 151.198C747.87 151.201 747.858 151.202 747.846 151.205C747.833 151.206 747.821 151.209 747.807 151.212C747.793 151.213 747.778 151.216 747.762 151.218C747.742 151.222 747.723 151.225 747.702 151.229C747.69 151.23 747.675 151.233 747.663 151.236C747.65 151.238 747.638 151.24 747.625 151.242C747.613 151.244 747.599 151.246 747.587 151.249C747.574 151.252 747.562 151.253 747.547 151.256C747.535 151.257 747.522 151.26 747.51 151.262C747.485 151.266 747.462 151.27 747.438 151.274C747.427 151.277 747.418 151.278 747.407 151.281C747.393 151.282 747.378 151.286 747.362 151.289C747.353 151.29 747.341 151.292 747.331 151.294C747.317 151.297 747.302 151.3 747.287 151.302C747.279 151.304 747.273 151.305 747.265 151.306C747.235 151.312 747.203 151.317 747.174 151.322C747.165 151.325 747.159 151.326 747.15 151.328C747.135 151.33 747.117 151.333 747.102 151.337C747.093 151.338 747.086 151.34 747.077 151.341C747.061 151.344 747.043 151.348 747.027 151.35C747.026 151.35 747.023 151.352 747.021 151.352C746.985 151.358 746.95 151.365 746.914 151.373C746.907 151.374 746.899 151.376 746.893 151.377C746.875 151.38 746.859 151.384 746.842 151.386C746.835 151.388 746.827 151.389 746.821 151.39C746.803 151.394 746.787 151.397 746.769 151.401C746.767 151.401 746.767 151.401 746.766 151.401C746.729 151.409 746.69 151.417 746.653 151.425C746.647 151.425 746.642 151.426 746.637 151.428C746.619 151.432 746.601 151.436 746.583 151.438C746.578 151.44 746.571 151.441 746.566 151.442C746.507 151.454 746.449 151.466 746.39 151.478C746.386 151.48 746.385 151.48 746.381 151.481C746.363 151.485 746.342 151.489 746.325 151.493C746.319 151.494 746.315 151.494 746.31 151.496C746.249 151.509 746.189 151.522 746.127 151.536H746.126C746.106 151.54 746.085 151.545 746.065 151.549C746.062 151.55 746.062 151.55 746.059 151.55C745.975 151.569 745.891 151.588 745.807 151.608H745.805C741.859 152.513 738.05 154.128 734.417 156.373C720.153 165.188 708.643 183.72 702.73 207.184C702.729 207.184 702.729 207.182 702.729 207.182C700.51 203.834 696.046 202.048 692.005 202.048C688.602 202.048 685.498 203.314 684.283 205.981C685.205 201.628 686.211 198.477 687.587 195.942C697.179 167.313 713.914 146.345 733.697 140.008C739.523 138.433 744.954 137.714 750.003 137.714C794.018 137.714 809.231 192.328 809.231 211.269" fill="url(#paint7_linear_818_20014)"/>
  <path d="M432.235 173.693C432.234 173.683 432.234 173.673 432.235 173.664V173.693Z" fill="#3C2B3F"/>
  <path d="M608.165 252.44C597.77 252.44 588.206 252.093 581.003 252.093C570.025 252.093 551.751 252.093 533.683 252.093L533.677 164.315C533.67 164.245 533.663 164.179 533.657 164.109C592.475 159.608 659.498 154.829 691.91 152.561C672.224 171.26 658.645 206.151 657.574 246.439C656.895 246.877 656.19 247.307 655.449 247.727C641.314 251.655 623.802 252.44 608.165 252.44V252.44ZM531.165 252.093C508.658 252.093 487.021 252.093 480.853 252.093C469.515 252.093 465.735 251.464 465.529 242.389C465.529 233.739 464.873 225.228 463.598 217.015H467.667C468.107 220.043 468.433 223.415 468.546 227.093H467.329V230.872V234.652H468.589C468.589 241.869 468.589 243.337 468.589 243.337C468.589 243.337 479.335 243.337 485.471 243.337C489.718 243.337 493.43 239.809 495.314 234.652H502.27V227.093H496.629C496.629 227.049 496.629 227.005 496.629 226.961V217.015H502.27V209.456H495.257C492.719 203.681 486.937 199.623 480.253 199.623H462.975C462.975 199.623 464.681 203.16 466.21 209.456H463.55V213.236V216.708C460.889 199.777 455.599 184.121 448.023 171.109C467.774 169.276 498.057 166.84 531.151 164.301C531.155 164.348 531.159 164.392 531.165 164.437V252.093" fill="url(#paint8_linear_818_20014)"/>
  <path d="M432.95 174.289C432.578 174.132 432.248 173.926 432.234 173.693V173.664C432.238 173.585 432.28 173.502 432.366 173.418C432.562 173.706 432.757 173.997 432.95 174.289" fill="url(#paint9_linear_818_20014)"/>
  <path d="M432.952 174.289C432.952 174.289 432.953 174.289 432.951 174.289C432.758 173.997 432.563 173.706 432.367 173.418C432.563 173.705 432.759 173.997 432.952 174.289Z" fill="url(#paint10_linear_818_20014)"/>
  <path d="M447.598 170.385C434.628 148.524 416.589 136.484 396.805 136.484C377.329 136.484 358.05 148.599 343.91 169.72C330.45 189.827 323.037 215.635 323.037 242.391H337.524C337.524 191.983 366.896 150.972 396.805 150.972C426.712 150.972 451.042 191.981 451.042 242.389H465.529C465.529 215.447 459.161 189.876 447.598 170.385Z" fill="#F03E39"/>
  <path d="M487.658 154.177C487.658 156.993 489.962 159.297 492.778 159.297H505.376C508.19 159.297 510.496 156.993 510.496 154.177V147.809C510.496 144.993 508.19 142.689 505.376 142.689H492.778C489.962 142.689 487.658 144.993 487.658 147.809V154.177Z" fill="#F36327"/>
  <path d="M644.152 129.199C645.191 133.072 650.564 135.896 656.09 135.473L668.907 134.492C674.434 134.069 678.106 130.553 677.066 126.679C676.027 122.804 670.655 119.981 665.127 120.404L652.311 121.384C646.784 121.808 643.114 125.324 644.152 129.199Z" fill="#28252D"/>
  <path d="M399.01 156.373C372.76 156.373 351.483 192.74 351.484 237.605C351.484 243.449 351.846 249.147 352.531 254.641C357.114 291.316 376.18 318.825 399.01 318.825C421.834 318.825 440.9 291.316 445.483 254.641C446.17 249.145 446.53 243.449 446.53 237.604C446.53 192.739 425.254 156.373 399.01 156.373" fill="#443D50"/>
  <path d="M399.565 178.74C380.544 178.74 365.124 205.093 365.125 237.604C365.125 241.84 365.386 245.968 365.885 249.949C369.205 276.525 383.021 296.458 399.565 296.457C416.104 296.456 429.921 276.521 433.241 249.946C433.738 245.964 434 241.836 434 237.6C434 205.09 418.581 178.738 399.565 178.74" fill="#8895A3"/>
  <path d="M399.566 181.889C382.313 181.89 368.277 206.884 368.277 237.604C368.277 241.633 368.523 245.656 369.01 249.56C372.179 274.909 385.029 293.309 399.566 293.308V296.457V293.308C414.102 293.306 426.95 274.906 430.118 249.556C430.605 245.652 430.851 241.63 430.851 237.6C430.851 222.428 427.423 208.21 421.197 197.569C415.281 187.457 407.598 181.889 399.566 181.889V181.889ZM399.566 299.606C381.519 299.608 366.385 279.348 362.761 250.34C362.241 246.178 361.977 241.893 361.977 237.604C361.977 202.83 378.487 175.592 399.566 175.59C409.927 175.589 419.541 182.265 426.633 194.388C433.415 205.98 437.151 221.326 437.151 237.6C437.151 241.89 436.887 246.174 436.367 250.336C432.743 279.345 417.61 299.605 399.566 299.606Z" fill="#E1EAE9"/>
  <path d="M755.097 156.373C728.848 156.373 707.57 192.74 707.57 237.605C707.57 243.449 707.933 249.147 708.62 254.641C713.201 291.316 732.269 318.825 755.098 318.825C777.921 318.825 796.989 291.316 801.57 254.641C802.257 249.145 802.618 243.449 802.618 237.604C802.618 192.739 781.341 156.373 755.097 156.373Z" fill="#443D50"/>
  <path d="M337.524 293.667V242.39L7.51953 210.533L18.8569 293.667H337.524" fill="#EF3F35"/>
  <path d="M15.46 293.719H270.579V282.68H15.46V293.719Z" fill="#35323D"/>
  <path d="M30.66 209.167C28.8347 202.483 33.0107 197.015 39.9387 197.015H265.436C272.364 197.015 276.471 202.464 274.563 209.125L261.931 253.211C260.021 259.872 252.791 265.321 245.863 265.321H58.5974C51.6694 265.321 44.5067 259.853 42.68 253.169L30.66 209.167" fill="#28252D"/>
  <path d="M30.6598 209.166L31.8744 208.834C31.6118 207.872 31.4878 206.952 31.4878 206.089C31.4931 203.797 32.3238 201.889 33.7651 200.512C35.2091 199.138 37.2985 198.277 39.9385 198.274H265.436C268.052 198.277 270.112 199.121 271.532 200.465C272.948 201.813 273.762 203.678 273.768 205.929C273.768 206.824 273.634 207.78 273.35 208.781L260.718 252.864C259.86 255.876 257.745 258.708 255.02 260.757C252.298 262.813 248.993 264.066 245.862 264.061H58.5971C55.4665 264.065 52.1811 262.809 49.4891 260.75C46.7918 258.696 44.7158 255.857 43.8958 252.837L31.8744 208.834L30.6598 209.166L29.4438 209.498L41.4638 253.501C42.4691 257.164 44.8864 260.402 47.9598 262.753C51.0371 265.098 54.7971 266.577 58.5971 266.581H245.862C249.66 266.576 253.433 265.105 256.536 262.77C259.636 260.429 262.09 257.206 263.141 253.558L275.774 209.472C276.118 208.26 276.286 207.072 276.286 205.929C276.292 203.056 275.2 200.464 273.265 198.636C271.333 196.802 268.597 195.752 265.436 195.754H39.9385C36.7451 195.752 33.9798 196.825 32.0265 198.686C30.0705 200.544 28.9625 203.173 28.9678 206.089C28.9678 207.193 29.1251 208.336 29.4438 209.498L30.6598 209.166" fill="#CA2625"/>
  <path d="M238.682 177.029C259.635 167.042 320.984 130.189 339.424 141.132C357.864 152.074 335.215 172.077 311.764 175.929C288.314 179.78 238.682 177.029 238.682 177.029" fill="#ECDBDA"/>
  <path d="M513.699 105.25L509.922 105.203L510.298 104.592C510.246 104.796 510.194 105 510.141 105.204L513.699 105.25" fill="#415055"/>
  <path d="M520.101 115.828C517.319 110.385 510.805 106.317 510.738 106.276L509.666 105.615L509.921 105.203L513.698 105.251C516.022 106.947 520.225 110.432 522.417 114.823C522.555 115.103 522.701 115.416 522.851 115.763C521.949 115.785 521.033 115.807 520.101 115.828Z" fill="#D43B38"/>
  <path d="M531.152 164.301C529.235 145.025 522.884 121.4 520.163 115.948C520.143 115.908 520.122 115.868 520.102 115.828C521.034 115.807 521.95 115.785 522.852 115.763C526.087 123.205 531.842 145.868 533.658 164.109C532.819 164.173 531.988 164.237 531.152 164.301Z" fill="#B6282D"/>
  <path d="M533.684 252.093C532.844 252.093 532.003 252.093 531.166 252.093V164.437C531.16 164.392 531.156 164.348 531.152 164.301C531.988 164.237 532.819 164.173 533.658 164.109C533.664 164.179 533.671 164.245 533.678 164.315L533.684 252.093" fill="url(#paint11_linear_818_20014)"/>
  <path d="M724.891 138.005C688.52 138.005 658.791 186.82 657.547 247.617C676.084 244.067 678.083 235.487 680.718 225.517C681.384 220.751 683.24 211.573 683.242 211.568C684.486 204.143 685.682 199.452 687.587 195.943C697.179 167.313 713.913 146.345 733.696 140.008C729.617 138.703 729.192 138.005 724.891 138.005Z" fill="#28252D"/>
  <path d="M0.885742 281.699C0.885742 278.233 3.72041 275.4 7.18441 275.4H308.267C311.732 275.4 314.566 278.233 314.566 281.699V287.368C314.566 290.832 311.732 293.667 308.267 293.667H230.886C227.42 293.667 222.304 291.985 219.515 289.929L217.688 288.584C214.899 286.529 209.784 284.848 206.32 284.848H53.7471C50.2831 284.848 46.1324 286.832 44.5231 289.257C42.9151 291.682 38.7657 293.667 35.3004 293.667H7.18441C3.72041 293.667 0.885742 290.832 0.885742 287.368V281.699" fill="#EF3F35"/>
  <path d="M537.463 105.557C541.004 105.508 546.576 105.553 553.538 105.599C599.302 105.897 705.122 106.197 689.023 79.408C676.663 58.8373 707.57 96.5533 707.57 96.5533L691.498 107.221L674.562 109.096L548.732 114.515L541.935 109.112L537.463 105.557" fill="#F03E39"/>
  <path d="M565.887 10.8504C561.923 10.5557 557.76 10.1118 553.655 9.64643C552.719 5.97843 548.714 2.95309 544.442 5.41042C542.919 6.28642 541.403 7.19171 539.914 8.13171C532.248 7.41171 526.21 7.27577 524.271 8.95977C523.298 9.80644 522.81 11.7864 522.622 14.2837C514.083 6.36506 500.943 4.64773 489.672 4.5504C481.546 4.48106 461.818 18.3984 469.938 18.4677C479.528 18.5517 511.972 18.0451 517.098 27.5731C521.324 35.4317 517.519 46.5944 514.778 54.2464C507.224 75.3224 499.33 104.912 482.115 104.842C473.971 104.809 507.607 115.162 509.586 107.362C515.551 83.8464 520.96 67.0157 524.928 52.2024C531.874 26.2824 544.471 18.4677 565.887 18.4677C597.8 18.4677 582.895 12.1091 565.887 10.8504" fill="#F03E39"/>
  <path d="M749.75 99.6519C766.053 90.7772 777.635 83.1612 784.418 73.2678L803.563 69.0519L784.618 92.6785C784.618 92.6785 781.962 92.5932 772.843 93.9465C766.935 94.8239 755.419 99.6519 755.419 99.6519H749.75" fill="#EF3F35"/>
  <path d="M677.538 235.137C660.365 256.334 606.201 252.093 581.005 252.093C555.81 252.093 492.193 252.093 480.854 252.093C469.517 252.093 465.737 251.464 465.53 242.389L450.99 238.918C451.016 240.072 451.044 241.225 451.044 242.389C451.044 242.617 451.033 242.845 451.033 243.073C451.037 243.537 451.044 244 451.044 244.465C451.044 258.557 452.472 262.408 460.602 262.408C504.866 262.408 673.021 262.408 685.332 262.408C699.517 262.408 698.498 257.865 698.498 249.916C698.498 247.461 698.392 245.152 698.392 243.213C688.164 231.786 677.538 235.137 677.538 235.137" fill="#F03E39"/>
  <path d="M79.7812 177.029H226.084L250.829 157.612H81.8679L79.7812 177.029Z" fill="#28252D"/>
  <path d="M755.42 99.6519C771.721 90.7772 783.305 83.1612 790.087 73.2678L809.232 69.0519L790.287 92.6785C790.287 92.6785 787.632 92.5932 778.513 93.9465C766.921 95.6679 755.42 99.6519 755.42 99.6519Z" fill="#D82928"/>
  <path d="M837.554 67.3143C835.81 74.0197 828.716 79.5063 821.786 79.5063H798.481C791.553 79.5063 781.026 76.5823 775.09 73.009L766.442 67.8036C760.506 64.2303 761.253 60.4503 768.102 59.4023L830.12 49.917C831.161 49.7583 832.138 49.7303 833.044 49.8197H840.237V56.581L831.114 60.253L837.554 67.3143Z" fill="#EF3F35"/>
  <path d="M776.124 59.4023C769.276 60.4503 768.527 64.2303 774.463 67.8036L783.113 73.009C789.049 76.5823 799.574 79.5063 806.504 79.5063H829.809C836.737 79.5063 843.833 74.0197 845.576 67.3143L847.425 60.205C849.169 53.4997 844.992 48.869 838.142 49.917L776.124 59.4023" fill="#F03E39"/>
  <path d="M673.168 96.772H666.868C666.868 92.3546 656.019 65.616 648.316 48.0413L654.084 45.5133C657.272 52.7826 673.168 89.4186 673.168 96.772Z" fill="#3F3B4A"/>
  <path d="M565.241 18.4759C544.222 18.6346 531.805 26.5466 524.93 52.2026C521.086 66.5546 515.887 82.8199 510.141 105.204L537.463 105.559C538.559 105.543 539.849 105.537 541.314 105.537C547.855 105.537 557.895 105.663 569.739 105.663C620.191 105.663 703.431 103.383 689.023 79.4066C688.807 79.0479 688.609 78.7106 688.418 78.3879C674.366 55.5933 632.461 27.24 593.059 20.1186C582.414 18.7346 570.543 18.5119 565.241 18.4759ZM565.243 23.5146C571.098 23.5559 582.339 23.8159 592.285 25.0999C630.909 32.1213 670.906 59.6373 684.101 80.9853C684.29 81.3093 684.49 81.6479 684.705 82.0026C686.113 84.3453 685.571 85.3026 685.311 85.7626C683.925 88.2133 676.943 94.2959 642.145 97.8399C623.749 99.7119 600.066 100.623 569.739 100.623C562.962 100.623 556.867 100.583 551.491 100.547C547.549 100.52 544.113 100.497 541.314 100.497C539.853 100.497 538.563 100.504 537.461 100.519L516.641 100.249C519.503 89.4559 522.207 80.1252 524.638 71.7372C526.506 65.2986 528.269 59.2173 529.798 53.5079C532.91 41.8906 537.074 34.3359 542.903 29.7319C548.173 25.5706 555.274 23.5946 565.243 23.5146" fill="#3F3B4A"/>
  <path d="M55.279 253.169L43.2576 209.167C41.4323 202.483 45.6083 197.015 52.5363 197.015H39.939C33.0096 197.015 28.835 202.483 30.6616 209.167L42.6803 253.169C44.507 259.853 51.6696 265.321 58.5976 265.321H71.195C64.267 265.321 57.1043 259.853 55.279 253.169Z" fill="#CA2625"/>
  <path d="M439.039 100.169C429.736 102.392 435.068 103.966 416.452 105.76C397.835 107.553 341.133 109.11 304.18 109.11C267.228 109.11 202.555 108.578 208.516 103.606H254.603L389.844 100.169H439.039" fill="#474455"/>
  <path d="M238.682 177.029C257.579 168.023 309.319 137.179 332.822 139.235C306.02 147.849 307.698 166.519 277.094 172.136C253.723 176.427 238.682 177.029 238.682 177.029Z" fill="#F4DFDC"/>
  <path d="M345.317 147.045C345.314 147.041 345.314 147.04 345.313 147.037C345.314 147.04 345.316 147.043 345.317 147.045ZM345.301 147.013C345.3 147.009 345.297 147.005 345.296 147.001C345.298 147.005 345.3 147.009 345.301 147.013ZM345.282 146.973C345.278 146.964 345.274 146.956 345.27 146.948C345.274 146.956 345.278 146.964 345.282 146.973ZM345.264 146.936C345.261 146.928 345.256 146.919 345.252 146.911C345.256 146.919 345.26 146.927 345.264 146.936ZM345.246 146.9C345.242 146.891 345.237 146.88 345.233 146.871C345.237 146.88 345.242 146.891 345.246 146.9ZM345.231 146.865C344.295 144.976 342.642 143.191 340.157 141.585C342.644 143.191 344.295 144.976 345.231 146.865ZM340.157 141.585C340.14 141.575 340.125 141.565 340.108 141.553C340.124 141.564 340.141 141.576 340.157 141.585ZM340.105 141.552C340.056 141.52 340.005 141.489 339.954 141.457C340.005 141.489 340.056 141.52 340.105 141.552ZM339.949 141.453C339.933 141.444 339.92 141.435 339.905 141.425C339.92 141.435 339.934 141.444 339.949 141.453ZM339.898 141.421C339.865 141.4 339.832 141.38 339.797 141.359C339.832 141.38 339.865 141.4 339.898 141.421ZM339.792 141.355C339.777 141.347 339.764 141.337 339.749 141.328C339.762 141.337 339.777 141.347 339.792 141.355ZM339.738 141.321C339.725 141.313 339.711 141.305 339.697 141.297C339.711 141.305 339.725 141.313 339.738 141.321ZM339.688 141.291C339.654 141.271 339.622 141.251 339.589 141.231C339.621 141.251 339.654 141.271 339.688 141.291ZM339.574 141.223C339.562 141.215 339.552 141.208 339.538 141.201C339.552 141.208 339.562 141.215 339.574 141.223ZM339.522 141.191C339.51 141.184 339.501 141.179 339.489 141.171C339.5 141.177 339.512 141.184 339.522 141.191ZM339.473 141.161C339.456 141.151 339.441 141.143 339.424 141.132C339.44 141.141 339.457 141.152 339.473 141.161Z" fill="#ECABAD"/>
  <path d="M316.973 173.575C304.013 173.575 319.03 152.677 325.737 147.535C332.369 142.448 332.806 142.363 339.162 141.005L339.425 141.132C339.442 141.143 339.457 141.151 339.474 141.161C339.479 141.164 339.485 141.168 339.49 141.171C339.502 141.179 339.511 141.184 339.523 141.191C339.529 141.195 339.534 141.197 339.539 141.201C339.553 141.208 339.563 141.215 339.575 141.223C339.581 141.225 339.585 141.228 339.59 141.231C339.623 141.251 339.655 141.271 339.689 141.291C339.691 141.293 339.695 141.295 339.698 141.297C339.711 141.305 339.726 141.313 339.739 141.321C339.743 141.324 339.746 141.325 339.75 141.328C339.765 141.337 339.778 141.347 339.793 141.355C339.794 141.356 339.797 141.357 339.798 141.359C339.833 141.38 339.866 141.4 339.899 141.421C339.902 141.423 339.903 141.424 339.906 141.425C339.921 141.435 339.934 141.444 339.95 141.453C339.951 141.455 339.954 141.456 339.955 141.457C340.006 141.489 340.057 141.52 340.106 141.552C340.107 141.553 340.107 141.553 340.109 141.553C340.126 141.565 340.141 141.575 340.158 141.585C342.643 143.191 344.295 144.976 345.231 146.865C345.231 146.867 345.233 146.869 345.234 146.871C345.238 146.88 345.243 146.891 345.247 146.9C345.25 146.904 345.251 146.907 345.253 146.911C345.257 146.919 345.262 146.928 345.265 146.936C345.267 146.94 345.269 146.944 345.271 146.948C345.275 146.956 345.279 146.964 345.283 146.973C345.287 146.983 345.293 146.992 345.297 147.001C345.298 147.005 345.301 147.009 345.302 147.013C345.306 147.021 345.31 147.029 345.314 147.037C345.315 147.04 345.315 147.041 345.318 147.045C349.249 155.421 339.277 165.799 325.678 171.756C321.931 173.021 319.081 173.575 316.973 173.575" fill="#F3E9E8"/>
  <path d="M10.6162 177.538C10.7962 176.794 11.0029 176.073 11.2482 175.39L20.2535 153.685C22.2615 150.169 25.2389 146.72 29.0509 143.377C46.0255 151.797 59.8002 170.373 67.2722 177.029C67.2722 177.029 34.0749 178.774 10.6162 177.538Z" fill="#F4DFDC"/>
  <path d="M263.446 177.981C260.011 177.981 256.593 177.943 253.057 177.881C253.129 177.796 253.203 177.712 253.279 177.627C257.799 177.768 263.073 177.893 268.666 177.949C266.91 177.972 265.177 177.981 263.446 177.981Z" fill="#FAC3C1"/>
  <path d="M268.666 177.949C263.073 177.893 257.799 177.768 253.279 177.627C253.894 176.935 254.598 176.219 255.383 175.483C261.329 174.751 268.669 173.683 277.094 172.136C278.883 171.808 280.563 171.435 282.145 171.021C280.831 173.119 279.629 175.345 278.566 177.704C275.127 177.833 271.862 177.911 268.666 177.949ZM325.695 139.456C326.103 139.405 326.507 139.36 326.906 139.32C326.942 139.316 326.973 139.313 326.999 139.312C326.57 139.353 326.135 139.401 325.695 139.456" fill="#FBF6F7"/>
  <path d="M255.383 175.482C266.572 164.988 294.209 150.392 316.787 141.256C319.933 140.422 322.924 139.805 325.695 139.456C326.135 139.401 326.569 139.353 326.999 139.312C327.017 139.31 327.035 139.31 327.048 139.31C328.587 139.31 297.643 146.265 282.144 171.021C280.563 171.434 278.883 171.808 277.093 172.136C268.668 173.682 261.328 174.75 255.383 175.482Z" fill="#FCF8F8"/>
  <path d="M330.106 198.167C319.719 231.939 322.07 259.757 322.581 289.615L302.146 292.668C302.146 292.668 293.683 234.68 315.601 179.779L330.106 198.167" fill="#D82928"/>
  <path d="M338.002 293.667H292.032C288.567 293.667 285.732 290.832 285.732 287.368V281.699C285.732 278.233 288.567 275.4 292.032 275.4H338.002V293.667" fill="#D82928"/>
  <path d="M215.14 241.148C215.14 243.229 213.437 244.933 211.354 244.933H124.253C122.172 244.933 120.468 243.229 120.468 241.148V218.133C120.468 216.05 122.172 214.348 124.253 214.348H211.354C213.437 214.348 215.14 216.05 215.14 218.133V241.148Z" fill="#FFFEF6"/>
  <path d="M211.355 244.933H200.164V214.348H211.355C213.437 214.348 215.14 216.05 215.14 218.133V241.148C215.14 243.229 213.437 244.933 211.355 244.933Z" fill="#8BC5AB"/>
  <path d="M243.511 218.694H215.14V218.133C215.14 216.05 213.437 214.348 211.355 214.348H124.253C122.172 214.348 120.468 216.05 120.468 218.133V218.694H107.237V201.324H243.511V218.694" fill="#28252D"/>
  <path d="M200.164 218.694H120.468V218.133C120.468 216.05 122.172 214.348 124.253 214.348H211.354C213.437 214.348 215.14 216.05 215.14 218.133C215.14 216.05 213.437 214.348 211.354 214.348H200.164V218.694" fill="#BEBBB5"/>
  <path d="M215.14 218.694H200.164V214.348H211.355C213.437 214.348 215.14 216.05 215.14 218.133V218.694" fill="#6A9288"/>
  <path d="M695.598 107.289C695.361 106.505 695.123 105.732 694.885 104.972L697.067 103.524C697.426 104.657 697.785 105.821 698.141 107.009C697.309 107.104 696.459 107.197 695.598 107.289" fill="#D43B38"/>
  <path d="M702.86 144.237C701.928 131.184 698.866 118.119 695.6 107.289C696.461 107.197 697.31 107.104 698.142 107.009C701.306 117.579 704.256 130.207 705.284 142.908C704.469 143.325 703.661 143.769 702.86 144.237" fill="#B6282D"/>
  <path d="M689.238 88.9692C689.9 88.0252 690.342 87.0266 690.546 85.9746C690.342 87.0279 689.901 88.0252 689.238 88.9692ZM690.548 85.9639C690.549 85.9586 690.55 85.9519 690.552 85.9452C690.55 85.9506 690.549 85.9586 690.548 85.9639Z" fill="#415055"/>
  <path d="M705.666 153.456L703.146 153.453L703.149 152.195C703.151 149.555 703.05 146.897 702.859 144.237C703.661 143.769 704.469 143.325 705.283 142.908C705.534 146.009 705.67 149.116 705.667 152.197L705.666 153.456" fill="#2A272F"/>
  <path d="M694.886 104.972C692.884 98.577 690.856 93.073 689.238 88.969C689.901 88.025 690.342 87.0277 690.546 85.9744C690.546 85.9704 690.548 85.9677 690.548 85.9637C690.549 85.9583 690.55 85.9504 690.552 85.945C690.573 85.8344 690.59 85.7237 690.606 85.613C692.298 89.7584 694.69 96.005 697.069 103.524L694.886 104.972" fill="#D43B38"/>
  <path d="M689.238 88.9692C688.357 86.7332 687.597 84.9119 687.029 83.5892L686.531 82.4306L688.847 81.4372L689.345 82.5946C689.697 83.4172 690.123 84.4292 690.606 85.6132C690.59 85.7239 690.573 85.8346 690.551 85.9452C690.55 85.9519 690.549 85.9586 690.547 85.9639C690.547 85.9679 690.546 85.9706 690.546 85.9746C690.342 87.0266 689.899 88.0252 689.238 88.9692" fill="#3C3847"/>
  <path d="M642.174 124.205L678.495 121.653L642.174 124.205Z" fill="#F03E39"/>
  <path d="M642.569 129.861L641.775 118.551L678.097 115.999L678.891 127.308L642.569 129.861" fill="#D82928"/>
  <path d="M392.758 291.945C388.555 290.241 384.627 287.001 381.201 282.545L383.637 282.409L383.618 282.075C388.442 281.084 393.078 275.828 396.651 268.792L397.235 269.657L401.41 266.835L399.062 263.361C400.959 258.457 402.345 253.083 402.997 247.869C403.311 245.356 403.505 242.767 403.567 240.12H413.927C413.845 243.476 413.598 246.759 413.199 249.947C410.822 268.985 403.054 284.612 392.758 291.945V291.945ZM378.365 278.391C375.102 273.023 372.461 266.429 370.698 258.977L371.302 257.772C373.235 266.316 376.021 272.777 378.282 276.912L378.365 278.391V278.391ZM369.171 250.781C369.115 250.377 369.062 249.968 369.01 249.56C368.625 246.469 368.39 243.304 368.309 240.12H369.035C369.159 243.419 369.434 246.541 369.823 249.483L369.171 250.781V250.781ZM413.927 235.081H403.521C403.183 227.383 401.633 219.52 399.179 212.776L401.383 209.648L397.263 206.745L396.869 207.307C393.391 200.211 388.781 195.183 383.55 194.328L383.637 192.781L381.109 192.64C384.518 188.192 388.449 184.941 392.705 183.239C404.75 191.775 413.35 211.645 413.927 235.081V235.081ZM368.97 235.081H368.309C368.437 229.981 368.951 225.056 369.802 220.401L370.123 221.304C369.454 225.389 369.026 229.977 368.97 235.081ZM372.214 212.151L371.953 211.417C373.619 205.869 375.797 200.881 378.373 196.651L378.262 198.633C376.343 201.577 374.046 206.032 372.214 212.151Z" fill="#CCD8D7"/>
  <path d="M389.544 293.917C379.539 288.724 371.46 275.965 367.595 259.534L369.848 260.665L370.696 258.977C372.459 266.429 375.1 273.022 378.363 278.39L378.604 282.69L381.199 282.545C384.626 287.001 388.554 290.241 392.756 291.945C391.71 292.689 390.639 293.348 389.544 293.917ZM366.76 255.584C366.415 253.744 366.122 251.864 365.883 249.949C365.486 246.76 365.238 243.477 365.155 240.12H368.307C368.388 243.304 368.623 246.469 369.008 249.56C369.06 249.968 369.114 250.377 369.17 250.781L366.76 255.584V255.584ZM365.124 238.134C365.124 237.957 365.123 237.781 365.123 237.604C365.123 237.425 365.124 237.248 365.124 237.07V238.134ZM368.307 235.081H365.155C365.331 227.912 366.259 221.076 367.806 214.794L369.8 220.401C368.95 225.056 368.435 229.981 368.307 235.081ZM371.951 211.417L371.336 209.688L368.976 210.528C373.204 196.605 380.594 185.937 389.518 181.292C390.603 181.853 391.666 182.504 392.703 183.238C388.447 184.941 384.516 188.192 381.107 192.64L378.604 192.5L378.371 196.65C375.795 200.881 373.618 205.869 371.951 211.417" fill="#E1EAE9"/>
  <path d="M485.473 243.337C479.337 243.337 468.59 243.337 468.59 243.337C468.59 243.337 468.59 241.869 468.59 234.652H495.315C493.431 239.809 489.719 243.337 485.473 243.337ZM496.63 227.093H468.547C468.434 223.415 468.109 220.043 467.669 217.015H496.63V226.961C496.63 227.005 496.63 227.049 496.63 227.093V227.093ZM495.258 209.456H466.211C464.682 203.16 462.977 199.623 462.977 199.623H480.254C486.938 199.623 492.721 203.681 495.258 209.456" fill="url(#paint12_linear_818_20014)"/>
  <path d="M502.271 217.015H463.599C463.583 216.912 463.567 216.811 463.551 216.708V213.236V209.456H466.211H495.257H502.271V217.015" fill="url(#paint13_linear_818_20014)"/>
  <path d="M463.599 217.015H463.551V216.708C463.567 216.811 463.583 216.912 463.599 217.015Z" fill="#D82928"/>
  <path d="M502.271 234.652H467.33V227.093H502.271V234.652Z" fill="url(#paint14_linear_818_20014)"/>
  <path d="M381.966 194.2C380.638 194.891 368.963 207.563 368.963 236.224C368.963 264.887 380.57 281.508 381.987 282.243C391.639 282.243 400.948 264.264 402.996 247.869C403.386 244.756 403.59 241.529 403.59 238.219C403.59 217.453 394.284 194.2 381.966 194.2" fill="#35323D"/>
  <path d="M413.956 240.12H413.926C413.947 239.284 413.956 238.444 413.956 237.6C413.956 236.756 413.947 235.917 413.926 235.081H413.956V240.12Z" fill="#CCD8D7"/>
  <path d="M413.926 240.12H403.566C403.581 239.489 403.589 238.856 403.589 238.219C403.589 237.177 403.565 236.131 403.52 235.081H413.926C413.948 235.917 413.957 236.756 413.957 237.6C413.957 238.444 413.948 239.284 413.926 240.12" fill="#CCD8D7"/>
  <path d="M403.567 240.12H389.997C390.072 239.303 390.111 238.467 390.112 237.613C390.112 236.752 390.072 235.907 389.996 235.081H403.52C403.565 236.131 403.589 237.177 403.589 238.219C403.589 238.856 403.581 239.489 403.567 240.12" fill="#CCD8D7"/>
  <path d="M365.156 240.12H365.125V238.135C365.129 238.799 365.138 239.461 365.156 240.12ZM365.125 237.071V235.081H365.156C365.138 235.741 365.129 236.404 365.125 237.071Z" fill="#E1EAE9"/>
  <path d="M369.034 240.12H368.307C368.286 239.283 368.275 238.443 368.275 237.604C368.275 236.759 368.286 235.917 368.307 235.081H368.969C368.965 235.46 368.962 235.84 368.962 236.224C368.962 237.549 368.987 238.848 369.034 240.12Z" fill="#CCD8D7"/>
  <path d="M368.308 240.12H365.156C365.138 239.461 365.129 238.799 365.125 238.135V237.071C365.129 236.404 365.138 235.741 365.156 235.081H368.308C368.286 235.917 368.276 236.759 368.276 237.604C368.276 238.443 368.286 239.283 368.308 240.12Z" fill="#E1EAE9"/>
  <path d="M371.331 240.12H369.035C368.988 238.848 368.963 237.549 368.963 236.224C368.963 235.84 368.966 235.46 368.97 235.081H371.334C371.258 235.907 371.219 236.752 371.219 237.615C371.219 238.467 371.258 239.304 371.331 240.12Z" fill="#CCD8D7"/>
  <path d="M381.2 282.545C380.211 281.258 379.264 279.872 378.364 278.39L378.281 276.912C380.075 280.193 381.539 282.01 381.987 282.242C382.532 282.242 383.076 282.185 383.617 282.074L383.636 282.409L381.2 282.545" fill="#CCD8D7"/>
  <path d="M378.605 282.69L378.363 278.39C379.263 279.872 380.21 281.258 381.199 282.545L378.605 282.69Z" fill="#E1EAE9"/>
  <path d="M381.988 282.243C381.54 282.011 380.075 280.193 378.282 276.912L376.91 252.433C378.061 253.287 379.331 253.76 380.666 253.759C381.126 253.759 381.579 253.703 382.022 253.595L383.618 282.075C383.077 282.185 382.533 282.243 381.988 282.243" fill="#CCD8D7"/>
  <path d="M378.262 198.633L378.372 196.651C379.24 195.225 380.155 193.885 381.108 192.64L383.636 192.781L383.55 194.328C383.028 194.244 382.5 194.2 381.966 194.2C381.543 194.42 380.072 195.853 378.262 198.633" fill="#CCD8D7"/>
  <path d="M378.371 196.65L378.604 192.5L381.107 192.64C380.154 193.885 379.239 195.225 378.371 196.65Z" fill="#E1EAE9"/>
  <path d="M376.908 222.794L378.262 198.633C380.072 195.853 381.543 194.42 381.965 194.2C382.5 194.2 383.028 194.244 383.549 194.328L382.02 221.632C381.578 221.522 381.125 221.466 380.665 221.466C379.329 221.466 378.059 221.941 376.908 222.794" fill="#CCD8D7"/>
  <path d="M397.234 269.657L375.539 237.575L397.262 206.745L401.382 209.648L381.662 237.633L401.408 266.835L397.234 269.657Z" fill="#CCD8D7"/>
  <path d="M367.596 259.535L365.346 258.405L366.762 255.584C367.014 256.923 367.291 258.24 367.596 259.535" fill="#E1EAE9"/>
  <path d="M370.697 258.977C370.074 256.346 369.562 253.609 369.17 250.781L369.822 249.482C370.213 252.432 370.718 255.196 371.301 257.772L370.697 258.977" fill="#CCD8D7"/>
  <path d="M369.85 260.665L367.596 259.534C367.291 258.24 367.014 256.922 366.762 255.584L369.171 250.781C369.563 253.609 370.075 256.346 370.698 258.977L369.85 260.665" fill="#E1EAE9"/>
  <path d="M371.301 257.772C370.718 255.196 370.213 252.432 369.822 249.483L372.19 244.761C372.844 247.017 373.796 248.975 374.958 250.483L371.301 257.772Z" fill="#CCD8D7"/>
  <path d="M367.807 214.794L366.59 211.377L368.978 210.528C368.555 211.918 368.164 213.342 367.807 214.794Z" fill="#E1EAE9"/>
  <path d="M370.122 221.304L369.801 220.401C370.373 217.276 371.094 214.273 371.951 211.417L372.213 212.15C371.399 214.869 370.678 217.914 370.122 221.304Z" fill="#CCD8D7"/>
  <path d="M369.801 220.401L367.807 214.795C368.164 213.343 368.555 211.919 368.977 210.528L371.337 209.688L371.952 211.417C371.095 214.273 370.373 217.276 369.801 220.401" fill="#E1EAE9"/>
  <path d="M372.771 228.741L370.123 221.304C370.679 217.915 371.4 214.869 372.214 212.151L376.21 223.373C374.818 224.647 373.636 226.499 372.771 228.741" fill="#CCD8D7"/>
  <path d="M382.022 253.595L381.628 246.577L385.167 251.811C384.207 252.703 383.146 253.317 382.022 253.595ZM376.91 252.433C376.211 251.916 375.558 251.259 374.959 250.483L376.615 247.183L376.91 252.433Z" fill="#CCD8D7"/>
  <path d="M380.666 253.759C379.331 253.76 378.061 253.287 376.91 252.433L376.615 247.183L378.925 242.579L381.629 246.577L382.022 253.595C381.579 253.703 381.126 253.759 380.666 253.759" fill="#CCD8D7"/>
  <path d="M388.213 247.321L383.344 240.12H389.997C389.97 240.416 389.938 240.709 389.902 241C389.612 243.333 389.025 245.48 388.213 247.321V247.321ZM389.996 235.081H383.461L388.329 228.172C389.176 230.179 389.761 232.531 389.996 235.081Z" fill="#CCD8D7"/>
  <path d="M389.997 240.12H383.343L381.662 237.633L383.461 235.081H389.995C390.071 235.907 390.111 236.752 390.111 237.613C390.11 238.467 390.071 239.303 389.997 240.12" fill="#CCD8D7"/>
  <path d="M372.19 244.761C371.849 243.583 371.59 242.323 371.425 241.001C371.389 240.711 371.357 240.416 371.33 240.12H374.519L372.19 244.761ZM375.027 235.081H371.333C371.546 232.768 372.047 230.617 372.77 228.741L375.027 235.081Z" fill="#CCD8D7"/>
  <path d="M374.52 240.12H371.331C371.257 239.304 371.219 238.467 371.219 237.615C371.219 236.752 371.257 235.907 371.333 235.081H375.028L375.789 237.22L375.54 237.575L375.688 237.793L374.52 240.12" fill="#CCD8D7"/>
  <path d="M381.609 228.961L382.02 221.632C383.228 221.928 384.361 222.614 385.376 223.614L381.609 228.961ZM376.784 224.989L376.209 223.373C376.436 223.164 376.669 222.972 376.908 222.794L376.784 224.989" fill="#CCD8D7"/>
  <path d="M379.342 232.177L376.783 224.989L376.907 222.795C378.058 221.941 379.329 221.467 380.665 221.467C381.125 221.467 381.577 221.523 382.019 221.632L381.609 228.961L379.342 232.177" fill="#CCD8D7"/>
  <path d="M385.166 251.811L381.627 246.577L378.923 242.579L381.335 237.772L379.342 232.177L381.608 228.961L385.375 223.615C386.539 224.761 387.546 226.319 388.328 228.172L383.46 235.081L381.662 237.633L383.343 240.12L388.212 247.321C387.399 249.165 386.36 250.701 385.166 251.811V251.811ZM375.687 237.793L375.539 237.575L375.788 237.22L375.866 237.436L375.687 237.793Z" fill="#CCD8D7"/>
  <path d="M374.959 250.482C373.797 248.974 372.845 247.017 372.191 244.761L374.521 240.12H376.219L376.615 247.182L374.959 250.482Z" fill="#CCD8D7"/>
  <path d="M376.218 240.12H374.52L375.688 237.793L376.124 238.44L376.218 240.12" fill="#CCD8D7"/>
  <path d="M376.615 247.183L376.219 240.12H377.261L378.924 242.579L376.615 247.183" fill="#CCD8D7"/>
  <path d="M377.26 240.12H376.218L376.123 238.44L377.26 240.12Z" fill="#CCD8D7"/>
  <path d="M376.219 235.081H375.029L372.771 228.741C373.637 226.498 374.818 224.646 376.21 223.373L376.785 224.989L376.219 235.081" fill="#CCD8D7"/>
  <path d="M375.789 237.22L375.027 235.081H376.218L376.125 236.744L375.789 237.22Z" fill="#CCD8D7"/>
  <path d="M377.297 235.081H376.219L376.784 224.989L379.343 232.177L377.297 235.081" fill="#CCD8D7"/>
  <path d="M376.125 236.744L376.218 235.081H377.297L376.125 236.744Z" fill="#CCD8D7"/>
  <path d="M378.924 242.579L377.261 240.12L376.124 238.44L375.688 237.793L375.866 237.436L375.789 237.22L376.125 236.744L377.297 235.081L379.342 232.177L381.336 237.772L378.924 242.579" fill="#CCD8D7"/>
  <path d="M756.014 178.192C736.994 178.193 721.574 204.546 721.574 237.056C721.576 241.292 721.836 245.42 722.336 249.403C725.656 275.977 739.472 295.911 756.014 295.909C772.554 295.908 786.371 275.975 789.69 249.399C790.189 245.417 790.449 241.288 790.449 237.053C790.449 204.542 775.032 178.191 756.014 178.192" fill="#8895A3"/>
  <path d="M756.014 181.341C738.762 181.343 724.726 206.336 724.726 237.056C724.726 241.085 724.972 245.108 725.459 249.012C728.627 274.363 741.478 292.761 756.015 292.76C770.551 292.76 783.398 274.36 786.566 249.009C787.054 245.105 787.3 241.083 787.3 237.053C787.3 221.88 783.872 207.664 777.646 197.021C771.728 186.909 764.047 181.341 756.014 181.341V181.341ZM756.015 299.059C737.968 299.06 722.834 278.801 719.21 249.792C718.69 245.632 718.426 241.347 718.426 237.056C718.426 202.284 734.936 175.044 756.014 175.043C766.376 175.043 775.99 181.717 783.082 193.84C789.864 205.433 793.6 220.78 793.6 237.053C793.6 241.343 793.336 245.628 792.816 249.789C789.192 278.797 774.059 299.059 756.015 299.059Z" fill="#E1EAE9"/>
  <path d="M749.208 291.397C745.006 289.695 741.078 286.453 737.651 281.997L740.087 281.861L740.068 281.527C744.892 280.537 749.528 275.28 753.102 268.244L753.686 269.109L757.86 266.287L755.512 262.815C757.41 257.909 758.795 252.535 759.447 247.321C759.76 244.808 759.955 242.22 760.018 239.572H770.378C770.295 242.928 770.048 246.211 769.65 249.399C767.271 268.437 759.504 284.064 749.208 291.397ZM734.815 277.843C731.552 272.476 728.91 265.88 727.148 258.429L727.752 257.224C729.686 265.768 732.471 272.231 734.732 276.365L734.815 277.843Z" fill="#CCD8D7"/>
  <path d="M745.996 293.369C735.991 288.177 727.912 275.417 724.047 258.986L726.3 260.117L727.148 258.429C728.91 265.88 731.552 272.476 734.815 277.842L735.056 282.142L737.651 281.997C741.078 286.453 745.006 289.694 749.208 291.397C748.162 292.142 747.091 292.801 745.996 293.369Z" fill="#E1EAE9"/>
  <path d="M725.62 250.234C725.564 249.828 725.511 249.421 725.459 249.012C725.074 245.921 724.839 242.756 724.758 239.572H725.484C725.607 242.87 725.883 245.994 726.272 248.936L725.62 250.234" fill="#CCD8D7"/>
  <path d="M723.212 255.036C722.866 253.196 722.573 251.316 722.334 249.403C721.937 246.213 721.689 242.929 721.606 239.572H724.758C724.84 242.756 725.074 245.921 725.46 249.012C725.512 249.421 725.565 249.828 725.621 250.235L723.212 255.036V255.036ZM721.576 237.587C721.576 237.411 721.574 237.233 721.574 237.056C721.574 236.879 721.576 236.701 721.576 236.523V237.587Z" fill="#E1EAE9"/>
  <path d="M770.377 234.533H759.97C759.633 226.835 758.082 218.973 755.629 212.228L757.833 209.101L753.713 206.199L753.317 206.76C749.841 199.664 745.23 194.636 740 193.781L740.086 192.235L737.558 192.092C740.966 187.645 744.898 184.393 749.153 182.692C761.2 191.228 769.798 211.099 770.377 234.533V234.533ZM728.664 211.604L728.402 210.869C730.069 205.323 732.246 200.333 734.822 196.103L734.712 198.085C732.793 201.031 730.496 205.484 728.664 211.604" fill="#CCD8D7"/>
  <path d="M728.402 210.869L727.786 209.14L725.428 209.98C729.656 196.057 737.045 185.389 745.969 180.744C747.054 181.305 748.117 181.957 749.153 182.692C744.898 184.393 740.966 187.645 737.558 192.092L735.056 191.952L734.822 196.102C732.246 200.333 730.069 205.322 728.402 210.869" fill="#E1EAE9"/>
  <path d="M725.421 234.533H724.758C724.887 229.435 725.402 224.509 726.252 219.853L726.574 220.756C725.904 224.841 725.477 229.429 725.421 234.533Z" fill="#CCD8D7"/>
  <path d="M724.758 234.533H721.607C721.783 227.365 722.71 220.529 724.257 214.248L726.253 219.853C725.402 224.509 724.887 229.435 724.758 234.533Z" fill="#E1EAE9"/>
  <path d="M738.417 193.652C737.089 194.342 725.414 207.014 725.414 235.677C725.414 264.338 737.021 280.96 738.438 281.696C748.09 281.696 757.398 263.717 759.447 247.321C759.837 244.209 760.041 240.981 760.041 237.67C760.041 216.906 750.734 193.652 738.417 193.652" fill="#35323D"/>
  <path d="M770.408 239.572H770.377C770.397 238.737 770.408 237.897 770.408 237.053C770.408 236.208 770.397 235.369 770.377 234.533H770.408V239.572Z" fill="#CCD8D7"/>
  <path d="M770.377 239.572H760.017C760.032 238.941 760.04 238.308 760.04 237.67C760.04 236.63 760.016 235.582 759.971 234.533H770.377C770.397 235.369 770.408 236.208 770.408 237.053C770.408 237.897 770.397 238.737 770.377 239.572" fill="#CCD8D7"/>
  <path d="M760.018 239.572H746.449C746.523 238.756 746.562 237.918 746.563 237.066C746.563 236.204 746.523 235.358 746.447 234.533H759.971C760.017 235.582 760.041 236.63 760.041 237.67C760.041 238.308 760.033 238.941 760.018 239.572" fill="#CCD8D7"/>
  <path d="M721.607 239.572H721.576V237.586C721.58 238.252 721.59 238.913 721.607 239.572ZM721.576 236.522V234.533H721.607C721.59 235.193 721.58 235.857 721.576 236.522Z" fill="#E1EAE9"/>
  <path d="M725.485 239.572H724.759C724.737 238.734 724.727 237.896 724.727 237.056C724.727 236.21 724.737 235.369 724.757 234.533H725.42C725.416 234.912 725.413 235.292 725.413 235.677C725.413 237.001 725.439 238.3 725.485 239.572Z" fill="#CCD8D7"/>
  <path d="M724.759 239.572H721.607C721.59 238.913 721.58 238.252 721.576 237.586V236.522C721.58 235.857 721.59 235.193 721.607 234.533H724.757C724.737 235.369 724.727 236.21 724.727 237.056C724.727 237.896 724.738 238.734 724.759 239.572Z" fill="#E1EAE9"/>
  <path d="M727.782 239.572H725.486C725.439 238.3 725.414 237.001 725.414 235.677C725.414 235.292 725.417 234.912 725.421 234.533H727.785C727.709 235.358 727.67 236.205 727.67 237.066C727.67 237.92 727.707 238.756 727.782 239.572Z" fill="#CCD8D7"/>
  <path d="M737.651 281.997C736.662 280.712 735.715 279.324 734.815 277.842L734.732 276.365C736.526 279.646 737.99 281.462 738.438 281.696C738.982 281.696 739.527 281.637 740.068 281.526L740.087 281.861L737.651 281.997" fill="#CCD8D7"/>
  <path d="M735.056 282.143L734.814 277.843C735.714 279.324 736.661 280.712 737.65 281.997L735.056 282.143Z" fill="#E1EAE9"/>
  <path d="M738.437 281.696C737.989 281.462 736.525 279.646 734.731 276.365L733.359 251.885C734.51 252.738 735.779 253.212 737.114 253.212C737.575 253.212 738.029 253.156 738.471 253.046L740.067 281.526C739.526 281.637 738.981 281.696 738.437 281.696" fill="#CCD8D7"/>
  <path d="M734.713 198.085L734.824 196.102C735.692 194.677 736.605 193.337 737.56 192.092L740.088 192.234L740.001 193.781C739.48 193.696 738.95 193.652 738.417 193.652C737.994 193.872 736.522 195.306 734.713 198.085" fill="#CCD8D7"/>
  <path d="M734.822 196.103L735.056 191.952L737.558 192.092C736.604 193.337 735.69 194.677 734.822 196.103Z" fill="#E1EAE9"/>
  <path d="M733.359 222.247L734.713 198.085C736.522 195.307 737.994 193.872 738.417 193.652C738.95 193.652 739.479 193.696 740.001 193.781L738.471 221.084C738.029 220.976 737.577 220.919 737.115 220.919C735.781 220.92 734.51 221.393 733.359 222.247" fill="#CCD8D7"/>
  <path d="M753.685 269.109L731.99 237.028L753.713 206.199L757.833 209.101L738.113 237.087L757.86 266.287L753.685 269.109Z" fill="#CCD8D7"/>
  <path d="M724.048 258.986L721.797 257.858L723.213 255.036C723.465 256.374 723.742 257.692 724.048 258.986Z" fill="#E1EAE9"/>
  <path d="M727.148 258.429C726.525 255.799 726.013 253.061 725.621 250.235L726.273 248.936C726.664 251.884 727.169 254.648 727.752 257.224L727.148 258.429" fill="#CCD8D7"/>
  <path d="M726.301 260.117L724.048 258.987C723.742 257.692 723.465 256.375 723.213 255.036L725.622 250.235C726.014 253.061 726.526 255.799 727.149 258.429L726.301 260.117" fill="#E1EAE9"/>
  <path d="M727.752 257.224C727.169 254.648 726.664 251.884 726.273 248.936L728.641 244.214C729.295 246.469 730.247 248.428 731.409 249.936L727.752 257.224Z" fill="#CCD8D7"/>
  <path d="M724.255 214.248L723.039 210.831L725.427 209.98C725.004 211.371 724.614 212.796 724.255 214.248Z" fill="#E1EAE9"/>
  <path d="M726.573 220.756L726.252 219.853C726.823 216.728 727.545 213.727 728.403 210.869L728.664 211.604C727.851 214.321 727.129 217.368 726.573 220.756Z" fill="#CCD8D7"/>
  <path d="M726.252 219.853L724.256 214.248C724.615 212.796 725.005 211.37 725.428 209.98L727.787 209.14L728.403 210.869C727.545 213.726 726.822 216.728 726.252 219.853" fill="#E1EAE9"/>
  <path d="M729.222 228.193L726.574 220.756C727.13 217.368 727.852 214.321 728.665 211.604L732.66 222.825C731.269 224.099 730.088 225.952 729.222 228.193" fill="#CCD8D7"/>
  <path d="M738.473 253.046L738.079 246.029L741.618 251.262C740.658 252.154 739.597 252.769 738.473 253.046ZM733.361 251.885C732.662 251.368 732.009 250.712 731.41 249.936L733.066 246.634L733.361 251.885Z" fill="#CCD8D7"/>
  <path d="M737.114 253.212C735.779 253.212 734.51 252.739 733.359 251.885L733.064 246.635L735.374 242.032L738.078 246.029L738.471 253.047C738.028 253.156 737.575 253.212 737.114 253.212" fill="#CCD8D7"/>
  <path d="M744.664 246.772L739.795 239.572H746.448C746.42 239.869 746.39 240.163 746.352 240.453C746.062 242.785 745.475 244.932 744.664 246.772V246.772ZM746.447 234.533H739.912L744.78 227.625C745.627 229.631 746.212 231.983 746.447 234.533Z" fill="#CCD8D7"/>
  <path d="M746.448 239.572H739.795L738.113 237.086L739.912 234.533H746.447C746.523 235.358 746.563 236.204 746.563 237.066C746.561 237.918 746.523 238.756 746.448 239.572" fill="#CCD8D7"/>
  <path d="M728.641 244.214C728.3 243.034 728.041 241.774 727.876 240.453C727.84 240.162 727.808 239.869 727.781 239.572H730.971L728.641 244.214ZM731.479 234.533H727.784C727.997 232.22 728.499 230.07 729.221 228.193L731.479 234.533Z" fill="#CCD8D7"/>
  <path d="M730.971 239.572H727.782C727.707 238.756 727.67 237.92 727.67 237.066C727.67 236.205 727.709 235.358 727.785 234.533H731.479L732.241 236.673L731.991 237.028L732.139 237.245L730.971 239.572" fill="#CCD8D7"/>
  <path d="M738.06 228.415L738.47 221.084C739.677 221.38 740.812 222.068 741.826 223.068L738.06 228.415ZM733.234 224.443L732.658 222.825C732.886 222.617 733.12 222.424 733.358 222.247L733.234 224.443" fill="#CCD8D7"/>
  <path d="M735.793 231.629L733.234 224.443L733.358 222.247C734.509 221.393 735.78 220.92 737.114 220.919C737.576 220.919 738.028 220.976 738.47 221.084L738.06 228.415L735.793 231.629" fill="#CCD8D7"/>
  <path d="M741.617 251.263L738.078 246.029L735.374 242.032L737.786 237.225L735.793 231.629L738.06 228.415L741.826 223.068C742.99 224.213 743.997 225.772 744.78 227.625L739.912 234.533L738.113 237.087L739.794 239.572L744.664 246.772C743.85 248.617 742.812 250.153 741.617 251.263V251.263ZM732.138 237.245L731.99 237.028L732.24 236.673L732.317 236.888L732.138 237.245Z" fill="#CCD8D7"/>
  <path d="M731.409 249.936C730.246 248.428 729.294 246.469 728.641 244.215L730.97 239.572H732.669L733.065 246.635L731.409 249.936Z" fill="#CCD8D7"/>
  <path d="M732.669 239.572H730.971L732.139 237.245L732.575 237.892L732.669 239.572" fill="#CCD8D7"/>
  <path d="M733.066 246.635L732.67 239.572H733.713L735.375 242.032L733.066 246.635Z" fill="#CCD8D7"/>
  <path d="M733.712 239.572H732.669L732.574 237.892L733.712 239.572Z" fill="#CCD8D7"/>
  <path d="M732.669 234.533H731.478L729.221 228.193C730.086 225.952 731.267 224.099 732.658 222.825L733.234 224.443L732.669 234.533" fill="#CCD8D7"/>
  <path d="M732.24 236.673L731.479 234.533H732.669L732.576 236.196L732.24 236.673" fill="#CCD8D7"/>
  <path d="M733.749 234.533H732.67L733.235 224.443L735.794 231.629L733.749 234.533" fill="#CCD8D7"/>
  <path d="M732.576 236.196L732.67 234.533H733.748L732.576 236.196Z" fill="#CCD8D7"/>
  <path d="M735.375 242.032L733.712 239.572L732.575 237.892L732.139 237.245L732.317 236.888L732.24 236.673L732.576 236.196L733.748 234.533L735.793 231.629L737.787 237.225L735.375 242.032" fill="#CCD8D7"/>
  <path d="M388.049 248.72C386.963 248.72 384.485 245.776 383.81 240.377C383.698 239.477 383.641 238.549 383.641 237.614C383.642 230.702 386.703 226.506 388.05 226.506C388.461 226.506 389.421 227.101 390.381 228.74C391.699 230.996 392.455 234.23 392.455 237.613C392.455 238.548 392.399 239.477 392.287 240.374C391.613 245.774 389.133 248.72 388.049 248.72" fill="#E2EFEF"/>
  <path d="M744.498 248.173C743.413 248.173 740.934 245.228 740.259 239.829C740.147 238.931 740.09 238.001 740.09 237.067C740.091 230.156 743.153 225.959 744.499 225.959C744.91 225.959 745.87 226.553 746.83 228.193C748.149 230.449 748.905 233.683 748.905 237.065C748.905 238 748.847 238.929 748.735 239.828C748.062 245.228 745.582 248.173 744.498 248.173" fill="#E2EFEF"/>
  <path d="M524.117 109.111C525.376 111.887 530.527 115.273 542.495 117.644C554.463 120.013 578.713 114.515 578.713 114.515C578.713 114.515 566.584 107.416 533.676 107.416L524.117 109.111" fill="#902B34"/>
  <path d="M526.517 100.165L545.369 94.7214L548.8 98.568C548.8 98.568 536.707 109.029 534.149 111.668C529.111 116.864 515.453 104.072 526.517 100.165Z" fill="#D82928"/>
  <path d="M543.545 99.488C543.545 99.488 539.135 103.427 535.553 104.64C531.969 105.853 526.748 101.747 528.861 99.488L526.517 100.165C515.453 104.072 529.111 116.864 534.149 111.668C536.247 109.505 544.744 102.092 547.74 99.488H543.545" fill="#C2252D"/>
  <path d="M592.255 93.4614C592.255 97.6187 588.854 101.02 584.696 101.02H543.434C539.276 101.02 535.875 97.6187 535.875 93.4614V85.708C535.875 81.5507 539.276 78.1494 543.434 78.1494H584.696C588.854 78.1494 592.255 81.5507 592.255 85.708V93.4614Z" fill="#C2252D"/>
  <path d="M576.193 83.9146C576.193 85.7013 574.493 87.1626 572.413 87.1626H542.173C540.095 87.1626 538.395 85.7013 538.395 83.9146C538.395 82.1293 540.095 80.6679 542.173 80.6679H572.413C574.493 80.6679 576.193 82.1293 576.193 83.9146Z" fill="#F03E39"/>
  <path d="M16.7764 177.791L36.5604 147.871C41.4337 151.236 45.9617 155.219 50.0604 159.224L32.683 177.975C27.3737 177.997 21.9457 177.949 16.7764 177.791" fill="white"/>
  <defs>
    <linearGradient id="paint0_linear_818_20014" x1="350.704" y1="-53.7975" x2="365.291" y2="81.3304" gradientUnits="userSpaceOnUse">
      <stop stop-color="white"/>
      <stop offset="1" stop-color="#8BBEB3"/>
    </linearGradient>
    <linearGradient id="paint1_linear_818_20014" x1="350.704" y1="-53.7976" x2="365.292" y2="81.3303" gradientUnits="userSpaceOnUse">
      <stop stop-color="white"/>
      <stop offset="1" stop-color="#8E9497"/>
    </linearGradient>
    <linearGradient id="paint2_linear_818_20014" x1="350.703" y1="-53.7972" x2="365.291" y2="81.3307" gradientUnits="userSpaceOnUse">
      <stop stop-color="white"/>
      <stop offset="1" stop-color="#738D8C"/>
    </linearGradient>
    <linearGradient id="paint3_linear_818_20014" x1="350.704" y1="-53.7976" x2="365.292" y2="81.3304" gradientUnits="userSpaceOnUse">
      <stop stop-color="white"/>
      <stop offset="1" stop-color="#738D8C"/>
    </linearGradient>
    <linearGradient id="paint4_linear_818_20014" x1="350.704" y1="-53.7977" x2="365.292" y2="81.3304" gradientUnits="userSpaceOnUse">
      <stop stop-color="#A2CDC2"/>
      <stop offset="1" stop-color="#77A89F"/>
    </linearGradient>
    <linearGradient id="paint5_linear_818_20014" x1="571.927" y1="-43.2735" x2="599.012" y2="74.9195" gradientUnits="userSpaceOnUse">
      <stop stop-color="#DDE2E0"/>
      <stop offset="1" stop-color="#57696D"/>
    </linearGradient>
    <linearGradient id="paint6_linear_818_20014" x1="571.927" y1="-43.2733" x2="599.013" y2="74.9198" gradientUnits="userSpaceOnUse">
      <stop stop-color="#E4EDEA"/>
      <stop offset="1" stop-color="#78A29C"/>
    </linearGradient>
    <linearGradient id="paint7_linear_818_20014" x1="768.217" y1="172.097" x2="698.51" y2="233.405" gradientUnits="userSpaceOnUse">
      <stop stop-color="#F03E39"/>
      <stop offset="0.790077" stop-color="#D82927"/>
      <stop offset="1" stop-color="#D82927"/>
    </linearGradient>
    <linearGradient id="paint8_linear_818_20014" x1="557.314" y1="133.181" x2="561.799" y2="235.096" gradientUnits="userSpaceOnUse">
      <stop stop-color="#B92424"/>
      <stop offset="0.784297" stop-color="#D42927"/>
      <stop offset="1" stop-color="#D42927"/>
    </linearGradient>
    <linearGradient id="paint9_linear_818_20014" x1="557.317" y1="133.181" x2="561.802" y2="235.096" gradientUnits="userSpaceOnUse">
      <stop stop-color="#342330"/>
      <stop offset="0.784297" stop-color="#3B2A3C"/>
      <stop offset="1" stop-color="#3B2A3C"/>
    </linearGradient>
    <linearGradient id="paint10_linear_818_20014" x1="557.305" y1="133.181" x2="561.791" y2="235.096" gradientUnits="userSpaceOnUse">
      <stop stop-color="#B92424"/>
      <stop offset="0.784297" stop-color="#D42927"/>
      <stop offset="1" stop-color="#D42927"/>
    </linearGradient>
    <linearGradient id="paint11_linear_818_20014" x1="557.315" y1="133.181" x2="561.8" y2="235.096" gradientUnits="userSpaceOnUse">
      <stop stop-color="#9E2228"/>
      <stop offset="0.784297" stop-color="#B3272C"/>
      <stop offset="1" stop-color="#B3272C"/>
    </linearGradient>
    <linearGradient id="paint12_linear_818_20014" x1="557.315" y1="133.181" x2="561.8" y2="235.096" gradientUnits="userSpaceOnUse">
      <stop stop-color="#28231F"/>
      <stop offset="0.784297" stop-color="#282425"/>
      <stop offset="1" stop-color="#282425"/>
    </linearGradient>
    <linearGradient id="paint13_linear_818_20014" x1="557.315" y1="133.181" x2="561.8" y2="235.096" gradientUnits="userSpaceOnUse">
      <stop stop-color="#B92424"/>
      <stop offset="0.784297" stop-color="#D42927"/>
      <stop offset="1" stop-color="#D42927"/>
    </linearGradient>
    <linearGradient id="paint14_linear_818_20014" x1="557.315" y1="133.181" x2="561.8" y2="235.096" gradientUnits="userSpaceOnUse">
      <stop stop-color="#B92424"/>
      <stop offset="0.784297" stop-color="#D42927"/>
      <stop offset="1" stop-color="#D42927"/>
    </linearGradient>
  </defs>
</svg>
