<svg width="165" height="107" viewBox="0 0 165 107" fill="none" xmlns="http://www.w3.org/2000/svg">
<path d="M-122.713 106.221H-102.667L146.304 106.221C148.409 106.164 149.066 106.221 150.543 106.221C150.543 105.543 150.543 103.046 148.234 101.5C146.12 103.34 143.727 104.376 141.193 104.376H125.797L125.797 104.357C122.747 104.181 119.919 102.504 117.559 99.7426H57.4631C54.9664 102.666 51.9454 104.376 48.6902 104.376H33.825H33.2955L33.2951 104.361C31.7703 104.274 30.3016 103.811 28.9187 103.025C27.3751 103.903 25.7244 104.378 24.0084 104.378H8.61365L8.61278 104.358C5.56157 104.183 2.73312 102.505 0.373383 99.7426H-58.9671C-61.4638 102.666 -64.4848 104.376 -67.7399 104.376H-82.6051H-83.1351L-83.1356 104.361C-87.3377 104.12 -91.118 101.026 -93.8327 96.1763H-121.32C-127.63 96.1763 -129.38 104.326 -129.763 106.221C-126.317 106.221 -126.546 106.221 -122.713 106.221Z" fill="#49484D"/>
<path d="M103.295 31.8994C103.295 33.264 102.179 34.3804 100.814 34.3804H91.4052C90.0402 34.3804 88.9238 33.264 88.9238 31.8994V29.3545C88.9238 27.99 90.0402 26.8736 91.4052 26.8736H100.814C102.179 26.8736 103.295 27.99 103.295 29.3545V31.8994Z" fill="#EF3F35"/>
<path d="M23.5079 51.3101H8.58577C-0.0277901 51.3101 -7.01159 63.2467 -7.01159 77.9723C-7.01159 79.8909 -6.89344 81.7609 -6.66806 83.5644C-5.20023 95.3154 0.799347 104.195 8.05317 104.611L8.05405 104.631H23.5079C31.0011 104.631 37.2597 95.602 38.7634 83.5644C38.9888 81.7609 39.1074 79.8909 39.1074 77.9723C39.1074 63.2467 32.124 51.3101 23.5079 51.3101Z" fill="#28252D"/>
<path d="M141.143 51.3085H126.221C117.607 51.3085 110.623 63.2446 110.623 77.9707C110.623 79.8893 110.741 81.7589 110.967 83.5628C112.435 95.3138 118.435 104.193 125.688 104.61L125.689 104.63H141.143C148.636 104.63 154.894 95.6004 156.398 83.5628C156.624 81.7593 156.742 79.8893 156.742 77.9711C156.742 63.2451 149.758 51.3085 141.143 51.3085Z" fill="#35323D"/>
<path d="M-46.8619 8.23994C-28.0326 -3.44759 42.4724 -0.591145 57.2317 6.04474C69.1595 9.33271 102.842 39.25 102.842 39.25L-44.7735 33.6286C-44.7735 32.8137 -44.6812 31.4959 -44.4558 29.8693C-52.1696 26.1734 -61.4882 17.3178 -46.8619 8.23994Z" fill="#F03E39"/>
<path d="M-30.3292 6.58612C-26.1664 6.04477 -21.4194 6.04476 -20.4465 6.04476C-5.11566 6.04476 46.8935 6.04476 54.0489 6.04476C64.3876 6.04476 102.016 39.25 102.016 39.25L-52.9931 35.7603C-77.7061 35.696 -52.7765 10.643 -30.3292 6.58612Z" fill="#78B4A9"/>
<path d="M90.617 34.5531C91.5269 34.417 92.6284 34.277 94.6892 34.1706C94.3522 33.9921 93.9903 33.7872 93.6048 33.5566C91.6481 32.3868 88.7037 30.7719 84.856 29.0638C87.4686 31.4511 89.498 33.417 90.617 34.5531ZM94.8139 34.164C95.1881 34.1452 95.5929 34.1277 96.0332 34.1115C84.989 24.7894 61.8161 6.04457 54.0481 6.04457C53.2153 6.04457 50.94 6.04457 49.0188 6.04457C49.2988 6.04457 49.575 6.04457 49.8455 6.04457C49.7032 6.04457 49.48 6.04456 49.1899 6.04587C50.4441 6.07082 51.8533 6.36318 53.3732 6.87127H54.0481C59.3251 6.87127 74.4634 17.0231 94.8139 34.164Z" fill="#7B8688"/>
<path d="M-1.73002 34.4958L9.61791 34.3492C5.1492 31.9545 6.89667 26.8429 11.9164 21.614C11.7916 21.3063 11.666 20.9983 11.5396 20.6902C5.6074 20.5694 2.10936 19.9983 -0.411427 18.5768L-4.96721 23.1427C-3.91688 27.6337 -2.81186 32.0223 -1.73002 34.4958ZM-61.6298 25.7116C-60.0346 23.1234 -57.3449 20.3173 -53.9747 17.6565C-53.9602 17.6447 -53.9462 17.6337 -53.9318 17.6219C-57.2985 20.2731 -59.9891 23.07 -61.5957 25.653C-61.6066 25.6722 -61.6184 25.6919 -61.6298 25.7112V25.7116ZM-46.6136 12.7313C-46.5694 12.7064 -46.5265 12.6818 -46.4819 12.6569C-43.9922 11.2538 -41.3515 9.99389 -38.6526 8.95931C-41.3992 10.0123 -44.0849 11.298 -46.6136 12.7313ZM-7.54358 12.3488C-6.52214 12.3488 -5.56633 12.3488 -4.69544 12.3488C-4.68362 11.9895 -4.65387 11.6184 -4.62193 11.2285C-4.51908 9.95713 -4.40485 8.54619 -4.86306 6.87135H38.5343C39.0113 6.76719 39.4875 6.67179 39.9628 6.58601C43.5168 6.12387 47.4962 6.05602 49.1895 6.04595C49.1317 6.04508 49.0752 6.04465 49.0183 6.04465C30.0853 6.04465 -10.6696 6.04465 -20.4477 6.04465C-20.8342 6.04465 -21.8158 6.04465 -23.1191 6.07835C-21.8158 6.04465 -20.8342 6.04465 -20.4477 6.04465C-18.1361 6.04465 -14.9869 6.04465 -11.2876 6.04465C-10.1322 6.71117 -9.12082 7.77288 -8.42804 9.53918C-8.1497 10.2482 -7.85387 11.2101 -7.54358 12.3488ZM-38.6495 8.95799C-38.6267 8.94924 -38.6027 8.94005 -38.5795 8.9313C-38.6027 8.94005 -38.6267 8.94924 -38.6495 8.95799ZM-38.5747 8.92955C-38.5672 8.92692 -38.5628 8.92474 -38.5554 8.92211C-38.562 8.92474 -38.5681 8.92692 -38.5747 8.92955ZM-38.5453 8.91818C-38.5401 8.91643 -38.5335 8.91378 -38.5283 8.9116C-38.5348 8.91422 -38.5383 8.91555 -38.5453 8.91818ZM-38.5143 8.90636C-38.506 8.9033 -38.4989 8.90066 -38.4902 8.8976C-38.4985 8.90066 -38.5064 8.9033 -38.5143 8.90636ZM-38.4731 8.89104C-38.4688 8.88929 -38.4644 8.88753 -38.46 8.88578C-38.4644 8.88753 -38.4692 8.88929 -38.4731 8.89104ZM-38.4425 8.87922C-38.4385 8.87791 -38.4351 8.87659 -38.4311 8.87484C-38.4351 8.87659 -38.4385 8.87791 -38.4425 8.87922ZM-38.4105 8.86696C-38.4075 8.86608 -38.4044 8.86478 -38.4014 8.8639C-38.4053 8.86521 -38.4066 8.86564 -38.4105 8.86696ZM-38.372 8.85253C-38.3712 8.85209 -38.3685 8.85122 -38.3677 8.85078C-38.369 8.85122 -38.3707 8.85209 -38.372 8.85253ZM-38.341 8.84114C-38.3388 8.84027 -38.337 8.83939 -38.3348 8.83851C-38.3379 8.83983 -38.3383 8.83983 -38.341 8.84114ZM-38.309 8.8289C-38.3077 8.82846 -38.3051 8.82758 -38.3038 8.82715C-38.3051 8.82758 -38.3077 8.82846 -38.309 8.8289ZM-38.2088 8.79125C-38.2075 8.79081 -38.2079 8.79082 -38.2066 8.79082L-38.2088 8.79125ZM-32.0771 6.94223H-32.0766H-32.0771ZM-31.9466 6.91291C-31.9458 6.91248 -31.9449 6.91247 -31.944 6.91204L-31.9466 6.91291ZM-31.8793 6.89804L-31.8784 6.89759L-31.8793 6.89804ZM-31.8477 6.89103C-31.8469 6.89059 -31.8451 6.89015 -31.8442 6.89015L-31.8477 6.89103ZM-31.8145 6.88359L-31.8123 6.88317L-31.8145 6.88359ZM-31.7493 6.86915C-31.7475 6.86871 -31.7449 6.86828 -31.7427 6.86785C-31.7458 6.86828 -31.7467 6.86871 -31.7493 6.86915ZM-31.7182 6.86259C-31.716 6.86215 -31.7134 6.86127 -31.7112 6.86084C-31.7143 6.86171 -31.7151 6.86171 -31.7182 6.86259ZM-31.6491 6.84772C-31.6469 6.84728 -31.6473 6.84728 -31.6451 6.84684C-31.6464 6.84684 -31.6477 6.84728 -31.6491 6.84772ZM-31.6193 6.84116C-31.6171 6.84072 -31.6132 6.83984 -31.611 6.8394C-31.6136 6.83984 -31.6162 6.84028 -31.6193 6.84116ZM-31.5843 6.8337C-31.5834 6.83326 -31.5825 6.83326 -31.5812 6.83282C-31.5825 6.83326 -31.583 6.83326 -31.5843 6.8337ZM-31.5502 6.82626C-31.548 6.82582 -31.5471 6.82582 -31.5449 6.82539C-31.5462 6.82539 -31.5488 6.82582 -31.5502 6.82626ZM-31.5186 6.8197C-31.5164 6.81926 -31.5147 6.81884 -31.5125 6.8184C-31.5151 6.81884 -31.5156 6.81883 -31.5186 6.8197ZM-31.4876 6.81314C-31.4854 6.8127 -31.4827 6.81183 -31.4806 6.81139C-31.4832 6.81226 -31.4849 6.81227 -31.4876 6.81314ZM-31.4189 6.79869C-31.418 6.79826 -31.4145 6.79783 -31.4136 6.79739C-31.4149 6.79783 -31.4176 6.79826 -31.4189 6.79869ZM-31.3878 6.79214C-31.3843 6.79126 -31.3843 6.79125 -31.3812 6.79081C-31.3838 6.79125 -31.3847 6.79126 -31.3878 6.79214ZM-31.3554 6.78513C-31.3541 6.78513 -31.351 6.78425 -31.3501 6.78425C-31.3515 6.78425 -31.3541 6.78513 -31.3554 6.78513ZM-31.3191 6.77769C-31.3182 6.77769 -31.3165 6.77725 -31.3151 6.77681C-31.3165 6.77725 -31.3178 6.77725 -31.3191 6.77769ZM-31.2889 6.77156C-31.2858 6.77068 -31.2841 6.77068 -31.281 6.7698C-31.2836 6.77024 -31.2863 6.77112 -31.2889 6.77156ZM-31.2561 6.76457C-31.2543 6.76413 -31.2526 6.76413 -31.2504 6.76369C-31.2517 6.76369 -31.2547 6.76457 -31.2561 6.76457ZM-31.2197 6.75711C-31.2184 6.75711 -31.218 6.75712 -31.2171 6.75668C-31.2184 6.75712 -31.2184 6.75711 -31.2197 6.75711ZM-31.1895 6.751C-31.1873 6.75056 -31.183 6.74969 -31.1808 6.74925C-31.1834 6.74969 -31.1869 6.75056 -31.1895 6.751ZM-31.1593 6.74487C-31.1563 6.74443 -31.1523 6.74356 -31.1488 6.74269C-31.1519 6.74356 -31.1567 6.74443 -31.1593 6.74487ZM-31.1226 6.73743C-31.1217 6.73743 -31.1208 6.73742 -31.12 6.73698C-31.1213 6.73742 -31.1213 6.73743 -31.1226 6.73743ZM-31.0902 6.73087C-31.0867 6.73043 -31.0832 6.72956 -31.0801 6.72912C-31.0841 6.72999 -31.0858 6.73 -31.0902 6.73087ZM-31.0609 6.72516C-31.0565 6.72429 -31.0526 6.72341 -31.0482 6.72254C-31.0526 6.72341 -31.0565 6.72429 -31.0609 6.72516ZM-31.0298 6.71905C-31.0267 6.71818 -31.0219 6.71729 -31.0189 6.71685C-31.0228 6.71773 -31.0259 6.71818 -31.0298 6.71905ZM-30.99 6.71117C-30.9869 6.71029 -30.9856 6.71029 -30.9825 6.70942C-30.9838 6.70985 -30.9887 6.71073 -30.99 6.71117ZM-30.9606 6.70504C-30.9576 6.7046 -30.9519 6.70329 -30.9488 6.70286C-30.9528 6.70373 -30.9563 6.70416 -30.9606 6.70504ZM-30.9291 6.69892C-30.9261 6.69849 -30.9226 6.69761 -30.9195 6.69717C-30.9235 6.69805 -30.9252 6.69805 -30.9291 6.69892ZM-30.8911 6.69147L-30.8897 6.69104L-30.8911 6.69147ZM-30.8596 6.68535C-30.8561 6.68448 -30.8543 6.68448 -30.8512 6.6836C-30.8539 6.68404 -30.8565 6.68492 -30.8596 6.68535ZM-30.8302 6.67965C-30.8272 6.67921 -30.8219 6.67791 -30.8189 6.67747C-30.8228 6.67834 -30.8263 6.67877 -30.8302 6.67965ZM-30.7987 6.67354C-30.7957 6.6731 -30.7917 6.67222 -30.7887 6.67179C-30.793 6.67222 -30.7948 6.67266 -30.7987 6.67354ZM-30.7611 6.6661C-30.7567 6.66523 -30.7528 6.66478 -30.7484 6.6639C-30.7523 6.66478 -30.7567 6.66566 -30.7611 6.6661ZM-30.7313 6.66039C-30.727 6.65952 -30.723 6.65909 -30.7187 6.65822C-30.7243 6.65909 -30.7257 6.65952 -30.7313 6.66039ZM-30.7002 6.65471C-30.6972 6.65384 -30.6919 6.65297 -30.6889 6.65253C-30.6928 6.65341 -30.6959 6.65384 -30.7002 6.65471ZM-30.6604 6.64683C-30.6574 6.64639 -30.6556 6.64596 -30.6525 6.64552C-30.6552 6.64596 -30.6578 6.64639 -30.6604 6.64683ZM-30.6307 6.64159C-30.6263 6.64071 -30.6241 6.64026 -30.6197 6.63939C-30.6241 6.64026 -30.6267 6.64071 -30.6307 6.64159ZM-30.5992 6.63546C-30.5961 6.63502 -30.593 6.63414 -30.5895 6.63371C-30.5926 6.63414 -30.5965 6.63502 -30.5992 6.63546ZM-30.5672 6.62933C-30.5642 6.62889 -30.5624 6.62846 -30.5593 6.62802C-30.562 6.62846 -30.5646 6.62889 -30.5672 6.62933ZM-30.5313 6.62276C-30.5283 6.62233 -30.5226 6.62102 -30.5195 6.62058C-30.5234 6.62146 -30.5274 6.62189 -30.5313 6.62276ZM-30.5007 6.61708C-30.4963 6.61621 -30.4937 6.61576 -30.4898 6.61488C-30.4924 6.61532 -30.4981 6.61664 -30.5007 6.61708ZM-30.467 6.61095C-30.4653 6.61051 -30.4622 6.61008 -30.46 6.60964C-30.4617 6.60964 -30.4657 6.61051 -30.467 6.61095ZM-30.4302 6.60394C-30.4294 6.60394 -30.4254 6.60306 -30.4241 6.60306C-30.4254 6.60306 -30.4289 6.60394 -30.4302 6.60394ZM-30.4 6.5987C-30.3965 6.59783 -30.3943 6.59739 -30.3908 6.59695C-30.3939 6.59739 -30.397 6.59783 -30.4 6.5987ZM-30.3685 6.593C-30.3655 6.59212 -30.3637 6.59212 -30.3602 6.59125C-30.3633 6.59168 -30.3659 6.59212 -30.3685 6.593Z" fill="#5E7D7C"/>
<path d="M49.1901 6.0459C49.4803 6.04458 49.7035 6.04459 49.8457 6.04459C49.5752 6.04459 49.2991 6.04459 49.019 6.04459C49.0759 6.04459 49.1323 6.04502 49.1901 6.0459Z" fill="#625B62"/>
<path d="M15.8339 34.1011H18.3145V32.8608C18.3145 29.8538 11.7958 14.832 10.489 11.8512L9.99099 10.7151L7.71878 11.7112L8.21726 12.8473C11.1617 19.5645 15.8339 30.9383 15.8339 32.8608V34.1011Z" fill="#5E7D7C"/>
<path d="M84.8555 29.064C76.6935 21.6053 62.8511 10.0403 53.3728 6.87141H38.5343C29.3583 8.87754 19.9522 14.2062 13.8406 19.748C13.9719 20.0679 14.1036 20.3904 14.2354 20.7152C19.4901 20.7152 26.2003 20.4613 35.4866 20.1099L36.1785 20.0841C37.6809 20.0272 39.1995 19.9983 40.694 19.9983C60.1487 19.9983 75.2935 24.8193 84.8555 29.064Z" fill="url(#paint0_linear_480_7762)"/>
<path d="M94.6897 34.1707C94.7304 34.1685 94.7729 34.1663 94.8145 34.1641C74.4639 17.0232 59.3256 6.87132 54.0486 6.87132H53.3738C62.8521 10.0403 76.6945 21.6052 84.8565 29.0639C88.7042 30.772 91.6486 32.3868 93.6053 33.5566C93.9908 33.7873 94.3528 33.9921 94.6897 34.1707Z" fill="url(#paint1_linear_480_7762)"/>
<path d="M11.5404 20.6901C10.3999 17.9067 9.21085 15.1124 8.21785 12.8472L7.71937 11.7111L9.99158 10.715L10.4896 11.8511C11.0161 13.0524 12.3898 16.21 13.8415 19.7478C19.9531 14.206 29.3592 8.87737 38.5352 6.87125H-4.86224C-4.40404 8.54608 -4.51827 9.95703 -4.62112 11.2284C-4.65306 11.6183 -4.68281 11.9894 -4.69463 12.3487C-3.69375 12.3487 -2.80405 12.3487 -2.04737 12.3487C8.01522 12.3487 0.518063 17.6463 0.518063 17.6463L-0.410614 18.5767C2.11018 19.9982 5.60822 20.5693 11.5404 20.6901Z" fill="url(#paint2_linear_480_7762)"/>
<path d="M14.2319 20.7151C14.2333 20.7151 14.235 20.7151 14.2363 20.7151C14.1046 20.3904 13.9729 20.0678 13.8416 19.7479C12.3899 16.2101 11.0162 13.0525 10.4897 11.8512L9.99169 10.7151L7.71948 11.7112L8.21796 12.8473C9.21095 15.1125 10.4 17.9068 11.5405 20.6902C12.3869 20.7072 13.2823 20.7151 14.2319 20.7151Z" fill="url(#paint3_linear_480_7762)"/>
<path d="M-0.410237 18.5768L0.518436 17.6464C0.518436 17.6464 8.01558 12.3488 -2.04699 12.3488C-2.80366 12.3488 -3.69337 12.3488 -4.69424 12.3488C-4.73363 13.5488 -4.56821 14.6206 -3.57434 15.8394C-2.63955 16.9855 -1.64131 17.8823 -0.410237 18.5768Z" fill="url(#paint4_linear_480_7762)"/>
<path d="M54.0482 6.04412C61.5261 6.04412 84.5392 24.4748 96.0057 34.0888C97.5164 35.3553 90.0241 35.7706 79.0254 35.7706C58.0911 35.7706 24.4525 35.9203 16.0088 35.9203L6.0845 34.3947H6.06479C0.427589 34.3947 -2.15928 24.698 -4.63631 17.7877C-5.53609 15.2761 -6.7851 11.6117 -5.39779 9.03275C-3.71551 5.90539 6.93349 6.07169 10.0814 6.04412C29.1309 6.04412 49.7357 6.04412 54.0482 6.04412ZM53.221 7.6984H12.1493C11.9624 7.69971 11.7318 7.70103 11.4744 7.7019C9.56895 7.70978 6.38032 7.7229 3.44859 8.08877C-1.12822 8.65989 -1.81136 9.69972 -1.87393 9.81613C-2.95096 11.8188 -1.68926 15.3387 -1.0118 17.2297C-0.718147 18.0498 -0.429298 18.8879 -0.12426 19.775C1.86304 25.5513 3.509 31.0866 7.30505 31.0866L15.1606 31.3719C15.1606 31.3719 26.2735 31.5951 35.0832 31.8774C48.9685 32.3225 91.2368 32.2446 93.3436 32.0231C87.737 27.3697 81.025 22.968 73.8092 17.8065C61.5143 9.0113 56.9283 7.6984 55.2889 7.6984H53.221Z" fill="#474455"/>
<path d="M16.0079 34.2665C21.0968 34.8883 28.4215 34.7128 37.6062 34.5369C45.5799 34.3842 54.9554 34.2319 65.4867 34.6012C100.838 35.8419 80.3532 33.989 104.689 33.989C129.025 33.989 152.632 41.5846 157.68 50.4262L160.636 57.5505C161.596 60.2152 160.969 64.41 160.969 67.4205L155.354 80.3028C155.354 83.3128 156.058 85.1846 153.867 85.1846C153.867 85.1846 154.993 86.1163 152.183 86.1163C149.372 86.1163 148.679 85.8415 148.679 80.2231C148.679 80.0708 148.677 79.919 148.676 79.7671C148.676 79.6918 148.679 79.617 148.679 79.5417C148.679 62.9964 140.692 49.5356 130.876 49.5356C121.06 49.5356 113.074 62.996 113.074 79.5413C113.074 79.6161 113.077 79.691 113.077 79.7658C113.076 79.9181 113.074 80.0699 113.074 80.2227C113.074 84.8481 112.604 86.112 109.936 86.112C95.4075 86.112 31.9445 86.112 27.9042 86.112C23.2478 86.112 23.5821 84.6209 23.5821 82.0117C23.5821 81.206 23.6171 80.4481 23.6171 79.8117C23.6171 69.603 20.6075 60.5623 16.0079 55.059V34.2665Z" fill="#E62530"/>
<path d="M-72.5564 90.7408C-72.5564 91.6647 -71.7997 92.4209 -70.8758 92.4209H129.833C130.757 92.4209 131.514 91.6647 131.514 90.7408V50.9784C131.514 50.0542 130.757 49.2979 129.833 49.2979H-70.8758C-71.7997 49.2979 -72.5564 50.0542 -72.5564 50.9784V90.7408Z" fill="#3C2B3F"/>
<path d="M32.8314 104.63H48.2852C55.778 104.63 62.0371 95.6004 63.5408 83.5628C63.7662 81.7593 63.8848 79.8893 63.8848 77.9711C63.8848 63.2451 56.9014 51.3085 48.2852 51.3085H33.3631L31.9828 78.7125L32.8314 104.63Z" fill="#28252D"/>
<path d="M119.161 85.1843C119.037 84.1909 118.972 83.1611 118.972 82.1042C118.972 73.9944 122.819 67.4202 127.562 67.4207L119.161 85.1843Z" fill="#28252D"/>
<path d="M127.563 67.4206C132.308 67.4206 136.154 73.9948 136.154 82.105C136.154 83.1615 136.09 84.1913 135.965 85.1847L127.563 67.4206Z" fill="#28252D"/>
<path d="M57.4121 49.0564L59.2104 49.0669V87.0175H150.697C152.15 87.0175 156.911 84.5588 156.911 81.5487L161.859 69.0853C161.859 66.0748 161.564 61.4612 160.605 58.7964L157.109 49.747C156.701 48.61 149.023 47.5636 148.462 46.6936H141.079H80.7745H57.4121V49.0564Z" fill="#EF3F35"/>
<path d="M31.6174 34.8686C56.4143 39.5237 70.7329 48.4073 70.7329 48.4073C74.7811 49.1981 88.9496 57.0905 88.9496 57.0905L137.069 56.4699L144.172 54.1959C119.216 34.8686 94.066 34.8686 76.2865 34.8686H31.6174Z" fill="#F03E39"/>
<path d="M136.153 45.6783C135.571 46.186 131.669 46.0302 131.669 46.0302C131.669 46.0302 133.294 46.8722 134.765 47.7847C137.708 49.6096 140.236 54.1961 131.514 54.1961C122.792 54.1961 136.632 57.9234 138.094 57.9234C139.819 57.9234 142.367 58.0875 142.367 58.0875C142.367 58.0875 153.649 48.6061 152.719 48.0893C151.788 47.5724 143.864 43.9282 144.172 43.6521C147.566 40.6105 136.153 45.6783 136.153 45.6783Z" fill="#E62530"/>
<path d="M89.041 57.0905C89.041 57.0905 65.7653 34.2664 16.0086 34.2664L-62.6404 35.283L19.9369 42.8248L75.7579 57.0905H89.041Z" fill="#F03E39"/>
<path d="M-87.3002 29.768C-98.9978 29.768 -103.781 31.2122 -103.781 48.4179V57.8279C-103.781 60.838 -103.781 60.2529 -103.781 63.2629V69.3268H-99.8022C-97.2639 57.7457 -90.649 49.466 -82.9072 49.466C-72.9795 49.466 -64.902 63.0791 -64.902 79.8117C-64.902 80.4481 -64.937 81.206 -64.937 82.0117C-64.937 84.6209 -65.2713 86.112 -60.6153 86.112C-56.5746 86.112 -1.38163 86.112 13.147 86.112C15.8157 86.112 16.2849 84.8481 16.2849 80.2227C16.2849 80.0699 16.2866 79.9181 16.2884 79.7658C16.2879 79.691 16.2849 79.6161 16.2849 79.5413C16.2849 62.996 24.2704 49.5356 34.0866 49.5356C43.9037 49.5356 53.5444 62.9964 53.5444 79.5417C53.5444 79.617 56.0223 79.6918 56.0219 79.7671C56.0232 79.919 53.5444 80.0708 53.5444 80.2231C53.5444 85.8415 60.4394 81.9811 63.2499 81.9811C66.0608 81.9811 57.9103 86.1163 57.9103 86.1163C60.1011 86.1163 64.6879 83.3128 64.6879 80.3028L63.0337 67.8393C63.0337 64.8292 60.1637 53.8069 55.5768 53.4157L69.1602 54.9745C64.112 46.133 32.2354 38.1242 7.89977 38.1242C-16.4363 38.1242 -12.4902 37.4958 -47.8416 36.2555C-83.1935 35.0148 -80.7112 29.768 -80.7112 29.768H-87.3002Z" fill="#D82928"/>
<path d="M-35.2874 82.8401C-31.8756 82.8401 -28.7364 82.7263 -26.3723 82.7263C-22.7688 82.7263 -16.771 82.7263 -10.8406 82.7263L-10.8384 53.9149C-10.8362 53.8922 -10.834 53.8703 -10.8318 53.8475C-30.1377 52.3701 -52.1365 50.8016 -62.775 50.0572C-56.3133 56.1946 -51.8564 67.6467 -51.5049 80.8703C-51.2822 81.0143 -51.0507 81.1552 -50.8073 81.293C-46.1679 82.5823 -40.42 82.8401 -35.2874 82.8401ZM-10.0139 82.7263C-2.62658 82.7263 4.47538 82.7263 6.49989 82.7263C10.2211 82.7263 11.4618 82.5197 11.5297 79.5412C11.5297 76.7018 11.745 73.9084 12.1634 71.2125H10.8277C10.6833 72.2064 10.5765 73.3132 10.5393 74.5206H10.9388V75.7609V77.0016H10.5253C10.5253 79.3705 10.5253 79.8523 10.5253 79.8523C10.5253 79.8523 6.99791 79.8523 4.98391 79.8523C3.59003 79.8523 2.37166 78.6943 1.75328 77.0016H-0.529867V74.5206H1.32178C1.32178 74.5062 1.32178 74.4917 1.32178 74.4773V71.2125H-0.529867V68.7315H1.77211C2.60493 66.8361 4.50295 65.504 6.69682 65.504H12.3677C12.3677 65.504 11.808 66.665 11.306 68.7315H12.1791V69.9723V71.1119C13.0526 65.5548 14.7887 60.416 17.2754 56.1451C10.7927 55.5434 0.853071 54.7438 -10.0095 53.9105C-10.0108 53.9259 -10.0121 53.9403 -10.0139 53.9552V82.7263Z" fill="url(#paint5_linear_480_7762)"/>
<path d="M22.222 57.1891C22.3441 57.1374 22.4527 57.0701 22.457 56.9935V56.9838C22.4557 56.958 22.4421 56.9309 22.4137 56.9033C22.3494 56.9978 22.2855 57.0932 22.222 57.1891Z" fill="url(#paint6_linear_480_7762)"/>
<path d="M22.222 57.1891C22.222 57.1891 22.2219 57.1891 22.2224 57.1891C22.2858 57.0932 22.3497 56.9978 22.4141 56.9033C22.3497 56.9974 22.2854 57.0932 22.222 57.1891Z" fill="url(#paint7_linear_480_7762)"/>
<path d="M17.4144 55.9075C21.6717 48.732 27.5925 44.7801 34.0861 44.7801C40.4787 44.7801 46.8065 48.7565 51.4476 55.6891C55.8656 62.2887 58.2988 70.7596 58.2988 79.5416H53.5439C53.5439 62.9963 43.9032 49.5355 34.0861 49.5355C24.2699 49.5355 16.284 62.9959 16.284 79.5412H11.529C11.529 70.6979 13.6192 62.3049 17.4144 55.9075Z" fill="#F03E39"/>
<path d="M4.26562 50.5877C4.26562 51.512 3.50939 52.2682 2.5851 52.2682H-1.5497C-2.47355 52.2682 -3.23022 51.512 -3.23022 50.5877V48.4975C-3.23022 47.5732 -2.47355 46.817 -1.5497 46.817H2.5851C3.50939 46.817 4.26562 47.5732 4.26562 48.4975V50.5877Z" fill="#F36327"/>
<path d="M33.3618 51.3085C41.9776 51.3085 48.9614 63.2451 48.9609 77.9711C48.9609 79.8893 48.8423 81.7593 48.6174 83.5628C47.1132 95.6004 40.855 104.63 33.3618 104.63C25.8704 104.63 19.6122 95.6004 18.108 83.5628C17.8826 81.7589 17.7645 79.8893 17.7645 77.9707C17.7645 63.2446 24.7478 51.3085 33.3618 51.3085Z" fill="#443D50"/>
<path d="M33.1802 58.6499C39.4236 58.6499 44.4848 67.2998 44.4844 77.9707C44.4844 79.3611 44.3986 80.716 44.2349 82.0228C43.1452 90.7457 38.6104 97.2884 33.1802 97.288C27.7518 97.2875 23.2165 90.7444 22.1268 82.0219C21.9636 80.7147 21.8778 79.3597 21.8778 77.9694C21.8778 67.2989 26.9386 58.6495 33.1802 58.6499Z" fill="#8895A3"/>
<path d="M33.1797 59.6836C38.8427 59.684 43.4497 67.8875 43.4497 77.9707C43.4497 79.2932 43.3688 80.6136 43.209 81.895C42.1688 90.2153 37.9513 96.2547 33.1797 96.2543V97.288V96.2543C28.4086 96.2538 24.1915 90.2144 23.1517 81.8936C22.992 80.6122 22.911 79.2923 22.911 77.9694C22.911 72.9895 24.0362 68.323 26.08 64.8302C28.0218 61.5112 30.5434 59.6836 33.1797 59.6836ZM33.1797 98.3217C39.1031 98.3221 44.0707 91.6722 45.2602 82.151C45.4309 80.7851 45.5176 79.3785 45.5176 77.9707C45.5176 66.5571 40.0983 57.6166 33.1797 57.6162C29.7789 57.6157 26.6235 59.807 24.2957 63.786C22.0695 67.5908 20.8432 72.628 20.8432 77.9694C20.8432 79.3777 20.9298 80.7838 21.1005 82.1497C22.29 91.6713 27.2572 98.3212 33.1797 98.3217Z" fill="#E1EAE9"/>
<path d="M53.543 96.3719V79.5417L161.859 69.0853L158.138 96.3719H53.543Z" fill="#EF3F35"/>
<path d="M159.254 96.3892H75.5169V92.766H159.254V96.3892Z" fill="#35323D"/>
<path d="M154.266 68.6366C154.865 66.4427 153.494 64.648 151.22 64.648H77.2056C74.9316 64.648 73.5837 66.4366 74.21 68.623L78.3561 83.0931C78.9828 85.2795 81.3561 87.0681 83.6301 87.0681H145.096C147.37 87.0681 149.721 85.2734 150.32 83.0795L154.266 68.6366Z" fill="#28252D"/>
<path d="M154.265 68.6367L153.866 68.5278C153.952 68.2118 153.993 67.9098 153.993 67.6267C153.991 66.8744 153.719 66.2481 153.246 65.796C152.772 65.3453 152.086 65.0626 151.219 65.0617H77.205C76.3463 65.0626 75.6702 65.3396 75.2041 65.7807C74.7393 66.2232 74.4719 66.8354 74.4702 67.5742C74.4702 67.8678 74.514 68.1816 74.6072 68.5103L78.7533 82.9794C79.0352 83.968 79.7293 84.8976 80.6238 85.5702C81.517 86.2451 82.6019 86.6564 83.6295 86.6547H145.095C146.123 86.656 147.201 86.2437 148.085 85.568C148.97 84.8936 149.651 83.9619 149.921 82.9707L153.866 68.5278L154.265 68.6367L154.664 68.7457L150.719 83.1886C150.389 84.3908 149.595 85.4538 148.587 86.2254C147.577 86.9952 146.342 87.4805 145.095 87.4818H83.6295C82.3831 87.4801 81.1446 86.9974 80.1262 86.2311C79.1087 85.4626 78.303 84.4048 77.9582 83.2074L73.8116 68.737C73.6986 68.3391 73.6435 67.9492 73.6435 67.5742C73.6417 66.6311 74.0002 65.7803 74.6352 65.1803C75.2693 64.5785 76.1674 64.2337 77.205 64.2346H151.219C152.268 64.2337 153.175 64.586 153.816 65.1969C154.458 65.8065 154.822 66.6696 154.82 67.6267C154.82 67.989 154.769 68.3641 154.664 68.7457L154.265 68.6367Z" fill="#CA2625"/>
<path d="M85.9863 58.0885C79.1089 54.8106 58.9723 42.7143 52.9198 46.306C46.8673 49.8976 54.3014 56.4631 61.9986 57.7274C69.6957 58.9913 85.9863 58.0885 85.9863 58.0885Z" fill="#ECDBDA"/>
<path d="M164.037 92.4437C164.037 91.3063 163.107 90.3763 161.97 90.3763H63.1461C62.0087 90.3763 61.0787 91.3063 61.0787 92.4437V94.3046C61.0787 95.4415 62.0087 96.3719 63.1461 96.3719H88.5448C89.6822 96.3719 91.3614 95.8201 92.2769 95.1453L92.8765 94.7037C93.792 94.0293 95.4708 93.4774 96.6078 93.4774H146.687C147.824 93.4774 149.186 94.1286 149.714 94.9247C150.242 95.7207 151.604 96.3719 152.741 96.3719H161.97C163.107 96.3719 164.037 95.4415 164.037 94.3046V92.4437Z" fill="#EF3F35"/>
<path d="M-21.4112 3.54408C-20.1101 3.44736 -18.7438 3.30164 -17.3963 3.1489C-17.0891 1.94497 -15.7744 0.951969 -14.3722 1.75853C-13.8725 2.04606 -13.3749 2.3432 -12.886 2.65173C-10.3701 2.41541 -8.38801 2.37079 -7.75169 2.92353C-7.43221 3.20142 -7.27203 3.8513 -7.21033 4.67099C-4.4077 2.07187 -0.0947914 1.50819 3.60455 1.47625C6.27194 1.45349 12.7472 6.02153 10.082 6.04429C6.93408 6.07186 -3.71492 5.90556 -5.39719 9.03291C-6.7845 11.6123 -5.53549 15.2762 -4.63571 17.7878C-2.1565 24.7056 0.434756 34.4176 6.08508 34.3948C8.75816 34.3839 -2.2821 37.7821 -2.93155 35.222C-4.88954 27.5034 -6.66502 21.9791 -7.96743 17.1169C-10.2471 8.60929 -14.3819 6.04429 -21.4112 6.04429C-31.886 6.04429 -26.9937 3.95721 -21.4112 3.54408Z" fill="#F03E39"/>
<path d="M-58.0585 77.1611C-52.4218 84.1186 -34.6436 82.7265 -26.3736 82.7265C-18.104 82.7265 2.77693 82.7265 6.49859 82.7265C10.2198 82.7265 11.4605 82.5199 11.5284 79.5414L16.3008 78.4022C16.2925 78.7808 16.2833 79.1593 16.2833 79.5414C16.2833 79.6162 16.2868 79.6911 16.2868 79.7659C16.2855 79.9182 16.2833 80.07 16.2833 80.2228C16.2833 84.8482 15.8146 86.1121 13.1459 86.1121C-1.3828 86.1121 -56.5758 86.1121 -60.6165 86.1121C-65.2725 86.1121 -64.9382 84.621 -64.9382 82.0118C-64.9382 81.2061 -64.9032 80.4482 -64.9032 79.8118C-61.546 76.0613 -58.0585 77.1611 -58.0585 77.1611Z" fill="#F03E39"/>
<path d="M138.143 58.0883H90.122L81.9999 51.715H137.458L138.143 58.0883Z" fill="#28252D"/>
<path d="M146.183 83.0795L150.129 68.6366C150.728 66.4427 149.358 64.648 147.084 64.648H151.218C153.493 64.648 154.863 66.4427 154.263 68.6366L150.319 83.0795C149.719 85.2734 147.368 87.0681 145.094 87.0681H140.959C143.233 87.0681 145.584 85.2734 146.183 83.0795Z" fill="#CA2625"/>
<path d="M20.2234 32.8609C23.2768 33.5904 21.5267 34.1072 27.637 34.6959C33.7477 35.2845 52.3586 35.7957 64.4877 35.7957C76.6164 35.7957 97.844 35.621 95.8873 33.9891H80.7604L36.3704 32.8609H20.2234Z" fill="#474455"/>
<path d="M85.9863 58.0883C79.7837 55.132 62.8012 45.0082 55.087 45.683C63.8839 48.5106 63.3334 54.6384 73.3784 56.4821C81.0493 57.8904 85.9863 58.0883 85.9863 58.0883Z" fill="#F4DFDC"/>
<path d="M50.9856 48.2467C50.9865 48.2454 50.9865 48.245 50.9869 48.2441C50.9865 48.245 50.986 48.2458 50.9856 48.2467ZM50.9908 48.2362C50.9913 48.2349 50.9921 48.2336 50.9926 48.2323C50.9917 48.2336 50.9913 48.2349 50.9908 48.2362ZM50.997 48.2231C50.9983 48.22 50.9996 48.2174 51.0009 48.2147C50.9996 48.2174 50.9983 48.22 50.997 48.2231ZM51.0031 48.2108C51.004 48.2082 51.0057 48.2051 51.007 48.2025C51.0057 48.2051 51.0044 48.2078 51.0031 48.2108ZM51.0088 48.199C51.0101 48.1959 51.0119 48.1924 51.0132 48.1894C51.0119 48.1924 51.0101 48.1959 51.0088 48.199ZM51.014 48.1876C51.3212 47.5675 51.8635 46.9815 52.6792 46.4546C51.863 46.9815 51.3212 47.5675 51.014 48.1876ZM52.6792 46.4546C52.6849 46.4511 52.6897 46.448 52.6954 46.4441C52.6902 46.4476 52.6845 46.4515 52.6792 46.4546ZM52.6963 46.4436C52.7125 46.4331 52.7291 46.4231 52.7457 46.4126C52.7291 46.4231 52.7125 46.4331 52.6963 46.4436ZM52.7475 46.4112C52.7527 46.4082 52.7571 46.4051 52.7619 46.4021C52.7571 46.4051 52.7523 46.4082 52.7475 46.4112ZM52.7641 46.4007C52.7751 46.3937 52.786 46.3872 52.7974 46.3802C52.786 46.3872 52.7751 46.3937 52.7641 46.4007ZM52.7991 46.3789C52.8039 46.3762 52.8083 46.3732 52.8131 46.3701C52.8088 46.3732 52.8039 46.3762 52.7991 46.3789ZM52.8166 46.3679C52.821 46.3653 52.8258 46.3627 52.8302 46.36C52.8258 46.3627 52.821 46.3653 52.8166 46.3679ZM52.8333 46.3579C52.8442 46.3513 52.8547 46.3447 52.8657 46.3382C52.8552 46.3447 52.8442 46.3513 52.8333 46.3579ZM52.8705 46.3355C52.8744 46.3329 52.8779 46.3307 52.8823 46.3285C52.8779 46.3307 52.8744 46.3329 52.8705 46.3355ZM52.8875 46.325C52.8915 46.3228 52.8945 46.3211 52.8985 46.3185C52.895 46.3207 52.891 46.3228 52.8875 46.325ZM52.9037 46.3154C52.9094 46.3119 52.9142 46.3093 52.9199 46.3058C52.9147 46.3088 52.909 46.3123 52.9037 46.3154Z" fill="#ECABAD"/>
<path d="M60.2897 56.9543C64.5436 56.9543 59.6145 50.0953 57.4131 48.4073C55.2363 46.7377 55.0928 46.7097 53.0066 46.2642L52.9204 46.3057C52.9147 46.3092 52.9099 46.3119 52.9042 46.3154C52.9024 46.3163 52.9007 46.3176 52.8989 46.3184C52.895 46.3211 52.8919 46.3228 52.888 46.325C52.8862 46.3263 52.8845 46.3272 52.8827 46.3285C52.8784 46.3307 52.8749 46.3329 52.8709 46.3355C52.8692 46.3364 52.8678 46.3373 52.8661 46.3381C52.8552 46.3447 52.8447 46.3513 52.8337 46.3578C52.8328 46.3587 52.8315 46.3591 52.8306 46.36C52.8263 46.3626 52.8215 46.3653 52.8171 46.3679C52.8158 46.3688 52.8149 46.3692 52.8136 46.3701C52.8088 46.3731 52.8044 46.3762 52.7996 46.3788C52.7991 46.3793 52.7983 46.3797 52.7978 46.3801C52.7864 46.3871 52.7755 46.3937 52.7646 46.4007C52.7637 46.4012 52.7633 46.4016 52.7624 46.402C52.7576 46.4051 52.7532 46.4082 52.7479 46.4112C52.7475 46.4117 52.7466 46.4121 52.7462 46.4125C52.7296 46.423 52.7129 46.4331 52.6967 46.4436C52.6963 46.444 52.6963 46.444 52.6959 46.444C52.6902 46.448 52.6854 46.451 52.6797 46.4545C51.8639 46.9815 51.3217 47.5675 51.0145 48.1876C51.0145 48.188 51.014 48.1889 51.0136 48.1893C51.0123 48.1924 51.0105 48.1959 51.0092 48.199C51.0083 48.2003 51.0079 48.2012 51.0075 48.2025C51.0061 48.2051 51.0044 48.2082 51.0035 48.2108C51.0026 48.2121 51.0022 48.2134 51.0013 48.2147C51 48.2173 50.9987 48.22 50.9974 48.223C50.9961 48.2261 50.9943 48.2292 50.993 48.2322C50.9926 48.2335 50.9917 48.2349 50.9913 48.2362C50.99 48.2388 50.9886 48.2414 50.9873 48.244C50.9869 48.2449 50.9869 48.2454 50.986 48.2467C49.6959 50.9959 52.9689 54.402 57.4324 56.3574C58.6622 56.7727 59.5978 56.9543 60.2897 56.9543Z" fill="#F3E9E8"/>
<path d="M160.844 58.2556C160.785 58.0114 160.717 57.7747 160.636 57.5506L157.681 50.4263C157.021 49.2722 156.044 48.1401 154.793 47.0429C149.221 49.8066 144.7 55.9038 142.248 58.0884C142.248 58.0884 153.144 58.6613 160.844 58.2556Z" fill="#F4DFDC"/>
<path d="M77.8575 58.401C78.9849 58.401 80.107 58.3883 81.2676 58.3682C81.2439 58.3402 81.2194 58.3126 81.1945 58.2846C79.7109 58.331 77.9801 58.3721 76.1442 58.3905C76.7205 58.3979 77.2895 58.401 77.8575 58.401Z" fill="#FAC3C1"/>
<path d="M76.145 58.3904C77.9809 58.372 79.7117 58.3309 81.1953 58.2845C80.9936 58.0573 80.7625 57.8223 80.5047 57.5808C78.5533 57.3405 76.1441 56.99 73.3787 56.4823C72.7914 56.3746 72.24 56.2521 71.7209 56.1164C72.152 56.8048 72.5467 57.5357 72.8955 58.3099C74.0242 58.3523 75.096 58.3777 76.145 58.3904ZM57.4264 45.7558C57.2925 45.7392 57.1599 45.7243 57.029 45.7112C57.0172 45.7099 57.0072 45.709 56.9984 45.7086C57.1393 45.7221 57.282 45.7379 57.4264 45.7558Z" fill="#FBF6F7"/>
<path d="M80.5039 57.5808C76.8313 54.1362 67.7599 49.3454 60.3494 46.3467C59.3166 46.0732 58.335 45.8705 57.4256 45.7559C57.2812 45.7379 57.1385 45.7222 56.9976 45.7086C56.9915 45.7082 56.9858 45.7082 56.9814 45.7082C56.4764 45.7082 66.633 47.9909 71.7201 56.1165C72.2391 56.2521 72.7906 56.3747 73.3779 56.4823C76.1433 56.99 78.5525 57.3405 80.5039 57.5808Z" fill="#FCF8F8"/>
<path d="M55.979 65.0261C59.3881 76.111 58.6166 85.2419 58.449 95.0419L65.1562 96.0441C65.1562 96.0441 67.9339 77.0108 60.74 58.9907L55.979 65.0261Z" fill="#D82928"/>
<path d="M53.3867 96.3719H68.4751C69.6126 96.3719 70.543 95.4415 70.543 94.3046V92.4437C70.543 91.3063 69.6126 90.3763 68.4751 90.3763H53.3867V96.3719Z" fill="#D82928"/>
<path d="M93.7132 79.134C93.7132 79.8172 94.272 80.3765 94.9556 80.3765H123.545C124.228 80.3765 124.787 79.8172 124.787 79.134V71.58C124.787 70.8964 124.228 70.3375 123.545 70.3375H94.9556C94.272 70.3375 93.7132 70.8964 93.7132 71.58V79.134Z" fill="#FFFEF6"/>
<path d="M94.9558 80.3765H98.6289V70.3375H94.9558C94.2722 70.3375 93.7134 70.8964 93.7134 71.58V79.134C93.7134 79.8172 94.2722 80.3765 94.9558 80.3765Z" fill="#8BC5AB"/>
<path d="M84.4022 71.7642H93.7142V71.5799C93.7142 70.8963 94.2731 70.3375 94.9567 70.3375H123.546C124.229 70.3375 124.788 70.8963 124.788 71.5799V71.7642H129.131V66.0626H84.4022V71.7642Z" fill="#28252D"/>
<path d="M98.6287 71.7642H124.787V71.5799C124.787 70.8963 124.228 70.3375 123.545 70.3375H94.9556C94.272 70.3375 93.7132 70.8963 93.7132 71.5799C93.7132 70.8963 94.272 70.3375 94.9556 70.3375H98.6287V71.7642Z" fill="#BEBBB5"/>
<path d="M93.7134 71.7642H98.6289V70.3375H94.9558C94.2722 70.3375 93.7134 70.8963 93.7134 71.5799V71.7642Z" fill="#6A9288"/>
<path d="M35.4145 95.8069C36.7939 95.2476 38.0832 94.1841 39.2079 92.7215L38.4084 92.6769L38.4145 92.5671C36.8311 92.2419 35.3095 90.5167 34.1366 88.2073L33.9449 88.4913L32.5747 87.5649L33.3454 86.4248C32.7226 84.8152 32.2679 83.0511 32.0539 81.3399C31.9506 80.515 31.8871 79.6651 31.8666 78.7964H28.4662C28.4933 79.8979 28.5743 80.9754 28.7051 82.0218C29.4854 88.2708 32.0351 93.3999 35.4145 95.8069ZM40.1388 91.3579C41.2097 89.5959 42.0766 87.4318 42.6552 84.9859L42.457 84.5903C41.8224 87.3946 40.9082 89.5154 40.1659 90.8725L40.1388 91.3579ZM43.1563 82.2957C43.1747 82.1631 43.1922 82.0288 43.2093 81.8948C43.3357 80.8804 43.4128 79.8415 43.4395 78.7964H43.2009C43.1602 79.8791 43.0701 80.904 42.9423 81.8695L43.1563 82.2957ZM28.4662 77.1425H31.8819C31.9926 74.6156 32.5016 72.0349 33.3068 69.8213L32.5834 68.7946L33.9357 67.8419L34.0653 68.0261C35.2066 65.697 36.72 64.0467 38.4368 63.7662L38.4084 63.2585L39.2381 63.2121C38.1191 61.7522 36.829 60.6852 35.432 60.1264C31.4784 62.9281 28.6557 69.4502 28.4662 77.1425ZM43.2224 77.1425H43.4395C43.3974 75.4686 43.2285 73.852 42.9493 72.3242L42.8438 72.6205C43.0635 73.9614 43.204 75.4673 43.2224 77.1425ZM42.1576 69.6161L42.2434 69.3754C41.6964 67.5544 40.9817 65.9172 40.1362 64.5285L40.1725 65.1793C40.8022 66.1456 41.5563 67.6078 42.1576 69.6161Z" fill="#CCD8D7"/>
<path d="M36.4686 96.4542C39.7526 94.7496 42.4043 90.5619 43.673 85.1689L42.9334 85.54L42.6551 84.986C42.0765 87.4319 41.2095 89.596 40.1386 91.3579L40.0594 92.7693L39.2078 92.7216C38.0831 94.1842 36.7938 95.2477 35.4144 95.807C35.7579 96.0512 36.1093 96.2674 36.4686 96.4542ZM43.947 83.8722C44.0603 83.2682 44.1566 82.6512 44.2349 82.0227C44.3653 80.9759 44.4467 79.8984 44.4739 78.7965H43.4393C43.4126 79.8415 43.3356 80.8805 43.2091 81.8949C43.192 82.0288 43.1745 82.1632 43.1562 82.2958L43.947 83.8722ZM44.4839 78.1448C44.4839 78.0866 44.4844 78.0288 44.4844 77.9706C44.4844 77.912 44.4839 77.8538 44.4839 77.7956V78.1448ZM43.4393 77.1426H44.4739C44.4161 74.7895 44.1115 72.5457 43.6039 70.484L42.9492 72.3243C43.2284 73.852 43.3973 75.4687 43.4393 77.1426ZM42.2432 69.3755L42.445 68.8078L43.2196 69.0835C41.8319 64.5137 39.4065 61.0122 36.4774 59.4875C36.1211 59.6717 35.7723 59.8853 35.4319 60.1264C36.8288 60.6853 38.1189 61.7523 39.238 63.2122L40.0594 63.1663L40.136 64.5286C40.9815 65.9172 41.6962 67.5544 42.2432 69.3755Z" fill="#E1EAE9"/>
<path d="M4.98337 79.8524C6.99738 79.8524 10.5247 79.8524 10.5247 79.8524C10.5247 79.8524 10.5247 79.3706 10.5247 77.0016H1.75275C2.37113 78.6944 3.5895 79.8524 4.98337 79.8524ZM1.32124 74.5207H10.5387C10.5759 73.3132 10.6827 72.2065 10.8271 71.2126H1.32124V74.4774C1.32124 74.4918 1.32124 74.5062 1.32124 74.5207ZM1.77157 68.7316H11.3055C11.8074 66.6651 12.3672 65.5041 12.3672 65.5041H6.69629C4.50242 65.5041 2.6044 66.8362 1.77157 68.7316Z" fill="url(#paint8_linear_480_7762)"/>
<path d="M-0.53125 71.2125H12.162C12.1672 71.1788 12.1725 71.1456 12.1777 71.1119V69.9723V68.7316H11.3046H1.77073H-0.53125V71.2125Z" fill="url(#paint9_linear_480_7762)"/>
<path d="M12.162 71.2125H12.1777V71.1119C12.1725 71.1456 12.1672 71.1788 12.162 71.2125Z" fill="#D82928"/>
<path d="M-0.53122 77.0017H10.9375V74.5207H-0.53122V77.0017Z" fill="url(#paint10_linear_480_7762)"/>
<path d="M38.9568 63.7242C39.3927 63.9509 43.2246 68.1101 43.2246 77.5176C43.2246 86.9255 39.415 92.3811 38.9498 92.6222C35.7817 92.6222 32.7262 86.7211 32.0539 81.3399C31.9262 80.318 31.8592 79.2589 31.8592 78.1723C31.8592 71.3565 34.9135 63.7242 38.9568 63.7242Z" fill="#35323D"/>
<path d="M28.4567 78.7966H28.4668C28.4598 78.5222 28.4567 78.2465 28.4567 77.9695C28.4567 77.6925 28.4598 77.4172 28.4668 77.1428H28.4567V78.7966Z" fill="#CCD8D7"/>
<path d="M28.4671 78.7966H31.8675C31.8627 78.5896 31.8601 78.3818 31.8601 78.1726C31.8601 77.8308 31.8679 77.4872 31.8828 77.1428H28.4671C28.4601 77.4172 28.457 77.6925 28.457 77.9695C28.457 78.2465 28.4601 78.5222 28.4671 78.7966Z" fill="#CCD8D7"/>
<path d="M31.866 78.7966H36.3199C36.2954 78.5284 36.2827 78.254 36.2822 77.9739C36.2822 77.6912 36.2954 77.4137 36.3203 77.1428H31.8814C31.8665 77.4872 31.8586 77.8308 31.8586 78.1726C31.8586 78.3818 31.8612 78.5896 31.866 78.7966Z" fill="#CCD8D7"/>
<path d="M44.4743 78.7966H44.4844V78.145C44.4831 78.3629 44.48 78.5804 44.4743 78.7966ZM44.4844 77.7958V77.1428H44.4743C44.48 77.3594 44.4831 77.5769 44.4844 77.7958Z" fill="#E1EAE9"/>
<path d="M43.2002 78.7966H43.4387C43.4457 78.5218 43.4492 78.2461 43.4492 77.9708C43.4492 77.6934 43.4457 77.4172 43.4387 77.1428H43.2216C43.223 77.2671 43.2238 77.3918 43.2238 77.5179C43.2238 77.9529 43.2155 78.3791 43.2002 78.7966Z" fill="#CCD8D7"/>
<path d="M43.4397 78.7966H44.4743C44.48 78.5804 44.4831 78.3629 44.4844 78.145V77.7958C44.4831 77.5769 44.48 77.3594 44.4743 77.1428H43.4397C43.4467 77.4172 43.4502 77.6934 43.4502 77.9708C43.4502 78.2461 43.4467 78.5218 43.4397 78.7966Z" fill="#E1EAE9"/>
<path d="M42.4473 78.7966H43.201C43.2163 78.3791 43.2246 77.9529 43.2246 77.5179C43.2246 77.3918 43.2237 77.2671 43.2224 77.1428H42.4465C42.4714 77.4137 42.4841 77.6912 42.4841 77.9743C42.4841 78.254 42.4714 78.5288 42.4473 78.7966Z" fill="#CCD8D7"/>
<path d="M39.208 92.7214C39.5328 92.2991 39.8435 91.844 40.1389 91.3578L40.166 90.8724C39.5774 91.9494 39.0969 92.5459 38.9498 92.6221C38.7708 92.6221 38.5923 92.6033 38.4146 92.5669L38.4085 92.6768L39.208 92.7214Z" fill="#CCD8D7"/>
<path d="M40.0595 92.7694L40.1387 91.358C39.8433 91.8442 39.5325 92.2994 39.2078 92.7217L40.0595 92.7694Z" fill="#E1EAE9"/>
<path d="M38.9487 92.6222C39.0958 92.546 39.5763 91.9495 40.1649 90.8725L40.6152 82.8379C40.2376 83.118 39.8205 83.2734 39.3824 83.273C39.2314 83.273 39.0826 83.2546 38.9373 83.2191L38.4135 92.567C38.5912 92.6034 38.7697 92.6222 38.9487 92.6222Z" fill="#CCD8D7"/>
<path d="M40.1719 65.1793L40.1355 64.5285C39.8507 64.0607 39.5504 63.6209 39.2375 63.2121L38.4078 63.2585L38.4362 63.7662C38.6074 63.7386 38.7807 63.7242 38.9561 63.7242C39.0949 63.7964 39.5776 64.2668 40.1719 65.1793Z" fill="#CCD8D7"/>
<path d="M40.1367 64.5287L40.0601 63.1663L39.2387 63.2123C39.5516 63.621 39.8518 64.0609 40.1367 64.5287Z" fill="#E1EAE9"/>
<path d="M40.6172 73.1099L40.173 65.1794C39.5787 64.267 39.096 63.7965 38.9572 63.7243C38.7817 63.7243 38.6084 63.7387 38.4373 63.7663L38.9393 72.7282C39.0846 72.6924 39.233 72.674 39.3839 72.674C39.8225 72.674 40.2395 72.8298 40.6172 73.1099Z" fill="#CCD8D7"/>
<path d="M33.9456 88.4915L41.0664 77.961L33.9364 67.842L32.5841 68.7947L39.0568 77.9803L32.5754 87.565L33.9456 88.4915Z" fill="#CCD8D7"/>
<path d="M43.6734 85.1688L44.4121 84.7981L43.9473 83.8721C43.8646 84.3115 43.7736 84.7439 43.6734 85.1688Z" fill="#E1EAE9"/>
<path d="M42.6552 84.9861C42.8595 84.1226 43.0276 83.2242 43.1562 82.2959L42.9422 81.8697C42.814 82.8377 42.6482 83.7449 42.4569 84.5905L42.6552 84.9861Z" fill="#CCD8D7"/>
<path d="M42.9337 85.54L43.6733 85.1689C43.7735 84.744 43.8646 84.3116 43.9473 83.8722L43.1565 82.2958C43.0278 83.2241 42.8597 84.1225 42.6554 84.986L42.9337 85.54Z" fill="#E1EAE9"/>
<path d="M42.4561 84.5902C42.6473 83.7447 42.8132 82.8375 42.9414 81.8694L42.1642 80.3197C41.9497 81.0602 41.6372 81.7027 41.2556 82.1976L42.4561 84.5902Z" fill="#CCD8D7"/>
<path d="M43.6044 70.4841L44.0039 69.3625L43.2201 69.0837C43.3588 69.5401 43.4871 70.0075 43.6044 70.4841Z" fill="#E1EAE9"/>
<path d="M42.8437 72.6206L42.9492 72.3243C42.7615 71.2985 42.5247 70.3129 42.2433 69.3755L42.1575 69.6162C42.4245 70.5086 42.6613 71.5081 42.8437 72.6206Z" fill="#CCD8D7"/>
<path d="M42.9488 72.3242L43.6035 70.484C43.4862 70.0074 43.358 69.54 43.2193 69.0835L42.4447 68.8078L42.2429 69.3754C42.5243 70.3128 42.7611 71.2984 42.9488 72.3242Z" fill="#E1EAE9"/>
<path d="M41.9746 75.0616L42.8438 72.6205C42.6613 71.508 42.4245 70.5085 42.1575 69.6161L40.846 73.2997C41.3028 73.7177 41.6906 74.3255 41.9746 75.0616Z" fill="#CCD8D7"/>
<path d="M38.9377 83.2191L39.0668 80.9158L37.9053 82.6336C38.2204 82.9263 38.5688 83.1281 38.9377 83.2191ZM40.6156 82.8379C40.8449 82.6681 41.0594 82.4524 41.2559 82.1977L40.7123 81.1145L40.6156 82.8379Z" fill="#CCD8D7"/>
<path d="M39.3834 83.2732C39.8214 83.2736 40.2385 83.1183 40.6162 82.8382L40.7129 81.1148L39.9549 79.6036L39.0674 80.9161L38.9383 83.2194C39.0836 83.2548 39.2324 83.2732 39.3834 83.2732Z" fill="#CCD8D7"/>
<path d="M36.9057 81.16L38.5039 78.7964H36.3201C36.3289 78.8935 36.3394 78.9898 36.3512 79.0852C36.4466 79.8511 36.6391 80.5557 36.9057 81.16ZM36.3206 77.1425H38.4654L36.8676 74.8747C36.5897 75.5333 36.3976 76.3053 36.3206 77.1425Z" fill="#CCD8D7"/>
<path d="M36.3209 78.7966H38.5048L39.0566 77.9804L38.4663 77.1428H36.3214C36.2965 77.4137 36.2833 77.6912 36.2833 77.9739C36.2838 78.254 36.2964 78.5284 36.3209 78.7966Z" fill="#CCD8D7"/>
<path d="M42.165 80.3198C42.277 79.933 42.3619 79.5194 42.4162 79.0857C42.428 78.9903 42.4385 78.8936 42.4473 78.7964H41.4004L42.165 80.3198ZM41.2337 77.1426H42.4464C42.3764 76.3833 42.2118 75.6774 41.9746 75.0616L41.2337 77.1426Z" fill="#CCD8D7"/>
<path d="M41.4008 78.7966H42.4476C42.4717 78.5288 42.4844 78.254 42.4844 77.9743C42.4844 77.6912 42.4717 77.4137 42.4467 77.1428H41.234L40.9842 77.8448L41.066 77.9612L41.0174 78.033L41.4008 78.7966Z" fill="#CCD8D7"/>
<path d="M39.0733 75.1337L38.9385 72.728C38.542 72.8251 38.17 73.0505 37.837 73.3787L39.0733 75.1337ZM40.6571 73.8299L40.8457 73.2995C40.7713 73.2308 40.6947 73.1678 40.6164 73.1096L40.6571 73.8299Z" fill="#CCD8D7"/>
<path d="M39.8184 76.1895L40.6582 73.8302L40.6175 73.1098C40.2398 72.8297 39.8228 72.6739 39.3842 72.6739C39.2333 72.6739 39.0849 72.6923 38.9396 72.7282L39.0744 75.1339L39.8184 76.1895Z" fill="#CCD8D7"/>
<path d="M37.9066 82.6337L39.0681 80.9159L39.9557 79.6035L39.164 78.0258L39.8183 76.1895L39.0743 75.1339L37.8379 73.3789C37.4559 73.7553 37.1255 74.2665 36.8686 74.8748L38.4664 77.1426L39.0568 77.9803L38.5049 78.7965L36.9066 81.1601C37.1736 81.7654 37.5145 82.2696 37.9066 82.6337ZM41.0178 78.0328L41.0664 77.961L40.9846 77.8446L40.9592 77.9155L41.0178 78.0328Z" fill="#CCD8D7"/>
<path d="M41.2555 82.1979C41.6371 81.7029 41.9496 81.0605 42.1641 80.32L41.3995 78.7966H40.842L40.712 81.1147L41.2555 82.1979Z" fill="#CCD8D7"/>
<path d="M40.8429 78.7966H41.4004L41.017 78.033L40.8739 78.2452L40.8429 78.7966Z" fill="#CCD8D7"/>
<path d="M40.7138 81.1145L40.8438 78.7963H40.5015L39.9558 79.6034L40.7138 81.1145Z" fill="#CCD8D7"/>
<path d="M40.5017 78.7966H40.8439L40.875 78.2452L40.5017 78.7966Z" fill="#CCD8D7"/>
<path d="M40.8429 77.1427H41.2337L41.9746 75.0617C41.6906 74.3256 41.3028 73.7178 40.846 73.2998L40.6573 73.8302L40.8429 77.1427Z" fill="#CCD8D7"/>
<path d="M40.9845 77.8447L41.2344 77.1428H40.8436L40.8742 77.6885L40.9845 77.8447Z" fill="#CCD8D7"/>
<path d="M40.4897 77.1427H40.8438L40.6582 73.8302L39.8184 76.1895L40.4897 77.1427Z" fill="#CCD8D7"/>
<path d="M40.873 77.6885L40.8424 77.1427H40.4884L40.873 77.6885Z" fill="#CCD8D7"/>
<path d="M39.9554 79.6034L40.5012 78.7964L40.8745 78.245L41.0176 78.0327L40.9589 77.9154L40.9843 77.8445L40.874 77.6883L40.4893 77.1426L39.818 76.1894L39.1637 78.0257L39.9554 79.6034Z" fill="#CCD8D7"/>
<path d="M36.9594 81.6193C37.3156 81.6193 38.1292 80.653 38.3507 78.881C38.3874 78.5856 38.4062 78.281 38.4062 77.9742C38.4058 75.7055 37.401 74.3282 36.959 74.3282C36.8242 74.3282 36.5091 74.5234 36.194 75.0613C35.7611 75.8018 35.513 76.8635 35.513 77.9738C35.513 78.2805 35.5314 78.5856 35.5681 78.8801C35.7896 80.6525 36.6036 81.6193 36.9594 81.6193Z" fill="#E2EFEF"/>
<path d="M158.822 58.3381L152.329 48.5176C150.729 49.6222 149.243 50.9294 147.898 52.244L153.601 58.3985C155.344 58.406 157.126 58.3902 158.822 58.3381Z" fill="white"/>
<defs>
<linearGradient id="paint0_linear_480_7762" x1="49.217" y1="-17.6752" x2="44.4289" y2="26.6775" gradientUnits="userSpaceOnUse">
<stop stop-color="white"/>
<stop offset="1" stop-color="#8BBEB3"/>
</linearGradient>
<linearGradient id="paint1_linear_480_7762" x1="49.218" y1="-17.6753" x2="44.4299" y2="26.6774" gradientUnits="userSpaceOnUse">
<stop stop-color="white"/>
<stop offset="1" stop-color="#8E9497"/>
</linearGradient>
<linearGradient id="paint2_linear_480_7762" x1="49.2179" y1="-17.6754" x2="44.4298" y2="26.6774" gradientUnits="userSpaceOnUse">
<stop stop-color="white"/>
<stop offset="1" stop-color="#738D8C"/>
</linearGradient>
<linearGradient id="paint3_linear_480_7762" x1="49.2179" y1="-17.6753" x2="44.4298" y2="26.6774" gradientUnits="userSpaceOnUse">
<stop stop-color="white"/>
<stop offset="1" stop-color="#738D8C"/>
</linearGradient>
<linearGradient id="paint4_linear_480_7762" x1="49.2181" y1="-17.6753" x2="44.43" y2="26.6774" gradientUnits="userSpaceOnUse">
<stop stop-color="#A2CDC2"/>
<stop offset="1" stop-color="#77A89F"/>
</linearGradient>
<linearGradient id="paint5_linear_480_7762" x1="-18.5968" y1="43.6961" x2="-20.0689" y2="77.1474" gradientUnits="userSpaceOnUse">
<stop stop-color="#B92424"/>
<stop offset="0.784297" stop-color="#D42927"/>
<stop offset="1" stop-color="#D42927"/>
</linearGradient>
<linearGradient id="paint6_linear_480_7762" x1="-18.6012" y1="43.6966" x2="-20.0731" y2="77.1472" gradientUnits="userSpaceOnUse">
<stop stop-color="#342330"/>
<stop offset="0.784297" stop-color="#3B2A3C"/>
<stop offset="1" stop-color="#3B2A3C"/>
</linearGradient>
<linearGradient id="paint7_linear_480_7762" x1="-18.5942" y1="43.6966" x2="-20.0664" y2="77.1472" gradientUnits="userSpaceOnUse">
<stop stop-color="#B92424"/>
<stop offset="0.784297" stop-color="#D42927"/>
<stop offset="1" stop-color="#D42927"/>
</linearGradient>
<linearGradient id="paint8_linear_480_7762" x1="-18.5973" y1="43.6962" x2="-20.0694" y2="77.1475" gradientUnits="userSpaceOnUse">
<stop stop-color="#28231F"/>
<stop offset="0.784297" stop-color="#282425"/>
<stop offset="1" stop-color="#282425"/>
</linearGradient>
<linearGradient id="paint9_linear_480_7762" x1="-18.5982" y1="43.6962" x2="-20.0703" y2="77.1474" gradientUnits="userSpaceOnUse">
<stop stop-color="#B92424"/>
<stop offset="0.784297" stop-color="#D42927"/>
<stop offset="1" stop-color="#D42927"/>
</linearGradient>
<linearGradient id="paint10_linear_480_7762" x1="-18.5982" y1="43.6962" x2="-20.0703" y2="77.1476" gradientUnits="userSpaceOnUse">
<stop stop-color="#B92424"/>
<stop offset="0.784297" stop-color="#D42927"/>
<stop offset="1" stop-color="#D42927"/>
</linearGradient>
</defs>
</svg>
