<svg width="24" height="24" viewBox="0 0 24 24" fill="none" xmlns="http://www.w3.org/2000/svg">
<path d="M3.80678 11.4021L5.46644 9.74212C5.79616 9.41267 6.33018 9.41267 6.65993 9.74212C6.9897 10.0718 6.9897 10.6064 6.65993 10.9359L5.00028 12.5959C3.24691 14.3495 3.24859 17.2235 5.00028 18.9988C6.75337 20.7519 9.62734 20.7505 11.4032 18.9988L13.0632 17.3391C13.3926 17.0094 13.9272 17.0094 14.2569 17.3391C14.5867 17.6689 14.5867 18.2031 14.2569 18.5326L12.5931 20.1965C11.3757 21.3976 9.78269 21.9985 8.19307 21.9985C6.60009 21.9985 5.00989 21.395 3.80264 20.1883C1.39757 17.7505 1.39929 13.8093 3.80678 11.4021Z" fill="white"/>
<path d="M9.74351 5.46595L11.4074 3.80176C13.8447 1.39708 17.7861 1.39903 20.1975 3.80993C22.6025 6.24754 22.6005 10.1886 20.1933 12.5959L18.5334 14.2558C18.3687 14.4207 18.1527 14.5031 17.9366 14.5031C17.7208 14.5031 17.5047 14.4207 17.3399 14.2556C17.0101 13.9261 17.0101 13.3915 17.3399 13.0621L18.9998 11.4021C20.7532 9.64873 20.7515 6.77475 18.9998 4.99943C17.2462 3.24634 14.3722 3.24806 12.5969 4.99943L10.9369 6.6594C10.6072 6.98916 10.0732 6.98916 9.74343 6.6594C9.41375 6.32996 9.41375 5.7954 9.74351 5.46595Z" fill="white"/>
<path d="M9.2652 13.5409L13.5417 9.26444C13.8711 8.93468 14.4057 8.93468 14.7352 9.26444C15.0649 9.59388 15.0649 10.1284 14.7352 10.4579L10.4587 14.7344C10.2938 14.8993 10.078 14.9817 9.86195 14.9817C9.64586 14.9817 9.43008 14.8993 9.2652 14.7344C8.93548 14.4049 8.93548 13.8704 9.2652 13.5409Z" fill="white"/>
</svg>
