<svg width="24" height="24" viewBox="0 0 24 24" fill="none" xmlns="http://www.w3.org/2000/svg">
<path d="M20.1708 6.99562H19.922V4.57896C19.922 3.57036 19.1014 2.74976 18.0928 2.74976H4.82553C3.36147 2.74976 2.15436 3.86959 2.01501 5.29764C1.99373 5.39854 2.00131 4.49941 2.00131 18.4259C2.00131 19.9831 3.26822 21.25 4.82549 21.25H20.1708C21.1794 21.25 22 20.4295 22 19.4208V8.82482C22 7.81623 21.1795 6.99562 20.1708 6.99562ZM4.82553 4.00622H18.0928C18.4086 4.00622 18.6656 4.26316 18.6656 4.579V6.99566H4.82553C3.98556 6.99566 3.29795 6.3316 3.25962 5.50094C3.29791 4.67025 3.98553 4.00622 4.82553 4.00622ZM20.1708 19.9936H4.82553C3.96106 19.9936 3.25778 19.2903 3.25778 18.4259V7.77594C3.7066 8.07658 4.24592 8.25205 4.82553 8.25205H20.1708C20.4867 8.25205 20.7436 8.50899 20.7436 8.82482V11.3717H16.016C14.4059 11.3717 13.096 12.6815 13.096 14.2916C13.096 15.9017 14.4059 17.2116 16.016 17.2116H20.7436V19.4208C20.7436 19.7367 20.4867 19.9936 20.1708 19.9936ZM20.7436 15.9552H16.016C15.0987 15.9552 14.3524 15.2089 14.3524 14.2917C14.3524 13.3744 15.0987 12.6281 16.016 12.6281H20.7436V15.9552Z" fill="white"/>
<path d="M16.2478 15.2021C16.7507 15.2021 17.1583 14.7945 17.1583 14.2917C17.1583 13.7888 16.7507 13.3812 16.2478 13.3812C15.745 13.3812 15.3374 13.7888 15.3374 14.2917C15.3374 14.7945 15.745 15.2021 16.2478 15.2021Z" fill="white"/>
</svg>
