<svg width="24" height="24" viewBox="0 0 24 24" fill="none" xmlns="http://www.w3.org/2000/svg">
<mask id="path-1-inside-1" fill="white">
<path d="M17.8064 14.3893C17.397 13.9629 16.9031 13.735 16.3797 13.735C15.8605 13.735 15.3624 13.9587 14.936 14.3851L13.6022 15.7147C13.4924 15.6556 13.3827 15.6007 13.2771 15.5459C13.1252 15.4699 12.9816 15.3981 12.8592 15.3221C11.6098 14.5286 10.4743 13.4944 9.38524 12.1563C8.85759 11.4894 8.50302 10.9279 8.24553 10.3581C8.59166 10.0415 8.91247 9.71225 9.22483 9.39567C9.34303 9.27748 9.46122 9.15506 9.57941 9.03687C10.4658 8.15043 10.4658 7.00229 9.57941 6.11585L8.42704 4.96348C8.29618 4.83262 8.16111 4.69754 8.03447 4.56247C7.78121 4.30076 7.51527 4.03061 7.2409 3.77734C6.83145 3.37211 6.3418 3.15683 5.82682 3.15683C5.31184 3.15683 4.81375 3.37211 4.39163 3.77734C4.38741 3.78156 4.38741 3.78156 4.38319 3.78578L2.948 5.23363C2.4077 5.77393 2.09956 6.43243 2.03202 7.19646C1.93071 8.42903 2.29373 9.57718 2.57232 10.3285C3.25615 12.1732 4.27766 13.8827 5.80149 15.7147C7.65035 17.9224 9.87489 19.6657 12.416 20.894C13.3869 21.3542 14.6828 21.8987 16.1306 21.9915C16.2193 21.9958 16.3121 22 16.3965 22C17.3716 22 18.1905 21.6496 18.8321 20.9531C18.8364 20.9447 18.8448 20.9405 18.849 20.932C19.0685 20.6661 19.3218 20.4255 19.5877 20.168C19.7692 19.9949 19.955 19.8134 20.1365 19.6235C20.5544 19.1887 20.7739 18.6822 20.7739 18.163C20.7739 17.6396 20.5501 17.1372 20.1238 16.7151L17.8064 14.3893ZM19.3176 18.8341C19.3134 18.8384 19.3134 18.8341 19.3176 18.8341C19.1529 19.0114 18.9841 19.1718 18.8026 19.3491C18.5282 19.6108 18.2496 19.8852 17.9879 20.1933C17.5616 20.6492 17.0593 20.8645 16.4008 20.8645C16.3374 20.8645 16.2699 20.8645 16.2066 20.8603C14.9529 20.7801 13.7879 20.2904 12.9141 19.8725C10.5249 18.7159 8.42704 17.0739 6.68371 14.9929C5.2443 13.258 4.28188 11.654 3.64449 9.93175C3.25193 8.88069 3.10841 8.06179 3.17172 7.28932C3.21394 6.79545 3.40389 6.386 3.75424 6.03565L5.19365 4.59624C5.40048 4.40207 5.61998 4.29654 5.83526 4.29654C6.10119 4.29654 6.31647 4.45694 6.45155 4.59202C6.45577 4.59624 6.45999 4.60046 6.46421 4.60468C6.7217 4.84528 6.96653 5.09433 7.22402 5.36026C7.35487 5.49534 7.48995 5.63042 7.62502 5.76971L8.77739 6.92208C9.22483 7.36952 9.22483 7.7832 8.77739 8.23064C8.65498 8.35305 8.53679 8.47546 8.41438 8.59365C8.0598 8.95667 7.72211 9.29436 7.35487 9.62361C7.34643 9.63205 7.33799 9.63627 7.33377 9.64472C6.97075 10.0077 7.03829 10.3623 7.11427 10.6029C7.11849 10.6156 7.12271 10.6282 7.12693 10.6409C7.42663 11.3669 7.84874 12.0508 8.49036 12.8654L8.49458 12.8697C9.65961 14.3049 10.888 15.4235 12.2429 16.2803C12.416 16.3901 12.5933 16.4787 12.7621 16.5632C12.9141 16.6391 13.0576 16.7109 13.18 16.7869C13.1969 16.7953 13.2138 16.808 13.2307 16.8164C13.3742 16.8882 13.5093 16.922 13.6486 16.922C13.9989 16.922 14.2184 16.7025 14.2902 16.6307L15.7338 15.1871C15.8773 15.0436 16.1053 14.8705 16.3712 14.8705C16.6329 14.8705 16.8482 15.0351 16.9791 15.1786C16.9833 15.1828 16.9833 15.1828 16.9875 15.1871L19.3134 17.5129C19.7481 17.9435 19.7481 18.3867 19.3176 18.8341Z"/>
<path d="M12.8086 6.75744C13.9145 6.94317 14.9192 7.46659 15.7212 8.2686C16.5232 9.07062 17.0424 10.0753 17.2324 11.1812C17.2788 11.4598 17.5194 11.654 17.7938 11.654C17.8275 11.654 17.8571 11.6497 17.8909 11.6455C18.2032 11.5949 18.4101 11.2994 18.3594 10.987C18.1315 9.64892 17.4983 8.42901 16.5316 7.46237C15.565 6.49573 14.3451 5.86256 13.007 5.63462C12.6946 5.58396 12.4034 5.7908 12.3485 6.09894C12.2936 6.40708 12.4962 6.70678 12.8086 6.75744Z"/>
<path d="M21.9768 10.8224C21.6012 8.61899 20.5628 6.61395 18.9672 5.01836C17.3716 3.42277 15.3665 2.38437 13.1631 2.00869C12.855 1.95381 12.5637 2.16487 12.5088 2.47301C12.4582 2.78538 12.665 3.07664 12.9774 3.13151C14.9444 3.46498 16.7384 4.39785 18.1651 5.82037C19.5919 7.24712 20.5205 9.0411 20.854 11.0082C20.9004 11.2867 21.141 11.4809 21.4154 11.4809C21.4492 11.4809 21.4787 11.4767 21.5125 11.4725C21.8207 11.426 22.0317 11.1306 21.9768 10.8224Z"/>
</mask>
<path d="M17.8064 14.3893C17.397 13.9629 16.9031 13.735 16.3797 13.735C15.8605 13.735 15.3624 13.9587 14.936 14.3851L13.6022 15.7147C13.4924 15.6556 13.3827 15.6007 13.2771 15.5459C13.1252 15.4699 12.9816 15.3981 12.8592 15.3221C11.6098 14.5286 10.4743 13.4944 9.38524 12.1563C8.85759 11.4894 8.50302 10.9279 8.24553 10.3581C8.59166 10.0415 8.91247 9.71225 9.22483 9.39567C9.34303 9.27748 9.46122 9.15506 9.57941 9.03687C10.4658 8.15043 10.4658 7.00229 9.57941 6.11585L8.42704 4.96348C8.29618 4.83262 8.16111 4.69754 8.03447 4.56247C7.78121 4.30076 7.51527 4.03061 7.2409 3.77734C6.83145 3.37211 6.3418 3.15683 5.82682 3.15683C5.31184 3.15683 4.81375 3.37211 4.39163 3.77734C4.38741 3.78156 4.38741 3.78156 4.38319 3.78578L2.948 5.23363C2.4077 5.77393 2.09956 6.43243 2.03202 7.19646C1.93071 8.42903 2.29373 9.57718 2.57232 10.3285C3.25615 12.1732 4.27766 13.8827 5.80149 15.7147C7.65035 17.9224 9.87489 19.6657 12.416 20.894C13.3869 21.3542 14.6828 21.8987 16.1306 21.9915C16.2193 21.9958 16.3121 22 16.3965 22C17.3716 22 18.1905 21.6496 18.8321 20.9531C18.8364 20.9447 18.8448 20.9405 18.849 20.932C19.0685 20.6661 19.3218 20.4255 19.5877 20.168C19.7692 19.9949 19.955 19.8134 20.1365 19.6235C20.5544 19.1887 20.7739 18.6822 20.7739 18.163C20.7739 17.6396 20.5501 17.1372 20.1238 16.7151L17.8064 14.3893ZM19.3176 18.8341C19.3134 18.8384 19.3134 18.8341 19.3176 18.8341C19.1529 19.0114 18.9841 19.1718 18.8026 19.3491C18.5282 19.6108 18.2496 19.8852 17.9879 20.1933C17.5616 20.6492 17.0593 20.8645 16.4008 20.8645C16.3374 20.8645 16.2699 20.8645 16.2066 20.8603C14.9529 20.7801 13.7879 20.2904 12.9141 19.8725C10.5249 18.7159 8.42704 17.0739 6.68371 14.9929C5.2443 13.258 4.28188 11.654 3.64449 9.93175C3.25193 8.88069 3.10841 8.06179 3.17172 7.28932C3.21394 6.79545 3.40389 6.386 3.75424 6.03565L5.19365 4.59624C5.40048 4.40207 5.61998 4.29654 5.83526 4.29654C6.10119 4.29654 6.31647 4.45694 6.45155 4.59202C6.45577 4.59624 6.45999 4.60046 6.46421 4.60468C6.7217 4.84528 6.96653 5.09433 7.22402 5.36026C7.35487 5.49534 7.48995 5.63042 7.62502 5.76971L8.77739 6.92208C9.22483 7.36952 9.22483 7.7832 8.77739 8.23064C8.65498 8.35305 8.53679 8.47546 8.41438 8.59365C8.0598 8.95667 7.72211 9.29436 7.35487 9.62361C7.34643 9.63205 7.33799 9.63627 7.33377 9.64472C6.97075 10.0077 7.03829 10.3623 7.11427 10.6029C7.11849 10.6156 7.12271 10.6282 7.12693 10.6409C7.42663 11.3669 7.84874 12.0508 8.49036 12.8654L8.49458 12.8697C9.65961 14.3049 10.888 15.4235 12.2429 16.2803C12.416 16.3901 12.5933 16.4787 12.7621 16.5632C12.9141 16.6391 13.0576 16.7109 13.18 16.7869C13.1969 16.7953 13.2138 16.808 13.2307 16.8164C13.3742 16.8882 13.5093 16.922 13.6486 16.922C13.9989 16.922 14.2184 16.7025 14.2902 16.6307L15.7338 15.1871C15.8773 15.0436 16.1053 14.8705 16.3712 14.8705C16.6329 14.8705 16.8482 15.0351 16.9791 15.1786C16.9833 15.1828 16.9833 15.1828 16.9875 15.1871L19.3134 17.5129C19.7481 17.9435 19.7481 18.3867 19.3176 18.8341Z" fill="white"/>
<path d="M12.8086 6.75744C13.9145 6.94317 14.9192 7.46659 15.7212 8.2686C16.5232 9.07062 17.0424 10.0753 17.2324 11.1812C17.2788 11.4598 17.5194 11.654 17.7938 11.654C17.8275 11.654 17.8571 11.6497 17.8909 11.6455C18.2032 11.5949 18.4101 11.2994 18.3594 10.987C18.1315 9.64892 17.4983 8.42901 16.5316 7.46237C15.565 6.49573 14.3451 5.86256 13.007 5.63462C12.6946 5.58396 12.4034 5.7908 12.3485 6.09894C12.2936 6.40708 12.4962 6.70678 12.8086 6.75744Z" fill="white"/>
<path d="M21.9768 10.8224C21.6012 8.61899 20.5628 6.61395 18.9672 5.01836C17.3716 3.42277 15.3665 2.38437 13.1631 2.00869C12.855 1.95381 12.5637 2.16487 12.5088 2.47301C12.4582 2.78538 12.665 3.07664 12.9774 3.13151C14.9444 3.46498 16.7384 4.39785 18.1651 5.82037C19.5919 7.24712 20.5205 9.0411 20.854 11.0082C20.9004 11.2867 21.141 11.4809 21.4154 11.4809C21.4492 11.4809 21.4787 11.4767 21.5125 11.4725C21.8207 11.426 22.0317 11.1306 21.9768 10.8224Z" fill="white"/>
<path d="M17.8064 14.3893L17.7343 14.4586L17.7356 14.4599L17.8064 14.3893ZM14.936 14.3851L15.0066 14.4559L15.0067 14.4558L14.936 14.3851ZM13.6022 15.7147L13.5547 15.8028L13.6201 15.838L13.6728 15.7855L13.6022 15.7147ZM13.2771 15.5459L13.3233 15.4571L13.3218 15.4564L13.2771 15.5459ZM12.8592 15.3221L12.8056 15.4066L12.8065 15.4071L12.8592 15.3221ZM9.38524 12.1563L9.30681 12.2183L9.30768 12.2194L9.38524 12.1563ZM8.24553 10.3581L8.17804 10.2843L8.12456 10.3332L8.1544 10.3993L8.24553 10.3581ZM9.22483 9.39567L9.15412 9.32496L9.15365 9.32544L9.22483 9.39567ZM9.57941 9.03687L9.65012 9.10758L9.57941 9.03687ZM9.57941 6.11585L9.65012 6.04514L9.57941 6.11585ZM8.42704 4.96348L8.35633 5.03419L8.42704 4.96348ZM8.03447 4.56247L8.10744 4.49407L8.10633 4.49293L8.03447 4.56247ZM7.2409 3.77734L7.17051 3.84846L7.17307 3.85082L7.2409 3.77734ZM4.39163 3.77734L4.32237 3.70518L4.32092 3.70663L4.39163 3.77734ZM4.38319 3.78578L4.31248 3.71507L4.31217 3.71538L4.38319 3.78578ZM2.948 5.23363L3.01872 5.30434L3.01902 5.30403L2.948 5.23363ZM2.03202 7.19646L1.9324 7.18765L1.93235 7.18827L2.03202 7.19646ZM2.57232 10.3285L2.66609 10.2938L2.66609 10.2938L2.57232 10.3285ZM5.80149 15.7147L5.72461 15.7787L5.72483 15.7789L5.80149 15.7147ZM12.416 20.894L12.3725 20.9841L12.3732 20.9844L12.416 20.894ZM16.1306 21.9915L16.1242 22.0913L16.1259 22.0914L16.1306 21.9915ZM18.8321 20.9531L18.9057 21.0209L18.9153 21.0105L18.9216 20.9979L18.8321 20.9531ZM18.849 20.932L18.7719 20.8684L18.7647 20.8771L18.7596 20.8873L18.849 20.932ZM19.5877 20.168L19.5187 20.0956L19.5182 20.0962L19.5877 20.168ZM20.1365 19.6235L20.0644 19.5542L20.0642 19.5544L20.1365 19.6235ZM20.1238 16.7151L20.053 16.7857L20.0534 16.7862L20.1238 16.7151ZM18.8026 19.3491L18.8716 19.4215L18.8725 19.4206L18.8026 19.3491ZM17.9879 20.1933L18.061 20.2617L18.0641 20.2581L17.9879 20.1933ZM16.2066 20.8603L16.2132 20.7605L16.213 20.7605L16.2066 20.8603ZM12.9141 19.8725L12.8705 19.9625L12.871 19.9627L12.9141 19.8725ZM6.68371 14.9929L6.60675 15.0568L6.60705 15.0571L6.68371 14.9929ZM3.64449 9.93175L3.73828 9.89705L3.73817 9.89677L3.64449 9.93175ZM3.17172 7.28932L3.07209 7.28081L3.07206 7.28115L3.17172 7.28932ZM3.75424 6.03565L3.82495 6.10636L3.75424 6.03565ZM5.19365 4.59624L5.12517 4.52329L5.12294 4.52553L5.19365 4.59624ZM6.46421 4.60468L6.39346 4.67543L6.39594 4.67775L6.46421 4.60468ZM7.22402 5.36026L7.15217 5.42982L7.15219 5.42984L7.22402 5.36026ZM7.62502 5.76971L7.55323 5.83934L7.55431 5.84042L7.62502 5.76971ZM8.77739 6.92208L8.8481 6.85137L8.77739 6.92208ZM8.77739 8.23064L8.8481 8.30135L8.77739 8.23064ZM8.41438 8.59365L8.34489 8.52168L8.34284 8.52378L8.41438 8.59365ZM7.35487 9.62361L7.28802 9.54904L7.28416 9.5529L7.35487 9.62361ZM7.33377 9.64472L7.40448 9.71543L7.41595 9.70395L7.42321 9.68944L7.33377 9.64472ZM7.11427 10.6029L7.0189 10.633L7.0194 10.6345L7.11427 10.6029ZM7.12693 10.6409L7.03183 10.6726L7.0345 10.6791L7.12693 10.6409ZM8.49036 12.8654L8.41124 12.9278L8.41964 12.9362L8.49036 12.8654ZM8.49458 12.8697L8.57263 12.8063L8.56529 12.799L8.49458 12.8697ZM12.2429 16.2803L12.2965 16.1959L12.2964 16.1958L12.2429 16.2803ZM12.7621 16.5632L12.8069 16.4737L12.7621 16.5632ZM13.18 16.7869L13.1271 16.8722L13.1353 16.8763L13.18 16.7869ZM13.2307 16.8164L13.186 16.9059L13.2307 16.8164ZM14.2902 16.6307L14.2195 16.56L14.2902 16.6307ZM15.7338 15.1871L15.8045 15.2578L15.7338 15.1871ZM16.9791 15.1786L16.9051 15.2461L16.9084 15.2493L16.9791 15.1786ZM16.9875 15.1871L16.9168 15.2578L16.9875 15.1871ZM19.3134 17.5129L19.2426 17.5836L19.243 17.584L19.3134 17.5129ZM12.8086 6.75744L12.8252 6.65882L12.8246 6.65873L12.8086 6.75744ZM17.2324 11.1812L17.331 11.1647L17.3309 11.1643L17.2324 11.1812ZM17.8909 11.6455L17.9033 11.7448L17.9069 11.7442L17.8909 11.6455ZM18.3594 10.987L18.4581 10.971L18.458 10.9702L18.3594 10.987ZM13.007 5.63462L13.0238 5.53603L13.023 5.5359L13.007 5.63462ZM21.9768 10.8224L21.8783 10.8392L21.8784 10.84L21.9768 10.8224ZM13.1631 2.00869L13.1456 2.10714L13.1463 2.10727L13.1631 2.00869ZM12.5088 2.47301L12.4104 2.45548L12.4101 2.45701L12.5088 2.47301ZM12.9774 3.13151L12.9601 3.23L12.9607 3.2301L12.9774 3.13151ZM18.1651 5.82037L18.2359 5.74966L18.2358 5.74956L18.1651 5.82037ZM20.854 11.0082L20.9527 10.9917L20.9526 10.9914L20.854 11.0082ZM21.5125 11.4725L21.5249 11.5717L21.5274 11.5714L21.5125 11.4725ZM17.8785 14.32C17.4531 13.877 16.9342 13.635 16.3797 13.635V13.835C16.872 13.835 17.3408 14.0488 17.7343 14.4585L17.8785 14.32ZM16.3797 13.635C15.8297 13.635 15.3072 13.8724 14.8653 14.3143L15.0067 14.4558C15.4175 14.045 15.8912 13.835 16.3797 13.835V13.635ZM14.8654 14.3142L13.5316 15.6439L13.6728 15.7855L15.0066 14.4559L14.8654 14.3142ZM13.6496 15.6267C13.5391 15.5672 13.4268 15.511 13.3233 15.4571L13.231 15.6346C13.3385 15.6905 13.4457 15.744 13.5547 15.8028L13.6496 15.6267ZM13.3218 15.4564C13.1688 15.3799 13.0297 15.3103 12.912 15.2372L12.8065 15.4071C12.9336 15.486 13.0815 15.5599 13.2324 15.6353L13.3218 15.4564ZM12.9128 15.2377C11.6738 14.4508 10.5461 13.4243 9.4628 12.0932L9.30768 12.2194C10.4024 13.5645 11.5458 14.6064 12.8056 15.4066L12.9128 15.2377ZM9.46366 12.0942C8.93951 11.4317 8.58988 10.8773 8.33666 10.3169L8.1544 10.3993C8.41616 10.9786 8.77568 11.547 9.30681 12.2183L9.46366 12.0942ZM8.31302 10.4319C8.66149 10.1132 8.98437 9.78176 9.29602 9.4659L9.15365 9.32544C8.84057 9.64275 8.52184 9.96985 8.17804 10.2843L8.31302 10.4319ZM9.29555 9.46638C9.35501 9.40692 9.41441 9.34645 9.47346 9.28635C9.53261 9.22615 9.59139 9.16631 9.65012 9.10758L9.5087 8.96616C9.44924 9.02562 9.38983 9.08609 9.33079 9.14619C9.27164 9.2064 9.21285 9.26623 9.15412 9.32496L9.29555 9.46638ZM9.65012 9.10758C10.1089 8.64881 10.3442 8.11574 10.3442 7.57636C10.3442 7.03698 10.1089 6.50391 9.65012 6.04514L9.5087 6.18656C9.93637 6.61423 10.1442 7.09845 10.1442 7.57636C10.1442 8.05427 9.93637 8.53849 9.5087 8.96616L9.65012 9.10758ZM9.65012 6.04514L8.49775 4.89277L8.35633 5.03419L9.5087 6.18656L9.65012 6.04514ZM8.49775 4.89277C8.36669 4.7617 8.23277 4.62777 8.10743 4.49407L7.96152 4.63086C8.08945 4.76732 8.22568 4.90354 8.35633 5.03419L8.49775 4.89277ZM8.10633 4.49293C7.85283 4.23097 7.58528 3.95913 7.30873 3.70386L7.17307 3.85082C7.44527 4.10208 7.70959 4.37055 7.96261 4.63201L8.10633 4.49293ZM7.31124 3.70626C6.88556 3.28496 6.37144 3.05683 5.82682 3.05683V3.25683C6.31215 3.25683 6.77734 3.45925 7.17056 3.84841L7.31124 3.70626ZM5.82682 3.05683C5.28247 3.05683 4.76038 3.28471 4.32238 3.7052L4.46089 3.84948C4.86711 3.4595 5.34121 3.25683 5.82682 3.25683V3.05683ZM4.32092 3.70663C4.31881 3.70874 4.31776 3.70979 4.3167 3.71085C4.31565 3.7119 4.31459 3.71296 4.31248 3.71507L4.4539 3.85649C4.45601 3.85438 4.45707 3.85332 4.45812 3.85227C4.45918 3.85121 4.46023 3.85016 4.46234 3.84805L4.32092 3.70663ZM4.31217 3.71538L2.87698 5.16323L3.01902 5.30403L4.45421 3.85618L4.31217 3.71538ZM2.87729 5.16292C2.3204 5.71982 2.00201 6.40022 1.93241 7.18765L2.13163 7.20526C2.1971 6.46464 2.495 5.82805 3.01872 5.30434L2.87729 5.16292ZM1.93235 7.18827C1.82918 8.44357 2.19882 9.60884 2.47856 10.3633L2.66609 10.2938C2.38864 9.54551 2.03224 8.41449 2.13168 7.20465L1.93235 7.18827ZM2.47856 10.3633C3.16701 12.2204 4.19493 13.9396 5.72461 15.7787L5.87837 15.6508C4.3604 13.8258 3.34529 12.1259 2.66609 10.2938L2.47856 10.3633ZM5.72483 15.7789C7.58256 17.9972 9.81832 19.7494 12.3725 20.9841L12.4595 20.804C9.93146 19.582 7.71814 17.8476 5.87816 15.6505L5.72483 15.7789ZM12.3732 20.9844C13.3464 21.4456 14.6566 21.9972 16.1242 22.0913L16.137 21.8917C14.709 21.8001 13.4273 21.2627 12.4588 20.8037L12.3732 20.9844ZM16.1259 22.0914C16.2142 22.0956 16.3094 22.1 16.3965 22.1V21.9C16.3149 21.9 16.2243 21.8959 16.1354 21.8917L16.1259 22.0914ZM16.3965 22.1C17.3984 22.1 18.2444 21.7388 18.9057 21.0209L18.7586 20.8854C18.1367 21.5605 17.3448 21.9 16.3965 21.9V22.1ZM18.9216 20.9979C18.9181 21.0048 18.9144 21.0096 18.9123 21.0121C18.9106 21.0141 18.9092 21.0154 18.9113 21.0133C18.9124 21.0122 18.917 21.0077 18.9215 21.0023C18.9265 20.9964 18.9329 20.9879 18.9385 20.9768L18.7596 20.8873C18.763 20.8804 18.7668 20.8756 18.7689 20.8731C18.7705 20.8711 18.7719 20.8698 18.7699 20.8719C18.7688 20.873 18.7642 20.8775 18.7596 20.8829C18.7546 20.8888 18.7483 20.8973 18.7427 20.9084L18.9216 20.9979ZM18.9261 20.9957C19.1413 20.735 19.3899 20.4988 19.6573 20.2399L19.5182 20.0962C19.2537 20.3522 18.9958 20.5972 18.7719 20.8684L18.9261 20.9957ZM19.6567 20.2404C19.8388 20.0668 20.0258 19.8841 20.2088 19.6926L20.0642 19.5544C19.8842 19.7428 19.6997 19.9231 19.5187 20.0956L19.6567 20.2404ZM20.2086 19.6928C20.6415 19.2424 20.8739 18.7119 20.8739 18.163H20.6739C20.6739 18.6524 20.4673 19.135 20.0644 19.5542L20.2086 19.6928ZM20.8739 18.163C20.8739 17.6092 20.6367 17.0822 20.1942 16.6441L20.0534 16.7862C20.4636 17.1922 20.6739 17.6699 20.6739 18.163H20.8739ZM20.1946 16.6445L17.8772 14.3187L17.7356 14.4599L20.053 16.7857L20.1946 16.6445ZM19.3176 18.7341C19.2999 18.7341 19.2803 18.7386 19.2622 18.7499C19.2534 18.7554 19.2436 18.7634 19.2351 18.7746C19.2281 18.7838 19.2144 18.805 19.2144 18.8357C19.2144 18.8526 19.2188 18.8739 19.233 18.8938C19.2474 18.9141 19.2669 18.9258 19.2848 18.9314C19.3163 18.9413 19.342 18.9327 19.3503 18.9295C19.3706 18.9219 19.3835 18.9097 19.3883 18.9048L19.2469 18.7634C19.2496 18.7607 19.2608 18.7495 19.2801 18.7423C19.2879 18.7394 19.3132 18.7308 19.3444 18.7405C19.3622 18.7461 19.3816 18.7577 19.396 18.7779C19.4101 18.7978 19.4144 18.819 19.4144 18.8357C19.4144 18.8661 19.4009 18.887 19.3941 18.8958C19.3858 18.9068 19.3764 18.9144 19.3682 18.9195C19.3511 18.9302 19.3332 18.9341 19.3176 18.9341V18.7341ZM19.2443 18.7661C19.0818 18.9411 18.9156 19.099 18.7327 19.2776L18.8725 19.4206C19.0526 19.2447 19.2241 19.0818 19.3909 18.9022L19.2443 18.7661ZM18.7336 19.2768C18.4586 19.539 18.1769 19.8163 17.9117 20.1286L18.0641 20.2581C18.3223 19.9541 18.5978 19.6826 18.8716 19.4215L18.7336 19.2768ZM17.9149 20.125C17.5083 20.5598 17.0328 20.7645 16.4008 20.7645V20.9645C17.0857 20.9645 17.6149 20.7386 18.061 20.2616L17.9149 20.125ZM16.4008 20.7645C16.3368 20.7645 16.2727 20.7645 16.2132 20.7605L16.1999 20.9601C16.2672 20.9645 16.3381 20.9645 16.4008 20.9645V20.7645ZM16.213 20.7605C14.9794 20.6816 13.8288 20.1991 12.9573 19.7823L12.871 19.9627C13.747 20.3817 14.9265 20.8786 16.2002 20.9601L16.213 20.7605ZM12.9577 19.7825C10.5815 18.6322 8.49481 16.9991 6.76037 14.9287L6.60705 15.0571C8.35927 17.1487 10.4684 18.7997 12.8705 19.9625L12.9577 19.7825ZM6.76067 14.929C5.32692 13.201 4.37098 11.6066 3.73828 9.89705L3.55071 9.96646C4.19279 11.7014 5.16169 13.315 6.60675 15.0567L6.76067 14.929ZM3.73817 9.89677C3.34876 8.85414 3.20967 8.05054 3.27139 7.29749L3.07206 7.28115C3.00715 8.07305 3.15509 8.90724 3.55081 9.96674L3.73817 9.89677ZM3.27136 7.29784C3.31157 6.82739 3.49132 6.43999 3.82495 6.10636L3.68353 5.96493C3.31645 6.33201 3.1163 6.76351 3.07209 7.28081L3.27136 7.29784ZM3.82495 6.10636L5.26436 4.66695L5.12294 4.52553L3.68353 5.96493L3.82495 6.10636ZM5.26209 4.66914C5.45749 4.48571 5.65371 4.39654 5.83526 4.39654V4.19654C5.58625 4.19654 5.34348 4.31842 5.12521 4.52333L5.26209 4.66914ZM5.83526 4.39654C6.06106 4.39654 6.25198 4.53387 6.38084 4.66273L6.52226 4.52131C6.38096 4.38001 6.14132 4.19654 5.83526 4.19654V4.39654ZM6.38084 4.66273C6.38295 4.66484 6.38506 4.66695 6.38717 4.66906C6.38928 4.67117 6.39139 4.67328 6.3935 4.67539L6.53492 4.53397C6.53281 4.53186 6.5307 4.52975 6.52859 4.52764C6.52648 4.52553 6.52437 4.52342 6.52226 4.52131L6.38084 4.66273ZM6.39594 4.67775C6.6515 4.91655 6.89487 5.16409 7.15217 5.42982L7.29586 5.2907C7.03818 5.02457 6.7919 4.77402 6.53249 4.53161L6.39594 4.67775ZM7.15219 5.42984C7.21795 5.49772 7.28471 5.56554 7.35168 5.63356C7.41873 5.70167 7.486 5.77 7.55323 5.83933L7.69681 5.7001C7.62897 5.63013 7.56116 5.56127 7.4942 5.49325C7.42714 5.42514 7.36094 5.35789 7.29584 5.29068L7.15219 5.42984ZM7.55431 5.84042L8.70668 6.99279L8.8481 6.85137L7.69573 5.699L7.55431 5.84042ZM8.70668 6.99279C8.9209 7.20701 9.01297 7.39831 9.01297 7.57636C9.01297 7.75441 8.9209 7.94571 8.70668 8.15993L8.8481 8.30135C9.08133 8.06812 9.21297 7.82887 9.21297 7.57636C9.21297 7.32385 9.08133 7.0846 8.8481 6.85137L8.70668 6.99279ZM8.70668 8.15993C8.58252 8.28409 8.46659 8.40423 8.34492 8.52171L8.48384 8.66559C8.60699 8.54669 8.72744 8.42201 8.8481 8.30135L8.70668 8.15993ZM8.34284 8.52378C7.98865 8.8864 7.65282 9.22218 7.28812 9.54915L7.42163 9.69807C7.7914 9.36655 8.13095 9.02694 8.48591 8.66353L8.34284 8.52378ZM7.28416 9.5529C7.28496 9.5521 7.28531 9.55185 7.28435 9.55266C7.28377 9.55315 7.28325 9.55357 7.28203 9.55458C7.28101 9.55542 7.27939 9.55675 7.27766 9.55824C7.27114 9.56383 7.25556 9.57753 7.24432 9.6L7.42321 9.68944C7.41619 9.70346 7.40695 9.71083 7.40781 9.71009C7.40793 9.70999 7.40822 9.70974 7.40917 9.70897C7.40991 9.70836 7.4114 9.70713 7.41287 9.7059C7.41599 9.70328 7.42056 9.69934 7.42558 9.69432L7.28416 9.5529ZM7.26305 9.57401C7.06649 9.77057 6.98178 9.9705 6.96005 10.1582C6.93864 10.3432 6.97945 10.5081 7.01891 10.633L7.20962 10.5728C7.1731 10.4571 7.14215 10.3244 7.15873 10.1812C7.17499 10.0407 7.23802 9.88188 7.40448 9.71543L7.26305 9.57401ZM7.0194 10.6345C7.02151 10.6409 7.02362 10.6472 7.02573 10.6535C7.02784 10.6599 7.02995 10.6662 7.03206 10.6725L7.2218 10.6093C7.21969 10.6029 7.21758 10.5966 7.21547 10.5903C7.21335 10.584 7.21124 10.5776 7.20913 10.5713L7.0194 10.6345ZM7.0345 10.6791C7.33872 11.416 7.7664 12.1078 8.4118 12.9273L8.56892 12.8036C7.93109 11.9937 7.51454 11.3178 7.21936 10.6027L7.0345 10.6791ZM8.41964 12.9362L8.42386 12.9404L8.56529 12.799L8.56107 12.7947L8.41964 12.9362ZM8.41694 12.9327C9.58776 14.375 10.824 15.5013 12.1895 16.3649L12.2964 16.1958C10.9519 15.3456 9.73146 14.2347 8.57222 12.8066L8.41694 12.9327ZM12.1894 16.3648C12.3674 16.4777 12.5492 16.5685 12.7174 16.6526L12.8069 16.4737C12.6374 16.389 12.4646 16.3025 12.2965 16.1959L12.1894 16.3648ZM12.7174 16.6526C12.8705 16.7291 13.0096 16.7988 13.1273 16.8718L13.2328 16.7019C13.1057 16.623 12.9578 16.5492 12.8069 16.4737L12.7174 16.6526ZM13.1353 16.8763C13.1387 16.878 13.1431 16.8807 13.1524 16.8865C13.16 16.8912 13.1725 16.8991 13.186 16.9059L13.2754 16.727C13.272 16.7253 13.2676 16.7227 13.2584 16.7169C13.2508 16.7121 13.2382 16.7042 13.2248 16.6974L13.1353 16.8763ZM13.186 16.9059C13.3415 16.9836 13.4918 17.022 13.6486 17.022V16.822C13.5268 16.822 13.4069 16.7927 13.2754 16.727L13.186 16.9059ZM13.6486 17.022C14.0424 17.022 14.2874 16.7749 14.3609 16.7014L14.2195 16.56C14.1495 16.63 13.9554 16.822 13.6486 16.822V17.022ZM14.3609 16.7014L15.8045 15.2578L15.6631 15.1164L14.2195 16.56L14.3609 16.7014ZM15.8045 15.2578C15.9436 15.1187 16.1468 14.9705 16.3712 14.9705V14.7705C16.0638 14.7705 15.8111 14.9684 15.6631 15.1164L15.8045 15.2578ZM16.3712 14.9705C16.5913 14.9705 16.7817 15.1106 16.9052 15.246L17.053 15.1113C16.9147 14.9597 16.6746 14.7705 16.3712 14.7705V14.9705ZM16.9084 15.2493C16.9105 15.2514 16.9115 15.2525 16.9126 15.2536C16.9136 15.2546 16.9147 15.2557 16.9168 15.2578L17.0582 15.1164C17.0561 15.1143 17.0551 15.1132 17.054 15.1121C17.0529 15.1111 17.0519 15.11 17.0498 15.1079L16.9084 15.2493ZM16.9168 15.2578L19.2426 17.5836L19.3841 17.4422L17.0582 15.1164L16.9168 15.2578ZM19.243 17.584C19.4488 17.7878 19.5395 17.9823 19.54 18.1674C19.5404 18.3531 19.4502 18.5521 19.2455 18.7648L19.3896 18.9035C19.6155 18.6687 19.7406 18.4224 19.74 18.167C19.7393 17.911 19.6127 17.6686 19.3837 17.4419L19.243 17.584ZM12.792 6.85606C13.877 7.03827 14.8629 7.55169 15.6505 8.33931L15.7919 8.19789C14.9755 7.38148 13.952 6.84807 12.8252 6.65882L12.792 6.85606ZM15.6505 8.33931C16.4379 9.12676 16.9474 10.1126 17.1338 11.1981L17.3309 11.1643C17.1375 10.0379 16.6085 9.01448 15.7919 8.19789L15.6505 8.33931ZM17.1337 11.1976C17.1884 11.526 17.4721 11.754 17.7938 11.754V11.554C17.5667 11.554 17.3691 11.3936 17.331 11.1647L17.1337 11.1976ZM17.7938 11.754C17.8352 11.754 17.8718 11.7487 17.9033 11.7447L17.8785 11.5463C17.8423 11.5508 17.8199 11.554 17.7938 11.554V11.754ZM17.9069 11.7442C18.2753 11.6845 18.5174 11.3363 18.4581 10.971L18.2607 11.003C18.3028 11.2625 18.1311 11.5052 17.8749 11.5468L17.9069 11.7442ZM18.458 10.9702C18.2265 9.6115 17.5835 8.37281 16.6024 7.39166L16.4609 7.53308C17.4131 8.48521 18.0364 9.68633 18.2608 11.0038L18.458 10.9702ZM16.6024 7.39166C15.6212 6.41051 14.3825 5.76749 13.0238 5.53604L12.9902 5.7332C14.3077 5.95762 15.5088 6.58095 16.4609 7.53308L16.6024 7.39166ZM13.023 5.5359C12.657 5.47656 12.3145 5.71917 12.25 6.08141L12.4469 6.11647C12.4922 5.86242 12.7322 5.69136 12.991 5.73333L13.023 5.5359ZM12.25 6.08141C12.1858 6.4423 12.4229 6.7962 12.7926 6.85615L12.8246 6.65873C12.5696 6.61737 12.4015 6.37187 12.4469 6.11647L12.25 6.08141ZM22.0754 10.8056C21.6962 8.58161 20.648 6.55778 19.0379 4.94765L18.8965 5.08907C20.4775 6.67012 21.5061 8.65637 21.8783 10.8392L22.0754 10.8056ZM19.0379 4.94765C17.4277 3.33752 15.4039 2.2893 13.1799 1.91011L13.1463 2.10727C15.3292 2.47944 17.3154 3.50802 18.8965 5.08907L19.0379 4.94765ZM13.1806 1.91024C12.8161 1.84531 12.4746 2.09503 12.4104 2.45548L12.6073 2.49055C12.6528 2.23471 12.8938 2.06231 13.1456 2.10714L13.1806 1.91024ZM12.4101 2.45701C12.3507 2.82339 12.5938 3.16566 12.9601 3.23L12.9947 3.03302C12.7362 2.98761 12.5656 2.74736 12.6075 2.48902L12.4101 2.45701ZM12.9607 3.2301C14.9069 3.56005 16.6822 4.48302 18.0945 5.89119L18.2358 5.74956C16.7946 4.31268 14.9819 3.36991 12.9941 3.03292L12.9607 3.2301ZM18.0944 5.89108C19.5066 7.3033 20.4254 9.07846 20.7554 11.0249L20.9526 10.9914C20.6156 9.00374 19.6771 7.19094 18.2359 5.74966L18.0944 5.89108ZM20.7554 11.0246C20.8101 11.353 21.0938 11.5809 21.4154 11.5809V11.3809C21.1883 11.3809 20.9908 11.2205 20.9526 10.9917L20.7554 11.0246ZM21.4154 11.5809C21.4568 11.5809 21.4935 11.5756 21.5249 11.5717L21.5001 11.3732C21.464 11.3778 21.4415 11.3809 21.4154 11.3809V11.5809ZM21.5274 11.5714C21.8916 11.5165 22.1399 11.168 22.0753 10.8049L21.8784 10.84C21.9235 11.0931 21.7497 11.3356 21.4976 11.3736L21.5274 11.5714Z" fill="white" mask="url(#path-1-inside-1)"/>
</svg>
