<svg width="24" height="24" viewBox="0 0 24 24" fill="none" xmlns="http://www.w3.org/2000/svg">
<path d="M16.4526 3.626L15.6023 2.79084V3.98273V5.82675C15.6023 6.20559 15.9097 6.51306 16.2886 6.51306H18.1695H19.3922L18.5199 5.65634L16.4526 3.626ZM15.4305 3.17188V2.67188H14.9305H5.18628C4.35075 2.67188 3.67188 3.35075 3.67188 4.18628V19.8137C3.67188 20.6493 4.35095 21.3281 5.18628 21.3281H18.002C18.8375 21.3281 19.5164 20.6493 19.5164 19.8137V7.18494V6.68494H19.0164H16.2887C15.816 6.68494 15.4305 6.29951 15.4305 5.82675V3.17188ZM15.5766 2.52462L19.6626 6.5376C19.679 6.55373 19.6883 6.57579 19.6883 6.599V19.8137C19.6883 20.7432 18.9313 21.5 18.002 21.5H5.18628C4.25685 21.5 3.5 20.743 3.5 19.8137V4.18628C3.5 3.25685 4.25695 2.5 5.18628 2.5H15.5163C15.539 2.5 15.5606 2.50885 15.5766 2.52457C15.5766 2.52458 15.5766 2.5246 15.5766 2.52462ZM7.40201 11.7969H15.6619C15.7094 11.7969 15.7478 11.8353 15.7478 11.8828C15.7478 11.9303 15.7094 11.9688 15.6619 11.9688H7.40201C7.35451 11.9688 7.31607 11.9303 7.31607 11.8828C7.31607 11.8353 7.35451 11.7969 7.40201 11.7969ZM14.1369 14.3125H7.40201C7.35451 14.3125 7.31607 14.2741 7.31607 14.2266C7.31607 14.1791 7.35451 14.1406 7.40201 14.1406H14.1369C14.1844 14.1406 14.2229 14.1791 14.2229 14.2266C14.2229 14.2741 14.1844 14.3125 14.1369 14.3125ZM7.40201 16.4844H14.9495C14.9969 16.4844 15.0354 16.5229 15.0354 16.5703C15.0354 16.6177 14.9969 16.6562 14.9495 16.6562H7.40201C7.35451 16.6562 7.31607 16.6178 7.31607 16.5703C7.31607 16.5228 7.35451 16.4844 7.40201 16.4844Z" fill="white" stroke="white"/>
</svg>
