<svg width="176" height="36" fill="none" xmlns="http://www.w3.org/2000/svg"><path d="M169.776 6.974l-5.984 6.732V6.974h-4.344V23.96h4.344v-7.166l6.418 7.166h5.598l-7.89-8.903 7.311-8.083h-5.453zm-18.002 6.346h-5.984V6.973h-4.343V23.96h4.343v-6.707h5.984v6.707h4.343V6.974h-4.343v6.345zM25.768 16.167c-.097 3.16-.507 3.788-2.292 3.788v3.981h.651c4.44 0 5.502-2.292 5.67-7.383l.17-5.646h4.15v13.03h4.343V6.973H26.033l-.265 9.193zm23.536-4.03h-3.137V6.974h-4.343v16.962h7.528c4.73 0 6.419-3.064 6.419-5.96 0-3.74-2.341-5.839-6.467-5.839zm-.338 8.084h-2.799V15.9h2.799c1.496 0 2.413.652 2.413 2.076 0 1.544-.869 2.244-2.413 2.244zM69.903 6.587V.29H65.56v6.298c-4.97.41-8.325 3.957-8.325 8.856 0 4.946 3.354 8.469 8.325 8.903v6.395h4.343v-6.395c4.97-.386 8.325-3.957 8.325-8.903 0-4.947-3.354-8.47-8.325-8.856zM65.56 20.244c-2.413-.338-3.909-2.147-3.909-4.801 0-2.655 1.496-4.464 3.909-4.802v9.603zm4.343 0v-9.58c2.413.315 3.933 2.124 3.933 4.779 0 2.654-1.52 4.463-3.933 4.801zm24.611-1.519V13.03c0-4.15-2.655-6.78-7.118-6.78-4.61 0-7.046 2.775-7.263 5.67h4.391c.145-.627.82-1.713 2.871-1.713 1.69 0 2.775.772 2.775 2.823h-4.319c-3.86 0-6.153 2.027-6.153 5.405 0 3.523 2.51 5.936 6.13 5.936 2.653 0 4.125-1.255 4.753-2.196.579 1.134 1.833 1.786 3.498 1.786h1.496v-3.933c-.772 0-1.061-.362-1.061-1.303zm-4.344-1.11c0 1.954-1.375 3.064-3.185 3.064-1.568 0-2.799-.579-2.799-2.268 0-1.665 1.351-1.93 2.534-1.93h3.475v1.134h-.025zm22.925-8.229h-4.85V4.584h11.244V.29h-15.804v23.67h9.41c5.212 0 8.204-2.582 8.204-7.36 0-4.487-2.968-7.214-8.204-7.214zm-.193 10.28h-4.633v-6.154h4.633c2.413 0 3.764 1.11 3.764 3.065 0 2.026-1.351 3.088-3.764 3.088zm25.023-.941V13.03c0-4.15-2.654-6.78-7.118-6.78-4.609 0-7.046 2.775-7.263 5.67h4.392c.145-.627.82-1.713 2.871-1.713 1.689 0 2.775.772 2.775 2.823h-4.319c-3.861 0-6.153 2.027-6.153 5.405 0 3.523 2.509 5.936 6.129 5.936 2.654 0 4.126-1.255 4.753-2.196.579 1.134 1.834 1.786 3.499 1.786h1.496v-3.933c-.772 0-1.062-.362-1.062-1.303zm-4.343-1.11c0 1.954-1.375 3.064-3.185 3.064-1.568 0-2.799-.579-2.799-2.268 0-1.665 1.351-1.93 2.533-1.93h3.475v1.134h-.024zM23.212 31.174H0V36h23.212v-4.826zM15.825 3.523C15.149 1.568 14.4 0 11.77 0 9.165 0 8.369 1.544 7.669 3.523L.479 23.96h4.753l1.665-4.85h9.17l1.543 4.85h5.067L15.825 3.523zM8.296 14.984l3.258-9.676h.12l3.065 9.676H8.296z" fill="#EF3124"/></svg>