<svg version="1.1" viewBox="0 0 254 191" xml:space="preserve" xmlns="http://www.w3.org/2000/svg"><style type="text/css">
	.st0{fill:#ABABAB;}
</style><g transform="matrix(.75004 0 0 .7565 28.348 -1.1518)" fill="#ababab"><path class="st0" d="m128.41 1.5226c-39.165 0-74.171 17.454-97.609 44.938 10.958-0.50154 25.569-0.90278 45.05-0.90278 38.354 0 57.835 1.4043 67.576 2.7083 5.682 0.70216 10.755 4.213 13.495 9.2284l16.234 29.391h4.5659c0.20293-2.608 2.3337-4.7145 5.0732-4.7145h0.10146c6.7982 0 12.886 4.1127 15.321 10.332 0.60879 1.7053-0.60879 3.4105-2.4352 3.4105h-12.683c13.292 7.8241 22.221 22.168 22.221 38.519v31.798c0 11.836-9.7406 21.466-21.713 21.466h-19.278c-5.682 0-11.06-1.6049-15.727-4.5139-2.2322 3.6111-6.1894 5.8179-10.552 5.8179h-121.35c21.815 38.719 63.619 65 111.71 65 70.518 0 127.74-56.474 127.74-126.29-0.10146-69.715-57.226-126.19-127.74-126.19zm73.258 197.61c0 6.0185-4.8703 10.833-10.958 10.833h-17.046c-6.0879 0-10.958-4.8148-10.958-10.833v-6.3195h38.963z" stroke-width="1.0089"/><path class="st0" d="m163.5 86.1-13.8-25.3c-1.8-3.3-5.2-5.6-8.9-6.1-9.1-1.2-27.9-2.6-65.8-2.6-22.5 0-38.3 0.5-49.3 1.2-8.2 10.8-14.5 23.1-18.8 36.4h154.5c1.8 0 3-2 2.1-3.6z"/><path class="st0" d="m157.2 163.1c-2.6 0-4.5 2.5-3.7 5 2.1 6.1 7.9 10.5 14.7 10.5h15.8c3.1 0 5.5-2.5 5.5-5.5v-4.4c0-3.1-2.5-5.5-5.5-5.5h-26.8z"/><path class="st0" d="m32.6 161.2c-2 0-3.2 2.1-2.3 3.8l0.7 1.3c1.4 2.8 4.3 4.6 7.5 4.6h73c3.2 0 6-1.8 7.5-4.6l0.7-1.3c0.9-1.7-0.4-3.8-2.3-3.8z"/><path class="st0" d="m28.9 143h-5.5v-11.4h-10.6v11.4h-5.4v-26.5h5.5v10.7h10.6v-10.7h5.5v26.5z"/><path class="st0" d="m49.6 131.5h-10.5v7.1h12.3v4.4h-17.7v-26.5h17.7v4.4h-12.3v6.3h10.5z"/><path class="st0" d="m74.9 120.9h-8.1v22.1h-5.5v-22.1h-8v-4.4h21.6z"/><path class="st0" d="m101.8 118.9c1.7 0 3.2 0.3 4.6 0.8s2.6 1.3 3.5 2.2c1 1 1.8 2.1 2.3 3.5 0.6 1.4 0.8 2.9 0.8 4.5s-0.3 3.1-0.8 4.4c-0.6 1.3-1.3 2.5-2.3 3.4s-2.2 1.7-3.5 2.2c-1.4 0.5-2.9 0.8-4.5 0.8h-0.1v3.4h-5.3v-3.4h-0.1c-1.6 0-3.1-0.3-4.5-0.8s-2.6-1.2-3.5-2.2c-1-0.9-1.8-2.1-2.3-3.4-0.6-1.3-0.8-2.8-0.8-4.4 0-1.7 0.3-3.2 0.8-4.5 0.6-1.4 1.3-2.5 2.3-3.5s2.2-1.7 3.5-2.2c1.4-0.5 2.9-0.8 4.5-0.8h0.1v-3.5h5.3zm-5.4 4.5c-0.9 0-1.8 0.1-2.5 0.4s-1.4 0.7-1.9 1.2-0.9 1.2-1.2 2-0.4 1.8-0.4 2.8 0.1 1.9 0.4 2.7 0.7 1.4 1.2 1.9 1.2 0.9 1.9 1.2 1.6 0.4 2.5 0.4h0.1v-12.8h-0.1zm5.4 0v12.8h0.1c0.9 0 1.8-0.1 2.5-0.4s1.4-0.7 1.9-1.2 0.9-1.2 1.2-2 0.4-1.7 0.4-2.7c0-1.1-0.1-2-0.4-2.8s-0.7-1.5-1.2-2-1.2-1-1.9-1.2-1.6-0.4-2.5-0.4h-0.1z"/><path class="st0" d="m138.4 130.3c0 2-0.3 3.8-0.8 5.4s-1.3 3-2.3 4.1-2.2 2-3.6 2.6-2.9 0.9-4.6 0.9-3.2-0.3-4.6-0.9-2.6-1.5-3.6-2.6-1.8-2.5-2.3-4.1c-0.6-1.6-0.8-3.4-0.8-5.4v-1.2c0-2 0.3-3.8 0.8-5.4 0.6-1.6 1.3-3 2.3-4.1s2.2-2 3.6-2.6 2.9-0.9 4.6-0.9 3.2 0.3 4.6 0.9 2.6 1.5 3.6 2.6 1.8 2.5 2.3 4.1c0.6 1.6 0.8 3.4 0.8 5.4zm-5.5-1.2c0-2.8-0.5-4.9-1.5-6.3s-2.4-2.2-4.3-2.2-3.3 0.7-4.3 2.2c-1 1.4-1.5 3.6-1.5 6.3v1.2c0 1.4 0.1 2.6 0.4 3.7s0.6 2 1.1 2.7 1.1 1.3 1.8 1.6c0.7 0.4 1.5 0.6 2.5 0.6 1.8 0 3.3-0.7 4.2-2.2s1.5-3.6 1.5-6.3v-1.3z"/><path class="st0" d="m160.8 120.9h-8.1v22.1h-5.5v-22.1h-8v-4.4h21.6z"/><path class="st0" d="m185.1 130.3c0 2-0.3 3.8-0.8 5.4s-1.3 3-2.3 4.1-2.2 2-3.6 2.6-2.9 0.9-4.6 0.9-3.2-0.3-4.6-0.9-2.6-1.5-3.6-2.6-1.8-2.5-2.3-4.1c-0.6-1.6-0.8-3.4-0.8-5.4v-1.2c0-2 0.3-3.8 0.8-5.4 0.6-1.6 1.3-3 2.3-4.1s2.2-2 3.6-2.6 2.9-0.9 4.6-0.9 3.2 0.3 4.6 0.9 2.6 1.5 3.6 2.6 1.8 2.5 2.3 4.1c0.6 1.6 0.8 3.4 0.8 5.4zm-5.5-1.2c0-2.8-0.5-4.9-1.5-6.3s-2.4-2.2-4.3-2.2c-1.8 0-3.3 0.7-4.3 2.2-1 1.4-1.5 3.6-1.5 6.3v1.2c0 1.4 0.1 2.6 0.4 3.7s0.6 2 1.1 2.7 1.1 1.3 1.8 1.6c0.7 0.4 1.5 0.6 2.5 0.6 1.8 0 3.3-0.7 4.2-2.2s1.5-3.6 1.5-6.3v-1.3z"/></g></svg>
