<svg xmlns="http://www.w3.org/2000/svg" viewBox="0 0 40.75 33.91">
  <g>
    <g>
      <path d="M-2.94,23.64a1.61,1.61,0,0,1-1.57,1.74,1.38,1.38,0,0,1-1.19-.63v2.07h-.69V22h.69v.57a1.39,1.39,0,0,1,1.2-.64A1.61,1.61,0,0,1-2.94,23.64Zm-.71,0a1,1,0,0,0-1-1.08,1,1,0,0,0-1,1.08,1,1,0,0,0,1,1.08A1,1,0,0,0-3.65,23.64Z" transform="translate(10.64 7.08)" fill="#6d96d6"/>
      <path d="M.94,22v3.33H.25v-.56a1.37,1.37,0,0,1-1.19.64,1.61,1.61,0,0,1-1.57-1.74A1.62,1.62,0,0,1-.94,21.91a1.38,1.38,0,0,1,1.2.65V22H.94ZM.26,23.64a1,1,0,0,0-1-1.08,1,1,0,0,0-1,1.08,1,1,0,0,0,1,1.08A1,1,0,0,0,.26,23.64Z" transform="translate(10.64 7.08)" fill="#6d96d6"/>
      <polygon points="15.43 29.06 13.17 33.91 12.43 33.91 13.32 31.97 11.98 29.06 12.72 29.06 13.69 31.23 14.67 29.06 15.43 29.06" fill="#6d96d6"/>
      <path d="M10.3,23.17v2.14H9.6v-2c0-.5-.21-.76-.67-.76s-.84.42-.84,1v1.72H7.39v-2c0-.5-.2-.76-.67-.76s-.83.42-.83,1v1.72h-.7V22h.7v.53a1.16,1.16,0,0,1,1.05-.6,1,1,0,0,1,1,.69,1.24,1.24,0,0,1,1.15-.69A1.12,1.12,0,0,1,10.3,23.17Z" transform="translate(10.64 7.08)" fill="#6d96d6"/>
      <path d="M14.28,23.83H11.52a1,1,0,0,0,1.07,1,1,1,0,0,0,.91-.5h.72a1.64,1.64,0,0,1-1.64,1.1,1.74,1.74,0,1,1,1.7-1.55Zm-2.71-.55h2a1,1,0,0,0-1-.77A1,1,0,0,0,11.57,23.28Z" transform="translate(10.64 7.08)" fill="#6d96d6"/>
      <path d="M17.88,23.21v2.1h-.7v-2c0-.51-.23-.79-.74-.79s-.92.38-.92,1v1.72h-.7V22h.7v.55a1.26,1.26,0,0,1,1.14-.62A1.16,1.16,0,0,1,17.88,23.21Z" transform="translate(10.64 7.08)" fill="#6d96d6"/>
      <path d="M21,25.14a2.24,2.24,0,0,1-1,.24A1.2,1.2,0,0,1,18.82,24V22.62h-.63V22h.63v-.76l.7-.15V22h1.39v.64H19.52V24c0,.49.23.75.67.75a2.78,2.78,0,0,0,.72-.16Z" transform="translate(10.64 7.08)" fill="#6d96d6"/>
      <path d="M21.27,24.23H22c.11.37.38.54,1,.54s.73-.13.73-.38-.33-.33-.89-.46c-.95-.22-1.35-.41-1.35-1s.58-1.05,1.43-1.05a1.34,1.34,0,0,1,1.49,1h-.71c-.1-.27-.35-.4-.79-.4s-.71.15-.71.38.21.27.81.4c.92.21,1.45.37,1.45,1s-.66,1.06-1.46,1.06A1.52,1.52,0,0,1,21.27,24.23Z" transform="translate(10.64 7.08)" fill="#6d96d6"/>
    </g>
    <path d="M-8.7,9.78a7.1,7.1,0,0,1,7-5.7A7.29,7.29,0,0,1,2.36,5.31L3.74,4A9.37,9.37,0,0,0,.09,2.34,8.37,8.37,0,0,1,8.45-5.19a8.46,8.46,0,0,1,4.78,1.48A8.39,8.39,0,0,1,16-.43a11.33,11.33,0,0,0-4.53,2.37l1.36,1.34a9.4,9.4,0,0,1,6-2.18A9.26,9.26,0,0,1,28.2,9.76h1.92a11,11,0,0,0-3.45-7.47A11.26,11.26,0,0,0,18.89-.8c-.3,0-.6,0-.9,0a10.18,10.18,0,0,0-3.67-4.51A10.3,10.3,0,0,0,8.45-7.08,10.26,10.26,0,0,0-1.82,2.17a9,9,0,0,0-8.82,7.59H-8.7Z" transform="translate(10.64 7.08)" fill="#6d96d6"/>
    <path d="M-6.89,15.4a3.24,3.24,0,0,1,3.36-3.28,3.06,3.06,0,0,1,3.2,2.53H-2a1.43,1.43,0,0,0-1.48-1A1.62,1.62,0,0,0-5.19,15.4a1.62,1.62,0,0,0,1.64,1.77,1.45,1.45,0,0,0,1.49-1H-.34a3.06,3.06,0,0,1-3.21,2.54A3.22,3.22,0,0,1-6.89,15.4Z" transform="translate(10.64 7.08)" fill="#383a5f"/>
    <polygon points="11.24 16.86 12.65 16.86 12.65 25.76 11.24 25.76 11.24 16.86" fill="#383a5f"/>
    <path d="M10,15.4a3.21,3.21,0,0,1-3.29,3.28,3.28,3.28,0,0,1,0-6.56A3.23,3.23,0,0,1,10,15.4Zm-4.9,0a1.63,1.63,0,1,0,3.25,0,1.63,1.63,0,1,0-3.25,0Z" transform="translate(10.64 7.08)" fill="#383a5f"/>
    <path d="M17,12.14v6.4H15.3v-.88a2.38,2.38,0,0,1-2,1,2.27,2.27,0,0,1-2.35-2.53v-4h1.71v3.65c0,.84.32,1.3,1.21,1.3s1.46-.55,1.46-1.59V12.12H17Z" transform="translate(10.64 7.08)" fill="#383a5f"/>
    <path d="M24.5,9.78v8.75H22.85v-.89a2.36,2.36,0,0,1-2,1c-1.65,0-2.9-1.44-2.9-3.49s1.26-3.48,2.89-3.48a2.37,2.37,0,0,1,2,1.08v-3H24.5Zm-1.66,5.41a1.68,1.68,0,0,0-1.63-1.83,1.66,1.66,0,0,0-1.61,1.83,1.63,1.63,0,1,0,3.24,0Z" transform="translate(10.64 7.08)" fill="#383a5f"/>
  </g>
</svg>
