<svg version="1.1" viewBox="0 0 906.19 903.48" xml:space="preserve" xmlns="http://www.w3.org/2000/svg"><defs><clipPath id="clipPath34"><path d="M 0,677.613 H 679.641 V 0 H 0 Z"/></clipPath></defs><g transform="matrix(1.3333 0 0 -1.3333 0 903.48)"><g transform="translate(285.31 677.61)"><path d="m0 0-39.24-59.248-67.117 23.356-17.876-68.78-71.064 0.298 5.424-70.857-67.309-22.792 28.137-65.257-56.261-43.414 47.802-52.584-39.117-59.329 62.286-34.214-17.734-68.816 70.021-12.136 5.572-70.846 70.167 11.258 28.273-65.198 62.711 33.432 47.91-52.486 48.457 51.982 62.358-34.084 28.953 64.899 70.046-11.991 6.311 70.784 70.144 11.403-17.014 68.997 62.641 33.562-38.495 59.735 48.348 52.082-55.805 43.998 28.819 64.959-67.068 23.496 6.165 70.795-71.063 0.445-17.157 68.962-67.357-22.653-38.619 59.656-56.353-43.297z" fill="#6ba3f9"/></g><g transform="translate(354.21 338.34)"><path d="m0 0-78.45-192.86-24.282-18.401 97.284-114.53 37.59 39.429 62.357-34.084 28.954 64.899 70.045-11.991 6.312 70.784 70.143 11.403-17.013 68.997 62.64 33.562-38.494 59.735 48.348 52.082-55.806 43.998 8.219 21.768-112.15 78.466-60.008-4.373-11.268 10.52z" fill="#528ae0"/></g><g clip-path="url(#clipPath34)"><g transform="translate(404.82 394.07)"><path d="m0 0c21.618 30.444 37.003 71.268 42.001 103.28h54.389c-10.149-31.574-37.98-96.198-96.39-103.28m-12.072-228.44h-99.07v66.777h99.07zm-211.61 331.72h54.361c4.997-32.005 20.392-72.828 42.019-103.28-58.448 7.094-86.26 71.727-96.38 103.28m267.24 14.246c0.114 2.087 0.259 4.193 0.259 6.146h-214.92c0-1.953 0.134-4.059 0.249-6.146h-71.516s27.017-132.6 125.59-132.6c0.498 0 1.034 0.048 1.561 0.057 5.629-6.233 11.546-11.766 17.75-16.16-4.366-0.087-7.879-3.581-7.879-7.937 0-4.414 3.589-7.995 7.984-7.995h10.541l-24.098-101.4h-17.902v-96.006h135.99v96.006h-17.941l-24.107 101.4h10.569c4.385 0 7.975 3.581 7.975 7.995 0 4.394-3.581 7.984-7.975 7.984h-5.447c6.175 4.385 12.063 9.899 17.692 16.113 0.508-9e-3 1.044-0.057 1.542-0.057 98.581 0 125.63 132.6 125.63 132.6z" fill="#ffc400"/></g><g transform="translate(181.14 497.36)"><path d="m0 0h54.36c4.998-32.005 20.392-72.828 42.02-103.28-58.448 7.094-86.26 71.727-96.38 103.28m94.848-251.78v-96.006h64.367v16.064h-46.674v66.778h46.674v285.34h-106.64c0-1.953 0.134-4.059 0.249-6.146h-71.516s27.017-132.6 125.59-132.6c0.498 0 1.034 0.048 1.561 0.058 5.629-6.233 11.546-11.767 17.749-16.161-4.365-0.086-7.879-3.58-7.879-7.937 0-4.413 3.59-7.994 7.985-7.994h10.541l-24.098-101.4z" fill="#ffe400"/></g><g transform="translate(181.14 497.36)"><path d="m0 0h54.36c4.998-32.005 20.392-72.828 42.02-103.28-58.448 7.094-86.26 71.727-96.38 103.28m112.54-331.72v66.778h3.69c-0.129 0.605-0.195 1.269-0.034 1.97 6.313 27.36 11.042 48.642 16.92 75.092 3.819 17.183 5.94 29.063 8.698 40.518-6.152-0.636-17.052-2.952-17.607 4.455-0.637 8.486 8.488 7.171 8.909 7.213-7.213 6.576-24.608 26.094-44.41 65.977-8.334 16.787-20.775 61.066-22.996 90.113h-13.141c0-1.953 0.134-4.059 0.249-6.146h-71.516s27.017-132.6 125.59-132.6c0.498 0 1.034 0.048 1.561 0.058 5.629-6.233 11.546-11.767 17.749-16.161-4.365-0.086-7.879-3.58-7.879-7.937 0-4.413 3.59-7.994 7.985-7.994h10.541l-24.098-101.4h-17.903v-96.006h64.367v16.064z" fill="#ffcf00"/></g><g transform="translate(306.67 232.41)"><path d="M 0,0 H 4.866 C 6.403,9.166 6.487,18.477 7.444,27.735 7.885,31.999 8.636,36.2 9.479,40.385 5.824,27.053 2.418,13.658 0,0" fill="#ffe400"/></g><g transform="translate(285.33 517.75)"><path d="m0 0c-1.004-28.417 1.457-51.355 12.846-83.187 17.354-48.507 35.174-66.327 35.174-77.995 0-29.59-9.992-106.46-12.137-124.16h19.142v285.34z" fill="#ffcf00"/></g><path d="m251.48 150.58h179.4v-23.494h-179.4z" fill="#001a36"/><path d="m251.48 150.58h88.723v-23.494h-88.723z" fill="#324b60"/><g transform="translate(233.95 511.6)"><path d="m0 0h-71.516s8.048-40.779 33.483-78.596c25.434-37.816 55.173-47.678 60.071-49.028 23.092-6.358 33.596-4.916 33.596-4.916s-30.082 0.733-59.699 22.988c-22.325 16.775-39.156 44.51-49.53 70.279-8.893 22.088-11.881 35.307-11.881 35.307l65.761-0.168z" fill="#ffe400"/></g><g transform="translate(448.37 511.6)"><path d="m0 0h71.535s-9.905-48.811-40.024-87.297c-26.448-33.793-51.203-40.494-66.933-43.84-15.728-3.347-20.212-1.403-20.212-1.403s12.35 0.394 24.396 3.913c14.892 4.35 40.159 16.732 62.916 49.195 26.001 37.09 30.789 73.625 30.789 73.625l-63.418 0.167z" fill="#ffe400"/></g><g transform="translate(392.42 232.22)"><path d="m0 0-104.06 2.313 5.502-67.925 0.139-0.695z" fill="#ffe400"/></g><path d="m392.75 232.41h-99.07v-66.777h99.07z" fill="#f19000"/><path d="m391.27 227.8h-93.477v-60.526h93.477z" fill="#f7b033"/><g transform="translate(232.67 511.92)"><path d="m0 0s10.631 0.839 16.506 7.554c5.909 6.752 7.414 15.247 7.414 15.247s1.818-10.072 8.953-15.527c6.36-4.864 15.526-6.854 15.526-6.854s-9.931-1.539-15.526-7.134c-5.596-5.596-8.534-15.947-8.534-15.947s-3.776 22.381-24.339 22.661" fill="#fff"/></g></g></g></svg>
