<svg width="430" height="157" viewBox="0 0 430 157" fill="none" xmlns="http://www.w3.org/2000/svg">
<path d="M411 157.327H382.334L26.3059 157.327C23.2948 157.242 22.356 157.327 20.2439 157.327C20.2439 156.326 20.2439 152.64 23.5454 150.358C26.5681 153.073 29.9901 154.603 33.6149 154.603H55.63L55.6306 154.574C59.9926 154.315 64.0367 151.839 67.4111 147.764H153.348C156.918 152.079 161.238 154.603 165.893 154.603H187.151H187.908L187.908 154.582C190.089 154.452 192.189 153.77 194.167 152.609C196.374 153.905 198.735 154.606 201.188 154.606H223.203L223.204 154.577C227.567 154.319 231.612 151.841 234.986 147.764H319.843C323.414 152.079 327.734 154.603 332.388 154.603H353.646H354.404L354.404 154.582C360.413 154.226 365.819 149.658 369.701 142.5H409.008C418.031 142.5 420.534 154.53 421.082 157.327C416.153 157.327 416.481 157.327 411 157.327Z" fill="#49484D"/>
<path d="M87.8088 47.6254C87.8088 49.6395 89.4053 51.2874 91.3566 51.2874H104.811C106.763 51.2874 108.36 49.6395 108.36 47.6254V43.8691C108.36 41.855 106.763 40.2072 104.811 40.2072H91.3566C89.4053 40.2072 87.8088 41.855 87.8088 43.8691V47.6254Z" fill="#EF3F35"/>
<path d="M201.904 76.2765H223.242C235.56 76.2765 245.546 93.8952 245.546 115.631C245.546 118.462 245.377 121.223 245.055 123.885C242.956 141.229 234.377 154.335 224.004 154.95L224.003 154.98H201.904C191.188 154.98 182.238 141.652 180.088 123.885C179.766 121.223 179.596 118.462 179.596 115.631C179.596 93.8952 189.582 76.2765 201.904 76.2765Z" fill="#28252D"/>
<path d="M33.6864 76.2741H55.0256C67.343 76.2741 77.3299 93.8921 77.3299 115.628C77.3299 118.46 77.1609 121.22 76.838 123.882C74.739 141.227 66.1596 154.333 55.7872 154.948L55.786 154.978H33.6864C22.9717 154.978 14.0219 141.65 11.8715 123.882C11.5486 121.22 11.3796 118.46 11.3796 115.629C11.3796 93.8927 21.3665 76.2741 33.6864 76.2741Z" fill="#35323D"/>
<path d="M332.639 33.9692H377.251L388.831 29.7065H313.549L332.639 33.9692Z" fill="#443D50"/>
<path d="M383.66 118.578C383.66 120.066 382.481 121.284 381.038 121.284H271.421C269.979 121.284 268.8 120.066 268.8 118.578V70.0811C268.8 68.5928 269.979 67.3751 271.421 67.3751H381.038C382.481 67.3751 383.66 68.5928 383.66 70.0811V118.578Z" fill="#3C2B3F"/>
<path d="M269.296 9.40784C286.739 9.40784 287.859 6.44545 298.244 10.4026C314.546 16.6148 351.53 45.0902 351.53 45.0902L363.701 64.9729L239.827 59.7852L269.296 9.40784Z" fill="#F03E39"/>
<path d="M302.533 12.7035C275.607 -4.54762 174.785 -0.331432 153.679 9.46331C136.622 14.3164 88.4565 58.4751 88.4565 58.4751L299.546 50.1777C299.546 48.9749 299.414 47.0299 299.092 44.6289C310.123 39.1737 323.448 26.1027 302.533 12.7035Z" fill="#F03E39"/>
<path d="M278.892 10.2624C272.939 9.46334 266.151 9.46333 264.76 9.46333C242.836 9.46333 168.463 9.46333 158.231 9.46333C143.447 9.46333 89.6387 58.4751 89.6387 58.4751L311.301 53.3242C346.641 53.2292 310.991 16.2505 278.892 10.2624Z" fill="#78B4A9"/>
<path d="M105.938 51.5427C104.637 51.3418 103.062 51.1351 100.115 50.9782C100.596 50.7146 101.114 50.4123 101.665 50.0719C104.463 48.3452 108.674 45.9616 114.176 43.4404C110.44 46.9641 107.538 49.8658 105.938 51.5427ZM99.9362 50.9685C99.4011 50.9407 98.8222 50.9149 98.1926 50.891C113.986 37.1313 147.123 9.46343 158.231 9.46343C159.422 9.46343 162.676 9.46343 165.423 9.46343C165.023 9.46343 164.628 9.46343 164.241 9.46343C164.445 9.46343 164.764 9.46342 165.179 9.46535C163.385 9.50217 161.37 9.9337 159.196 10.6837H158.231C150.685 10.6837 129.037 25.6681 99.9362 50.9685Z" fill="#7B8688"/>
<path d="M237.993 51.458L221.765 51.2416C228.156 47.7069 225.657 40.1621 218.479 32.4441C218.657 31.99 218.836 31.5352 219.017 31.0805C227.5 30.9022 232.503 30.0592 236.107 27.9611L242.622 34.7005C241.12 41.3293 239.54 47.807 237.993 51.458ZM323.65 38.4923C321.368 34.672 317.522 30.5301 312.703 26.6027C312.682 26.5852 312.662 26.5691 312.641 26.5516C317.456 30.4649 321.303 34.5932 323.601 38.4057C323.616 38.4341 323.633 38.4632 323.65 38.4916V38.4923ZM302.176 19.333C302.113 19.2962 302.052 19.26 301.988 19.2232C298.428 17.1522 294.651 15.2925 290.792 13.7655C294.72 15.3196 298.56 17.2175 302.176 19.333ZM246.306 18.7684C244.846 18.7684 243.479 18.7684 242.233 18.7684C242.216 18.2381 242.174 17.6903 242.128 17.1148C241.981 15.2383 241.818 13.1557 242.473 10.6836H180.415C179.733 10.5298 179.052 10.389 178.372 10.2624C173.29 9.58028 167.599 9.48013 165.178 9.46527C165.261 9.46398 165.341 9.46335 165.423 9.46335C192.497 9.46335 250.776 9.46335 264.759 9.46335C265.312 9.46335 266.715 9.46335 268.579 9.51309C266.715 9.46335 265.312 9.46335 264.759 9.46335C261.454 9.46335 256.95 9.46335 251.66 9.46335C250.008 10.4471 248.562 12.0143 247.571 14.6214C247.173 15.6678 246.75 17.0876 246.306 18.7684ZM290.788 13.7635C290.755 13.7506 290.721 13.737 290.688 13.7241C290.721 13.737 290.755 13.7506 290.788 13.7635ZM290.681 13.7215C290.67 13.7177 290.664 13.7144 290.653 13.7106C290.663 13.7144 290.671 13.7177 290.681 13.7215ZM290.639 13.7047C290.631 13.7022 290.622 13.6983 290.614 13.695C290.624 13.6989 290.629 13.7009 290.639 13.7047ZM290.594 13.6873C290.582 13.6828 290.572 13.6789 290.56 13.6744C290.572 13.6789 290.583 13.6828 290.594 13.6873ZM290.535 13.6647C290.529 13.6621 290.523 13.6595 290.517 13.6569C290.523 13.6595 290.53 13.6621 290.535 13.6647ZM290.492 13.6472C290.486 13.6453 290.481 13.6434 290.475 13.6408C290.481 13.6434 290.486 13.6453 290.492 13.6472ZM290.446 13.6291C290.442 13.6279 290.437 13.6259 290.433 13.6246C290.438 13.6266 290.44 13.6272 290.446 13.6291ZM290.391 13.6079C290.39 13.6072 290.386 13.6059 290.385 13.6053C290.387 13.6059 290.389 13.6072 290.391 13.6079ZM290.346 13.591C290.343 13.5898 290.341 13.5885 290.338 13.5872C290.342 13.5891 290.343 13.5891 290.346 13.591ZM290.301 13.573C290.299 13.5723 290.295 13.571 290.293 13.5704C290.295 13.571 290.299 13.5723 290.301 13.573ZM290.157 13.5174C290.156 13.5167 290.156 13.5168 290.154 13.5168L290.157 13.5174ZM281.389 10.7882H281.388H281.389ZM281.203 10.7449C281.201 10.7443 281.2 10.7443 281.199 10.7436L281.203 10.7449ZM281.106 10.723L281.105 10.7223L281.106 10.723ZM281.061 10.7126C281.06 10.712 281.057 10.7113 281.056 10.7113L281.061 10.7126ZM281.014 10.7017L281.01 10.701L281.014 10.7017ZM280.92 10.6803C280.918 10.6797 280.914 10.6791 280.911 10.6784C280.915 10.6791 280.917 10.6797 280.92 10.6803ZM280.876 10.6706C280.873 10.67 280.869 10.6687 280.866 10.6681C280.87 10.6694 280.872 10.6694 280.876 10.6706ZM280.777 10.6487C280.774 10.648 280.775 10.648 280.771 10.6474C280.773 10.6474 280.775 10.648 280.777 10.6487ZM280.734 10.639C280.731 10.6384 280.726 10.6371 280.723 10.6364C280.726 10.6371 280.73 10.6377 280.734 10.639ZM280.684 10.628C280.683 10.6274 280.682 10.6274 280.68 10.6267C280.682 10.6274 280.683 10.6274 280.684 10.628ZM280.636 10.617C280.632 10.6164 280.631 10.6164 280.628 10.6157C280.63 10.6157 280.634 10.6164 280.636 10.617ZM280.591 10.6073C280.587 10.6067 280.585 10.6061 280.582 10.6054C280.586 10.6061 280.586 10.6061 280.591 10.6073ZM280.546 10.5977C280.543 10.597 280.539 10.5957 280.536 10.5951C280.54 10.5964 280.542 10.5964 280.546 10.5977ZM280.448 10.5763C280.447 10.5757 280.442 10.5751 280.44 10.5744C280.442 10.5751 280.446 10.5757 280.448 10.5763ZM280.403 10.5667C280.398 10.5654 280.398 10.5653 280.394 10.5647C280.398 10.5653 280.399 10.5654 280.403 10.5667ZM280.357 10.5563C280.355 10.5563 280.351 10.555 280.35 10.555C280.351 10.555 280.355 10.5563 280.357 10.5563ZM280.305 10.5453C280.304 10.5453 280.301 10.5447 280.3 10.544C280.301 10.5447 280.303 10.5447 280.305 10.5453ZM280.262 10.5363C280.258 10.535 280.255 10.535 280.251 10.5337C280.254 10.5343 280.258 10.5356 280.262 10.5363ZM280.215 10.526C280.213 10.5253 280.21 10.5253 280.207 10.5247C280.209 10.5247 280.213 10.526 280.215 10.526ZM280.163 10.515C280.161 10.515 280.161 10.515 280.159 10.5143C280.161 10.515 280.161 10.515 280.163 10.515ZM280.12 10.5059C280.117 10.5053 280.111 10.504 280.107 10.5034C280.111 10.504 280.116 10.5053 280.12 10.5059ZM280.077 10.4969C280.072 10.4962 280.067 10.495 280.062 10.4937C280.066 10.495 280.073 10.4962 280.077 10.4969ZM280.024 10.4859C280.023 10.4859 280.022 10.4859 280.02 10.4852C280.022 10.4859 280.022 10.4859 280.024 10.4859ZM279.978 10.4762C279.973 10.4756 279.968 10.4743 279.963 10.4736C279.969 10.4749 279.972 10.4749 279.978 10.4762ZM279.936 10.4678C279.93 10.4665 279.924 10.4652 279.918 10.4639C279.924 10.4652 279.93 10.4665 279.936 10.4678ZM279.892 10.4588C279.887 10.4575 279.88 10.4562 279.876 10.4555C279.881 10.4568 279.886 10.4575 279.892 10.4588ZM279.835 10.4471C279.83 10.4459 279.828 10.4459 279.824 10.4446C279.826 10.4452 279.833 10.4465 279.835 10.4471ZM279.793 10.4381C279.788 10.4375 279.78 10.4355 279.776 10.4349C279.781 10.4362 279.786 10.4368 279.793 10.4381ZM279.748 10.4291C279.743 10.4284 279.738 10.4271 279.734 10.4265C279.739 10.4278 279.742 10.4278 279.748 10.4291ZM279.693 10.4181L279.691 10.4174L279.693 10.4181ZM279.648 10.409C279.643 10.4078 279.641 10.4078 279.636 10.4065C279.64 10.4071 279.644 10.4084 279.648 10.409ZM279.606 10.4006C279.602 10.4 279.594 10.3981 279.59 10.3974C279.596 10.3987 279.601 10.3993 279.606 10.4006ZM279.561 10.3916C279.557 10.391 279.551 10.3897 279.547 10.389C279.553 10.3897 279.555 10.3903 279.561 10.3916ZM279.507 10.3806C279.501 10.3793 279.495 10.3787 279.489 10.3774C279.495 10.3787 279.501 10.38 279.507 10.3806ZM279.465 10.3722C279.458 10.3709 279.453 10.3703 279.447 10.369C279.455 10.3703 279.457 10.3709 279.465 10.3722ZM279.42 10.3638C279.416 10.3625 279.408 10.3612 279.404 10.3606C279.41 10.3619 279.414 10.3625 279.42 10.3638ZM279.363 10.3522C279.359 10.3515 279.356 10.3509 279.352 10.3503C279.356 10.3509 279.36 10.3515 279.363 10.3522ZM279.321 10.3444C279.314 10.3432 279.311 10.3425 279.305 10.3412C279.311 10.3425 279.315 10.3432 279.321 10.3444ZM279.276 10.3354C279.271 10.3348 279.267 10.3335 279.262 10.3328C279.266 10.3335 279.272 10.3348 279.276 10.3354ZM279.23 10.3263C279.226 10.3257 279.223 10.3251 279.219 10.3244C279.223 10.3251 279.226 10.3257 279.23 10.3263ZM279.179 10.3167C279.174 10.316 279.166 10.3141 279.162 10.3134C279.167 10.3147 279.173 10.3154 279.179 10.3167ZM279.135 10.3083C279.129 10.307 279.125 10.3063 279.119 10.305C279.123 10.3057 279.131 10.3076 279.135 10.3083ZM279.087 10.2992C279.084 10.2986 279.08 10.2979 279.077 10.2973C279.079 10.2973 279.085 10.2986 279.087 10.2992ZM279.034 10.2889C279.033 10.2889 279.027 10.2876 279.025 10.2876C279.027 10.2876 279.032 10.2889 279.034 10.2889ZM278.991 10.2811C278.986 10.2799 278.983 10.2792 278.978 10.2786C278.982 10.2792 278.987 10.2799 278.991 10.2811ZM278.946 10.2727C278.942 10.2714 278.939 10.2714 278.934 10.2701C278.938 10.2708 278.942 10.2714 278.946 10.2727Z" fill="#5E7D7C"/>
<path d="M165.178 9.46533C164.764 9.4634 164.444 9.46341 164.241 9.46341C164.628 9.46341 165.023 9.46341 165.423 9.46341C165.342 9.46341 165.261 9.46404 165.178 9.46533Z" fill="#625B62"/>
<path d="M212.878 50.8755H209.331V49.0448C209.331 44.6064 218.652 22.4338 220.521 18.0341L221.233 16.3572L224.482 17.8274L223.77 19.5043C219.559 29.4192 212.878 46.2071 212.878 49.0448V50.8755Z" fill="#5E7D7C"/>
<path d="M114.176 43.4404C125.847 32.4313 145.642 15.3611 159.196 10.6837H180.415C193.537 13.6448 206.987 21.51 215.727 29.6898C215.539 30.162 215.351 30.6381 215.163 31.1174C207.648 31.1174 198.053 30.7428 184.773 30.224L183.784 30.1859C181.635 30.1019 179.464 30.0593 177.327 30.0593C149.506 30.0593 127.849 37.1752 114.176 43.4404Z" fill="url(#paint0_linear)"/>
<path d="M100.115 50.978C100.056 50.9748 99.9957 50.9716 99.9363 50.9683C129.038 25.6679 150.685 10.6836 158.231 10.6836H159.196C145.642 15.361 125.848 32.4312 114.176 43.4403C108.674 45.9615 104.463 48.3451 101.665 50.0717C101.114 50.4122 100.597 50.7145 100.115 50.978Z" fill="url(#paint1_linear)"/>
<path d="M219.018 31.0806C220.648 26.9722 222.349 22.8478 223.769 19.5043L224.482 17.8274L221.232 16.3571L220.52 18.0341C219.767 19.8073 217.803 24.4679 215.727 29.6898C206.987 21.51 193.537 13.6448 180.415 10.6837H242.473C241.818 13.1558 241.981 15.2384 242.128 17.1149C242.174 17.6904 242.217 18.2382 242.234 18.7685C240.802 18.7685 239.53 18.7685 238.448 18.7685C224.059 18.7685 234.779 26.5879 234.779 26.5879L236.107 27.9612C232.503 30.0593 227.501 30.9023 219.018 31.0806Z" fill="url(#paint2_linear)"/>
<path d="M215.169 31.1172C215.167 31.1172 215.164 31.1172 215.163 31.1172C215.351 30.6379 215.539 30.1618 215.727 29.6896C217.803 24.4677 219.767 19.8071 220.52 18.0339L221.232 16.3569L224.482 17.8272L223.769 19.5041C222.349 22.8476 220.649 26.9721 219.018 31.0804C217.807 31.1056 216.527 31.1172 215.169 31.1172Z" fill="url(#paint3_linear)"/>
<path d="M247.791 51.5884L241.642 51.5063L247.791 51.5884ZM239.869 51.4831L237.993 51.4579C239.54 47.8069 241.12 41.3292 242.622 34.7003L244.058 36.1854C242.832 40.5592 241.475 45.4582 240.046 51.1872L239.869 51.4831ZM304.297 50.1059C313.987 48.9451 321.763 46.9672 324.034 43.6185C321.762 46.9665 313.985 48.9451 304.297 50.1059ZM267.946 49.2642C264.765 49.2642 261.904 49.2448 259.381 49.2274C257.53 49.2145 255.917 49.2035 254.604 49.2035C253.918 49.2035 253.313 49.2067 252.795 49.2138L243.023 49.0833C244.056 45.0616 245.046 41.4584 245.967 38.1601L246.72 38.9398C246.72 38.9398 250.169 42.0385 257.316 42.0385C263.988 42.0385 315.4 42.0385 322.206 42.0385C322.201 42.0475 322.196 42.0566 322.191 42.065C321.54 43.2522 318.264 46.1991 301.93 47.9161C293.296 48.823 282.18 49.2642 267.946 49.2642ZM323.898 38.9256C323.872 38.8804 323.846 38.8364 323.821 38.7925C323.847 38.8364 323.872 38.8804 323.898 38.9256Z" fill="#455A5C"/>
<path d="M290.792 13.7654C290.79 13.7647 290.79 13.7647 290.788 13.7634C290.79 13.7641 290.79 13.7647 290.792 13.7654ZM290.688 13.724C290.686 13.7234 290.683 13.7221 290.681 13.7214C290.683 13.7221 290.686 13.7234 290.688 13.724ZM290.653 13.7105C290.65 13.7092 290.643 13.7066 290.639 13.7047C290.643 13.7066 290.649 13.7085 290.653 13.7105ZM290.614 13.6949C290.608 13.693 290.601 13.6898 290.594 13.6872C290.601 13.6898 290.608 13.693 290.614 13.6949ZM290.56 13.6743C290.552 13.6711 290.543 13.6672 290.536 13.6646C290.544 13.6678 290.551 13.6704 290.56 13.6743ZM290.517 13.6568C290.509 13.6543 290.5 13.6504 290.492 13.6472C290.499 13.6504 290.509 13.6543 290.517 13.6568ZM290.476 13.6407C290.466 13.6368 290.455 13.6329 290.446 13.6291C290.455 13.6329 290.466 13.6375 290.476 13.6407ZM290.433 13.6246C290.419 13.6187 290.405 13.6129 290.391 13.6078C290.406 13.6136 290.418 13.6181 290.433 13.6246ZM290.385 13.6052C290.373 13.6007 290.359 13.5955 290.347 13.591C290.359 13.5955 290.372 13.6007 290.385 13.6052ZM290.338 13.5871C290.327 13.5826 290.312 13.5774 290.301 13.5729C290.314 13.5781 290.325 13.5819 290.338 13.5871ZM290.293 13.5703C290.247 13.5522 290.205 13.5354 290.158 13.5173C290.203 13.5348 290.248 13.5529 290.293 13.5703ZM290.154 13.5167C287.256 12.3998 284.317 11.4735 281.389 10.7881C284.317 11.4735 287.257 12.3998 290.154 13.5167ZM281.389 10.7881C281.326 10.7733 281.266 10.7591 281.203 10.7449C281.265 10.7591 281.327 10.7733 281.389 10.7881ZM281.199 10.7436C281.167 10.7365 281.138 10.73 281.106 10.7229C281.137 10.7294 281.168 10.7371 281.199 10.7436ZM281.105 10.7222C281.089 10.719 281.077 10.7158 281.061 10.7126C281.076 10.7158 281.089 10.719 281.105 10.7222ZM281.056 10.7113C281.041 10.7074 281.029 10.7048 281.014 10.7016C281.029 10.7048 281.041 10.7074 281.056 10.7113ZM281.011 10.701C280.981 10.6938 280.951 10.6874 280.921 10.6803C280.951 10.6874 280.981 10.6938 281.011 10.701ZM280.911 10.6783C280.899 10.6758 280.887 10.6732 280.876 10.6706C280.888 10.6732 280.899 10.6758 280.911 10.6783ZM280.866 10.668C280.852 10.6654 280.837 10.6615 280.823 10.6583C280.837 10.6615 280.852 10.6654 280.866 10.668ZM280.823 10.6583C280.807 10.6551 280.793 10.6519 280.777 10.6486C280.792 10.6519 280.808 10.6551 280.823 10.6583ZM280.772 10.6473C280.76 10.6447 280.746 10.6415 280.735 10.6389C280.747 10.6415 280.759 10.6441 280.772 10.6473ZM280.723 10.6364C280.711 10.6338 280.696 10.6305 280.685 10.6279C280.698 10.6305 280.709 10.6331 280.723 10.6364ZM280.68 10.6266C280.665 10.6234 280.651 10.6202 280.636 10.617C280.65 10.6202 280.666 10.6241 280.68 10.6266ZM280.628 10.6157C280.616 10.6131 280.603 10.6099 280.591 10.6073C280.603 10.6099 280.616 10.6124 280.628 10.6157ZM280.582 10.6054C280.57 10.6028 280.558 10.6002 280.546 10.5976C280.558 10.6002 280.57 10.6028 280.582 10.6054ZM280.536 10.595C280.507 10.5885 280.477 10.5821 280.448 10.5763C280.479 10.5827 280.506 10.5885 280.536 10.595ZM280.441 10.5743C280.429 10.5718 280.415 10.5692 280.404 10.5666C280.415 10.5692 280.428 10.5718 280.441 10.5743ZM280.394 10.5646C280.382 10.562 280.369 10.5588 280.357 10.5562C280.369 10.5588 280.382 10.5614 280.394 10.5646ZM280.35 10.555C280.333 10.5517 280.321 10.5485 280.305 10.5453C280.32 10.5485 280.334 10.5517 280.35 10.555ZM280.3 10.544C280.288 10.5414 280.274 10.5388 280.262 10.5362C280.275 10.5388 280.288 10.5414 280.3 10.544ZM280.251 10.5336C280.239 10.531 280.227 10.5285 280.215 10.5259C280.228 10.5285 280.238 10.531 280.251 10.5336ZM280.207 10.5246C280.191 10.5214 280.179 10.5181 280.163 10.5149C280.177 10.5181 280.193 10.5214 280.207 10.5246ZM280.159 10.5143C280.148 10.5117 280.132 10.5085 280.12 10.5059C280.134 10.5091 280.146 10.5117 280.159 10.5143ZM280.108 10.5033C280.096 10.5007 280.089 10.4994 280.077 10.4968C280.088 10.4994 280.097 10.5013 280.108 10.5033ZM280.062 10.4936C280.051 10.4917 280.036 10.4884 280.024 10.4858C280.038 10.4891 280.049 10.491 280.062 10.4936ZM280.021 10.4852C280.007 10.4826 279.992 10.4794 279.978 10.4762C279.992 10.4794 280.007 10.4826 280.021 10.4852ZM279.964 10.4736C279.955 10.4716 279.944 10.469 279.936 10.4677C279.945 10.4697 279.954 10.4716 279.964 10.4736ZM279.918 10.4639C279.909 10.4619 279.902 10.4607 279.892 10.4587C279.901 10.4607 279.909 10.4619 279.918 10.4639ZM279.876 10.4555C279.862 10.4522 279.848 10.4497 279.835 10.4471C279.848 10.4497 279.862 10.4522 279.876 10.4555ZM279.824 10.4445C279.812 10.4419 279.805 10.4406 279.793 10.438C279.803 10.4406 279.813 10.4426 279.824 10.4445ZM279.776 10.4348C279.768 10.4329 279.756 10.4309 279.748 10.429C279.758 10.4309 279.765 10.4329 279.776 10.4348ZM279.734 10.4264C279.72 10.4232 279.707 10.4206 279.693 10.418C279.707 10.4206 279.72 10.4232 279.734 10.4264ZM279.691 10.4174C279.678 10.4148 279.662 10.4116 279.648 10.409C279.661 10.4116 279.678 10.4148 279.691 10.4174ZM279.636 10.4064C279.626 10.4045 279.616 10.4025 279.606 10.4006C279.617 10.4025 279.626 10.4045 279.636 10.4064ZM279.59 10.3973C279.58 10.3954 279.571 10.3935 279.561 10.3915C279.572 10.3935 279.579 10.3954 279.59 10.3973ZM279.547 10.3889C279.535 10.3864 279.519 10.3831 279.507 10.3806C279.519 10.3831 279.535 10.3864 279.547 10.3889ZM279.489 10.3773C279.481 10.3754 279.473 10.3741 279.465 10.3721C279.474 10.3741 279.48 10.3754 279.489 10.3773ZM279.447 10.3689C279.439 10.367 279.428 10.365 279.42 10.3637C279.429 10.3657 279.438 10.367 279.447 10.3689ZM279.404 10.3605C279.39 10.3579 279.377 10.3553 279.363 10.3521C279.377 10.3553 279.39 10.3579 279.404 10.3605ZM279.352 10.3502C279.343 10.3482 279.331 10.3463 279.321 10.3444C279.33 10.3457 279.343 10.3482 279.352 10.3502ZM279.305 10.3411C279.295 10.3392 279.286 10.3373 279.276 10.3353C279.285 10.3373 279.296 10.3392 279.305 10.3411ZM279.262 10.3327C279.253 10.3308 279.24 10.3282 279.23 10.3263C279.241 10.3289 279.251 10.3308 279.262 10.3327ZM279.219 10.3244C279.205 10.3218 279.193 10.3192 279.179 10.3166C279.193 10.3192 279.205 10.3218 279.219 10.3244ZM279.162 10.3134C279.152 10.3114 279.145 10.3101 279.135 10.3082C279.144 10.3101 279.153 10.3114 279.162 10.3134ZM279.119 10.305C279.108 10.303 279.099 10.3011 279.087 10.2992C279.098 10.3011 279.109 10.303 279.119 10.305ZM279.077 10.2972C279.061 10.294 279.05 10.292 279.034 10.2888C279.049 10.292 279.062 10.294 279.077 10.2972ZM279.026 10.2875C279.014 10.2849 279.002 10.283 278.991 10.2811C279.003 10.283 279.014 10.2849 279.026 10.2875ZM278.978 10.2785C278.966 10.2766 278.958 10.2746 278.946 10.2727C278.957 10.2746 278.967 10.2766 278.978 10.2785ZM278.934 10.2701C278.921 10.2675 278.905 10.2649 278.892 10.2623C278.905 10.2649 278.921 10.2675 278.934 10.2701Z" fill="#BC312B"/>
<path d="M301.988 19.2231C301.972 19.2135 301.953 19.2031 301.936 19.1934C294.766 15.0289 286.723 11.7235 278.892 10.2624C277.735 10.1067 276.546 9.98201 275.373 9.88124C276.547 9.98201 277.735 10.1067 278.892 10.2624C278.906 10.265 278.921 10.2675 278.934 10.2701C278.939 10.2714 278.942 10.2714 278.946 10.2727C278.958 10.2746 278.966 10.2766 278.978 10.2785C278.983 10.2792 278.986 10.2798 278.991 10.2811C279.003 10.2831 279.014 10.285 279.026 10.2875C279.028 10.2875 279.033 10.2888 279.035 10.2888C279.05 10.2921 279.061 10.294 279.077 10.2973C279.08 10.2979 279.085 10.2985 279.087 10.2992C279.099 10.3011 279.108 10.3031 279.12 10.305C279.125 10.3063 279.129 10.3069 279.135 10.3082C279.145 10.3102 279.152 10.3115 279.162 10.3134C279.167 10.3141 279.175 10.316 279.179 10.3166C279.193 10.3192 279.205 10.3218 279.219 10.3244C279.224 10.325 279.226 10.3257 279.23 10.3263C279.24 10.3283 279.253 10.3308 279.262 10.3328C279.267 10.3334 279.272 10.3347 279.276 10.3354C279.286 10.3373 279.296 10.3392 279.306 10.3412C279.312 10.3425 279.315 10.3431 279.321 10.3444C279.331 10.3464 279.343 10.3483 279.352 10.3502C279.357 10.3509 279.359 10.3515 279.364 10.3521C279.378 10.3554 279.391 10.358 279.404 10.3606C279.409 10.3612 279.416 10.3625 279.421 10.3638C279.428 10.3651 279.439 10.367 279.447 10.369C279.453 10.3702 279.459 10.3709 279.465 10.3722C279.473 10.3741 279.481 10.3754 279.49 10.3773C279.496 10.3786 279.501 10.3793 279.508 10.3806C279.52 10.3832 279.535 10.3864 279.547 10.389C279.551 10.3896 279.557 10.3909 279.561 10.3916C279.571 10.3935 279.58 10.3954 279.59 10.3974C279.595 10.398 279.602 10.3999 279.607 10.4006C279.617 10.4025 279.627 10.4045 279.637 10.4064C279.641 10.4077 279.643 10.4077 279.648 10.409C279.662 10.4116 279.678 10.4148 279.692 10.4174L279.694 10.418C279.707 10.4206 279.72 10.4232 279.734 10.4265C279.739 10.4271 279.744 10.4284 279.748 10.429C279.756 10.431 279.768 10.4329 279.776 10.4348C279.781 10.4355 279.789 10.4374 279.793 10.4381C279.805 10.4406 279.812 10.4419 279.824 10.4445C279.829 10.4458 279.831 10.4458 279.835 10.4471C279.849 10.4497 279.863 10.4523 279.876 10.4555C279.881 10.4562 279.888 10.4575 279.892 10.4588C279.902 10.4607 279.909 10.462 279.918 10.4639C279.924 10.4652 279.93 10.4665 279.936 10.4678C279.944 10.4691 279.956 10.4717 279.964 10.4736C279.968 10.4743 279.973 10.4756 279.978 10.4762C279.992 10.4794 280.007 10.4826 280.021 10.4852C280.022 10.4859 280.023 10.4859 280.025 10.4859C280.037 10.4885 280.051 10.4917 280.062 10.4936C280.067 10.4949 280.073 10.4962 280.077 10.4969C280.089 10.4994 280.096 10.5007 280.108 10.5033C280.111 10.504 280.117 10.5053 280.12 10.5059C280.132 10.5085 280.148 10.5117 280.16 10.5143C280.161 10.5149 280.162 10.5149 280.164 10.5149C280.179 10.5182 280.192 10.5214 280.207 10.5246C280.21 10.5253 280.213 10.5253 280.215 10.5259C280.227 10.5285 280.239 10.5311 280.251 10.5337C280.256 10.535 280.258 10.535 280.262 10.5363C280.274 10.5388 280.288 10.5414 280.3 10.544C280.302 10.5447 280.304 10.5453 280.306 10.5453C280.321 10.5485 280.334 10.5518 280.35 10.555C280.351 10.555 280.356 10.5563 280.358 10.5563C280.369 10.5589 280.383 10.5621 280.394 10.5647C280.399 10.5653 280.399 10.5653 280.404 10.5666C280.416 10.5692 280.429 10.5718 280.441 10.5744C280.442 10.575 280.447 10.5757 280.448 10.5763C280.478 10.5821 280.507 10.5886 280.537 10.595C280.54 10.5957 280.543 10.597 280.547 10.5976C280.558 10.6002 280.57 10.6028 280.582 10.6054C280.585 10.606 280.588 10.6067 280.591 10.6073C280.603 10.6099 280.617 10.6131 280.629 10.6157C280.632 10.6164 280.633 10.6164 280.636 10.617C280.652 10.6202 280.665 10.6235 280.68 10.6267C280.682 10.6273 280.684 10.6273 280.685 10.628C280.697 10.6306 280.711 10.6338 280.723 10.6364C280.726 10.637 280.732 10.6383 280.735 10.639C280.746 10.6416 280.76 10.6448 280.772 10.6474C280.775 10.648 280.774 10.648 280.777 10.6487C280.793 10.6519 280.807 10.6551 280.823 10.6583C280.837 10.6616 280.853 10.6654 280.866 10.668C280.869 10.6687 280.873 10.67 280.876 10.6706C280.888 10.6732 280.9 10.6758 280.911 10.6784C280.915 10.679 280.918 10.6797 280.921 10.6803C280.951 10.6874 280.981 10.6939 281.011 10.701L281.014 10.7016C281.03 10.7049 281.041 10.7074 281.057 10.7113C281.058 10.7113 281.06 10.712 281.062 10.7126C281.077 10.7158 281.09 10.7191 281.105 10.7223L281.107 10.7229C281.138 10.73 281.167 10.7365 281.199 10.7436C281.201 10.7442 281.202 10.7443 281.203 10.7449C281.266 10.7591 281.326 10.7733 281.389 10.7882H281.39C284.317 11.4735 287.257 12.3999 290.155 13.5167C290.157 13.5167 290.156 13.5167 290.158 13.5174C290.205 13.5354 290.247 13.5523 290.294 13.5703C290.296 13.571 290.299 13.5723 290.301 13.5729C290.312 13.5775 290.327 13.5826 290.338 13.5871C290.341 13.5884 290.344 13.5897 290.347 13.591C290.359 13.5955 290.373 13.6007 290.385 13.6052C290.386 13.6059 290.39 13.6072 290.391 13.6078C290.405 13.613 290.419 13.6188 290.433 13.6246C290.438 13.6259 290.442 13.6278 290.446 13.6291C290.456 13.633 290.466 13.6369 290.476 13.6407C290.481 13.6433 290.486 13.6453 290.492 13.6472C290.5 13.6504 290.51 13.6543 290.517 13.6569C290.523 13.6595 290.53 13.6621 290.536 13.6647C290.543 13.6672 290.553 13.6711 290.56 13.6743C290.573 13.6789 290.583 13.6827 290.595 13.6873C290.601 13.6899 290.608 13.6931 290.615 13.695C290.622 13.6982 290.632 13.7021 290.639 13.7047C290.643 13.7067 290.65 13.7092 290.654 13.7105C290.664 13.7144 290.67 13.7176 290.681 13.7215C290.683 13.7221 290.686 13.7234 290.688 13.7241C290.721 13.737 290.756 13.7506 290.788 13.7635C290.791 13.7648 290.791 13.7648 290.792 13.7654C294.652 15.2925 298.428 17.1522 301.988 19.2231ZM249.453 18.7684C248.362 18.7684 247.313 18.7684 246.307 18.7684C246.75 17.0876 247.173 15.6678 247.571 14.6213C248.562 12.0142 250.008 10.4471 251.661 9.46332C256.951 9.46332 261.454 9.46332 264.76 9.46332C265.312 9.46332 266.716 9.46332 268.58 9.51306C267.476 9.48334 266.534 9.4717 265.835 9.46654C258.151 9.52661 252.917 11.8643 249.453 18.7684ZM275.355 9.87931C275.355 9.87931 275.353 9.87931 275.352 9.87931C275.353 9.87931 275.354 9.87931 275.355 9.87931Z" fill="#455A5C"/>
<path d="M242.623 34.7004L236.108 27.9611C237.868 26.936 239.296 25.6124 240.633 23.9206C242.054 22.1216 242.29 20.5396 242.234 18.7684C243.479 18.7684 244.846 18.7684 246.307 18.7684C245.187 23.0079 243.935 28.9113 242.623 34.7004Z" fill="#6FA39B"/>
<path d="M236.108 27.9612L234.78 26.5879C234.78 26.5879 224.059 18.7685 238.448 18.7685C239.53 18.7685 240.802 18.7685 242.234 18.7685C242.29 20.5397 242.053 22.1217 240.632 23.9207C239.295 25.6125 237.868 26.936 236.108 27.9612Z" fill="url(#paint4_linear)"/>
<path d="M312.642 26.5518C309.51 24.0054 305.966 21.5494 302.177 19.3331C306.235 21.6967 309.734 24.1171 312.642 26.5518Z" fill="#9B9185"/>
<path d="M312.703 26.6028C310.551 24.8496 308.207 23.1404 305.719 21.5203C305.711 21.5152 305.705 21.5113 305.697 21.5061C305.691 21.5023 305.687 21.4997 305.681 21.4958C305.668 21.4874 305.654 21.4777 305.64 21.4693C305.639 21.468 305.638 21.4674 305.635 21.4661C304.45 20.6968 303.232 19.9468 301.989 19.2233C302.053 19.2601 302.114 19.2963 302.177 19.3331C305.966 21.5494 309.51 24.0054 312.642 26.5517C312.663 26.5692 312.683 26.5853 312.703 26.6028Z" fill="#6FA39B"/>
<path d="M322.206 42.0386C315.401 42.0386 263.989 42.0386 257.317 42.0386C250.17 42.0386 246.72 38.9399 246.72 38.9399L245.968 38.1602C246.115 37.6305 246.262 37.1092 246.406 36.5944C250.452 34.1436 257.483 32.5067 265.137 32.5067L265.581 32.508C267.081 32.5203 268.613 32.5255 270.166 32.5255C274.123 32.5255 278.272 32.4919 282.284 32.4602C286.195 32.4286 290.24 32.3963 294.002 32.3963C306.294 32.3963 313.295 32.7671 316.917 33.7211C318.868 35.7792 320.466 37.8172 321.624 39.7506C321.713 39.9075 321.806 40.0716 321.907 40.2434C322.542 41.3351 322.332 41.806 322.206 42.0386ZM244.058 36.1855L242.623 34.7004C243.935 28.9113 245.187 23.0078 246.307 18.7684C247.313 18.7684 248.363 18.7684 249.453 18.7684C248.469 20.7289 247.628 23.0576 246.914 25.8062C246.085 29.0037 245.12 32.3976 244.058 36.1855ZM305.719 21.5202C305.712 21.5163 305.704 21.5105 305.697 21.506C305.705 21.5112 305.711 21.515 305.719 21.5202ZM305.681 21.4957C305.668 21.4873 305.653 21.4776 305.64 21.4692C305.653 21.4776 305.668 21.4873 305.681 21.4957ZM305.635 21.4659C304.434 20.6856 303.199 19.9266 301.937 19.1934C301.953 19.2031 301.972 19.2135 301.989 19.2231C303.232 19.9466 304.45 20.6966 305.635 21.4659Z" fill="#689994"/>
<path d="M296.102 18.7686C286.847 18.7686 266.869 18.7686 252.152 18.7686C253.082 17.175 254.139 15.9076 255.35 14.9199C257.824 12.9039 261.157 11.9466 265.836 11.9078C268.584 11.9278 273.86 12.0538 278.528 12.6759C284.472 13.7914 290.485 15.9741 296.102 18.7686Z" fill="url(#paint5_linear)"/>
<path d="M246.406 36.5945C246.531 36.1481 246.655 35.7063 246.777 35.2703C247.654 32.1509 248.482 29.2047 249.199 26.4387C250.014 23.3012 250.981 20.7762 252.152 18.7685C266.869 18.7685 286.848 18.7685 296.102 18.7685C304.413 22.9046 311.855 28.3804 316.918 33.7212C313.295 32.7672 306.294 32.3964 294.002 32.3964C290.24 32.3964 286.195 32.4287 282.284 32.4603C278.272 32.492 274.123 32.5256 270.166 32.5256C268.613 32.5256 267.081 32.5204 265.582 32.5081L265.137 32.5068C257.483 32.5068 250.452 34.1437 246.406 36.5945Z" fill="url(#paint6_linear)"/>
<path d="M158.231 9.46258C147.538 9.46258 114.629 36.6667 98.2318 50.8572C96.0715 52.7266 106.786 53.3396 122.514 53.3396C152.45 53.3396 200.553 53.5605 212.627 53.5605L226.819 51.3087H226.847C234.909 51.3087 238.608 36.9961 242.15 26.7964C243.437 23.0892 245.223 17.6805 243.239 13.8739C240.833 9.25782 225.605 9.50328 221.104 9.46258C193.863 9.46258 164.398 9.46258 158.231 9.46258ZM159.414 11.9043H218.147C218.414 11.9063 218.744 11.9082 219.112 11.9095C221.836 11.9211 226.396 11.9405 230.588 12.4805C237.133 13.3235 238.11 14.8583 238.2 15.0302C239.74 17.9861 237.936 23.1816 236.967 25.9728C236.547 27.1833 236.134 28.4203 235.698 29.7297C232.856 38.2557 230.502 46.4259 225.074 46.4259L213.84 46.8471C213.84 46.8471 197.949 47.1765 185.351 47.5931C165.495 48.2501 105.051 48.1351 102.039 47.8082C110.056 40.9397 119.654 34.4426 129.973 26.8241C147.555 13.8422 154.113 11.9043 156.457 11.9043H159.414Z" fill="#474455"/>
<path d="M212.628 51.1196C205.35 52.0376 194.876 51.7785 181.742 51.5189C170.34 51.2934 156.933 51.0686 141.873 51.6138C91.3203 53.4451 120.614 50.7101 85.8137 50.7101C51.0137 50.7101 17.2557 61.9214 10.0369 74.9718L5.8101 85.4874C4.43705 89.4207 5.33323 95.6123 5.33323 100.056L13.3631 119.07C13.3631 123.513 12.3556 126.276 15.4884 126.276C15.4884 126.276 13.8782 127.651 17.8978 127.651C21.9175 127.651 22.9075 127.246 22.9075 118.953C22.9075 118.728 22.9107 118.504 22.9125 118.28C22.9119 118.169 22.9075 118.058 22.9075 117.947C22.9075 93.5258 34.3287 73.6573 48.3665 73.6573C62.4037 73.6573 73.8237 93.5252 73.8237 117.946C73.8237 118.057 73.8193 118.167 73.8186 118.278C73.8205 118.503 73.8237 118.727 73.8237 118.952C73.8237 125.779 74.4945 127.645 78.3108 127.645C99.0862 127.645 189.838 127.645 195.616 127.645C202.275 127.645 201.796 125.444 201.796 121.593C201.796 120.404 201.746 119.285 201.746 118.346C201.746 103.277 206.05 89.933 212.628 81.81V51.1196Z" fill="#E62530"/>
<path d="M339.275 134.477C339.275 135.841 338.193 136.957 336.872 136.957H49.858C48.5363 136.957 47.4548 135.841 47.4548 134.477V75.7869C47.4548 74.4227 48.5363 73.3064 49.858 73.3064H336.872C338.193 73.3064 339.275 74.4227 339.275 75.7869V134.477Z" fill="#3C2B3F"/>
<path d="M355.707 154.978H333.608C322.892 154.978 313.942 141.65 311.792 123.882C311.47 121.22 311.301 118.46 311.301 115.629C311.3 93.8927 321.287 76.2741 333.608 76.2741H354.946L356.92 116.723L355.707 154.978Z" fill="#28252D"/>
<path d="M188.572 154.978H166.473C155.758 154.978 146.808 141.65 144.657 123.882C144.335 121.22 144.166 118.46 144.166 115.629C144.166 93.8927 154.152 76.2741 166.473 76.2741H187.812L189.785 116.723L188.572 154.978Z" fill="#28252D"/>
<path d="M65.1184 126.275C65.2955 124.809 65.3887 123.289 65.3887 121.729C65.3887 109.759 59.8884 100.055 53.1045 100.056L65.1184 126.275Z" fill="#28252D"/>
<path d="M53.1044 100.056C46.3193 100.056 40.8196 109.76 40.8196 121.73C40.8196 123.29 40.9122 124.81 41.0899 126.276L53.1044 100.056Z" fill="#28252D"/>
<path d="M153.42 72.9497L150.848 72.9652V128.981H20.0222C17.9439 128.981 11.1362 125.352 11.1362 120.909L4.06006 102.513C4.06006 98.0693 4.48186 91.2596 5.85428 87.3263L10.8533 73.9691C11.4366 72.2909 22.416 70.7464 23.2183 69.4622H33.7759H120.011H153.42V72.9497Z" fill="#EF3F35"/>
<path d="M190.306 52.0083C154.847 58.8794 134.371 71.9918 134.371 71.9918C128.582 73.1591 108.321 84.8083 108.321 84.8083L39.5106 83.8924L29.3535 80.536C65.0403 52.0083 101.005 52.0083 126.43 52.0083H190.306Z" fill="#F03E39"/>
<path d="M40.8198 67.9638C41.6521 68.7131 47.2319 68.4831 47.2319 68.4831C47.2319 68.4831 44.9089 69.7259 42.8049 71.0728C38.5975 73.7664 34.9815 80.5361 47.4547 80.5361C59.9273 80.5361 40.1357 86.0378 38.0449 86.0378C35.5779 86.0378 31.935 86.28 31.935 86.28C31.935 86.28 15.8007 72.2852 17.1312 71.5224C18.4617 70.7595 29.7934 65.3806 29.3535 64.973C24.5002 60.4835 40.8198 67.9638 40.8198 67.9638Z" fill="#E62530"/>
<path d="M108.191 84.8083C108.191 84.8083 141.476 51.1195 212.628 51.1195L325.096 52.62L207.01 63.7519L127.186 84.8083H108.191Z" fill="#F03E39"/>
<path d="M360.36 44.4798C377.088 44.4798 383.927 46.6115 383.927 72.0075V85.897C383.927 90.3399 383.927 89.4763 383.927 93.9192V102.87H378.238C374.608 85.7756 365.149 73.5546 354.078 73.5546C339.881 73.5546 328.331 93.6479 328.331 118.346C328.331 119.285 328.381 120.404 328.381 121.593C328.381 125.444 328.859 127.645 322.201 127.645C316.423 127.645 237.497 127.645 216.721 127.645C212.904 127.645 212.233 125.779 212.233 118.952C212.233 118.727 212.231 118.503 212.228 118.278C212.229 118.167 212.233 118.057 212.233 117.946C212.233 93.5252 200.814 73.6573 186.777 73.6573C172.739 73.6573 158.952 93.5258 158.952 117.947C158.952 118.058 155.409 118.169 155.41 118.28C155.408 118.504 158.952 118.728 158.952 118.953C158.952 127.246 149.093 121.548 145.074 121.548C141.054 121.548 152.709 127.651 152.709 127.651C149.576 127.651 143.017 123.513 143.017 119.07L145.383 100.674C145.383 96.2311 149.487 79.9619 156.046 79.3844L136.622 81.6853C143.841 68.6349 189.424 56.8138 224.224 56.8138C259.025 56.8138 253.382 55.8862 303.934 54.0556C354.487 52.2243 350.938 44.4798 350.938 44.4798H360.36Z" fill="#D82928"/>
<path d="M381.102 52.6091C379.368 49.0466 370.891 48.1177 364.033 48.1177C359.724 48.1177 356.055 48.4847 355.099 48.7941L358.971 46.5474L364.228 44.5352C372.675 44.8059 378.124 46.2806 381.102 52.6091Z" fill="#B22423"/>
<path d="M353.229 67.3752H340.451L335.314 70.7109L337.432 73.4395L349.951 72.258L353.229 67.3752Z" fill="#28252D"/>
<path d="M380.356 102.87H378.239C374.609 85.7755 365.15 73.5545 354.079 73.5545C354.066 73.5545 354.054 73.5545 354.041 73.5545C354.037 73.5545 354.034 73.5545 354.031 73.5545C354.021 73.5545 354.012 73.5552 354.002 73.5552C353.999 73.5552 353.996 73.5552 353.992 73.5552C353.979 73.5552 353.967 73.5552 353.955 73.5552C353.954 73.5552 353.954 73.5552 353.953 73.5552C353.941 73.5552 353.929 73.5552 353.917 73.5558C353.913 73.5558 353.909 73.5558 353.905 73.5558C353.896 73.5558 353.888 73.5558 353.879 73.5558C353.875 73.5558 353.87 73.5565 353.867 73.5565C353.855 73.5565 353.844 73.5565 353.832 73.5565C353.83 73.5565 353.828 73.5571 353.826 73.5571C353.815 73.5571 353.804 73.5571 353.793 73.5571C353.789 73.5578 353.785 73.5578 353.781 73.5578C353.772 73.5578 353.763 73.5578 353.754 73.5584C353.75 73.5584 353.746 73.5584 353.743 73.5584C353.731 73.5591 353.719 73.5591 353.707 73.5591C353.705 73.5591 353.704 73.5597 353.702 73.5597C353.691 73.5597 353.679 73.5604 353.668 73.5604C353.665 73.5604 353.66 73.5604 353.656 73.5604C353.648 73.561 353.639 73.561 353.63 73.5617C353.626 73.5617 353.622 73.5617 353.618 73.5617C353.606 73.5623 353.594 73.5623 353.581 73.563C353.581 73.563 353.579 73.563 353.579 73.563C353.567 73.5636 353.556 73.5636 353.544 73.5642C353.54 73.5642 353.536 73.5642 353.532 73.5649C353.523 73.5649 353.514 73.5655 353.505 73.5655C353.501 73.5655 353.498 73.5662 353.494 73.5662C353.482 73.5668 353.469 73.5668 353.457 73.5675H353.456C353.444 73.5681 353.432 73.5688 353.419 73.5694C353.416 73.5694 353.413 73.5694 353.409 73.5694C353.4 73.57 353.39 73.5707 353.38 73.5707C353.377 73.5713 353.373 73.5713 353.37 73.5713C353.358 73.572 353.345 73.5726 353.333 73.5733C353.332 73.5733 353.331 73.5733 353.33 73.5733C353.318 73.5739 353.307 73.5746 353.296 73.5752C353.292 73.5752 353.288 73.5759 353.285 73.5759C353.275 73.5765 353.266 73.5765 353.257 73.5772C353.253 73.5772 353.25 73.5778 353.246 73.5778C353.234 73.5785 353.221 73.5791 353.21 73.5797C353.208 73.5797 353.207 73.5804 353.206 73.5804C353.195 73.581 353.183 73.5817 353.173 73.5823C353.168 73.5823 353.164 73.5823 353.16 73.583C353.152 73.5836 353.143 73.5843 353.134 73.5843C353.131 73.5849 353.126 73.5849 353.122 73.5855C353.11 73.5862 353.099 73.5868 353.087 73.5875C353.085 73.5875 353.082 73.5881 353.079 73.5881C353.069 73.5888 353.059 73.5894 353.049 73.5901C353.045 73.5901 353.041 73.5907 353.036 73.5907C353.027 73.5914 353.019 73.592 353.011 73.5927C353.007 73.5933 353.002 73.5933 352.998 73.594C352.987 73.5946 352.977 73.5952 352.965 73.5959C352.962 73.5965 352.958 73.5965 352.955 73.5972C352.945 73.5978 352.935 73.5985 352.925 73.5991C352.921 73.5991 352.917 73.5998 352.912 73.6004C352.905 73.6011 352.896 73.6017 352.888 73.6017C352.883 73.6023 352.88 73.603 352.874 73.603C352.863 73.6043 352.853 73.6049 352.842 73.6056C352.838 73.6062 352.835 73.6062 352.832 73.6069C352.822 73.6075 352.812 73.6082 352.802 73.6088C352.798 73.6095 352.793 73.6101 352.789 73.6101C352.781 73.6108 352.772 73.6114 352.764 73.6127C352.76 73.6127 352.756 73.6133 352.752 73.6133C352.74 73.6146 352.729 73.6153 352.718 73.6166C352.715 73.6166 352.711 73.6172 352.708 73.6172C352.698 73.6185 352.689 73.6191 352.679 73.6198C352.675 73.6204 352.669 73.6211 352.665 73.6217C352.658 73.6224 352.65 73.623 352.643 73.6237C352.638 73.6243 352.633 73.6243 352.628 73.625C352.617 73.6263 352.607 73.6269 352.597 73.6282C352.592 73.6288 352.588 73.6288 352.584 73.6295C352.575 73.6301 352.566 73.6314 352.556 73.6321C352.552 73.6327 352.547 73.6334 352.542 73.6334C352.534 73.6346 352.527 73.6353 352.519 73.6359C352.514 73.6366 352.51 73.6372 352.505 73.6372C352.495 73.6385 352.484 73.6398 352.474 73.6405C352.47 73.6411 352.464 73.6418 352.46 73.6424C352.45 73.643 352.442 73.6443 352.434 73.645C352.429 73.6456 352.424 73.6463 352.419 73.6469C352.412 73.6476 352.404 73.6482 352.397 73.6495C352.392 73.6495 352.387 73.6501 352.382 73.6508C352.372 73.6521 352.363 73.6527 352.353 73.654C352.348 73.6547 352.341 73.656 352.335 73.6566C352.327 73.6573 352.32 73.6579 352.312 73.6592C352.306 73.6598 352.3 73.6605 352.295 73.6611C352.288 73.6618 352.281 73.6624 352.275 73.6637C352.27 73.6644 352.264 73.665 352.259 73.6656C352.25 73.6663 352.241 73.6676 352.232 73.6689C352.225 73.6695 352.219 73.6702 352.211 73.6715C352.204 73.6721 352.197 73.6734 352.189 73.6741C352.184 73.6747 352.178 73.6753 352.173 73.676C352.166 73.6773 352.159 73.6779 352.153 73.6786C352.148 73.6792 352.141 73.6805 352.136 73.6812C352.127 73.6818 352.119 73.6831 352.109 73.6844C352.102 73.685 352.096 73.6863 352.089 73.687C352.082 73.6883 352.074 73.6889 352.067 73.6902C352.061 73.6908 352.056 73.6915 352.049 73.6928C352.044 73.6934 352.037 73.6941 352.031 73.6954C352.024 73.696 352.02 73.6967 352.014 73.6973C352.007 73.6986 351.999 73.6992 351.992 73.7005C351.983 73.7018 351.974 73.7031 351.964 73.7044C351.958 73.7051 351.952 73.7064 351.945 73.707C351.938 73.7083 351.933 73.7089 351.927 73.7096C351.922 73.7102 351.915 73.7115 351.909 73.7122C351.902 73.7134 351.897 73.7141 351.891 73.7147C351.884 73.716 351.877 73.7173 351.87 73.718C351.861 73.7193 351.851 73.7206 351.842 73.7225C351.836 73.7231 351.83 73.7244 351.823 73.7251C351.816 73.7264 351.811 73.727 351.805 73.7277C351.8 73.7289 351.793 73.7296 351.786 73.7309C351.78 73.7315 351.776 73.7322 351.769 73.7335C351.762 73.7341 351.755 73.7354 351.748 73.7367C351.738 73.738 351.729 73.7399 351.719 73.7412C351.714 73.7419 351.707 73.7432 351.701 73.7438C351.695 73.7451 351.689 73.7457 351.683 73.747C351.677 73.7477 351.671 73.749 351.666 73.7496C351.659 73.7509 351.653 73.7516 351.647 73.7529C351.641 73.7542 351.634 73.7548 351.629 73.7561C351.618 73.7574 351.608 73.7593 351.597 73.7612C351.591 73.7619 351.586 73.7632 351.58 73.7638C351.574 73.7651 351.567 73.7664 351.56 73.7671C351.555 73.7684 351.549 73.769 351.544 73.7703C351.537 73.7709 351.532 73.7722 351.525 73.7735C351.519 73.7742 351.512 73.7755 351.504 73.7768C351.495 73.7787 351.486 73.78 351.476 73.7819C351.47 73.7826 351.463 73.7839 351.458 73.7852C351.452 73.7864 351.446 73.7871 351.44 73.7884C351.434 73.789 351.428 73.7903 351.422 73.7916C351.416 73.7929 351.41 73.7935 351.403 73.7948C351.398 73.7955 351.392 73.7968 351.386 73.7981C351.374 73.8 351.363 73.802 351.352 73.8039C351.347 73.8052 351.343 73.8058 351.338 73.8071C351.331 73.8078 351.324 73.8097 351.316 73.811C351.312 73.8116 351.306 73.8123 351.302 73.8136C351.295 73.8149 351.288 73.8162 351.281 73.8175C351.278 73.8181 351.274 73.8187 351.271 73.8194C351.257 73.822 351.242 73.8246 351.228 73.8271C351.224 73.8284 351.221 73.8291 351.217 73.8297C351.21 73.831 351.201 73.8323 351.194 73.8343C351.19 73.8349 351.187 73.8355 351.182 73.8362C351.175 73.8375 351.167 73.8394 351.159 73.8407C351.159 73.8407 351.157 73.8413 351.156 73.8413C351.139 73.8446 351.123 73.8478 351.106 73.8517C351.103 73.8523 351.099 73.853 351.096 73.8536C351.088 73.8549 351.08 73.8569 351.072 73.8581C351.069 73.8588 351.065 73.8594 351.062 73.8601C351.054 73.862 351.047 73.8633 351.038 73.8653C351.037 73.8653 351.037 73.8653 351.037 73.8653C351.019 73.8691 351.001 73.873 350.983 73.8769C350.981 73.8769 350.978 73.8775 350.976 73.8782C350.968 73.8801 350.959 73.8821 350.951 73.8833C350.948 73.884 350.945 73.8846 350.943 73.8853C350.915 73.8911 350.888 73.8969 350.86 73.9027C350.858 73.9034 350.858 73.9034 350.856 73.904C350.848 73.9059 350.838 73.9079 350.83 73.9098C350.827 73.9105 350.825 73.9105 350.823 73.9111C350.794 73.9176 350.766 73.924 350.737 73.9305H350.736C350.727 73.9324 350.717 73.935 350.708 73.9369C350.706 73.9376 350.706 73.9376 350.705 73.9376C350.666 73.9466 350.626 73.9557 350.587 73.9654H350.585C348.734 74.404 346.946 75.1863 345.24 76.2741C338.545 80.5445 333.143 89.5227 330.368 100.89C330.367 100.89 330.367 100.89 330.367 100.89C329.326 99.2677 327.23 98.4021 325.334 98.4021C323.737 98.4021 322.28 99.0158 321.709 100.308C322.142 98.1987 322.614 96.6723 323.26 95.4443C327.762 81.5742 335.617 71.4158 344.902 68.3455C347.637 67.5826 350.186 67.2344 352.556 67.2344C373.215 67.2344 380.356 93.6931 380.356 102.87Z" fill="url(#paint7_linear)"/>
<path d="M203.407 84.665C203.406 84.6599 203.406 84.6554 203.407 84.6508V84.665Z" fill="#3C2B3F"/>
<path d="M285.982 122.816C281.103 122.816 276.614 122.648 273.234 122.648C268.081 122.648 259.504 122.648 251.023 122.648L251.02 80.1214C251.017 80.0878 251.014 80.0555 251.011 80.0219C278.618 77.8412 310.076 75.526 325.289 74.4272C316.049 83.4862 309.676 100.39 309.173 119.908C308.855 120.121 308.524 120.329 308.176 120.532C301.541 122.435 293.322 122.816 285.982 122.816ZM249.841 122.648C239.277 122.648 229.121 122.648 226.226 122.648C220.905 122.648 219.131 122.343 219.034 117.946C219.034 113.755 218.726 109.632 218.128 105.653H220.038C220.244 107.12 220.397 108.754 220.45 110.536H219.879V112.367V114.198H220.47C220.47 117.694 220.47 118.406 220.47 118.406C220.47 118.406 225.514 118.406 228.394 118.406C230.387 118.406 232.13 116.696 233.014 114.198H236.279V110.536H233.631C233.631 110.515 233.631 110.493 233.631 110.472V105.653H236.279V101.991H232.987C231.796 99.1935 229.082 97.2271 225.945 97.2271H217.835C217.835 97.2271 218.636 98.9409 219.354 101.991H218.105V103.822V105.505C216.856 97.3021 214.373 89.7172 210.817 83.4132C220.088 82.525 234.301 81.3449 249.835 80.115C249.837 80.1376 249.839 80.1589 249.841 80.1808V122.648Z" fill="url(#paint8_linear)"/>
<path d="M203.743 84.9539C203.568 84.8776 203.413 84.7782 203.406 84.6651V84.6509C203.408 84.6128 203.428 84.5727 203.468 84.532C203.56 84.6716 203.652 84.8124 203.743 84.9539Z" fill="url(#paint9_linear)"/>
<path d="M203.743 84.9539C203.743 84.9539 203.743 84.9539 203.743 84.9539C203.652 84.8124 203.561 84.6716 203.469 84.532C203.561 84.6709 203.653 84.8124 203.743 84.9539Z" fill="url(#paint10_linear)"/>
<path d="M210.618 83.0624C204.53 72.4712 196.063 66.6382 186.777 66.6382C177.636 66.6382 168.587 72.5074 161.95 82.7401C155.633 92.4812 152.153 104.984 152.153 117.947H158.953C158.953 93.5258 172.739 73.6572 186.777 73.6572C200.814 73.6572 212.234 93.5251 212.234 117.946H219.034C219.034 104.893 216.045 92.5051 210.618 83.0624Z" fill="#F03E39"/>
<path d="M229.42 75.2102C229.42 76.5745 230.502 77.6907 231.824 77.6907H237.736C239.057 77.6907 240.139 76.5745 240.139 75.2102V72.1251C240.139 70.7608 239.057 69.6446 237.736 69.6446H231.824C230.502 69.6446 229.42 70.7608 229.42 72.1251V75.2102Z" fill="#F36327"/>
<path d="M302.874 63.1087C303.361 64.9853 305.883 66.3534 308.477 66.1486L314.493 65.6732C317.087 65.4684 318.81 63.765 318.322 61.8879C317.834 60.0107 315.313 58.6432 312.718 58.848L306.703 59.3228C304.109 59.5282 302.386 61.2316 302.874 63.1087Z" fill="#28252D"/>
<path d="M187.812 76.2741C175.492 76.2741 165.505 93.8927 165.505 115.629C165.505 118.46 165.675 121.22 165.997 123.882C168.148 141.65 177.097 154.978 187.812 154.978C198.525 154.978 207.474 141.65 209.625 123.882C209.947 121.22 210.116 118.46 210.116 115.628C210.116 93.8921 200.13 76.2741 187.812 76.2741Z" fill="#443D50"/>
<path d="M188.073 87.1099C179.145 87.1099 171.907 99.8773 171.908 115.628C171.908 117.68 172.03 119.68 172.264 121.609C173.823 134.484 180.307 144.141 188.073 144.141C195.835 144.14 202.321 134.482 203.879 121.608C204.112 119.678 204.235 117.678 204.235 115.626C204.235 99.876 196.998 87.1092 188.073 87.1099Z" fill="#8895A3"/>
<path d="M188.073 88.6357C179.975 88.6364 173.387 100.745 173.387 115.628C173.387 117.58 173.503 119.529 173.731 121.42C175.219 133.701 181.25 142.616 188.073 142.615V144.141V142.615C194.896 142.614 200.926 133.7 202.413 121.418C202.642 119.527 202.757 117.579 202.757 115.626C202.757 108.276 201.148 101.388 198.226 96.2323C195.449 91.3333 191.843 88.6357 188.073 88.6357ZM188.073 145.667C179.603 145.667 172.499 135.852 170.798 121.798C170.554 119.782 170.43 117.706 170.43 115.628C170.43 98.7812 178.179 85.5849 188.073 85.5842C192.936 85.5836 197.448 88.8179 200.777 94.691C203.961 100.307 205.714 107.742 205.714 115.626C205.714 117.705 205.59 119.78 205.346 121.796C203.645 135.85 196.542 145.666 188.073 145.667Z" fill="#E1EAE9"/>
<path d="M354.947 76.2741C342.626 76.2741 332.64 93.8927 332.64 115.629C332.64 118.46 332.81 121.22 333.132 123.882C335.282 141.65 344.232 154.978 354.948 154.978C365.66 154.978 374.61 141.65 376.76 123.882C377.082 121.22 377.252 118.46 377.252 115.628C377.252 93.8921 367.265 76.2741 354.947 76.2741Z" fill="#443D50"/>
<path d="M158.953 142.789V117.947L4.06006 102.513L9.38141 142.789H158.953Z" fill="#EF3F35"/>
<path d="M7.78711 142.814H127.531V137.466H7.78711V142.814Z" fill="#35323D"/>
<path d="M14.9214 101.851C14.0646 98.6126 16.0247 95.9635 19.2765 95.9635H125.117C128.369 95.9635 130.296 98.6035 129.401 101.831L123.472 123.189C122.576 126.416 119.182 129.056 115.93 129.056H28.0342C24.7824 129.056 21.4205 126.407 20.5632 123.169L14.9214 101.851Z" fill="#28252D"/>
<path d="M14.9214 101.851L15.4915 101.69C15.3682 101.224 15.31 100.778 15.31 100.36C15.3125 99.2497 15.7024 98.3253 16.3789 97.658C17.0567 96.9927 18.0373 96.5754 19.2765 96.5741H125.117C126.345 96.5754 127.312 96.9843 127.978 97.6354C128.643 98.2885 129.025 99.1922 129.028 100.283C129.028 100.716 128.965 101.179 128.832 101.664L122.903 123.021C122.5 124.48 121.507 125.852 120.228 126.845C118.951 127.841 117.399 128.448 115.93 128.446H28.0342C26.5648 128.448 25.0227 127.839 23.7592 126.842C22.4932 125.847 21.5188 124.471 21.1339 123.008L15.4915 101.69L14.9214 101.851L14.3506 102.012L19.9924 123.33C20.4643 125.104 21.5989 126.673 23.0414 127.812C24.4858 128.948 26.2506 129.665 28.0342 129.667H115.93C117.712 129.664 119.483 128.952 120.94 127.821C122.395 126.686 123.547 125.125 124.04 123.358L129.97 101.999C130.131 101.412 130.21 100.836 130.21 100.283C130.213 98.8905 129.7 97.6348 128.792 96.7491C127.885 95.8609 126.601 95.3519 125.117 95.3532H19.2765C17.7776 95.3519 16.4797 95.8719 15.5628 96.7737C14.6448 97.6735 14.1247 98.9473 14.1272 100.36C14.1272 100.895 14.201 101.449 14.3506 102.012L14.9214 101.851Z" fill="#CA2625"/>
<path d="M112.56 86.2813C122.394 81.443 151.19 63.5886 159.845 68.89C168.5 74.1915 157.869 83.8822 146.862 85.7484C135.855 87.6139 112.56 86.2813 112.56 86.2813Z" fill="#ECDBDA"/>
<path d="M241.643 51.5063L239.87 51.4831L240.047 51.1872C240.022 51.2861 239.998 51.3849 239.973 51.4837L241.643 51.5063Z" fill="#415055"/>
<path d="M244.648 56.6309C243.342 53.994 240.284 52.0232 240.253 52.0032L239.75 51.6828L239.87 51.4832L241.642 51.5064C242.733 52.3281 244.706 54.0166 245.735 56.1438C245.8 56.2795 245.868 56.4313 245.939 56.5992C245.515 56.6102 245.085 56.6205 244.648 56.6309Z" fill="#D43B38"/>
<path d="M249.835 80.1147C248.935 70.7761 245.955 59.3303 244.677 56.6889C244.668 56.6695 244.658 56.6502 244.648 56.6308C245.086 56.6205 245.516 56.6101 245.939 56.5991C247.458 60.2049 250.159 71.1843 251.011 80.0217C250.618 80.0527 250.228 80.0837 249.835 80.1147Z" fill="#B6282D"/>
<path d="M251.023 122.648C250.629 122.648 250.234 122.648 249.841 122.648V80.1808C249.839 80.1589 249.837 80.1376 249.835 80.1149C250.227 80.0839 250.617 80.0529 251.011 80.0219C251.014 80.0555 251.017 80.0878 251.02 80.1214L251.023 122.648Z" fill="url(#paint11_linear)"/>
<path d="M340.769 67.3753C323.698 67.3753 309.744 91.0246 309.16 120.479C317.861 118.759 318.799 114.602 320.036 109.772C320.349 107.463 321.22 103.017 321.22 103.014C321.804 99.417 322.366 97.1445 323.26 95.4443C327.762 81.5742 335.617 71.4158 344.902 68.3455C342.988 67.7131 342.788 67.3753 340.769 67.3753Z" fill="#28252D"/>
<path d="M0.946289 136.991C0.946289 135.312 2.27678 133.939 3.90266 133.939H145.22C146.847 133.939 148.177 135.312 148.177 136.991V139.737C148.177 141.416 146.847 142.789 145.22 142.789H108.9C107.274 142.789 104.873 141.974 103.563 140.978L102.706 140.326C101.397 139.331 98.9961 138.516 97.3702 138.516H25.7576C24.1317 138.516 22.1835 139.478 21.4281 140.653C20.6734 141.828 18.7258 142.789 17.0993 142.789H3.90266C2.27678 142.789 0.946289 141.416 0.946289 139.737V136.991Z" fill="#EF3F35"/>
<path d="M252.797 51.6551C254.46 51.6312 257.075 51.6531 260.342 51.6751C281.822 51.8198 331.49 51.9651 323.934 38.9864C318.133 29.0205 332.64 47.2929 332.64 47.2929L325.096 52.4612L317.147 53.3694L258.087 55.9946L254.896 53.3772L252.797 51.6551Z" fill="#F03E39"/>
<path d="M266.139 5.77223C264.278 5.62947 262.324 5.41438 260.397 5.18894C259.958 3.4119 258.078 1.94621 256.073 3.13672C255.358 3.56112 254.647 3.9997 253.948 4.4551C250.35 4.10629 247.515 4.04043 246.606 4.85628C246.149 5.26646 245.92 6.2257 245.831 7.43559C241.824 3.59922 235.656 2.76722 230.366 2.72006C226.552 2.68647 217.292 9.42902 221.103 9.46261C225.605 9.50331 240.833 9.25784 243.239 13.8739C245.222 17.6812 243.436 23.0892 242.15 26.7964C238.604 37.0071 234.899 51.3423 226.819 51.3087C222.996 51.2926 238.784 56.3085 239.713 52.5296C242.513 41.1368 245.052 32.9828 246.914 25.8061C250.174 13.2486 256.087 9.46261 266.139 9.46261C281.118 9.46261 274.122 6.38202 266.139 5.77223Z" fill="#F03E39"/>
<path d="M352.438 48.7939C360.089 44.4944 365.526 40.8047 368.709 36.0116L377.696 33.9691L368.803 45.4156C368.803 45.4156 367.557 45.3742 363.277 46.0299C360.504 46.4549 355.098 48.7939 355.098 48.7939H352.438Z" fill="#EF3F35"/>
<path d="M318.544 114.433C310.483 124.702 285.06 122.648 273.234 122.648C261.409 122.648 231.549 122.648 226.227 122.648C220.906 122.648 219.132 122.343 219.035 117.946L212.21 116.265C212.222 116.824 212.235 117.382 212.235 117.946C212.235 118.057 212.23 118.167 212.23 118.278C212.232 118.502 212.235 118.727 212.235 118.952C212.235 125.779 212.905 127.645 216.721 127.645C237.497 127.645 316.423 127.645 322.202 127.645C328.86 127.645 328.382 125.444 328.382 121.593C328.382 120.404 328.332 119.285 328.332 118.345C323.531 112.81 318.544 114.433 318.544 114.433Z" fill="#F03E39"/>
<path d="M37.9773 86.2812H106.647L118.261 76.8741H38.9567L37.9773 86.2812Z" fill="#28252D"/>
<path d="M355.099 48.7939C362.75 44.4944 368.187 40.8047 371.37 36.0116L380.356 33.9691L371.464 45.4156C371.464 45.4156 370.218 45.3742 365.938 46.0299C360.497 46.8638 355.099 48.7939 355.099 48.7939Z" fill="#D82928"/>
<path d="M393.65 33.1275C392.831 36.376 389.501 39.0342 386.249 39.0342H375.31C372.058 39.0342 367.118 37.6176 364.331 35.8864L360.272 33.3646C357.486 31.6334 357.837 29.8021 361.051 29.2944L390.16 24.699C390.649 24.6221 391.108 24.6085 391.533 24.6518H394.909V27.9275L390.627 29.7065L393.65 33.1275Z" fill="#EF3F35"/>
<path d="M364.816 29.2943C361.602 29.8021 361.251 31.6334 364.037 33.3645L368.097 35.8864C370.883 37.6176 375.823 39.0342 379.076 39.0342H390.014C393.266 39.0342 396.597 36.376 397.415 33.1275L398.283 29.6832C399.101 26.4347 397.141 24.1912 393.926 24.6989L364.816 29.2943Z" fill="#F03E39"/>
<path d="M316.493 47.3987H313.536C313.536 45.2586 308.443 32.3045 304.828 23.7901L307.535 22.5653C309.032 26.0871 316.493 43.8362 316.493 47.3987Z" fill="#3F3B4A"/>
<path d="M265.835 9.46654C255.97 9.54341 250.141 13.3766 246.915 25.8062C245.11 32.7593 242.67 40.6394 239.973 51.4838L252.797 51.6557C253.312 51.6479 253.917 51.6453 254.605 51.6453C257.675 51.6453 262.388 51.7061 267.947 51.7061C291.627 51.7061 330.697 50.6015 323.934 38.9858C323.833 38.812 323.74 38.6486 323.65 38.4922C317.055 27.4489 297.386 13.7125 278.892 10.2624C273.896 9.59187 268.324 9.48398 265.835 9.46654ZM265.836 11.9076C268.584 11.9277 273.861 12.0536 278.529 12.6757C296.657 16.0773 315.431 29.4081 321.624 39.7506C321.713 39.9075 321.807 40.0716 321.907 40.2434C322.568 41.3784 322.314 41.8422 322.192 42.0651C321.541 43.2523 318.265 46.1992 301.931 47.9162C293.297 48.8231 282.181 49.2643 267.947 49.2643C264.766 49.2643 261.905 49.2449 259.382 49.2275C257.531 49.2146 255.918 49.2036 254.605 49.2036C253.919 49.2036 253.314 49.2068 252.796 49.2139L243.024 49.0834C244.368 43.8544 245.637 39.3339 246.778 35.2702C247.654 32.1508 248.482 29.2046 249.2 26.4386C250.66 20.8103 252.615 17.1503 255.351 14.9198C257.824 12.9037 261.157 11.9464 265.836 11.9076Z" fill="#3F3B4A"/>
<path d="M26.4767 123.169L20.8343 101.851C19.9775 98.6126 21.9376 95.9635 25.1894 95.9635H19.2766C16.0242 95.9635 14.0648 98.6126 14.9222 101.851L20.5633 123.169C21.4207 126.407 24.7826 129.056 28.0344 129.056H33.9471C30.6953 129.056 27.3334 126.407 26.4767 123.169Z" fill="#CA2625"/>
<path d="M206.6 49.0446C202.234 50.1214 204.736 50.8843 195.999 51.7531C187.26 52.622 160.647 53.3765 143.302 53.3765C125.958 53.3765 95.6027 53.1187 98.4007 50.7099H120.032L183.51 49.0446H206.6Z" fill="#474455"/>
<path d="M112.56 86.2812C121.429 81.9178 145.714 66.9747 156.746 67.9708C144.166 72.1444 144.953 81.1891 130.589 83.9106C119.619 85.9893 112.56 86.2812 112.56 86.2812Z" fill="#F4DFDC"/>
<path d="M162.611 71.7549C162.609 71.7529 162.609 71.7523 162.609 71.751C162.609 71.7523 162.61 71.7536 162.611 71.7549ZM162.603 71.7394C162.602 71.7374 162.601 71.7355 162.601 71.7336C162.602 71.7355 162.602 71.7374 162.603 71.7394ZM162.594 71.72C162.592 71.7155 162.591 71.7116 162.589 71.7077C162.591 71.7116 162.592 71.7155 162.594 71.72ZM162.586 71.7019C162.584 71.698 162.582 71.6935 162.58 71.6896C162.582 71.6935 162.584 71.6974 162.586 71.7019ZM162.577 71.6845C162.576 71.6799 162.573 71.6748 162.571 71.6703C162.573 71.6748 162.576 71.6799 162.577 71.6845ZM162.57 71.6677C162.131 70.7523 161.355 69.8874 160.189 69.1097C161.356 69.8874 162.131 70.7523 162.57 71.6677ZM160.189 69.1097C160.181 69.1045 160.174 69.1 160.166 69.0941C160.173 69.0993 160.181 69.1051 160.189 69.1097ZM160.164 69.0935C160.141 69.078 160.117 69.0631 160.094 69.0476C160.117 69.0631 160.141 69.078 160.164 69.0935ZM160.091 69.0457C160.084 69.0412 160.077 69.0367 160.07 69.0321C160.077 69.0367 160.084 69.0412 160.091 69.0457ZM160.067 69.0302C160.052 69.0199 160.036 69.0102 160.02 68.9998C160.036 69.0102 160.052 69.0199 160.067 69.0302ZM160.017 68.9979C160.01 68.994 160.004 68.9895 159.997 68.985C160.003 68.9895 160.01 68.994 160.017 68.9979ZM159.992 68.9818C159.986 68.9779 159.979 68.974 159.973 68.9701C159.979 68.974 159.986 68.9779 159.992 68.9818ZM159.968 68.9669C159.953 68.9572 159.938 68.9475 159.922 68.9378C159.937 68.9475 159.953 68.9572 159.968 68.9669ZM159.915 68.934C159.91 68.9301 159.905 68.9269 159.898 68.9236C159.905 68.9269 159.91 68.9301 159.915 68.934ZM159.891 68.9184C159.885 68.9152 159.881 68.9126 159.875 68.9088C159.88 68.912 159.886 68.9152 159.891 68.9184ZM159.868 68.9042C159.859 68.8991 159.853 68.8952 159.844 68.89C159.852 68.8946 159.86 68.8997 159.868 68.9042Z" fill="#ECABAD"/>
<path d="M149.307 84.6077C143.224 84.6077 150.272 74.4835 153.42 71.992C156.533 69.5277 156.738 69.4863 159.721 68.8287L159.845 68.8901C159.853 68.8953 159.86 68.8991 159.868 68.9043C159.87 68.9056 159.873 68.9075 159.875 68.9088C159.881 68.9127 159.885 68.9153 159.891 68.9185C159.894 68.9204 159.896 68.9217 159.899 68.9237C159.905 68.9269 159.91 68.9301 159.915 68.934C159.918 68.9353 159.92 68.9366 159.922 68.9379C159.938 68.9476 159.953 68.9573 159.969 68.967C159.97 68.9682 159.972 68.9689 159.973 68.9702C159.979 68.9741 159.986 68.9779 159.992 68.9818C159.994 68.9831 159.996 68.9838 159.997 68.985C160.004 68.9896 160.011 68.9941 160.017 68.998C160.018 68.9986 160.019 68.9993 160.02 68.9999C160.036 69.0102 160.052 69.0199 160.068 69.0303C160.069 69.0309 160.069 69.0316 160.071 69.0322C160.078 69.0367 160.084 69.0412 160.091 69.0458C160.092 69.0464 160.093 69.0471 160.094 69.0477C160.118 69.0632 160.141 69.0781 160.165 69.0936C160.165 69.0942 160.165 69.0942 160.166 69.0942C160.174 69.1 160.181 69.1045 160.189 69.1097C161.355 69.8875 162.131 70.7524 162.57 71.6677C162.57 71.6684 162.571 71.6697 162.571 71.6703C162.573 71.6748 162.576 71.68 162.578 71.6845C162.579 71.6865 162.58 71.6878 162.58 71.6897C162.582 71.6936 162.585 71.6981 162.586 71.702C162.587 71.7039 162.588 71.7058 162.589 71.7078C162.591 71.7116 162.593 71.7155 162.595 71.7201C162.596 71.7246 162.599 71.7291 162.601 71.7336C162.601 71.7356 162.603 71.7375 162.603 71.7394C162.605 71.7433 162.607 71.7472 162.609 71.7511C162.61 71.7524 162.61 71.753 162.611 71.7549C164.456 75.8129 159.775 80.8404 153.393 83.7266C151.634 84.3396 150.296 84.6077 149.307 84.6077Z" fill="#F3E9E8"/>
<path d="M5.51343 86.528C5.59791 86.1676 5.69492 85.8181 5.81007 85.4874L10.0369 74.9717C10.9793 73.2683 12.3768 71.5972 14.166 69.9778C22.1333 74.0571 28.5987 83.0566 32.1058 86.2813C32.1058 86.2813 16.5241 87.1268 5.51343 86.528Z" fill="#F4DFDC"/>
<path d="M124.183 86.7424C122.571 86.7424 120.966 86.7237 119.307 86.694C119.34 86.6526 119.375 86.6119 119.411 86.5706C121.533 86.6391 124.008 86.6998 126.633 86.7269C125.809 86.7379 124.995 86.7424 124.183 86.7424Z" fill="#FAC3C1"/>
<path d="M126.633 86.7271C124.008 86.6999 121.533 86.6392 119.411 86.5707C119.7 86.2355 120.03 85.8886 120.399 85.532C123.189 85.1774 126.634 84.66 130.589 83.9107C131.429 83.7518 132.217 83.5709 132.96 83.3706C132.343 84.3867 131.779 85.4655 131.28 86.6082C129.666 86.6709 128.133 86.7083 126.633 86.7271ZM153.401 68.0781C153.592 68.0536 153.782 68.0316 153.969 68.0122C153.986 68.0103 154 68.009 154.013 68.0084C153.811 68.0284 153.607 68.0516 153.401 68.0781Z" fill="#FBF6F7"/>
<path d="M120.398 85.532C125.65 80.4476 138.622 73.3763 149.219 68.9501C150.696 68.5464 152.1 68.2473 153.4 68.0781C153.607 68.0516 153.811 68.0284 154.012 68.0083C154.021 68.0077 154.029 68.0077 154.036 68.0077C154.758 68.0077 140.234 71.377 132.959 83.3706C132.217 83.5708 131.429 83.7517 130.589 83.9106C126.634 84.6599 123.189 85.1773 120.398 85.532Z" fill="#FCF8F8"/>
<path d="M155.471 96.5217C150.596 112.883 151.699 126.361 151.939 140.826L142.347 142.305C142.347 142.305 138.375 114.211 148.663 87.6132L155.471 96.5217Z" fill="#D82928"/>
<path d="M159.177 142.789H137.601C135.974 142.789 134.644 141.416 134.644 139.737V136.991C134.644 135.312 135.974 133.939 137.601 133.939H159.177V142.789Z" fill="#D82928"/>
<path d="M101.51 117.345C101.51 118.353 100.711 119.179 99.733 119.179H58.8507C57.8738 119.179 57.074 118.353 57.074 117.345V106.195C57.074 105.186 57.8738 104.361 58.8507 104.361H99.733C100.711 104.361 101.51 105.186 101.51 106.195V117.345Z" fill="#FFFEF6"/>
<path d="M99.7332 119.179H94.4807V104.361H99.7332C100.711 104.361 101.51 105.186 101.51 106.195V117.345C101.51 118.353 100.711 119.179 99.7332 119.179Z" fill="#8BC5AB"/>
<path d="M114.826 106.467H101.51V106.195C101.51 105.186 100.711 104.361 99.7331 104.361H58.8507C57.8738 104.361 57.074 105.186 57.074 106.195V106.467H50.864V98.0512H114.826V106.467Z" fill="#28252D"/>
<path d="M94.4805 106.467H57.074V106.195C57.074 105.186 57.8738 104.361 58.8507 104.361H99.733C100.711 104.361 101.51 105.186 101.51 106.195C101.51 105.186 100.711 104.361 99.733 104.361H94.4805V106.467Z" fill="#BEBBB5"/>
<path d="M101.51 106.467H94.4807V104.361H99.7332C100.711 104.361 101.51 105.186 101.51 106.195V106.467Z" fill="#6A9288"/>
<path d="M327.02 52.4941C326.909 52.1143 326.798 51.7397 326.686 51.3715L327.71 50.6699C327.878 51.219 328.047 51.7829 328.214 52.3585C327.823 52.4044 327.425 52.4496 327.02 52.4941Z" fill="#D43B38"/>
<path d="M330.429 70.3945C329.991 64.0706 328.554 57.7408 327.021 52.4943C327.425 52.4497 327.824 52.4045 328.214 52.3586C329.7 57.4792 331.084 63.5971 331.566 69.7505C331.184 69.9527 330.805 70.1678 330.429 70.3945Z" fill="#B6282D"/>
<path d="M324.035 43.6187C324.346 43.1613 324.553 42.6775 324.649 42.1678C324.553 42.6781 324.346 43.1613 324.035 43.6187ZM324.65 42.1627C324.65 42.1601 324.651 42.1568 324.652 42.1536C324.651 42.1562 324.65 42.1601 324.65 42.1627Z" fill="#415055"/>
<path d="M331.746 74.8606L330.563 74.8593L330.565 74.2495C330.566 72.9705 330.518 71.6831 330.429 70.3944C330.805 70.1677 331.184 69.9526 331.566 69.7504C331.684 71.2529 331.748 72.758 331.747 74.2508L331.746 74.8606Z" fill="#2A272F"/>
<path d="M326.686 51.3713C325.746 48.2733 324.794 45.6068 324.035 43.6185C324.346 43.1612 324.553 42.678 324.649 42.1677C324.649 42.1657 324.65 42.1644 324.65 42.1625C324.65 42.1599 324.651 42.156 324.652 42.1535C324.662 42.0998 324.67 42.0462 324.677 41.9926C325.471 44.0009 326.594 47.0272 327.711 50.6698L326.686 51.3713Z" fill="#D43B38"/>
<path d="M324.035 43.6187C323.621 42.5354 323.265 41.653 322.998 41.0122L322.765 40.4509L323.852 39.9696L324.085 40.5303C324.25 40.9289 324.451 41.4192 324.677 41.9928C324.67 42.0464 324.661 42.1 324.651 42.1536C324.651 42.1568 324.65 42.1601 324.65 42.1627C324.65 42.1646 324.649 42.1659 324.649 42.1678C324.553 42.6775 324.345 43.1613 324.035 43.6187Z" fill="#3C3847"/>
<path d="M301.945 60.6895L318.993 59.4531L301.945 60.6895Z" fill="#F03E39"/>
<path d="M302.13 63.4297L301.758 57.95L318.806 56.7136L319.179 62.1927L302.13 63.4297Z" fill="#D82928"/>
<path d="M184.878 141.955C182.905 141.129 181.061 139.56 179.453 137.401L180.596 137.335L180.588 137.173C182.852 136.693 185.028 134.146 186.705 130.738L186.979 131.157L188.938 129.789L187.836 128.107C188.727 125.731 189.377 123.127 189.683 120.601C189.831 119.384 189.922 118.129 189.951 116.847H194.814C194.775 118.473 194.659 120.063 194.472 121.608C193.356 130.831 189.71 138.402 184.878 141.955ZM178.122 135.388C176.59 132.787 175.351 129.593 174.523 125.983L174.807 125.399C175.714 129.538 177.022 132.668 178.083 134.672L178.122 135.388ZM173.807 122.012C173.78 121.816 173.755 121.618 173.731 121.42C173.55 119.923 173.44 118.389 173.402 116.847H173.743C173.801 118.445 173.93 119.958 174.113 121.383L173.807 122.012ZM194.814 114.406H189.929C189.771 110.676 189.043 106.867 187.891 103.599L188.926 102.084L186.992 100.678L186.807 100.95C185.175 97.5119 183.011 95.076 180.556 94.6619L180.596 93.9126L179.41 93.8442C181.01 91.6892 182.855 90.1144 184.852 89.2895C190.506 93.4249 194.543 103.052 194.814 114.406ZM173.712 114.406H173.402C173.462 111.935 173.703 109.549 174.103 107.294L174.254 107.731C173.939 109.71 173.739 111.933 173.712 114.406ZM175.235 103.297L175.112 102.941C175.894 100.253 176.916 97.8368 178.126 95.7872L178.074 96.7478C177.173 98.174 176.095 100.332 175.235 103.297Z" fill="#CCD8D7"/>
<path d="M183.369 142.91C178.673 140.394 174.881 134.213 173.067 126.253L174.125 126.8L174.523 125.983C175.35 129.593 176.59 132.787 178.121 135.388L178.234 137.471L179.452 137.401C181.061 139.56 182.904 141.129 184.877 141.955C184.386 142.315 183.883 142.634 183.369 142.91ZM172.675 124.339C172.513 123.447 172.375 122.536 172.263 121.609C172.077 120.064 171.961 118.473 171.922 116.847H173.401C173.439 118.389 173.55 119.923 173.73 121.42C173.755 121.618 173.78 121.816 173.806 122.012L172.675 124.339ZM171.907 115.885C171.907 115.799 171.907 115.714 171.907 115.628C171.907 115.541 171.907 115.455 171.907 115.37V115.885ZM173.401 114.406H171.922C172.004 110.932 172.44 107.621 173.166 104.577L174.102 107.294C173.703 109.549 173.461 111.935 173.401 114.406ZM175.112 102.941L174.823 102.103L173.715 102.51C175.7 95.7652 179.168 90.5969 183.357 88.3463C183.866 88.6183 184.365 88.9335 184.852 89.2894C182.854 90.1143 181.009 91.6892 179.409 93.8441L178.234 93.7763L178.125 95.7872C176.916 97.8368 175.894 100.253 175.112 102.941Z" fill="#E1EAE9"/>
<path d="M228.395 118.406C225.515 118.406 220.471 118.406 220.471 118.406C220.471 118.406 220.471 117.695 220.471 114.198H233.015C232.13 116.697 230.388 118.406 228.395 118.406ZM233.632 110.536H220.451C220.397 108.754 220.245 107.12 220.038 105.653H233.632V110.472C233.632 110.493 233.632 110.515 233.632 110.536ZM232.988 101.991H219.354C218.636 98.941 217.836 97.2272 217.836 97.2272H225.945C229.083 97.2272 231.797 99.1935 232.988 101.991Z" fill="url(#paint12_linear)"/>
<path d="M236.279 105.653H218.128C218.12 105.603 218.113 105.554 218.105 105.505V103.822V101.991H219.354H232.987H236.279V105.653Z" fill="url(#paint13_linear)"/>
<path d="M218.128 105.653H218.105V105.505C218.113 105.554 218.12 105.603 218.128 105.653Z" fill="#D82928"/>
<path d="M236.28 114.198H219.879V110.536H236.28V114.198Z" fill="url(#paint14_linear)"/>
<path d="M179.812 94.5999C179.189 94.9345 173.709 101.074 173.709 114.959C173.709 128.846 179.157 136.898 179.822 137.254C184.352 137.254 188.722 128.544 189.683 120.601C189.866 119.093 189.962 117.53 189.962 115.926C189.962 105.866 185.594 94.5999 179.812 94.5999Z" fill="#35323D"/>
<path d="M194.827 116.847H194.813C194.823 116.442 194.827 116.035 194.827 115.626C194.827 115.217 194.823 114.811 194.813 114.406H194.827V116.847Z" fill="#CCD8D7"/>
<path d="M194.813 116.847H189.951C189.958 116.541 189.961 116.235 189.961 115.926C189.961 115.421 189.95 114.914 189.929 114.406H194.813C194.823 114.811 194.828 115.217 194.828 115.626C194.828 116.035 194.823 116.442 194.813 116.847Z" fill="#CCD8D7"/>
<path d="M189.951 116.847H183.582C183.617 116.451 183.635 116.046 183.636 115.633C183.636 115.215 183.617 114.806 183.581 114.406H189.929C189.95 114.914 189.962 115.421 189.962 115.926C189.962 116.235 189.958 116.541 189.951 116.847Z" fill="#CCD8D7"/>
<path d="M171.922 116.847H171.908V115.885C171.91 116.207 171.914 116.528 171.922 116.847ZM171.908 115.37V114.406H171.922C171.914 114.726 171.91 115.047 171.908 115.37Z" fill="#E1EAE9"/>
<path d="M173.743 116.847H173.401C173.391 116.441 173.386 116.034 173.386 115.628C173.386 115.218 173.391 114.811 173.401 114.406H173.712C173.71 114.589 173.709 114.773 173.709 114.959C173.709 115.602 173.721 116.231 173.743 116.847Z" fill="#CCD8D7"/>
<path d="M173.402 116.847H171.922C171.914 116.528 171.91 116.207 171.908 115.885V115.37C171.91 115.047 171.914 114.726 171.922 114.406H173.402C173.392 114.811 173.387 115.218 173.387 115.628C173.387 116.034 173.392 116.441 173.402 116.847Z" fill="#E1EAE9"/>
<path d="M174.82 116.847H173.743C173.721 116.231 173.709 115.602 173.709 114.959C173.709 114.773 173.71 114.589 173.712 114.406H174.822C174.786 114.806 174.768 115.215 174.768 115.633C174.768 116.046 174.786 116.452 174.82 116.847Z" fill="#CCD8D7"/>
<path d="M179.453 137.401C178.988 136.778 178.544 136.106 178.122 135.388L178.083 134.672C178.924 136.261 179.612 137.142 179.822 137.254C180.078 137.254 180.333 137.226 180.587 137.173L180.596 137.335L179.453 137.401Z" fill="#CCD8D7"/>
<path d="M178.235 137.471L178.121 135.388C178.544 136.106 178.988 136.777 179.452 137.401L178.235 137.471Z" fill="#E1EAE9"/>
<path d="M179.822 137.254C179.612 137.142 178.925 136.261 178.083 134.672L177.439 122.812C177.979 123.226 178.576 123.455 179.202 123.454C179.418 123.454 179.631 123.427 179.839 123.375L180.588 137.173C180.334 137.226 180.078 137.254 179.822 137.254Z" fill="#CCD8D7"/>
<path d="M178.074 96.7478L178.126 95.7873C178.533 95.0967 178.962 94.4475 179.41 93.8442L180.596 93.9127L180.556 94.662C180.311 94.6213 180.063 94.6 179.812 94.6C179.614 94.7066 178.924 95.401 178.074 96.7478Z" fill="#CCD8D7"/>
<path d="M178.125 95.7871L178.235 93.7762L179.409 93.8441C178.962 94.4474 178.532 95.0966 178.125 95.7871Z" fill="#E1EAE9"/>
<path d="M177.438 108.453L178.073 96.7479C178.923 95.4011 179.614 94.7066 179.812 94.6001C180.063 94.6001 180.311 94.6214 180.555 94.6621L179.838 107.89C179.63 107.837 179.418 107.81 179.202 107.81C178.575 107.81 177.978 108.04 177.438 108.453Z" fill="#CCD8D7"/>
<path d="M186.978 131.157L176.796 115.614L186.992 100.678L188.925 102.084L179.669 115.642L188.938 129.789L186.978 131.157Z" fill="#CCD8D7"/>
<path d="M173.068 126.253L172.011 125.706L172.676 124.339C172.794 124.987 172.924 125.625 173.068 126.253Z" fill="#E1EAE9"/>
<path d="M174.523 125.983C174.23 124.708 173.99 123.382 173.806 122.012L174.112 121.383C174.296 122.812 174.533 124.151 174.806 125.399L174.523 125.983Z" fill="#CCD8D7"/>
<path d="M174.125 126.801L173.068 126.253C172.924 125.626 172.794 124.987 172.676 124.339L173.807 122.012C173.991 123.382 174.231 124.708 174.523 125.983L174.125 126.801Z" fill="#E1EAE9"/>
<path d="M174.806 125.399C174.533 124.151 174.296 122.812 174.112 121.383L175.224 119.095C175.53 120.188 175.977 121.137 176.523 121.867L174.806 125.399Z" fill="#CCD8D7"/>
<path d="M173.167 104.577L172.595 102.922L173.716 102.51C173.518 103.184 173.334 103.874 173.167 104.577Z" fill="#E1EAE9"/>
<path d="M174.253 107.731L174.102 107.294C174.371 105.779 174.709 104.325 175.112 102.941L175.234 103.296C174.853 104.614 174.514 106.089 174.253 107.731Z" fill="#CCD8D7"/>
<path d="M174.102 107.294L173.166 104.577C173.334 103.874 173.517 103.184 173.716 102.51L174.823 102.103L175.112 102.941C174.71 104.325 174.371 105.78 174.102 107.294Z" fill="#E1EAE9"/>
<path d="M175.497 111.334L174.254 107.731C174.515 106.089 174.853 104.614 175.235 103.297L177.111 108.734C176.457 109.35 175.903 110.248 175.497 111.334Z" fill="#CCD8D7"/>
<path d="M179.838 123.375L179.654 119.975L181.315 122.511C180.864 122.943 180.366 123.241 179.838 123.375ZM177.439 122.812C177.111 122.562 176.804 122.243 176.523 121.867L177.301 120.269L177.439 122.812Z" fill="#CCD8D7"/>
<path d="M179.202 123.454C178.576 123.455 177.979 123.226 177.439 122.812L177.301 120.268L178.385 118.038L179.654 119.975L179.838 123.375C179.631 123.427 179.418 123.454 179.202 123.454Z" fill="#CCD8D7"/>
<path d="M182.744 120.336L180.459 116.847H183.582C183.569 116.99 183.554 117.132 183.537 117.273C183.401 118.404 183.126 119.444 182.744 120.336ZM183.581 114.406H180.514L182.799 111.058C183.196 112.031 183.471 113.17 183.581 114.406Z" fill="#CCD8D7"/>
<path d="M183.582 116.847H180.459L179.67 115.642L180.514 114.406H183.581C183.617 114.806 183.636 115.215 183.636 115.633C183.635 116.046 183.617 116.451 183.582 116.847Z" fill="#CCD8D7"/>
<path d="M175.224 119.095C175.063 118.524 174.942 117.914 174.864 117.274C174.848 117.133 174.833 116.99 174.82 116.847H176.317L175.224 119.095ZM176.555 114.406H174.821C174.921 113.285 175.157 112.243 175.496 111.334L176.555 114.406Z" fill="#CCD8D7"/>
<path d="M176.317 116.847H174.82C174.786 116.452 174.768 116.046 174.768 115.633C174.768 115.215 174.786 114.806 174.822 114.406H176.556L176.913 115.442L176.796 115.614L176.866 115.72L176.317 116.847Z" fill="#CCD8D7"/>
<path d="M179.645 111.441L179.837 107.89C180.404 108.033 180.936 108.366 181.413 108.851L179.645 111.441ZM177.38 109.517L177.11 108.734C177.216 108.632 177.326 108.539 177.438 108.453L177.38 109.517Z" fill="#CCD8D7"/>
<path d="M178.581 112.999L177.38 109.517L177.438 108.453C177.978 108.04 178.574 107.81 179.201 107.81C179.417 107.81 179.629 107.837 179.837 107.89L179.644 111.441L178.581 112.999Z" fill="#CCD8D7"/>
<path d="M181.314 122.511L179.653 119.975L178.384 118.038L179.516 115.709L178.581 112.999L179.644 111.441L181.412 108.851C181.959 109.406 182.431 110.161 182.799 111.058L180.514 114.406L179.669 115.642L180.459 116.847L182.744 120.336C182.362 121.229 181.875 121.973 181.314 122.511ZM176.865 115.72L176.796 115.614L176.913 115.442L176.949 115.547L176.865 115.72Z" fill="#CCD8D7"/>
<path d="M176.524 121.867C175.978 121.137 175.531 120.189 175.224 119.096L176.318 116.847H177.115L177.301 120.269L176.524 121.867Z" fill="#CCD8D7"/>
<path d="M177.114 116.847H176.317L176.865 115.72L177.07 116.033L177.114 116.847Z" fill="#CCD8D7"/>
<path d="M177.301 120.269L177.115 116.847H177.604L178.385 118.038L177.301 120.269Z" fill="#CCD8D7"/>
<path d="M177.604 116.847H177.114L177.07 116.033L177.604 116.847Z" fill="#CCD8D7"/>
<path d="M177.115 114.406H176.556L175.497 111.334C175.903 110.248 176.457 109.35 177.111 108.734L177.38 109.516L177.115 114.406Z" fill="#CCD8D7"/>
<path d="M176.913 115.442L176.555 114.406H177.114L177.07 115.211L176.913 115.442Z" fill="#CCD8D7"/>
<path d="M177.621 114.406H177.115L177.38 109.516L178.581 112.999L177.621 114.406Z" fill="#CCD8D7"/>
<path d="M177.071 115.211L177.115 114.406H177.621L177.071 115.211Z" fill="#CCD8D7"/>
<path d="M178.384 118.038L177.604 116.847L177.07 116.033L176.865 115.72L176.949 115.547L176.913 115.442L177.071 115.211L177.621 114.406L178.581 112.999L179.516 115.709L178.384 118.038Z" fill="#CCD8D7"/>
<path d="M355.377 86.8445C346.45 86.8451 339.212 99.6126 339.212 115.362C339.213 117.415 339.335 119.415 339.57 121.344C341.128 134.219 347.613 143.876 355.377 143.875C363.141 143.875 369.626 134.217 371.184 121.342C371.418 119.413 371.54 117.413 371.54 115.361C371.54 99.6106 364.303 86.8438 355.377 86.8445Z" fill="#8895A3"/>
<path d="M355.377 88.3701C347.28 88.3708 340.692 100.479 340.692 115.362C340.692 117.314 340.808 119.263 341.036 121.155C342.523 133.436 348.555 142.35 355.378 142.349C362.201 142.349 368.23 133.435 369.717 121.153C369.946 119.262 370.062 117.313 370.062 115.361C370.062 108.01 368.453 101.123 365.531 95.9666C362.753 91.0677 359.148 88.3701 355.377 88.3701ZM355.378 145.401C346.908 145.402 339.804 135.587 338.103 121.533C337.859 119.517 337.735 117.441 337.735 115.362C337.735 98.5163 345.484 85.3192 355.377 85.3186C360.241 85.3186 364.753 88.5523 368.082 94.4254C371.266 100.042 373.019 107.477 373.019 115.361C373.019 117.439 372.895 119.515 372.651 121.531C370.95 135.585 363.847 145.401 355.378 145.401Z" fill="#E1EAE9"/>
<path d="M352.183 141.689C350.211 140.865 348.367 139.294 346.759 137.135L347.902 137.07L347.893 136.907C350.158 136.428 352.334 133.881 354.011 130.472L354.285 130.892L356.244 129.524L355.142 127.842C356.033 125.465 356.683 122.862 356.989 120.336C357.136 119.118 357.227 117.864 357.257 116.582H362.12C362.081 118.207 361.965 119.798 361.778 121.342C360.661 130.566 357.016 138.137 352.183 141.689ZM345.428 135.123C343.896 132.523 342.656 129.327 341.829 125.717L342.113 125.133C343.02 129.273 344.327 132.404 345.389 134.407L345.428 135.123Z" fill="#CCD8D7"/>
<path d="M350.675 142.645C345.979 140.129 342.187 133.948 340.373 125.987L341.431 126.535L341.829 125.717C342.655 129.327 343.896 132.523 345.427 135.123L345.54 137.206L346.758 137.135C348.367 139.294 350.21 140.864 352.183 141.689C351.692 142.05 351.189 142.37 350.675 142.645Z" fill="#E1EAE9"/>
<path d="M341.112 121.747C341.086 121.55 341.061 121.353 341.036 121.155C340.855 119.657 340.745 118.124 340.707 116.581H341.048C341.106 118.179 341.235 119.693 341.418 121.118L341.112 121.747Z" fill="#CCD8D7"/>
<path d="M339.981 124.073C339.819 123.182 339.681 122.271 339.569 121.344C339.383 119.799 339.266 118.208 339.227 116.581H340.707C340.745 118.124 340.855 119.657 341.036 121.155C341.06 121.353 341.085 121.55 341.112 121.747L339.981 124.073ZM339.213 115.62C339.213 115.534 339.212 115.448 339.212 115.362C339.212 115.277 339.213 115.191 339.213 115.104V115.62Z" fill="#E1EAE9"/>
<path d="M362.119 114.14H357.234C357.076 110.411 356.348 106.602 355.197 103.334L356.231 101.819L354.297 100.413L354.112 100.685C352.48 97.2472 350.316 94.8112 347.861 94.3972L347.902 93.6479L346.715 93.5787C348.315 91.4244 350.16 89.8489 352.157 89.0247C357.811 93.1601 361.847 102.787 362.119 114.14ZM342.54 103.032L342.417 102.676C343.2 99.9886 344.222 97.5714 345.431 95.5218L345.379 96.4823C344.478 97.9093 343.4 100.067 342.54 103.032Z" fill="#CCD8D7"/>
<path d="M342.418 102.676L342.129 101.838L341.021 102.245C343.006 95.4998 346.474 90.3314 350.663 88.0809C351.172 88.3529 351.671 88.6687 352.157 89.0247C350.16 89.8489 348.315 91.4244 346.715 93.5787L345.541 93.5109L345.431 95.5217C344.222 97.5714 343.2 99.9886 342.418 102.676Z" fill="#E1EAE9"/>
<path d="M341.018 114.14H340.707C340.768 111.67 341.009 109.284 341.409 107.028L341.559 107.466C341.245 109.445 341.044 111.668 341.018 114.14Z" fill="#CCD8D7"/>
<path d="M340.707 114.14H339.228C339.311 110.668 339.746 107.356 340.472 104.313L341.408 107.028C341.009 109.284 340.768 111.67 340.707 114.14Z" fill="#E1EAE9"/>
<path d="M347.118 94.3344C346.494 94.669 341.015 100.808 341.015 114.695C341.015 128.58 346.462 136.633 347.128 136.989C351.658 136.989 356.027 128.279 356.989 120.336C357.172 118.828 357.267 117.264 357.267 115.66C357.267 105.601 352.899 94.3344 347.118 94.3344Z" fill="#35323D"/>
<path d="M362.133 116.582H362.119C362.128 116.177 362.133 115.77 362.133 115.361C362.133 114.952 362.128 114.545 362.119 114.14H362.133V116.582Z" fill="#CCD8D7"/>
<path d="M362.119 116.582H357.256C357.263 116.276 357.267 115.969 357.267 115.66C357.267 115.157 357.256 114.649 357.234 114.14H362.119C362.128 114.545 362.133 114.952 362.133 115.361C362.133 115.77 362.128 116.177 362.119 116.582Z" fill="#CCD8D7"/>
<path d="M357.257 116.582H350.888C350.923 116.186 350.941 115.781 350.942 115.368C350.942 114.95 350.923 114.54 350.887 114.14H357.235C357.256 114.649 357.267 115.157 357.267 115.66C357.267 115.969 357.264 116.276 357.257 116.582Z" fill="#CCD8D7"/>
<path d="M339.228 116.582H339.213V115.62C339.215 115.942 339.22 116.262 339.228 116.582ZM339.213 115.104V114.14H339.228C339.22 114.46 339.215 114.782 339.213 115.104Z" fill="#E1EAE9"/>
<path d="M341.048 116.582H340.707C340.697 116.176 340.692 115.77 340.692 115.363C340.692 114.953 340.697 114.545 340.707 114.14H341.018C341.016 114.324 341.015 114.508 341.015 114.695C341.015 115.336 341.027 115.965 341.048 116.582Z" fill="#CCD8D7"/>
<path d="M340.707 116.582H339.228C339.22 116.262 339.215 115.942 339.213 115.62V115.104C339.215 114.782 339.22 114.46 339.228 114.14H340.707C340.697 114.545 340.692 114.953 340.692 115.363C340.692 115.77 340.697 116.176 340.707 116.582Z" fill="#E1EAE9"/>
<path d="M342.126 116.582H341.048C341.027 115.965 341.015 115.336 341.015 114.695C341.015 114.508 341.016 114.324 341.018 114.14H342.127C342.092 114.54 342.074 114.95 342.074 115.368C342.074 115.781 342.091 116.186 342.126 116.582Z" fill="#CCD8D7"/>
<path d="M346.759 137.135C346.294 136.513 345.85 135.84 345.427 135.122L345.389 134.407C346.23 135.996 346.918 136.876 347.128 136.989C347.383 136.989 347.639 136.961 347.893 136.907L347.902 137.069L346.759 137.135Z" fill="#CCD8D7"/>
<path d="M345.541 137.206L345.427 135.122C345.85 135.84 346.294 136.512 346.758 137.135L345.541 137.206Z" fill="#E1EAE9"/>
<path d="M347.127 136.989C346.917 136.876 346.23 135.996 345.388 134.407L344.744 122.547C345.284 122.96 345.88 123.19 346.506 123.19C346.723 123.19 346.936 123.162 347.144 123.109L347.893 136.907C347.639 136.961 347.383 136.989 347.127 136.989Z" fill="#CCD8D7"/>
<path d="M345.379 96.4822L345.431 95.5216C345.839 94.8311 346.267 94.1819 346.716 93.5786L347.902 93.6477L347.861 94.397C347.617 94.3557 347.368 94.3343 347.118 94.3343C346.92 94.4409 346.229 95.136 345.379 96.4822Z" fill="#CCD8D7"/>
<path d="M345.431 95.5217L345.54 93.5108L346.715 93.5787C346.267 94.182 345.838 94.8312 345.431 95.5217Z" fill="#E1EAE9"/>
<path d="M344.744 108.188L345.379 96.4822C346.229 95.1361 346.919 94.441 347.118 94.3344C347.368 94.3344 347.617 94.3557 347.861 94.3971L347.144 107.624C346.936 107.572 346.724 107.544 346.507 107.544C345.881 107.545 345.284 107.774 344.744 108.188Z" fill="#CCD8D7"/>
<path d="M354.284 130.891L344.102 115.349L354.297 100.413L356.231 101.819L346.975 115.377L356.244 129.524L354.284 130.891Z" fill="#CCD8D7"/>
<path d="M340.374 125.987L339.317 125.441L339.982 124.073C340.1 124.722 340.23 125.36 340.374 125.987Z" fill="#E1EAE9"/>
<path d="M341.829 125.717C341.537 124.443 341.296 123.117 341.112 121.747L341.418 121.118C341.602 122.546 341.839 123.885 342.112 125.133L341.829 125.717Z" fill="#CCD8D7"/>
<path d="M341.431 126.535L340.374 125.987C340.23 125.36 340.1 124.722 339.982 124.073L341.113 121.747C341.297 123.117 341.537 124.443 341.829 125.717L341.431 126.535Z" fill="#E1EAE9"/>
<path d="M342.112 125.133C341.839 123.885 341.602 122.546 341.418 121.118L342.53 118.831C342.837 119.923 343.283 120.872 343.829 121.602L342.112 125.133Z" fill="#CCD8D7"/>
<path d="M340.471 104.313L339.9 102.657L341.021 102.245C340.823 102.919 340.64 103.609 340.471 104.313Z" fill="#E1EAE9"/>
<path d="M341.559 107.466L341.408 107.028C341.676 105.514 342.015 104.06 342.418 102.676L342.54 103.032C342.159 104.348 341.82 105.824 341.559 107.466Z" fill="#CCD8D7"/>
<path d="M341.408 107.028L340.471 104.313C340.64 103.609 340.823 102.919 341.021 102.245L342.128 101.838L342.417 102.676C342.015 104.06 341.676 105.514 341.408 107.028Z" fill="#E1EAE9"/>
<path d="M342.802 111.069L341.56 107.466C341.821 105.824 342.159 104.348 342.541 103.032L344.416 108.468C343.763 109.085 343.209 109.983 342.802 111.069Z" fill="#CCD8D7"/>
<path d="M347.144 123.109L346.959 119.71L348.62 122.245C348.17 122.677 347.672 122.975 347.144 123.109ZM344.745 122.547C344.417 122.296 344.11 121.978 343.829 121.602L344.606 120.003L344.745 122.547Z" fill="#CCD8D7"/>
<path d="M346.507 123.19C345.88 123.19 345.284 122.96 344.744 122.547L344.606 120.003L345.69 117.773L346.959 119.71L347.144 123.11C346.936 123.163 346.723 123.19 346.507 123.19Z" fill="#CCD8D7"/>
<path d="M350.05 120.07L347.765 116.581H350.887C350.874 116.725 350.86 116.868 350.842 117.008C350.706 118.138 350.431 119.178 350.05 120.07ZM350.887 114.14H347.82L350.105 110.794C350.502 111.765 350.777 112.905 350.887 114.14Z" fill="#CCD8D7"/>
<path d="M350.888 116.582H347.765L346.976 115.377L347.82 114.14H350.887C350.923 114.54 350.941 114.95 350.941 115.368C350.941 115.781 350.923 116.186 350.888 116.582Z" fill="#CCD8D7"/>
<path d="M342.53 118.831C342.369 118.259 342.248 117.648 342.17 117.008C342.154 116.867 342.138 116.725 342.126 116.581H343.623L342.53 118.831ZM343.861 114.14H342.127C342.227 113.019 342.463 111.978 342.802 111.069L343.861 114.14Z" fill="#CCD8D7"/>
<path d="M343.623 116.582H342.126C342.091 116.186 342.074 115.781 342.074 115.368C342.074 114.95 342.092 114.54 342.128 114.14H343.862L344.219 115.177L344.102 115.349L344.171 115.454L343.623 116.582Z" fill="#CCD8D7"/>
<path d="M346.95 111.176L347.143 107.625C347.709 107.768 348.242 108.101 348.718 108.586L346.95 111.176ZM344.685 109.252L344.415 108.468C344.522 108.367 344.632 108.274 344.744 108.188L344.685 109.252Z" fill="#CCD8D7"/>
<path d="M345.886 112.733L344.686 109.252L344.744 108.188C345.284 107.774 345.88 107.545 346.507 107.544C346.723 107.544 346.935 107.572 347.143 107.624L346.95 111.176L345.886 112.733Z" fill="#CCD8D7"/>
<path d="M348.62 122.245L346.959 119.71L345.69 117.773L346.822 115.444L345.886 112.733L346.95 111.176L348.718 108.586C349.265 109.14 349.737 109.896 350.104 110.793L347.82 114.14L346.975 115.377L347.765 116.581L350.05 120.07C349.668 120.964 349.181 121.708 348.62 122.245ZM344.171 115.454L344.102 115.349L344.219 115.177L344.255 115.281L344.171 115.454Z" fill="#CCD8D7"/>
<path d="M343.828 121.603C343.283 120.872 342.836 119.923 342.529 118.831L343.623 116.581H344.42L344.606 120.003L343.828 121.603Z" fill="#CCD8D7"/>
<path d="M344.42 116.582H343.623L344.171 115.454L344.376 115.768L344.42 116.582Z" fill="#CCD8D7"/>
<path d="M344.606 120.003L344.42 116.582H344.91L345.69 117.773L344.606 120.003Z" fill="#CCD8D7"/>
<path d="M344.909 116.582H344.42L344.375 115.768L344.909 116.582Z" fill="#CCD8D7"/>
<path d="M344.42 114.14H343.861L342.802 111.069C343.208 109.983 343.762 109.085 344.415 108.468L344.685 109.252L344.42 114.14Z" fill="#CCD8D7"/>
<path d="M344.219 115.177L343.861 114.14H344.42L344.376 114.946L344.219 115.177Z" fill="#CCD8D7"/>
<path d="M344.927 114.14H344.42L344.686 109.252L345.887 112.733L344.927 114.14Z" fill="#CCD8D7"/>
<path d="M344.376 114.946L344.42 114.14H344.927L344.376 114.946Z" fill="#CCD8D7"/>
<path d="M345.69 117.773L344.91 116.581L344.376 115.767L344.171 115.454L344.255 115.281L344.219 115.177L344.377 114.946L344.927 114.14L345.887 112.733L346.822 115.444L345.69 117.773Z" fill="#CCD8D7"/>
<path d="M182.667 121.013C182.158 121.013 180.995 119.587 180.678 116.972C180.625 116.536 180.598 116.086 180.598 115.633C180.599 112.285 182.036 110.252 182.668 110.252C182.861 110.252 183.311 110.54 183.762 111.334C184.381 112.427 184.736 113.994 184.736 115.633C184.736 116.085 184.709 116.536 184.657 116.97C184.34 119.587 183.176 121.013 182.667 121.013Z" fill="#E2EFEF"/>
<path d="M349.972 120.749C349.463 120.749 348.299 119.322 347.983 116.706C347.93 116.271 347.903 115.82 347.903 115.368C347.904 112.02 349.341 109.986 349.973 109.986C350.166 109.986 350.616 110.274 351.067 111.069C351.686 112.162 352.041 113.728 352.041 115.367C352.041 115.82 352.014 116.27 351.961 116.705C351.645 119.322 350.481 120.749 349.972 120.749Z" fill="#E2EFEF"/>
<path d="M246.533 53.3765C247.124 54.7214 249.542 56.3622 255.159 57.5107C260.776 58.6586 272.159 55.9946 272.159 55.9946C272.159 55.9946 266.466 52.5555 251.02 52.5555L246.533 53.3765Z" fill="#902B34"/>
<path d="M247.66 49.0427L256.508 46.4053L258.119 48.2689C258.119 48.2689 252.442 53.3371 251.242 54.6155C248.877 57.1328 242.467 50.9354 247.66 49.0427Z" fill="#D82928"/>
<path d="M255.652 48.7146C255.652 48.7146 253.582 50.6228 251.901 51.2106C250.219 51.7984 247.768 49.8088 248.76 48.7146L247.66 49.0427C242.467 50.9354 248.877 57.1328 251.242 54.6155C252.226 53.5677 256.215 49.9762 257.621 48.7146H255.652Z" fill="#C2252D"/>
<path d="M278.515 45.7948C278.515 47.8089 276.918 49.4568 274.967 49.4568H255.6C253.648 49.4568 252.052 47.8089 252.052 45.7948V42.0386C252.052 40.0244 253.648 38.3766 255.6 38.3766H274.967C276.918 38.3766 278.515 40.0244 278.515 42.0386V45.7948Z" fill="#C2252D"/>
<path d="M270.976 41.1698C270.976 42.0354 270.178 42.7434 269.202 42.7434H255.008C254.032 42.7434 253.234 42.0354 253.234 41.1698C253.234 40.3049 254.032 39.5969 255.008 39.5969H269.202C270.178 39.5969 270.976 40.3049 270.976 41.1698Z" fill="#F03E39"/>
<path d="M8.40479 86.65L17.6907 72.1546C19.9781 73.785 22.1034 75.7145 24.0271 77.655L15.8708 86.7391C13.3788 86.7501 10.8311 86.7269 8.40479 86.65Z" fill="white"/>
<defs>
<linearGradient id="paint0_linear" x1="165.139" y1="-25.5477" x2="172.428" y2="39.8687" gradientUnits="userSpaceOnUse">
<stop stop-color="white"/>
<stop offset="1" stop-color="#8BBEB3"/>
</linearGradient>
<linearGradient id="paint1_linear" x1="165.139" y1="-25.5478" x2="172.429" y2="39.8686" gradientUnits="userSpaceOnUse">
<stop stop-color="white"/>
<stop offset="1" stop-color="#8E9497"/>
</linearGradient>
<linearGradient id="paint2_linear" x1="165.139" y1="-25.5477" x2="172.428" y2="39.8687" gradientUnits="userSpaceOnUse">
<stop stop-color="white"/>
<stop offset="1" stop-color="#738D8C"/>
</linearGradient>
<linearGradient id="paint3_linear" x1="165.139" y1="-25.548" x2="172.428" y2="39.8685" gradientUnits="userSpaceOnUse">
<stop stop-color="white"/>
<stop offset="1" stop-color="#738D8C"/>
</linearGradient>
<linearGradient id="paint4_linear" x1="165.139" y1="-25.5478" x2="172.428" y2="39.8687" gradientUnits="userSpaceOnUse">
<stop stop-color="#A2CDC2"/>
<stop offset="1" stop-color="#77A89F"/>
</linearGradient>
<linearGradient id="paint5_linear" x1="268.973" y1="-20.449" x2="282.474" y2="36.6258" gradientUnits="userSpaceOnUse">
<stop stop-color="#DDE2E0"/>
<stop offset="1" stop-color="#57696D"/>
</linearGradient>
<linearGradient id="paint6_linear" x1="268.973" y1="-20.4491" x2="282.474" y2="36.6258" gradientUnits="userSpaceOnUse">
<stop stop-color="#E4EDEA"/>
<stop offset="1" stop-color="#78A29C"/>
</linearGradient>
<linearGradient id="paint7_linear" x1="361.105" y1="83.8919" x2="327.487" y2="112.538" gradientUnits="userSpaceOnUse">
<stop stop-color="#F03E39"/>
<stop offset="0.790077" stop-color="#D82927"/>
<stop offset="1" stop-color="#D82927"/>
</linearGradient>
<linearGradient id="paint8_linear" x1="262.115" y1="65.0382" x2="264.357" y2="114.407" gradientUnits="userSpaceOnUse">
<stop stop-color="#B92424"/>
<stop offset="0.784297" stop-color="#D42927"/>
<stop offset="1" stop-color="#D42927"/>
</linearGradient>
<linearGradient id="paint9_linear" x1="262.119" y1="65.0378" x2="264.361" y2="114.408" gradientUnits="userSpaceOnUse">
<stop stop-color="#342330"/>
<stop offset="0.784297" stop-color="#3B2A3C"/>
<stop offset="1" stop-color="#3B2A3C"/>
</linearGradient>
<linearGradient id="paint10_linear" x1="262.112" y1="65.0378" x2="264.354" y2="114.407" gradientUnits="userSpaceOnUse">
<stop stop-color="#B92424"/>
<stop offset="0.784297" stop-color="#D42927"/>
<stop offset="1" stop-color="#D42927"/>
</linearGradient>
<linearGradient id="paint11_linear" x1="262.115" y1="65.0382" x2="264.358" y2="114.407" gradientUnits="userSpaceOnUse">
<stop stop-color="#9E2228"/>
<stop offset="0.784297" stop-color="#B3272C"/>
<stop offset="1" stop-color="#B3272C"/>
</linearGradient>
<linearGradient id="paint12_linear" x1="262.115" y1="65.0382" x2="264.358" y2="114.407" gradientUnits="userSpaceOnUse">
<stop stop-color="#28231F"/>
<stop offset="0.784297" stop-color="#282425"/>
<stop offset="1" stop-color="#282425"/>
</linearGradient>
<linearGradient id="paint13_linear" x1="262.115" y1="65.0382" x2="264.358" y2="114.407" gradientUnits="userSpaceOnUse">
<stop stop-color="#B92424"/>
<stop offset="0.784297" stop-color="#D42927"/>
<stop offset="1" stop-color="#D42927"/>
</linearGradient>
<linearGradient id="paint14_linear" x1="262.115" y1="65.038" x2="264.358" y2="114.407" gradientUnits="userSpaceOnUse">
<stop stop-color="#B92424"/>
<stop offset="0.784297" stop-color="#D42927"/>
<stop offset="1" stop-color="#D42927"/>
</linearGradient>
</defs>
</svg>
