<svg width="202" height="202" viewBox="-3 24 207 210" fill="none" xmlns="http://www.w3.org/2000/svg">
  <path d="M101 31L114.588 46.2094L132.211 35.9433L140.434 54.6072L160.366 50.2893L162.419 70.5807L182.711 72.6337L178.393 92.5664L197.057 100.789L186.791 118.412L202 132L186.791 145.588L197.057 163.211L178.393 171.434L182.711 191.366L162.419 193.419L160.366 213.711L140.434 209.393L132.211 228.057L114.588 217.791L101 233L87.4121 217.791L69.7893 228.057L61.5664 209.393L41.6337 213.711L39.5807 193.419L19.2893 191.366L23.6072 171.434L4.94329 163.211L15.2094 145.588L0 132L15.2094 118.412L4.94329 100.789L23.6072 92.5664L19.2893 72.6337L39.5807 70.5807L41.6337 50.2893L61.5664 54.6072L69.7893 35.9433L87.4121 46.2094L101 31Z" fill="#CACACA"/>
  <path d="M56.5389 182.547C58.243 168.182 70.1405 162.456 75.8762 161.388L86.4887 167.102L59.1203 219.555C53.4688 196.551 58.2543 183.206 61.3535 179.409C58.6083 180.272 56.5389 182.547 56.5389 182.547Z" fill="#FAD74A"/>
  <path d="M65.25 177.91C69.6811 167.793 75.9978 163.627 78.6022 162.809L86.6507 167.008L68.1879 202.393C62.1258 193.44 65.775 181.303 68.3574 176.353C66.7404 176.745 66.9455 177.029 65.25 177.91Z" fill="white"/>
  <path d="M90.8578 200.452C101.665 190.837 99.5563 177.802 97.1512 172.487L86.3938 167.051L59.0255 219.504C81.127 210.981 89.3355 199.422 90.677 194.708C91.5397 197.453 90.8578 200.452 90.8578 200.452Z" fill="#E19905"/>
  <path d="M89.7732 190.705C95.5365 181.284 95.3403 173.719 94.5219 171.115L86.4733 166.916L68.0106 202.301C78.8223 202.151 86.69 192.215 89.2724 187.266C89.8757 188.817 89.5258 188.811 89.7732 190.705Z" fill="#FBEC86"/>
  <rect x="74.5322" y="152.564" width="34.4341" height="9.07809" transform="rotate(27.554 74.5322 152.564)" fill="#0B3041"/>
  <path d="M111.347 169.302L134.896 143.455C157.11 174.642 127.944 205.502 124.554 207.264C126.528 190.216 116.572 174.853 111.347 169.302Z" fill="#FB8B5F"/>
  <path d="M70.0455 147.751L77.7749 113.651C39.4873 113.27 30.8587 154.846 31.3534 158.635C44.2071 147.263 62.5038 146.641 70.0455 147.751Z" fill="#D0241C"/>
  <path d="M106.509 175.428C173.264 112.453 167.66 51.7997 160.052 26.1156C90.4317 52.3568 70.0006 123.365 68.4876 155.59C72.1357 155.139 81.5691 155.353 90.1171 159.813C98.665 164.273 104.607 172.081 106.509 175.428Z" fill="#0286A6"/>
  <path d="M68.213 155.446C81.6813 64.6687 134.637 34.5693 160.055 26.1171C178.357 98.233 131.801 155.61 106.235 175.285C104.517 172.035 98.9455 164.42 90.3975 159.96C81.8496 155.5 72.0462 155.092 68.213 155.446Z" fill="#0286A6"/>
  <mask id="mask0" style="mask-type:alpha" maskUnits="userSpaceOnUse" x="68" y="26" width="97" height="150">
    <path d="M106.509 175.428C173.264 112.453 167.66 51.7997 160.052 26.1156C90.4317 52.3568 70.0006 123.365 68.4876 155.59C72.1357 155.139 81.5691 155.353 90.1171 159.813C98.665 164.273 104.607 172.081 106.509 175.428Z" fill="#0286A6"/>
    <path d="M68.213 155.446C81.6813 64.6687 134.637 34.5693 160.055 26.1171C178.357 98.233 131.801 155.61 106.235 175.285C104.517 172.035 98.9455 164.42 90.3975 159.96C81.8496 155.5 72.0462 155.092 68.213 155.446Z" fill="#0286A6"/>
  </mask>
  <g mask="url(#mask0)">
    <path d="M115.809 48.7556L159.219 20.0316L172.619 38.675L164.238 74.0242L140.063 59.1153L122.053 52.0137L115.809 48.7556Z" fill="url(#paint0_linear)"/>
    <path d="M143.011 58.5361C130.523 52.0198 120.206 49.4615 120.206 49.4615L117.503 51.9351C117.503 51.9351 128.93 55.0727 141.419 61.5889C153.908 68.1052 163.018 75.6833 163.018 75.6833L163.5 72.0512C163.5 72.0512 155.5 65.0524 143.011 58.5361Z" fill="#17606A"/>
    <path opacity="0.2" d="M95.2622 164.264C134.779 116.948 154.879 52.2812 160 26L166.869 27.0243L178.343 96.39L127.251 184.838C100.122 197.695 55.7452 211.579 95.2622 164.264Z" fill="white"/>
    <path opacity="0.2" d="M103.468 171.546C161.394 115.476 165.355 51.0385 160 26L177.669 42.1924L155.488 155.082C114.012 183.933 45.542 227.616 103.468 171.546Z" fill="white"/>
    <path opacity="0.15" d="M76.4748 157.639C84.0106 87.7051 125.494 44.629 145.294 31.8326L107.966 0.174812L25.3786 136.805C39.2707 172.888 68.9389 227.572 76.4748 157.639Z" fill="#222222"/>
    <circle opacity="0.02" cx="59.6601" cy="152.859" r="87.3375" transform="rotate(-2.44603 59.6601 152.859)" fill="white"/>
  </g>
  <path d="M77.2701 184.535L111.444 119.038C112.241 121.572 111.184 142.206 102.858 158.164C96.197 170.931 83.024 181.064 77.2701 184.535Z" fill="#FB8B5F"/>
  <path d="M77.2701 184.535L111.444 119.038C108.91 119.834 92.5898 132.504 84.2635 148.462C77.6024 161.229 76.8258 177.83 77.2701 184.535Z" fill="#CF231C"/>
  <circle cx="125.178" cy="90.0125" r="20.6605" transform="rotate(27.554 125.178 90.0125)" fill="#284F54"/>
  <circle cx="126.868" cy="89.4808" r="19.7214" transform="rotate(27.554 126.868 89.4808)" fill="#E55E5A"/>
  <circle cx="126.868" cy="89.4808" r="19.7214" transform="rotate(27.554 126.868 89.4808)" fill="url(#paint1_linear)"/>
  <circle cx="126.868" cy="89.4808" r="15.0258" transform="rotate(27.554 126.868 89.4808)" fill="#680500"/>
  <mask id="mask1" style="mask-type:alpha" maskUnits="userSpaceOnUse" x="111" y="74" width="31" height="31">
    <circle cx="126.868" cy="89.4808" r="15.0258" transform="rotate(27.554 126.868 89.4808)" fill="#671427"/>
  </mask>
  <g mask="url(#mask1)">
    <circle opacity="0.15" cx="96.9556" cy="102.826" r="29.7386" transform="rotate(27.554 96.9556 102.826)" fill="white"/>
  </g>
  <defs>
    <linearGradient id="paint0_linear" x1="124.897" y1="51.6884" x2="162.183" y2="40.696" gradientUnits="userSpaceOnUse">
      <stop stop-color="#D7271D"/>
      <stop offset="1" stop-color="#FB895D"/>
    </linearGradient>
    <linearGradient id="paint1_linear" x1="113.944" y1="107.813" x2="137.621" y2="88.7618" gradientUnits="userSpaceOnUse">
      <stop stop-color="#D7271D"/>
      <stop offset="1" stop-color="#FB895D"/>
    </linearGradient>
  </defs>
</svg>
