<svg version="1.1" viewBox="0 0 906.19 903.48" xml:space="preserve" xmlns="http://www.w3.org/2000/svg"><defs><clipPath id="clipPath34"><path d="M 0,677.613 H 679.641 V 0 H 0 Z"/></clipPath></defs><g transform="matrix(1.3333 0 0 -1.3333 0 903.48)"><g transform="translate(285.31 677.61)"><path d="m0 0-39.24-59.248-67.117 23.356-17.876-68.78-71.064 0.298 5.424-70.857-67.309-22.792 28.137-65.257-56.261-43.414 47.802-52.584-39.117-59.329 62.286-34.214-17.734-68.816 70.021-12.136 5.572-70.846 70.167 11.258 28.273-65.198 62.711 33.432 47.91-52.486 48.457 51.982 62.358-34.084 28.953 64.899 70.046-11.991 6.311 70.784 70.144 11.403-17.014 68.997 62.641 33.562-38.495 59.735 48.348 52.082-55.805 43.998 28.819 64.959-67.068 23.496 6.165 70.795-71.063 0.445-17.157 68.962-67.357-22.653-38.619 59.656-56.353-43.297z" fill="#c1c1c1"/></g><g transform="translate(394.63 517.75)"><path d="m0 0-40.428-179.41-108.72-231.58 44.498-54.272 47.911-52.485 48.457 51.981 62.357-34.084 28.954 64.899 70.045-11.991 6.312 70.784 70.143 11.403-17.013 68.997 62.64 33.562-38.494 59.735 48.348 52.082-55.806 43.998-115.2 90.6-81.665 64.687z" fill="#9b9b9b"/></g><g clip-path="url(#clipPath34)"><g transform="translate(320.37 199.36)"><path d="m0 0c-3.743 6.863-14.889 17.947-30.772 24.048-15.882 6.102-31.582 5.328-38.957 2.734s-18.975-3.022-27.896-25.942c-8.922-22.921-5.743-40.941 6.011-56.745 11.748-15.805 13.991-35.469 16.185-36.312 2.195-0.843 17.025 12.263 36.335 16.139 19.307 3.874 33.732 15.132 42.448 38.132 8.717 23 0.389 31.082-3.354 37.946" fill="#ff452a"/></g><g transform="translate(301.23 209.91)"><path d="m0 0-29.298 11.252s-20.681-4.864-26.387-23.886c-5.707-19.022 13.749-36.101 16.386-45.919 8.528 5.53 34.415 5.193 42.911 23.143 8.495 17.953-3.612 35.41-3.612 35.41" fill="#ffaa0e"/></g><g transform="translate(293.85 194.34)"><path d="m0 0c-4.958-12.906-22.407-18.211-22.407-18.211s-9.413 15.622-4.457 28.529c4.96 12.909 12.604 14.848 20.023 11.999 7.417-2.849 11.798-9.409 6.841-22.317" fill="#ffd30e"/></g><g transform="translate(249.53 238.86)"><path d="m0 0-1.137 0.109s-1.108-7.875-0.069-8.484c1.014-0.596 26.392-13.06 37.346-17.313l3.951 10.291z" fill="#7c8890"/></g><g transform="translate(330.28 207.84)"><path d="m0 0-40.666 15.621-3.951-10.291c0.095-0.036 0.194-0.077 0.285-0.112 10.798-4.145 37.884-11.789 39.046-12.025 1.184-0.244 5.63 6.345 5.63 6.345z" fill="#677178"/></g><g transform="translate(297.43 243.79)"><path d="m0 0-9.333-24.295c0.096-0.034 0.192-0.076 0.287-0.111 15.573-5.982 37.492-12.009 39.965-12.687 2.717-0.744 5.492 1.793 7.083 3.884 1.589 2.091 9.991 14.776 9.991 14.776z" fill="#969b9e"/></g><g transform="translate(249.44 262.23)"><path d="m0 0s-2.252-15.047-2.469-17.664c-0.218-2.618 0.146-6.361 2.662-7.627 2.276-1.147 22.924-11.44 38.469-17.438l9.332 24.294z" fill="#adb2b6"/></g><g transform="translate(255.9 370.38)"><path d="m0 0s-67.188-27.305-75.519-49.838c-8.327-22.535-21.482-70.433-13.709-76.107 7.773-5.673 50.566 34.307 82.308 29.84 31.742-4.465 6.92 96.105 6.92 96.105" fill="#ee3f01"/></g><g transform="translate(255.9 370.38)"><path d="m0 0s-9.868-4.011-22.503-10.222c-1.951-11.65-2.768-24.93 0.64-34.921 7.636-22.384-2.449-33.778-10.741-38.717-6.285-3.742-43.444-19.965-58.81-36.75 0.301-2.601 0.997-4.467 2.186-5.335 7.773-5.673 50.566 34.307 82.308 29.84 31.742-4.465 6.92 96.105 6.92 96.105" fill="#cd3701"/></g><g transform="translate(413.02 310.02)"><path d="m0 0s31.636-65.259 22.737-87.576c-8.899-22.315-31.191-66.706-40.761-65.715-9.574 0.988-14.601 59.335-41.168 77.267-26.572 17.93 59.192 76.024 59.192 76.024" fill="#d33801"/></g><g transform="translate(413.02 310.02)"><path d="m0 0s4.646-9.584 9.874-22.658c-6.351-9.959-14.631-20.371-23.852-25.512-20.658-11.518-20.794-26.731-17.938-35.952 2.161-6.987 18.908-43.915 19.084-66.67-1.966-1.731-3.73-2.652-5.192-2.499-9.574 0.988-14.601 59.335-41.168 77.267-26.572 17.93 59.192 76.024 59.192 76.024" fill="#b23001"/></g><g transform="translate(399.86 568.06)"><path d="m0 0s-38.917-12.624-87.651-71.029c-48.735-58.408-69.656-111.64-67.183-157.19 2.473-45.55 3.886-60.783 2.79-67.627-1.099-6.847-7.054-16.429 19.674-26.695 11.933-4.584 26.72-10.101 26.72-10.101l128.21 333.8s-9.981 4.647-22.561-1.159" fill="#e5ecf2"/></g><g transform="translate(455.97 441.82)"><path d="m0 0c2.895 76.01-17.566 111.44-17.566 111.44-5.46 12.735-15.985 15.965-15.985 15.965l-128.21-333.8s14.679-5.801 26.61-10.384c26.729-10.266 28.72 0.839 32.486 6.661 3.769 5.819 15.019 16.19 47.348 48.37 32.33 32.186 52.42 85.733 55.317 161.75" fill="#c6ccd1"/></g><g transform="translate(422.42 569.22)"><path d="m0 0s-9.98 4.646-22.561-1.159c0 0-21.333-6.924-52.182-34.217 18.991-0.197 38.237-3.719 56.965-10.912z" fill="#ee3f01"/></g><g transform="translate(438.41 553.26)"><path d="M 0,0 C -5.46,12.735 -15.984,15.964 -15.984,15.964 L -33.763,-30.323 C -15.034,-37.517 1.62,-47.784 15.861,-60.351 11.214,-19.424 0,0 0,0" fill="#cd3601"/></g><g transform="translate(306.8 437.45)"><path d="m0 0c-12.016-31.287 3.607-66.392 34.893-78.409l43.517 113.3c-31.286 12.018-66.392-3.604-78.41-34.891" fill="#c6ccd1"/></g><g transform="translate(385.21 472.34)"><path d="m0 0-43.518-113.3c31.289-12.016 66.393 3.603 78.409 34.889 12.019 31.29-3.604 66.395-34.891 78.411" fill="#adb2b6"/></g><g transform="translate(421.67 398)"><path d="m0 0c-12.019-31.287-47.124-46.907-78.412-34.892-31.287 12.019-46.909 47.122-34.89 78.41 12.015 31.288 47.121 46.909 78.408 34.892 31.289-12.017 46.908-47.124 34.894-78.41" fill="#494f58"/></g><g transform="translate(404.61 404.55)"><path d="m0 0c-8.398-21.866-32.935-32.786-54.802-24.387s-32.785 32.935-24.386 54.804c8.398 21.866 32.935 32.784 54.8 24.385 21.869-8.4 32.786-32.936 24.388-54.802" fill="#21c8ad"/></g><g transform="translate(380.22 459.35)"><path d="m 0,0 -30.414,-79.189 c 21.867,-8.399 46.403,2.521 54.802,24.387 C 32.786,-32.937 21.869,-8.4 0,0" fill="#1db39a"/></g><g transform="translate(325.42 434.96)"><path d="m0 0c-0.341-0.89-0.639-1.78-0.917-2.679 9.286 20.113 32.712 29.842 53.69 21.783l2.028 5.282c-21.865 8.399-46.402-2.52-54.801-24.386" fill="#1dae97"/></g><g transform="translate(380.22 459.35)"><path d="m0 0-2.027-5.281c20.979-8.059 31.87-30.966 25.303-52.125 0.394 0.854 0.771 1.717 1.112 2.604 8.398 21.865-2.519 46.402-24.388 54.802" fill="#1ba28c"/></g><g transform="translate(361.54 446.89)"><path d="m0 0c-0.981-2.555-3.851-3.831-6.406-2.849-2.559 0.982-3.835 3.85-2.855 6.407 0.983 2.558 3.853 3.833 6.409 2.852 2.557-0.982 3.835-3.852 2.852-6.41" fill="#fff"/></g><g transform="translate(347.93 443.97)"><path d="m0 0c-0.521-1.362-2.051-2.043-3.412-1.521-1.362 0.524-2.041 2.053-1.519 3.417 0.523 1.358 2.051 2.039 3.414 1.518 1.362-0.523 2.039-2.053 1.517-3.414" fill="#fff"/></g></g></g></svg>
