<svg width="202" height="202" viewBox="0 0 202 202" fill="none" xmlns="http://www.w3.org/2000/svg">
  <path d="M101 0L114.588 15.2094L132.211 4.94329L140.434 23.6072L160.366 19.2893L162.419 39.5807L182.711 41.6337L178.393 61.5664L197.057 69.7893L186.791 87.4121L202 101L186.791 114.588L197.057 132.211L178.393 140.434L182.711 160.366L162.419 162.419L160.366 182.711L140.434 178.393L132.211 197.057L114.588 186.791L101 202L87.4121 186.791L69.7893 197.057L61.5664 178.393L41.6337 182.711L39.5807 162.419L19.2893 160.366L23.6072 140.434L4.94329 132.211L15.2094 114.588L0 101L15.2094 87.4121L4.94329 69.7893L23.6072 61.5664L19.2893 41.6337L39.5807 39.5807L41.6337 19.2893L61.5664 23.6072L69.7893 4.94329L87.4121 15.2094L101 0Z" fill="#E7F2DF"/>
  <path d="M161.931 28.7915C158.639 45.253 145.975 48.3575 140.055 47.8521V35.506C143.737 35.7226 152.4 35.2894 152.617 25.9757C152.834 16.662 158.249 14.0628 163.23 14.2794C168.212 14.496 178.176 26.1923 175.577 41.3542C172.977 56.5161 165.613 65.6132 150.235 80.7751C137.932 92.9046 142.942 100.774 146.986 103.518C146.336 106.55 140.704 111.749 136.372 110.666C119.738 103.735 129.441 88.7171 136.372 82.0747C143.953 71.8946 178.392 51.7509 161.931 28.7915Z" fill="#DA960C"/>
  <mask id="mask0_774_32844" style="mask-type:alpha" maskUnits="userSpaceOnUse" x="127" y="14" width="49" height="97">
    <path d="M161.931 28.7915C158.639 45.253 145.975 48.3575 140.055 47.8521V35.506C143.737 35.7226 152.4 35.2894 152.617 25.9757C152.834 16.662 158.249 14.0628 163.23 14.2794C168.212 14.496 178.176 26.1923 175.577 41.3542C172.977 56.5161 165.613 65.6132 150.235 80.7751C137.932 92.9046 142.942 100.774 146.986 103.518C146.336 106.55 140.704 111.749 136.372 110.666C119.738 103.735 129.441 88.7171 136.372 82.0747C143.953 71.8946 178.392 51.7509 161.931 28.7915Z" fill="#222222"/>
  </mask>
  <g mask="url(#mask0_774_32844)">
    <path d="M177.96 26.4089C162.192 38.1918 150.885 33.4844 147.203 29.6579L156.517 8.6478C170.235 9.65859 193.728 14.6259 177.96 26.4089Z" fill="#FAD94F"/>
  </g>
  <path d="M40.7526 28.7915C44.0449 45.253 56.7086 48.3575 62.629 47.8521V35.506C58.9468 35.7226 50.2831 35.2894 50.0665 25.9757C49.8499 16.662 44.4349 14.0628 39.4532 14.2794C34.4714 14.496 24.5079 26.1923 27.1071 41.3542C29.7062 56.5161 37.0706 65.6132 52.4491 80.7751C64.7519 92.9046 59.7412 100.774 55.6981 103.518C56.3479 106.55 61.9794 111.749 66.3112 110.666C82.9459 103.735 73.2423 88.7171 66.3112 82.0747C58.7304 71.8946 24.2913 51.7509 40.7526 28.7915Z" fill="#DA960C"/>
  <mask id="mask1_774_32844" style="mask-type:alpha" maskUnits="userSpaceOnUse" x="26" y="14" width="50" height="97">
    <path d="M40.7526 28.7915C44.0449 45.253 56.7086 48.3575 62.629 47.8521V35.506C58.9468 35.7226 50.2831 35.2894 50.0665 25.9757C49.8499 16.662 44.4349 14.0628 39.4532 14.2794C34.4714 14.496 24.5079 26.1923 27.1071 41.3542C29.7062 56.5161 37.0706 65.6132 52.4491 80.7751C64.7519 92.9046 59.7412 100.774 55.6981 103.518C56.3479 106.55 61.9794 111.749 66.3112 110.666C82.9459 103.735 73.2423 88.7171 66.3112 82.0747C58.7304 71.8946 24.2913 51.7509 40.7526 28.7915Z" fill="#222222"/>
  </mask>
  <g mask="url(#mask1_774_32844)">
    <path d="M53.8462 26.6255C44.8357 50.0181 31.6088 55.8663 26.1216 55.8663L20.2734 48.7185L30.8868 2.36645C42.2943 0.705859 62.8567 3.23284 53.8462 26.6255Z" fill="#FAD94F"/>
  </g>
  <path d="M101.131 169.06H64.8945C64.8945 157.182 72.5543 153.623 76.3841 153.328H101.131V169.06Z" fill="#66221F"/>
  <path d="M100.85 169.06H137.087C137.087 157.182 129.427 153.623 125.597 153.328H100.85V169.06Z" fill="#66221F"/>
  <mask id="mask2_774_32844" style="mask-type:alpha" maskUnits="userSpaceOnUse" x="64" y="153" width="74" height="17">
    <path d="M101.131 169.06H64.8945C64.8945 157.182 72.5543 153.623 76.3841 153.328H101.131V169.06Z" fill="#C4C4C4"/>
    <path d="M100.85 169.06H137.087C137.087 157.182 129.427 153.623 125.597 153.328H100.85V169.06Z" fill="#C4C4C4"/>
  </mask>
  <g mask="url(#mask2_774_32844)">
    <path d="M106.681 172.53C124.009 166.119 122.72 154.563 120.41 150.087L49.2926 145.321L48.8594 172.396C53.9133 174.779 89.3532 178.941 106.681 172.53Z" fill="#85361D"/>
    <path d="M98.6811 171.53C116.009 165.119 115.72 154.563 113.41 150.087L62.2926 145.321L61.8594 172.396C66.9133 174.779 81.3532 177.941 98.6811 171.53Z" fill="#9C4429"/>
  </g>
  <path d="M89.0171 143.589C91.0964 138.91 90.1723 133.264 89.4503 131.026L101.147 129.293V143.589C96.237 145.538 86.9377 148.267 89.0171 143.589Z" fill="#D89305"/>
  <path d="M113.276 143.589C111.197 138.91 112.121 133.264 112.843 131.026L101.147 129.293V143.589C106.056 145.538 115.355 148.267 113.276 143.589Z" fill="#D89305"/>
  <mask id="mask3_774_32844" style="mask-type:alpha" maskUnits="userSpaceOnUse" x="88" y="129" width="26" height="18">
    <path d="M89.0171 143.589C91.0964 138.91 90.1723 133.264 89.4503 131.026L101.147 129.293V143.589C96.237 145.538 86.9377 148.267 89.0171 143.589Z" fill="#222222"/>
    <path d="M113.276 143.589C111.197 138.91 112.121 133.264 112.843 131.026L101.147 129.293V143.589C106.056 145.538 115.355 148.267 113.276 143.589Z" fill="#222222"/>
  </mask>
  <g mask="url(#mask3_774_32844)">
    <path d="M110.811 131.026C106.479 139.517 92.8336 139.04 86.5522 137.741L79.6211 129.51C91.8228 126.477 115.143 122.535 110.811 131.026Z" fill="#FAD74A"/>
  </g>
  <path d="M100.993 126.694C139.115 116.471 143.591 57.4546 141.064 29.2246H100.993V126.694Z" fill="url(#paint0_linear_774_32844)"/>
  <path d="M101.21 126.694C63.0885 116.471 58.6121 57.4546 61.1391 29.2246H101.21V126.694Z" fill="url(#paint1_linear_774_32844)"/>
  <mask id="mask4_774_32844" style="mask-type:alpha" maskUnits="userSpaceOnUse" x="60" y="29" width="82" height="98">
    <path d="M100.993 126.694C139.115 116.471 143.591 57.4546 141.064 29.2246H100.993V126.694Z" fill="#E19905"/>
    <path d="M101.21 126.694C63.0885 116.471 58.6121 57.4546 61.1391 29.2246H101.21V126.694Z" fill="#E19905"/>
  </mask>
  <g mask="url(#mask4_774_32844)">
    <path d="M60.561 110.232C110.639 113.871 122.003 55.8663 121.425 26.4089L21.1401 16.2287C13.4147 46.0471 10.4834 106.594 60.561 110.232Z" fill="#FAD74A"/>
    <path d="M49.561 99.2325C99.6386 102.871 111.003 44.8663 110.425 15.4089L10.1401 5.22873C2.41471 35.0471 -0.516586 95.5936 49.561 99.2325Z" fill="#FFE371"/>
  </g>
  <path d="M101.143 153.328H77.457C77.457 145.587 82.4638 143.268 84.9673 143.076H101.143V153.328Z" fill="#CF231C"/>
  <path d="M100.862 153.328H124.548C124.548 145.587 119.541 143.268 117.038 143.076H100.862V153.328Z" fill="#CF231C"/>
  <mask id="mask5_774_32844" style="mask-type:alpha" maskUnits="userSpaceOnUse" x="77" y="143" width="48" height="11">
    <path d="M101.143 153.328H77.457C77.457 145.587 82.4638 143.268 84.9673 143.076H101.143V153.328Z" fill="#C4C4C4"/>
    <path d="M100.862 153.328H124.548C124.548 145.587 119.541 143.268 117.038 143.076H100.862V153.328Z" fill="#C4C4C4"/>
  </mask>
  <g mask="url(#mask5_774_32844)">
    <path d="M104.5 154.5C116.5 153.992 116.667 144.788 117 140.558L91.25 134L75 145V156C78.6667 155.506 92.5 155.008 104.5 154.5Z" fill="#EF4D46"/>
    <path d="M95.2177 154.202C105.614 153.682 108.791 144.888 109.08 140.556L86.7703 133.842L72.6914 145.105V156.368C75.8682 155.863 84.8209 154.722 95.2177 154.202Z" fill="#FB7F51"/>
  </g>
  <rect x="83.957" y="122.795" width="34.6558" height="8.66394" rx="4.33197" fill="#9C4429"/>
  <path d="M60.2555 20.765L62.7673 27.1338L69.1361 29.6456L62.7673 32.1574L60.2555 38.5261L57.7437 32.1574L51.375 29.6456L57.7437 27.1338L60.2555 20.765Z" fill="white"/>
  <defs>
    <linearGradient id="paint0_linear_774_32844" x1="134" y1="115.5" x2="101" y2="84.4999" gradientUnits="userSpaceOnUse">
      <stop stop-color="#D69D0F"/>
      <stop offset="1" stop-color="#FBC339"/>
    </linearGradient>
    <linearGradient id="paint1_linear_774_32844" x1="134" y1="115.5" x2="101" y2="84.4999" gradientUnits="userSpaceOnUse">
      <stop stop-color="#D69D0F"/>
      <stop offset="1" stop-color="#FBC339"/>
    </linearGradient>
  </defs>
</svg>
